<svg width="127" height="63" viewBox="0 0 127 63" fill="none" xmlns="http://www.w3.org/2000/svg">
<path fill-rule="evenodd" clip-rule="evenodd" d="M59.8828 54.6783L61.4806 49.2686L66.0217 54.0125L75.0197 53.0138L68.7127 56.6757L73.0855 61.2532L64.3398 59.0893L57.36 63.0009L58.9578 57.7577L50.8848 55.5938L59.8828 54.6783Z" fill="#23262A"/>
<path fill-rule="evenodd" clip-rule="evenodd" d="M14.9777 42.3614L15.9869 38.6162L19.4347 41.9453L26.6668 41.1962L21.3689 44.1924L24.8167 47.5215L18.4256 45.7737L13.3799 48.6866L14.3891 44.8582L8.08203 43.1937L14.9777 42.3614Z" fill="#23262A"/>
<path fill-rule="evenodd" clip-rule="evenodd" d="M33.5623 51.6832L34.6555 47.0225L38.8602 51.0173L46.9332 49.9354L41.4671 53.2645L45.4195 57.1761L38.0192 55.3451L32.0486 59.0903L33.0577 54.2632L26.2461 52.6819L33.5623 51.6832Z" fill="#23262A"/>
<path fill-rule="evenodd" clip-rule="evenodd" d="M92.8502 52.9308L96.4662 46.9385L100.082 53.014H110.762L102.1 56.4263L105.632 62.3354L96.2139 58.6734L87.3 62.169L90.7478 56.5095L81.918 53.014L92.8502 52.9308Z" fill="#23262A"/>
<path fill-rule="evenodd" clip-rule="evenodd" d="M85.9531 39.2825V29.8779H88.1396V33.5399H95.2034V29.8779H97.3899V39.2825H95.2034V35.2877H88.1396V39.2825H85.9531Z" fill="#23262A"/>
<path fill-rule="evenodd" clip-rule="evenodd" d="M77.1213 34.2889L83.4283 29.8779H80.2327L74.9348 33.7896L74.8507 29.8779H72.6643V33.7896L67.3664 29.8779H64.1708L70.4778 34.2889L63.498 39.2825H66.6936L72.6643 34.8715V39.2825H74.8507L74.9348 34.8715L80.9055 39.2825H84.101L77.1213 34.2889Z" fill="#23262A"/>
<path fill-rule="evenodd" clip-rule="evenodd" d="M49.623 39.2825V29.8779H51.5572L51.6413 36.3696L59.2938 29.8779H60.8916V39.2825H58.9575L58.8734 32.7076L51.2208 39.2825H49.623Z" fill="#23262A"/>
<path fill-rule="evenodd" clip-rule="evenodd" d="M35.1602 39.2825V29.8779H37.3466V33.5399H44.4105V29.8779H46.5969V39.2825H44.4105V35.2877H37.3466V39.2825H35.1602Z" fill="#23262A"/>
<path fill-rule="evenodd" clip-rule="evenodd" d="M114.715 39.1986V29.7939H116.733L116.817 36.3689L124.47 29.7939H126.068V39.1986H124.133L124.049 32.7069L116.313 39.1986H114.715Z" fill="#23262A"/>
<path fill-rule="evenodd" clip-rule="evenodd" d="M100.416 39.1986V29.7939H102.434V36.3689L110.171 29.7939H111.769V39.1986H109.75V32.7069L102.014 39.1986H100.416Z" fill="#23262A"/>
<path fill-rule="evenodd" clip-rule="evenodd" d="M6.48379 31.1258L0.933594 29.7941L6.98835 29.1283L7.7452 25.6328L10.9408 28.629L16.8273 27.8799L12.7067 30.2935L15.7341 33.2064L10.0998 31.958L5.81104 34.4548L6.48379 31.1258Z" fill="#23262A"/>
<path fill-rule="evenodd" clip-rule="evenodd" d="M77.1211 15.1465L83.0917 24.5511H71.1504L77.1211 15.1465Z" fill="#23262A"/>
<path fill-rule="evenodd" clip-rule="evenodd" d="M59.2118 15.0635H68.7144C69.303 15.0635 69.8076 15.5628 69.8076 16.1454V23.3861C69.8076 23.9687 69.303 24.4681 68.7144 24.4681H59.2118C58.6231 24.4681 58.1185 23.9687 58.1185 23.3861V16.1454C58.0345 15.4796 58.539 15.0635 59.2118 15.0635ZM60.0527 16.6448H67.7893V22.8868H60.0527V16.6448Z" fill="#23262A"/>
<path fill-rule="evenodd" clip-rule="evenodd" d="M84.1055 24.3841V14.9795H86.1237V21.5544L93.8604 14.9795H95.4581V24.3841H93.524L93.4399 17.8924L85.7033 24.3841H84.1055Z" fill="#23262A"/>
<path fill-rule="evenodd" clip-rule="evenodd" d="M50.3805 24.3841V16.644H46.1758V14.9795H56.8557V16.644H52.5669V24.3841H50.3805Z" fill="#23262A"/>
<path fill-rule="evenodd" clip-rule="evenodd" d="M123.291 28.0468H35.0762V16.1454C35.0762 15.5628 35.4966 15.0635 36.0012 15.0635H44.2424C44.747 15.0635 45.1674 15.5628 45.1674 16.1454V18.2261H43.0651V16.5616H37.0103V25.9662H122.197L123.291 28.0468Z" fill="#23262A"/>
<path fill-rule="evenodd" clip-rule="evenodd" d="M123.71 26.7152L121.356 22.3042H115.469L114.292 24.3849H112.105L117.403 15.0635H119.59L125.813 26.7152H123.71ZM116.478 20.6397L118.497 16.9777L120.431 20.6397H116.478Z" fill="#23262A"/>
<path fill-rule="evenodd" clip-rule="evenodd" d="M108.49 15.0627L108.406 22.8028H110.592V24.3841H99.3237C98.735 24.3841 98.2305 23.8847 98.2305 23.3022V14.9795H100.249V22.8028H106.472V14.9795H108.49V15.0627Z" fill="#23262A"/>
<path fill-rule="evenodd" clip-rule="evenodd" d="M12.4537 16.9767L7.49219 16.3941L10.94 18.3916L8.41722 20.8052L13.0424 19.7232L16.9948 22.0536L16.238 18.9742L20.779 17.8922L15.9016 17.3929L15.1447 14.3135L12.4537 16.9767Z" fill="#23262A"/>
<path fill-rule="evenodd" clip-rule="evenodd" d="M24.48 7.48963L20.3594 6.74059L22.8822 8.6548L20.6117 10.4026L24.3959 9.81997L27.3392 11.9839L27.2551 9.32061L31.1234 8.6548L27.171 7.98899L27.0869 5.49219L24.48 7.48963Z" fill="#23262A"/>
<path fill-rule="evenodd" clip-rule="evenodd" d="M104.034 4.41029L104.791 5.0761L103.614 4.7432L102.689 5.40901L102.773 4.49352L101.68 4.24384L102.773 4.07738V3.24512L103.614 3.99416L104.791 3.8277L104.034 4.41029Z" fill="#23262A"/>
<path fill-rule="evenodd" clip-rule="evenodd" d="M37.8516 5.07518L40.038 3.5771L38.1879 1.91256L41.4676 2.6616L43.9904 0.99707L43.8222 3.24419L47.0178 4.07646L43.7381 4.49259L43.5699 6.73971L41.2994 4.65904L37.8516 5.07518Z" fill="#23262A"/>
<path fill-rule="evenodd" clip-rule="evenodd" d="M93.0179 2.41356L94.0271 3.32905L92.3452 2.82969L91.0838 3.82841L91.1679 2.58001L89.7383 2.16388L91.252 1.99742V0.749023L92.4293 1.83097L94.0271 1.66452L93.0179 2.41356Z" fill="#23262A"/>
<path fill-rule="evenodd" clip-rule="evenodd" d="M73.7578 1.83001L75.3556 1.33065L74.7669 -0.000976562L76.617 0.914516L78.5512 0.33193L77.7943 1.4971L79.4762 2.32937L77.3738 2.16292L76.3647 3.57777L75.6079 1.99646L73.7578 1.83001Z" fill="#23262A"/>
<path fill-rule="evenodd" clip-rule="evenodd" d="M56.7734 2.32937L58.8758 1.66356L58.0348 -0.000976562L60.4736 1.08097L62.9123 0.248703L61.9873 1.83001L64.0896 2.7455L61.4827 2.66228L60.4736 4.49326L59.3804 2.49582L56.7734 2.32937Z" fill="#23262A"/>
</svg>
