<svg width="207" height="84" viewBox="0 0 207 84" fill="none" xmlns="http://www.w3.org/2000/svg">
<g clip-path="url(#clip0_349_29000)">
<path d="M34.9688 69.3425C37.5831 69.6687 37.6921 67.4664 37.7193 65.4544L37.801 59.8262H46.5429V71.6264H43.7651V62.1101H40.4426L40.3609 66.2157C40.3065 68.4996 39.9524 72.3061 34.9688 71.5992V69.3425Z" fill="white"/>
<path d="M57.5457 65.7264C57.5457 64.6932 57.4367 61.7839 54.5773 61.7839C52.6709 61.7839 51.6088 63.0346 51.6088 65.7264C51.6088 68.7988 53.025 69.6688 54.5773 69.6688C57.4095 69.6688 57.5457 66.7324 57.5457 65.7264ZM48.5859 65.7264C48.5859 62.9802 49.8931 59.5 54.55 59.5C58.6078 59.5 60.5141 62.1646 60.5141 65.7264C60.5141 69.2882 58.6078 71.9527 54.55 71.9527C49.9204 71.9527 48.5859 68.4725 48.5859 65.7264Z" fill="white"/>
<path d="M66.2312 56.9443C66.2312 57.5153 66.6397 58.0591 67.7018 58.0591C68.7639 58.0591 69.1451 57.5153 69.1724 56.9443H71.0515C70.8881 59.1467 68.2737 59.2826 67.7018 59.2826C66.8303 59.2826 64.4883 59.0379 64.3521 56.9443H66.2312ZM70.0438 59.8264H72.8216V71.6266H70.0438V63.932L65.3325 71.6266H62.5547V59.8264H65.3325V67.4394L70.0438 59.8264Z" fill="white"/>
<path d="M207 52.4039V79.2126L0 78.9679L0.0272333 52.1592L207 52.4039Z" fill="#1D1D1B"/>
<path d="M183.172 67.2217L200.601 67.2489L200.574 84.6501H183.145L183.172 67.2217Z" fill="#FBBB00"/>
<path d="M164.136 59.8262H167.404L162.666 65.2097L167.676 71.6264H164.272L160.078 65.8622H160.051V71.6264H157.246V59.8262H160.051V64.7746H160.078L164.136 59.8262Z" fill="white"/>
<path d="M154.657 64.5299V66.6779H148.883V69.3425H155.583V71.6264H146.078V59.8262H155.419V62.1373H148.883V64.5299H154.657Z" fill="white"/>
<path d="M131.918 69.3425C134.532 69.6687 134.641 67.4664 134.669 65.4544L134.75 59.8262H143.492V71.6264H140.714V62.1101H137.392L137.31 66.2157C137.256 68.4996 136.874 72.3061 131.918 71.5992V69.3425Z" fill="white"/>
<path d="M123.122 71.6264H120.344V59.8262H130.366V71.6264H127.588V62.1373H123.122V71.6264Z" fill="white"/>
<path d="M107.11 63.1977H107.055V71.6264H104.277V59.8262H108.199L111.031 67.9286L113.836 59.8262H117.758V71.6264H114.98V63.1977H114.926L111.957 71.6264H110.078L107.11 63.1977Z" fill="white"/>
<path d="M86.2202 59.8262H89.5154L84.7768 65.2097L89.7878 71.6264H86.3564L82.1897 65.8622H82.1352V71.6264H79.3574V59.8262H82.1352V64.7746H82.1897L86.2202 59.8262Z" fill="white"/>
<path d="M30.6376 59.8262H33.4426V71.6264H30.6376V63.9318L25.9262 71.6264H23.1484V59.8262H25.9262V67.4392L30.6376 59.8262Z" fill="white"/>
<path d="M12.2016 66.2973H12.1472L8.47067 71.6264H5.09375L9.85957 65.3184L5.22992 59.8262H8.52514L12.1472 64.6387H12.2016V59.8262H14.9794V64.6387H15.0339L18.6287 59.8262H21.9239L17.2942 65.3184L22.0601 71.6264H18.6831L15.0339 66.2973H14.9794V71.6264H12.2016V66.2973Z" fill="white"/>
<path d="M179.357 67.4666C179.166 69.234 178.186 71.9801 173.992 71.9801C170.969 71.9801 168.191 70.5934 168.191 65.9712C168.191 59.7449 172.739 59.5273 173.883 59.5273C178.077 59.5273 179.139 62.1375 179.221 63.8776H176.498C176.252 61.92 174.673 61.8113 174.019 61.8113C173.366 61.8113 171.187 61.92 171.187 65.8625C171.187 68.092 172.195 69.6962 174.101 69.6962C176.007 69.6962 176.47 68.3639 176.579 67.4938H179.357V67.4666Z" fill="white"/>
<path d="M99.2644 65.7264C99.2644 64.6932 99.1555 61.7839 96.296 61.7839C94.3897 61.7839 93.3276 63.0346 93.3276 65.7264C93.3276 68.7988 94.7437 69.6688 96.296 69.6688C99.1283 69.6688 99.2644 66.7324 99.2644 65.7264ZM90.3047 65.7264C90.3047 62.9802 91.6119 59.5 96.2688 59.5C100.327 59.5 102.233 62.1646 102.233 65.7264C102.233 69.2882 100.327 71.9527 96.2688 71.9527C91.6391 71.9527 90.3047 68.4725 90.3047 65.7264Z" fill="white"/>
<path d="M0.898438 31.4678L18.355 31.495L18.3277 48.8962L0.898438 48.869V31.4678Z" fill="#FBBB00"/>
<path d="M163.127 12.1357H167.757L167.73 28.3406C167.73 31.5762 168.764 34.3223 170.807 36.6062C172.877 38.8901 175.355 40.0321 178.323 40.0321H185.159L185.186 12.1629H189.816L189.789 44.899H178.323C174.102 44.899 170.507 43.2676 167.539 40.0593C164.571 36.8509 163.073 32.9356 163.1 28.3406L163.127 12.1357Z" fill="#1D1D1B"/>
<path d="M143.167 12.0819V29.2656L155.204 12.1363H160.923L148.995 28.9393L160.405 44.8723H154.659L146.244 32.9633L143.139 37.3408V44.8451H138.51V37.3408L135.405 32.9633L126.99 44.8451L121.244 44.8179L132.682 28.9121L120.699 12.0819H126.418L138.537 29.2384V12.0547L143.167 12.0819Z" fill="#EE7D00"/>
<path d="M118.573 12.0811L118.546 44.8171H113.916L113.943 16.9208H107.081C104.085 16.9208 101.58 18.0083 99.5371 20.1835C97.4946 22.3858 96.4597 25.0504 96.4597 28.2587C96.4597 31.4671 97.4674 34.3492 99.4826 36.5787C101.525 38.8082 104.031 39.9502 107.053 39.9502H111.247V44.8171H107.053C102.941 44.8171 99.3737 43.1585 96.3508 39.8958C93.3551 36.6331 91.8301 32.745 91.8301 28.2587C91.8301 23.7725 93.3551 20.0476 96.3508 16.8664C99.3465 13.658 102.941 12.0811 107.081 12.0811H118.573Z" fill="#1D1D1B"/>
<path d="M47.8223 44.736L47.8767 12H55.1208C57.0816 12 58.9879 12.435 60.8398 13.2507C62.6916 14.0936 64.3256 15.2355 65.7417 16.7038V12.0272H72.9586C77.1253 12.0272 80.6928 13.6586 83.6885 16.9213C86.6841 20.184 88.182 24.0449 88.182 28.5312L88.1547 44.7904H83.5251L83.5523 28.5312C83.5523 25.2684 82.5447 22.5223 80.5022 20.32C78.4869 18.1176 75.9542 17.0029 72.9313 17.0029H70.3442L70.3169 44.7632H65.6873L65.7145 28.504C65.7145 25.2412 64.7069 22.4951 62.6916 20.2928C60.6764 18.0904 58.1437 16.9757 55.1208 16.9757H52.5064L52.4792 44.736H47.8223Z" fill="#1D1D1B"/>
<path d="M25.1913 24.3168L40.0334 24.344C39.2981 22.0873 37.9364 20.32 35.9484 18.9605C33.9604 17.6282 31.8089 16.9485 29.4124 16.9485H23.2305L23.2577 12H29.4397C33.5791 12 37.1739 13.6042 40.1696 16.7853C43.1924 19.9937 44.663 23.8274 44.663 28.2593C44.6358 32.6911 43.138 36.552 40.1151 39.8148C37.0922 43.0775 33.5246 44.7089 29.4124 44.7089H23.2305V39.7604H29.4124C32.3536 39.7604 34.8591 38.8088 36.9016 36.9055C38.9168 35.0022 40.1151 32.4736 40.4691 29.2925L25.164 29.2653L25.1913 24.3168Z" fill="#1D1D1B"/>
</g>
<defs>
<clipPath id="clip0_349_29000">
<rect width="207" height="84" fill="white"/>
</clipPath>
</defs>
</svg>
