<svg width="97" height="113" viewBox="0 0 97 113" fill="none" xmlns="http://www.w3.org/2000/svg">
<g clip-path="url(#clip0_349_29495)">
<path d="M15.0968 95.5501C14.6384 95.5655 14.3175 95.6268 14.1189 95.7036C13.9202 95.7803 13.7827 95.9491 13.7063 96.1793C13.6299 96.4095 13.5993 96.7779 13.5993 97.2843V107.321C13.5993 107.843 13.6452 108.211 13.7063 108.442C13.7827 108.687 13.9202 108.841 14.1341 108.933C14.3481 109.009 14.669 109.055 15.1121 109.055H15.708C15.6163 110.038 15.5705 110.912 15.5705 111.68C15.5705 112.232 15.5858 112.677 15.6316 113H15.1732C15.0357 112.125 14.8218 111.419 14.5314 110.912C14.2411 110.391 13.8591 110.022 13.416 109.807C12.9576 109.577 12.4075 109.47 11.7657 109.47H7.70109C7.42605 109.47 6.81483 109.454 5.85216 109.439C4.8895 109.424 4.1102 109.408 3.51426 109.408C2.0779 109.408 1.02356 109.424 0.335938 109.47V109.071C0.779069 109.055 1.09996 108.994 1.31388 108.917C1.51253 108.841 1.65005 108.672 1.72645 108.442C1.80286 108.211 1.83342 107.843 1.83342 107.337V97.2997C1.83342 96.7932 1.80286 96.4249 1.72645 96.1947C1.65005 95.9645 1.51253 95.811 1.31388 95.7189C1.11524 95.6268 0.79435 95.5808 0.335938 95.5655V95.1664C1.00828 95.2125 2.0779 95.2278 3.51426 95.2278C4.82838 95.2278 5.83688 95.2125 6.55506 95.1664V95.5655C6.09665 95.5808 5.77576 95.6422 5.57712 95.7189C5.37847 95.7957 5.24095 95.9645 5.16455 96.1947C5.08814 96.4249 5.05758 96.7932 5.05758 97.2997V107.337C5.05758 107.843 5.10342 108.211 5.17983 108.457C5.25623 108.702 5.40903 108.856 5.63824 108.948C5.86744 109.025 6.21889 109.071 6.69259 109.071H8.77072C9.24441 109.071 9.59586 109.025 9.82507 108.948C10.0543 108.856 10.2071 108.702 10.2835 108.457C10.3599 108.211 10.4057 107.843 10.4057 107.337V97.2997C10.4057 96.7932 10.3752 96.4249 10.2988 96.1947C10.2224 95.9645 10.0848 95.811 9.87091 95.7189C9.65698 95.6268 9.3361 95.5808 8.89296 95.5655V95.1664C9.59586 95.2125 10.6196 95.2278 11.9338 95.2278C13.3701 95.2278 14.4398 95.2125 15.1274 95.1664V95.5501H15.0968ZM25.4111 101.934C26.603 102.027 27.5809 102.241 28.3296 102.594C29.0937 102.947 29.6285 103.377 29.9799 103.884C30.3161 104.39 30.4842 104.942 30.4842 105.526C30.4842 106.354 30.2703 107.076 29.8118 107.659C29.3687 108.242 28.7269 108.687 27.9018 108.994C27.0766 109.301 26.0834 109.439 24.9374 109.439C24.6471 109.439 24.1581 109.424 23.4552 109.408C22.7523 109.393 22.0494 109.378 21.3465 109.378C19.9713 109.378 18.9322 109.393 18.2446 109.439V109.04C18.6877 109.025 19.0239 108.963 19.2225 108.887C19.4212 108.81 19.5587 108.641 19.6351 108.411C19.7115 108.181 19.7421 107.812 19.7421 107.306V97.269C19.7421 96.7625 19.7115 96.3942 19.6351 96.164C19.5587 95.9338 19.4212 95.7803 19.2225 95.6882C19.0239 95.5961 18.703 95.5501 18.2446 95.5348V95.1357C18.9169 95.1818 19.9407 95.1971 21.3007 95.1971C21.8355 95.1971 22.4314 95.1971 23.0885 95.1818C23.7455 95.1664 24.2039 95.1664 24.4637 95.1664C25.5486 95.1664 26.4501 95.3046 27.1989 95.5655C27.9476 95.8417 28.4977 96.21 28.8797 96.6858C29.2465 97.1615 29.4451 97.714 29.4451 98.3433C29.4451 98.8497 29.3076 99.3408 29.0173 99.8166C28.7269 100.292 28.2838 100.722 27.6726 101.09C27.0614 101.459 26.3126 101.735 25.4264 101.888V101.934H25.4111ZM23.8219 101.858C24.6929 101.858 25.3041 101.551 25.6556 100.968C26.007 100.369 26.1751 99.571 26.1751 98.5735C26.1751 97.5759 26.0223 96.8086 25.7014 96.3021C25.3805 95.811 24.8763 95.5501 24.1887 95.5501C23.8372 95.5501 23.5622 95.5961 23.3941 95.6882C23.226 95.7803 23.1037 95.9491 23.0426 96.1947C22.9815 96.4402 22.9509 96.7932 22.9509 97.2843V101.858H23.8219ZM22.9509 107.321C22.9509 107.812 22.9815 108.165 23.0579 108.396C23.1343 108.626 23.2565 108.779 23.4399 108.871C23.6233 108.963 23.9289 108.994 24.3262 108.994C26.1904 108.994 27.1225 107.812 27.1225 105.449C27.1225 104.39 26.8627 103.592 26.3279 103.039C25.7931 102.487 24.9527 102.211 23.7914 102.211H22.9509V107.321ZM44.4199 104.682C44.3741 105.127 44.3588 105.694 44.3588 106.385C44.3588 107.628 44.4046 108.641 44.4963 109.454C43.5795 109.408 42.0514 109.393 39.8816 109.393C36.9631 109.393 34.778 109.408 33.3263 109.454V109.055C33.7695 109.04 34.1056 108.979 34.3043 108.902C34.5029 108.825 34.6404 108.656 34.7168 108.426C34.7933 108.196 34.8238 107.828 34.8238 107.321V97.2843C34.8238 96.7779 34.7933 96.4095 34.7168 96.1793C34.6404 95.9491 34.5029 95.7957 34.3043 95.7036C34.1056 95.6115 33.7847 95.5655 33.3263 95.5501V95.1511C34.778 95.1971 36.9631 95.2125 39.8816 95.2125C41.8528 95.2125 43.2586 95.1971 44.0837 95.1511C43.9921 96.2561 43.9462 97.2536 43.9462 98.1438C43.9462 98.7423 43.9615 99.2027 44.0073 99.5096H43.5489C43.4114 98.5274 43.1975 97.7601 42.9224 97.1922C42.6474 96.6244 42.2806 96.2254 41.8528 95.9798C41.4249 95.7343 40.8901 95.6115 40.2484 95.6115H39.4232C39.0106 95.6115 38.705 95.6422 38.5064 95.7189C38.323 95.7957 38.2008 95.9184 38.1244 96.1179C38.0633 96.3175 38.0174 96.6244 38.0174 97.0541V102.057H38.6592C39.3774 102.057 39.9275 101.796 40.2942 101.259C40.6609 100.737 40.9207 100.108 41.0582 99.3869H41.5166C41.4708 100.047 41.4555 100.691 41.4555 101.29L41.4708 102.257C41.4708 102.947 41.5013 103.899 41.593 105.127H41.1346C40.8596 103.346 40.0497 102.456 38.6745 102.456H38.0327V107.551C38.0327 107.981 38.0633 108.303 38.1397 108.488C38.2008 108.687 38.3383 108.81 38.5217 108.887C38.705 108.948 39.0106 108.994 39.4385 108.994H40.4317C41.3791 108.994 42.1431 108.672 42.7238 108.012C43.3044 107.352 43.7323 106.247 43.9615 104.697H44.4199V104.682ZM47.5982 100.108C47.6441 99.6631 47.6593 99.1413 47.6593 98.5735C47.6593 97.6526 47.6135 96.5016 47.5065 95.1357C48.729 95.1818 50.8071 95.1971 53.7257 95.1971C56.6442 95.1971 58.7224 95.1818 59.9295 95.1357C59.8378 96.5016 59.792 97.6526 59.792 98.5735C59.792 99.1567 59.8073 99.6631 59.8531 100.108H59.3947C59.1808 98.9878 58.9057 98.0977 58.5848 97.4378C58.264 96.7779 57.8819 96.3175 57.4235 96.0259C56.9804 95.7343 56.4303 95.5962 55.7885 95.5962H55.3301V107.152C55.3301 107.705 55.3912 108.119 55.4982 108.38C55.6052 108.641 55.8191 108.81 56.1094 108.902C56.3997 108.994 56.8582 109.04 57.4846 109.055V109.454C55.7885 109.408 54.5203 109.393 53.6646 109.393C52.8088 109.393 51.5864 109.408 49.982 109.454V109.055C50.6085 109.055 51.0669 108.994 51.3572 108.902C51.6475 108.81 51.8462 108.641 51.9684 108.38C52.0754 108.119 52.1365 107.72 52.1365 107.152V95.5962H51.6934C51.0363 95.5962 50.5015 95.7343 50.0431 96.0259C49.6 96.3021 49.2027 96.7779 48.8818 97.4378C48.5609 98.0977 48.2858 98.9878 48.0566 100.124H47.5982V100.108ZM81.9639 95.5501C81.5054 95.5655 81.1846 95.6268 80.9859 95.7036C80.7873 95.7803 80.6497 95.9491 80.5733 96.1793C80.4969 96.4095 80.4664 96.7779 80.4664 97.2843V107.321C80.4664 107.828 80.4969 108.196 80.5733 108.426C80.6497 108.656 80.7873 108.81 80.9859 108.902C81.1846 108.979 81.5207 109.04 81.9639 109.055V109.454C81.2457 109.408 80.2372 109.393 78.9231 109.393C77.4867 109.393 76.4324 109.408 75.7447 109.454V109.055C76.1879 109.04 76.524 108.979 76.7227 108.902C76.9213 108.825 77.0588 108.656 77.1352 108.426C77.2116 108.196 77.2422 107.828 77.2422 107.321V97.2843C77.2422 96.7779 77.2116 96.4095 77.1352 96.1793C77.0588 95.9491 76.9213 95.7957 76.7227 95.7036C76.524 95.6115 76.2031 95.5655 75.7447 95.5501V95.1511C76.4171 95.1971 77.4867 95.2125 78.9231 95.2125C80.2372 95.2125 81.2457 95.1971 81.9639 95.1511V95.5501ZM68.5629 100.922C70.6105 100.922 72.0927 101.29 73.0095 102.042C73.9264 102.794 74.4001 103.776 74.4001 104.989C74.4001 105.817 74.2014 106.554 73.8041 107.229C73.4068 107.889 72.7803 108.426 71.9246 108.825C71.0689 109.224 69.984 109.424 68.6699 109.424C68.3796 109.424 67.9517 109.424 67.3558 109.408C66.7751 109.393 66.2098 109.393 65.6902 109.393C64.3608 109.393 63.3523 109.408 62.68 109.454V109.055C63.1231 109.04 63.444 108.979 63.6579 108.902C63.8566 108.825 63.9941 108.656 64.0705 108.426C64.1469 108.196 64.1775 107.828 64.1775 107.321V97.2843C64.1775 96.7779 64.1469 96.4095 64.0705 96.1793C63.9941 95.9491 63.8566 95.7957 63.6579 95.7036C63.4593 95.6115 63.1384 95.5655 62.68 95.5501V95.1511C63.3523 95.1971 64.4067 95.2125 65.8583 95.2125C67.2336 95.2125 68.3032 95.1971 69.0672 95.1511V95.5501C68.5629 95.5655 68.1962 95.6268 67.9823 95.7036C67.7684 95.7803 67.6003 95.9491 67.5239 96.1793C67.4475 96.4095 67.4016 96.7779 67.4016 97.2843V100.937L68.5629 100.922ZM67.3711 107.321C67.3711 107.812 67.4016 108.181 67.4628 108.411C67.5239 108.656 67.6308 108.825 67.7989 108.917C67.9517 109.009 68.2115 109.055 68.5477 109.055C69.4798 109.055 70.1215 108.733 70.5036 108.104C70.8703 107.475 71.0689 106.539 71.0689 105.295C71.0689 104.052 70.855 103.055 70.4424 102.364C70.0299 101.674 69.2964 101.336 68.2573 101.336L67.3864 101.351V107.321H67.3711Z" fill="#9A2821"/>
<path d="M85.4648 98.3279C86.7331 96.0566 88.7807 94.9209 91.577 94.9209C92.4785 94.9209 93.2426 95.059 93.8996 95.3353C94.5567 95.5962 95.0609 95.9952 95.4124 96.517C95.7638 97.0388 95.9319 97.6527 95.9319 98.3893C95.9319 99.4483 95.5652 100.384 94.8165 101.182C93.0286 103.132 90.9047 104.344 89.2697 106.155H94.5872C95.0609 106.155 95.4124 106.109 95.6416 106.047C95.8708 105.971 96.0389 105.848 96.1306 105.694C96.2222 105.526 96.2987 105.28 96.3292 104.942H96.8793C96.8793 107.091 96.9099 108.626 96.9863 109.547C96.589 109.455 95.2901 109.408 93.0898 109.408H85.4954V108.887C85.7399 108.626 86.4886 107.889 87.7416 106.707C88.9946 105.526 89.9878 104.313 90.7366 103.086C91.47 101.858 91.8521 100.599 91.8521 99.2948C91.8521 95.3813 87.8333 95.9031 85.9997 98.6656L85.4648 98.3279Z" fill="#72921C"/>
<path d="M3.42384 85.252V87.7383L0.856736 85.252H0.046875L2.14029 87.2625L0.046875 90.0863H0.780334L2.55286 87.6615L3.40856 88.4749V90.0863H4.09618V88.4749L4.95188 87.6615L6.72441 90.0863H7.45787L5.36446 87.2625L7.45787 85.252H6.64801L4.0809 87.7383V85.252H3.42384ZM9.74993 85.252V90.0863H10.6668L13.6923 85.958V90.0863H14.3493V85.252H13.4325L10.407 89.3804V85.252H9.74993ZM17.6041 85.252V87.6308C17.6041 88.9814 17.4971 89.6259 16.947 89.6259C16.8095 89.6259 16.6872 89.6106 16.6261 89.5952V90.1477C16.7789 90.1784 16.947 90.1938 17.0845 90.1938C17.7874 90.1938 18.2764 89.7334 18.2764 87.8457V85.8966H20.9963V90.1017H21.6839V85.2674H17.6041V85.252ZM24.2358 87.6615C24.2358 89.1962 25.229 90.2091 26.864 90.2091C28.499 90.2091 29.5075 89.1962 29.5075 87.6615C29.5075 86.1268 28.5143 85.1139 26.8793 85.1139C25.229 85.1293 24.2358 86.1268 24.2358 87.6615ZM24.9539 87.6615C24.9539 86.4798 25.6568 85.7585 26.8793 85.7585C28.1017 85.7585 28.8046 86.4645 28.8046 87.6615C28.8046 88.8586 28.1017 89.5645 26.8793 89.5645C25.6568 89.5645 24.9539 88.8586 24.9539 87.6615ZM32.0593 85.252V90.0863H32.9761L36.0017 85.958V90.0863H36.6587V85.252H35.7419L32.7164 89.3804V85.252H32.0593ZM33.1595 83.9629C33.2206 84.6075 33.6026 84.9144 34.3208 84.9144C35.039 84.9144 35.4057 84.6075 35.4821 83.9629H35.0237C35.0084 84.2698 34.764 84.408 34.3208 84.408C33.8777 84.408 33.6332 84.2545 33.6179 83.9629H33.1595ZM42.3889 85.252H41.7013V90.0863H42.3889V88.4749L43.3363 87.6615L45.2921 90.0863H46.0867L43.7947 87.2625L46.0867 85.252H45.2157L42.4042 87.7383V85.252H42.3889ZM48.0885 87.6615C48.0885 89.1962 49.0817 90.2091 50.7167 90.2091C52.3517 90.2091 53.3602 89.1962 53.3602 87.6615C53.3602 86.1268 52.367 85.1139 50.732 85.1139C49.0817 85.1293 48.0885 86.1268 48.0885 87.6615ZM48.8066 87.6615C48.8066 86.4798 49.5095 85.7585 50.732 85.7585C51.9544 85.7585 52.6573 86.4645 52.6573 87.6615C52.6573 88.8586 51.9544 89.5645 50.732 89.5645C49.5095 89.5645 48.8066 88.8586 48.8066 87.6615ZM55.912 85.252V90.0863H56.5691V85.8352L58.4486 90.0863H59.1362L61.0462 85.8352V90.0863H61.7033V85.252H60.6948L58.7847 89.4571L56.9205 85.252H55.912ZM64.5302 85.252V90.0863H65.2178V85.8813H68.1516V90.0863H68.8392V85.252H64.5302ZM72.0787 85.252V87.6308C72.0787 88.9814 71.9717 89.6259 71.4216 89.6259C71.2841 89.6259 71.1619 89.6106 71.1007 89.5952V90.1477C71.2536 90.1784 71.4216 90.1938 71.5592 90.1938C72.2621 90.1938 72.751 89.7334 72.751 87.8457V85.8966H75.4709V90.1017H76.1586V85.2674H72.0787V85.252ZM78.9702 90.0863H82.8361V89.4571H79.6425V87.9378H82.5916V87.3085H79.6425V85.8966H82.7903V85.2674H78.9702V90.0863ZM86.1214 85.252H85.4338V90.0863H86.1214V88.4749L87.0688 87.6615L89.0247 90.0863H89.8345L87.5425 87.2625L89.8345 85.252H88.9635L86.1519 87.7383V85.252H86.1214ZM96.8941 88.214H96.1912C96.0842 89.0274 95.4119 89.5645 94.4645 89.5645C93.2421 89.5645 92.5392 88.8586 92.5392 87.6615C92.5392 86.4645 93.2421 85.7585 94.4645 85.7585C95.3813 85.7585 96.0078 86.2189 96.1453 87.0016H96.8482C96.7565 85.8813 95.8092 85.1139 94.4645 85.1139C92.8142 85.1139 91.821 86.1268 91.821 87.6615C91.821 89.1962 92.8142 90.2091 94.4492 90.2091C95.8244 90.2091 96.7718 89.4264 96.8941 88.214Z" fill="#9A2821"/>
<path d="M72.75 40.1015V24.3555H97V73.0669H96.9389C90.3683 67.8489 81.9794 64.7334 72.8417 64.7334H72.75V62.4621C79.397 55.4945 83.0031 46.7161 83.5227 37.8608C79.8859 38.0757 76.2492 38.8277 72.75 40.1015Z" fill="#5A7719"/>
<path d="M83.5227 37.8613C83.0031 46.7165 79.4123 56.6768 72.7653 63.6443L72.75 40.1173C76.2492 38.8282 79.8859 38.0762 83.5227 37.8613Z" fill="#72921C"/>
<path d="M24.25 40.1015V24.3555H0V73.0669H0.0611216C6.63169 67.8489 15.0206 64.7334 24.1583 64.7334H24.25V62.4621C17.603 55.4945 13.9968 46.7161 13.4773 37.8608C17.1141 38.0757 20.7508 38.8277 24.25 40.1015Z" fill="#8CB920"/>
<path d="M13.4766 37.8613C13.9961 46.7165 17.6023 56.6768 24.2492 63.6443V40.102C20.75 38.8282 17.1133 38.0762 13.4766 37.8613Z" fill="#A3C51E"/>
<path d="M48.5156 0H24.2656V73.0671H48.5156V0Z" fill="#E9580C"/>
<path d="M72.7344 0H48.4844V73.0671H72.7344V0Z" fill="#F7AB08"/>
<path d="M57.7915 48.6962L57.7762 48.7116C57.7762 48.6655 57.7915 48.6195 57.7915 48.5888C57.7915 39.442 53.7117 31.0318 48.5469 24.4326V48.7269C61.9172 48.7269 72.7663 59.6233 72.7663 73.0673V40.1019C67.8002 41.9129 61.8714 44.7674 57.7915 48.6962Z" fill="#FFD504"/>
<path d="M72.9948 63.6445H72.7656V65.0258V73.0829H96.9698C90.4298 67.865 82.0867 63.6752 72.9948 63.6445Z" fill="#72921C"/>
<path d="M23.9438 63.6445C14.8825 63.7059 6.58528 67.8957 0.0605469 73.0676H24.2494V63.6445H23.9438Z" fill="#A3C51E"/>
<path d="M48.5463 24.3867C48.531 24.3867 48.531 24.4021 48.5156 24.4021C48.531 24.4175 48.531 24.4329 48.5463 24.4329V24.3867Z" fill="#ED7302"/>
<path d="M48.4997 24.3867L48.4844 24.4329C48.4997 24.4175 48.4997 24.4021 48.515 24.4021C48.515 24.3919 48.5099 24.3867 48.4997 24.3867Z" fill="#ED7302"/>
<path d="M48.5455 24.433C48.5302 24.4177 48.5302 24.4023 48.5149 24.4023C48.4997 24.4177 48.4997 24.433 48.4844 24.433V48.7734H48.5455V24.433Z" fill="#ED7302"/>
<path d="M48.4851 48.7269L48.5003 24.4326C43.3356 31.0318 39.1487 39.4266 39.1487 48.5888C39.1487 48.6348 39.164 48.6962 39.164 48.7423L39.1487 48.7269C35.0689 44.7827 29.247 41.9129 24.2656 40.1019V73.0673L24.3573 73.0826V73.0673H24.3115C24.2962 59.6387 35.13 48.7576 48.4851 48.7269Z" fill="#ED7302"/>
<path d="M24.2969 73.0669H48.4858V48.7266C35.1307 48.7573 24.2969 59.6383 24.2969 73.0669Z" fill="#F29301"/>
<path d="M48.515 48.7727H48.5457V48.7266H48.4844V48.7573C48.4997 48.7727 48.515 48.7727 48.515 48.7727Z" fill="#FFEB08"/>
<path d="M48.4844 48.7727L48.4997 48.7266H48.4844V48.7727Z" fill="#FFEB08"/>
<path d="M48.5455 48.7266V48.7726H48.4844V73.0669V73.0823H72.7038L72.7649 73.0669C72.7649 59.6229 61.9159 48.7419 48.5455 48.7266Z" fill="#FFEB08"/>
</g>
<defs>
<clipPath id="clip0_349_29495">
<rect width="97" height="113" fill="white"/>
</clipPath>
</defs>
</svg>
