<svg width="207" height="95" viewBox="0 0 207 95" fill="none" xmlns="http://www.w3.org/2000/svg">
<path d="M96.8301 91.6377H95.1895V92.2865H96.8301V91.6377Z" fill="#E05911"/>
<path d="M178.733 91.2055H179.553C180.136 91.2055 180.222 90.8162 180.222 90.5566C180.222 90.1457 180.006 89.9727 179.445 89.9727H178.733V91.2055ZM178.733 93.4548H177.848V89.2373H179.791C180.611 89.2373 181.107 89.7564 181.107 90.5783C181.107 90.9459 180.891 91.9192 179.747 91.9192H178.733V93.4548Z" fill="#E05911"/>
<path d="M176.077 93.4548H175.192V89.9727H173.918V89.2373H177.35V89.9727H176.077V93.4548Z" fill="#E05911"/>
<path d="M170.875 90.8378H172.537V89.2373H173.423V93.4548H172.537V91.5515H170.875V93.4548H170.012V89.2373H170.875V90.8378Z" fill="#E05911"/>
<path d="M169.234 89.2373V89.9727H166.989V90.8378H169.039V91.5515H166.989V92.7195H169.32V93.4548H166.104V89.2373H169.234Z" fill="#E05911"/>
<path d="M162.606 92.7195H164.268V89.2373H165.153V92.7195H165.563V94.3416H164.743V93.4548H161.721V89.2373H162.606V92.7195Z" fill="#E05911"/>
<path d="M154.878 93.4548H153.993V89.2373H154.878V93.4548ZM150.69 92.7195H151.683C152.115 92.7195 152.352 92.4599 152.352 92.1139C152.352 91.7462 152.071 91.5515 151.683 91.5515H150.69V92.7195ZM150.69 90.8378H151.791C152.611 90.8378 153.237 91.3353 153.237 92.1571C153.237 92.979 152.633 93.4332 151.769 93.4332H149.783V89.2373H150.668V90.8378H150.69Z" fill="#E05911"/>
<path d="M146.459 90.8378H148.122V89.2373H149.007V93.4548H148.122V91.5515H146.459V93.4548H145.574V89.2373H146.459V90.8378Z" fill="#E05911"/>
<path d="M142.358 92.7195H143.351C143.782 92.7195 144.02 92.4599 144.02 92.1139C144.02 91.7462 143.739 91.5515 143.351 91.5515H142.358V92.7195ZM142.358 90.8378H143.459C144.279 90.8378 144.905 91.3353 144.905 92.1571C144.905 92.979 144.301 93.4332 143.437 93.4332H141.473V89.2373H142.358V90.8378Z" fill="#E05911"/>
<path d="M140.653 89.2373V93.4548H139.767V89.9727H138.559V91.7678C138.559 92.8492 138.3 93.563 137.458 93.563C137.263 93.563 137.069 93.5413 136.918 93.4981V92.8276C136.961 92.8492 137.069 92.8709 137.177 92.8709C137.566 92.8709 137.674 92.5897 137.674 91.6813V89.2373H140.653Z" fill="#E05911"/>
<path d="M136.486 89.2373V89.9727H134.241V90.8378H136.291V91.5515H134.241V92.7195H136.572V93.4548H133.355V89.2373H136.486Z" fill="#E05911"/>
<path d="M126.966 91.8543H128.11L127.527 90.1889H127.506L126.966 91.8543ZM128.024 89.2373L129.513 93.4548H128.563L128.283 92.5897H126.729L126.426 93.4548H125.498L127.009 89.2373H128.024Z" fill="#E05911"/>
<path d="M131.586 93.4548H130.701V89.9727H129.428V89.2373H132.86V89.9727H131.586V93.4548Z" fill="#E05911"/>
<path d="M122.477 90.9459L124.096 89.2373H125.24L123.513 90.9676L125.348 93.4548H124.204L122.909 91.5948L122.477 92.0274V93.4548H121.613V89.2373H122.477V90.9459Z" fill="#E05911"/>
<path d="M120.835 89.2373V89.9727H118.59V90.8378H120.641V91.5515H118.59V92.7195H120.922V93.4548H117.705V89.2373H120.835Z" fill="#E05911"/>
<path d="M116.885 89.2373V93.4548H116V89.9727H114.813V91.7678C114.813 92.8492 114.553 93.563 113.712 93.563C113.517 93.563 113.323 93.5413 113.172 93.4981V92.8276C113.215 92.8492 113.323 92.8709 113.431 92.8709C113.819 92.8709 113.927 92.5897 113.927 91.6813V89.2373H116.885Z" fill="#E05911"/>
<path d="M110.17 92.7195H111.25C111.681 92.7195 111.94 92.5248 111.94 92.0922C111.94 91.7246 111.617 91.5732 111.293 91.5732H110.17V92.7195ZM110.17 90.8811H111.207C111.552 90.8811 111.833 90.7513 111.833 90.4052C111.833 90.0592 111.595 89.951 111.185 89.951H110.17V90.8811ZM109.285 89.2373H111.379C112.415 89.2373 112.674 89.8862 112.674 90.3187C112.674 90.9243 112.329 91.0973 112.156 91.1839C112.674 91.3785 112.804 91.7894 112.804 92.2004C112.804 92.5681 112.674 93.4548 111.099 93.4548H109.264V89.2373H109.285Z" fill="#E05911"/>
<path d="M102.271 91.8543H103.415L102.832 90.1889H102.81L102.271 91.8543ZM103.328 89.2373L104.818 93.4548H103.868L103.587 92.5897H102.033L101.731 93.4548H100.803L102.314 89.2373H103.328Z" fill="#E05911"/>
<path d="M98.3636 91.2055H99.1839C99.7668 91.2055 99.8531 90.8162 99.8531 90.5566C99.8531 90.1457 99.6156 89.9727 99.076 89.9727H98.3636V91.2055ZM98.3636 93.4548H97.4785V89.2373H99.4214C100.242 89.2373 100.738 89.7564 100.738 90.5783C100.738 90.9459 100.522 91.9192 99.3782 91.9192H98.3636V93.4548Z" fill="#E05911"/>
<path d="M87.4399 92.7195H88.5192C88.951 92.7195 89.21 92.5248 89.21 92.0922C89.21 91.7246 88.8862 91.5732 88.584 91.5732H87.4615V92.7195H87.4399ZM87.4399 90.8811H88.476C88.8214 90.8811 89.1021 90.7513 89.1021 90.4052C89.1021 90.0592 88.8646 89.951 88.4545 89.951H87.4399V90.8811ZM86.5548 89.2373H88.6488C89.6849 89.2373 89.944 89.8862 89.944 90.3187C89.944 90.9243 89.5986 91.0973 89.4259 91.1839C89.944 91.3785 90.0735 91.7894 90.0735 92.2004C90.0735 92.5681 89.944 93.4548 88.3681 93.4548H86.5332V89.2373H86.5548Z" fill="#E05911"/>
<path d="M81.4167 89.2373V89.9727H79.2796V93.4548H78.3945V89.2373H81.4167Z" fill="#E05911"/>
<path d="M75.3519 91.2055H76.1722C76.755 91.2055 76.8198 90.8162 76.8198 90.5566C76.8198 90.1457 76.6039 89.9727 76.0427 89.9727H75.3303V91.2055H75.3519ZM75.3519 93.4548H74.4668V89.2373H76.4096C77.23 89.2373 77.7265 89.7564 77.7265 90.5783C77.7265 90.9459 77.5106 91.9192 76.3665 91.9192H75.3519V93.4548Z" fill="#E05911"/>
<path d="M68.0982 93.4548H67.2131V89.9727H65.9395V89.2373H69.3718V89.9727H68.0982V93.4548Z" fill="#E05911"/>
<path d="M105.207 90.4915C105.25 89.7994 105.769 89.1289 106.869 89.1289C108.035 89.1289 108.488 89.7778 108.488 90.232C108.488 90.7727 108.186 91.0755 107.755 91.2052C108.208 91.2917 108.64 91.6594 108.64 92.3083C108.64 92.9571 108.122 93.5411 106.934 93.5411C105.488 93.5411 105.164 92.8057 105.164 92.1352H105.984C105.984 92.5029 106.157 92.8273 106.913 92.8273C107.452 92.8273 107.776 92.5894 107.776 92.2218C107.776 91.7892 107.431 91.5945 106.999 91.5945H106.589V90.8808H106.977C107.388 90.8808 107.668 90.6861 107.668 90.3401C107.668 90.0157 107.388 89.8643 106.913 89.8643C106.33 89.8643 106.114 90.1022 106.071 90.4915H105.207Z" fill="#E05911"/>
<path d="M92.6425 92.8273C93.1174 92.8273 93.7866 92.5246 93.7866 91.3566C93.7866 90.1887 93.1174 89.8859 92.6425 89.8859C92.1676 89.8859 91.4984 90.1887 91.4984 91.3566C91.4984 92.5246 92.1676 92.8273 92.6425 92.8273ZM92.6425 89.1289C93.2037 89.1289 94.6717 89.3668 94.6717 91.335C94.6717 93.3032 93.2037 93.5411 92.6425 93.5411C92.0812 93.5411 90.6133 93.3032 90.6133 91.335C90.6133 89.3668 92.0812 89.1289 92.6425 89.1289Z" fill="#E05911"/>
<path d="M83.8573 92.8273C84.3322 92.8273 85.0014 92.5246 85.0014 91.3566C85.0014 90.1887 84.3322 89.8859 83.8573 89.8859C83.3824 89.8859 82.7132 90.1887 82.7132 91.3566C82.7132 92.5246 83.3824 92.8273 83.8573 92.8273ZM83.8573 89.1289C84.4186 89.1289 85.8865 89.3668 85.8865 91.335C85.8865 93.3032 84.4186 93.5411 83.8573 93.5411C83.2961 93.5411 81.8281 93.3032 81.8281 91.335C81.8281 89.3668 83.2961 89.1289 83.8573 89.1289Z" fill="#E05911"/>
<path d="M71.7677 92.8273C72.2426 92.8273 72.9118 92.5246 72.9118 91.3566C72.9118 90.1887 72.2426 89.8859 71.7677 89.8859C71.2928 89.8859 70.6236 90.1887 70.6236 91.3566C70.602 92.5246 71.2712 92.8273 71.7677 92.8273ZM71.7677 89.1289C72.329 89.1289 73.7969 89.3668 73.7969 91.335C73.7969 93.3032 72.329 93.5411 71.7677 93.5411C71.2064 93.5411 69.7385 93.3032 69.7385 91.335C69.7169 89.3668 71.2064 89.1289 71.7677 89.1289Z" fill="#E05911"/>
<path d="M157.469 88.4148C157.966 88.4148 158.009 88.1553 158.052 88.0039H158.441C158.419 88.2418 158.268 88.8474 157.469 88.8474C156.671 88.8474 156.52 88.2418 156.498 88.0039H156.887C156.93 88.1769 156.994 88.4148 157.469 88.4148ZM156.584 92.1782L158.29 89.2367H159.283V93.4542H158.398V90.4479H158.376L156.649 93.4542H155.699V89.2367H156.584V92.1782Z" fill="#E05911"/>
<path d="M131.586 86.1652H130.398V86.8573H136.767V86.1652H135.73V75.6106H138.472V86.1652H137.457V86.8573H143.804V86.1652H142.617V65.4237H143.804V64.71H137.457V65.4237H138.472V74.7455H135.73V65.4237H136.767V64.71H130.398V65.4237H131.586V86.1652Z" fill="#04559B"/>
<path d="M79.3456 64.71V65.4237H80.5329V84.8027C80.5329 86.1652 79.7989 86.1652 78.957 86.1652V86.879H82.8859V86.1652C81.8497 86.1652 81.31 86.1652 81.31 84.7594V68.7112H81.3532L84.3107 86.8573H86.1887L89.0382 68.7112H89.1462V86.1652H87.9373V86.879H94.435V86.1652H93.2477V65.4237H94.435V64.71H88.736L86.9659 77.0165H86.8579L84.7856 64.71H79.3456Z" fill="#04559B"/>
<path d="M70.2346 74.0318C71.7025 74.0318 72.933 74.7022 72.933 75.6971V84.2619C72.933 85.1055 72.3501 86.1436 70.2346 86.1436V74.0318ZM64.8594 64.71V65.4237H66.0898V86.1652H64.9025V86.879H71.3139C75.8904 86.879 77.272 82.4884 77.272 79.7633C77.272 76.6488 75.0053 73.3397 71.3139 73.3397H70.2346V65.4237H71.4651V64.71H64.8594Z" fill="#04559B"/>
<path d="M52.1241 86.1652C53.5057 84.4566 54.3476 81.9045 54.3476 79.9363V65.4237H57.1539V86.1652H52.1241ZM51.7787 64.71V65.4237H52.3615C53.0092 65.4237 53.5488 65.9644 53.5488 66.6132V78.963C53.5488 81.6017 52.7069 84.2403 50.7425 86.1652H49.8574V92.5888H50.6346C50.6346 89.4311 51.0231 86.879 53.0955 86.879H59.9818C62.0542 86.879 62.4859 89.4311 62.4859 92.5888H63.2846V86.1652H61.2555V65.4237H62.4859V64.71H51.7787Z" fill="#04559B"/>
<path d="M177.048 66.1157C177.048 65.402 177.631 64.9695 178.429 64.9695C179.228 64.9695 179.811 65.402 179.811 66.1157V85.3649C179.811 86.1652 179.228 86.5978 178.429 86.5978C177.631 86.5978 177.048 86.1652 177.048 85.3649V66.1157ZM172.73 75.6106C172.73 80.8014 174.349 87.3115 178.429 87.3115C182.509 87.3115 184.128 80.8879 184.128 75.6106C184.128 69.6844 182.207 64.2773 178.429 64.2773C174.652 64.2773 172.73 69.6844 172.73 75.6106Z" fill="#04559B"/>
<path d="M150.152 74.7454V66.1374C150.152 65.4236 150.799 64.9911 151.469 64.9911C152.203 64.9911 152.85 65.4236 152.85 66.1374V74.7454H150.152ZM156.973 75.6106C156.973 69.7277 155.851 64.2773 151.469 64.2773C147.626 64.2773 145.77 69.6844 145.77 75.5673C145.77 80.8014 147.345 87.3115 151.469 87.3115C156.39 87.3115 156.973 81.2339 156.973 77.4706H156.282C156.282 80.7149 155.505 86.5978 151.469 86.5978C150.821 86.5978 150.152 86.1652 150.152 85.3217V75.6106H156.973Z" fill="#04559B"/>
<path d="M114.165 74.7454V66.1374C114.165 65.4236 114.813 64.9911 115.504 64.9911C116.238 64.9911 116.885 65.4236 116.885 66.1374V74.7454H114.165ZM121.008 75.6106C121.008 69.7277 119.886 64.2773 115.504 64.2773C111.661 64.2773 109.805 69.6844 109.805 75.5673C109.805 80.8014 111.381 87.3115 115.504 87.3115C120.426 87.3115 121.008 81.2339 121.008 77.4706H120.318C120.318 80.7149 119.519 86.5978 115.504 86.5978C114.856 86.5978 114.165 86.1652 114.165 85.3217V75.6106H121.008Z" fill="#04559B"/>
<path d="M100.737 66.1157C100.737 65.402 101.32 64.9695 102.119 64.9695C102.918 64.9695 103.501 65.402 103.501 66.1157V85.3649C103.501 86.1652 102.918 86.5978 102.119 86.5978C101.32 86.5978 100.737 86.1652 100.737 85.3649V66.1157ZM96.3984 75.6106C96.3984 80.8014 98.0175 87.3115 102.097 87.3115C106.177 87.3115 107.796 80.8879 107.796 75.6106C107.796 69.6844 105.875 64.2773 102.097 64.2773C98.3197 64.2773 96.3984 69.6844 96.3984 75.6106Z" fill="#04559B"/>
<path d="M41.7395 74.7454V66.1374C41.7395 65.4236 42.3871 64.9911 43.0779 64.9911C43.8119 64.9911 44.4595 65.4236 44.4595 66.1374V74.7454H41.7395ZM48.5827 75.6106C48.5827 69.7277 47.4601 64.2773 43.0779 64.2773C39.2354 64.2773 37.3789 69.6844 37.3789 75.5673C37.3789 80.8014 38.9548 87.3115 43.0779 87.3115C47.9998 87.3115 48.5827 81.2339 48.5827 77.4706H47.8919C47.8919 80.7149 47.1147 86.5978 43.0779 86.5978C42.4303 86.5978 41.7395 86.1652 41.7395 85.3217V75.6106H48.5827Z" fill="#04559B"/>
<path d="M22.8946 77.3197C22.8946 81.1047 24.1683 87.312 29.2413 87.312C35.0482 87.312 34.5949 78.9202 34.8971 74.162H34.2063C33.8177 78.9418 33.9689 86.5983 29.2413 86.5983C28.5505 86.5983 27.9029 86.1657 27.9029 85.2357V57.7677C27.9029 56.8377 28.5505 56.4051 29.2413 56.4051C30.666 56.4051 33.2781 61.5527 34.2063 69.0577H34.8971V56.1456H34.2063L32.6736 58.2436C31.9397 56.8377 30.9035 55.6914 29.2197 55.6914C24.341 55.6914 22.873 61.6608 22.873 65.4025V77.3197H22.8946Z" fill="#04559B"/>
<path d="M166.362 85.3012C166.362 86.1014 165.779 86.534 164.98 86.534C164.182 86.534 163.599 86.1014 163.599 85.3012V68.1715C163.599 67.4794 164.182 67.0252 164.98 67.0252C165.779 67.0252 166.362 67.4578 166.362 68.1715V85.3012ZM164.98 66.3331C162.778 66.3331 161.203 67.8039 160.274 70.2262C160.382 68.6041 160.706 66.809 161.591 65.7275C163.361 63.5215 165.671 63.4782 168.434 61.5317C171.219 59.5851 170.593 55.4757 170.593 55.4757L169.902 55.4541C169.902 55.4541 169.902 56.3409 169.427 57.0113C168.736 57.963 167.398 58.309 164.354 59.7798C162.778 60.5368 161.505 61.8344 160.771 63.2835C159.13 66.4629 159.303 70.3127 159.303 70.3127V75.5468C159.281 75.8929 159.281 76.2605 159.281 76.6066C159.281 81.7974 160.9 87.2261 164.98 87.2261C169.06 87.2261 170.701 81.8839 170.701 76.6066C170.701 70.6804 168.78 66.3331 164.98 66.3331Z" fill="#04559B"/>
<path d="M80.1004 38.4323C80.1004 38.4323 79.021 39.2542 77.8769 40.1842C78.5893 40.7682 79.7765 41.1791 81.5035 40.141C83.9645 38.8865 82.734 36.4642 82.734 36.4642C82.734 36.4642 79.5607 30.3001 77.7258 26.8828C77.2293 26.8828 76.7328 27.1207 76.4953 27.5533C76.1499 28.1805 76.2147 29.0673 76.7759 29.608C77.0997 29.9324 79.9492 32.5494 80.3594 32.8739C80.7696 33.1983 81.6978 33.7822 81.6978 35.4909C81.7194 37.1995 80.1004 38.4323 80.1004 38.4323Z" fill="#04559B"/>
<path d="M38.2852 54.5024C38.2852 54.5024 54.7346 50.4579 67.0177 51.4961C79.3008 52.5342 83.9852 54.1131 87.5471 54.8268C91.0874 55.5406 99.0099 57.2925 111.941 53.7887C124.871 50.3065 129.189 46.0457 146.437 45.159C165.498 44.2722 179.919 54.4808 179.919 54.4808C179.919 54.4808 166.535 38.6921 150.56 37.1565C137.306 36.5293 124.353 43.9694 119.928 46.4999C115.503 49.0305 104.903 56.6436 90.008 53.1398C90.008 53.1398 76.9478 48.3816 70.0399 47.4516C56.0298 43.8829 38.2852 54.5024 38.2852 54.5024Z" fill="#04559B"/>
<path d="M98.6875 14.7064L101.515 17.756C101.515 17.756 111.705 15.1173 124.463 20.3946C136.465 25.7152 141.646 34.9721 141.646 34.9721L145.337 34.4747C145.337 34.4747 139.099 22.4493 124.506 16.5881C124.506 16.6097 112.784 11.0945 98.6875 14.7064Z" fill="#FDD300"/>
<path d="M92.8164 9.32053L95.45 12.0024C95.45 12.0024 110.475 6.72514 126.428 13.6462C142.92 20.7835 149.332 34.3445 149.332 34.3445L153.282 34.7338C153.282 34.7338 147.043 18.6856 127.291 10.4019C109.827 3.00507 92.8164 9.32053 92.8164 9.32053Z" fill="#04559B"/>
<path d="M87.0742 3.99968L89.8158 6.63833C89.8158 6.63833 106.049 -0.780176 126.277 6.24902C146.504 13.2782 154.793 29.2183 157.643 36.0312L162.025 37.675C162.025 37.675 157.081 21.6916 142.337 11.0938C127.593 0.495894 112.785 -1.14786 99.5732 0.604035C90.4202 2.11802 87.0742 3.99968 87.0742 3.99968Z" fill="#E05911"/>
<path d="M91.671 28.8501C91.671 30.8399 90.0519 32.4404 88.0875 32.4404C86.123 32.4404 84.4824 30.8399 84.4824 28.8501C84.4824 26.8603 86.1015 25.2598 88.0659 25.2598C90.0303 25.2598 91.671 26.8603 91.671 28.8501Z" fill="#E05911"/>
<path d="M84.1368 30.2348C84.1368 30.2348 85.0651 32.4842 86.5762 32.8518C88.886 33.6305 90.8073 32.203 90.8073 32.203C90.8073 32.203 93.959 33.0032 96.1825 32.9383C96.1825 32.9383 98.1901 32.8735 98.1685 34.6902C98.1469 36.507 96.0098 36.3989 96.0098 36.3989C96.0098 36.3989 91.9514 36.2042 91.1095 36.507C90.2676 36.8098 89.0155 37.5452 89.5552 39.5782C90.0733 41.6113 91.1527 46.283 91.1527 46.283C91.1527 46.283 91.4981 47.8402 89.9222 48.2079C87.8282 48.8135 87.5044 46.9751 87.5044 46.9751L86.1444 42.0871C86.1444 42.0871 85.4537 39.1673 82.928 41.2004C80.4023 43.2334 77.8334 44.8555 77.8334 44.8555C77.8334 44.8555 76.9483 45.526 75.6962 44.5311C75.6962 44.5311 74.4442 43.3199 75.6099 42.1736C76.7972 41.0273 80.1648 38.4103 80.1648 38.4103C80.1648 38.4103 81.7838 37.1775 81.7838 35.4689C81.7838 33.7602 80.8556 33.1979 80.4454 32.8518C80.0353 32.5274 77.1858 29.9104 76.862 29.586C76.3223 29.0452 76.2359 28.1585 76.5813 27.5313C76.9267 26.904 77.8118 26.7094 78.5026 27.0122C79.1934 27.315 80.7692 28.5694 81.5464 29.0236C82.2372 29.4346 84.1368 30.2348 84.1368 30.2348Z" fill="#E05911"/>
<path d="M47.3299 17.733C48.6683 20.2851 47.6969 23.4645 45.128 24.8055C42.5807 26.1464 39.4074 25.1731 38.069 22.5994C36.7306 20.0472 37.702 16.8679 40.2709 15.5269C42.8182 14.186 45.9915 15.1809 47.3299 17.733Z" fill="#FDD300"/>
<path d="M58.4052 40.5739C58.4052 40.5739 53.8719 35.275 51.8211 33.0256C49.7703 30.7547 50.8712 28.9595 51.7563 28.0079C52.6414 27.0346 58.0166 24.5257 58.0166 24.5257C58.0166 24.5257 60.8445 23.2064 59.6572 20.8705C59.5061 20.5677 59.3334 20.3298 59.1391 20.1352L58.9664 19.9838L58.9448 19.9621C57.6712 18.8807 55.8579 19.8756 55.8579 19.8756C53.03 21.4545 48.4319 22.5792 48.4319 22.5792C48.4319 22.5792 46.9208 25.7153 43.4452 26.2992C41.2649 26.8616 38.545 24.5906 38.545 24.5906C38.545 24.5906 35.5659 24.8501 34.2707 24.8069C32.9755 24.7636 30.0828 24.2013 29.0034 24.2878C27.9025 24.3743 26.9095 25.2178 26.8879 26.256C26.8663 26.9265 27.1469 27.6186 27.6434 28.116C27.9241 28.4188 28.291 28.6567 28.7012 28.7865C29.3488 28.9811 34.7888 30.4086 35.5443 30.56C36.1056 30.6681 37.1202 30.7547 38.0916 31.6847C38.4154 32.0091 38.7177 32.42 38.9983 32.9391C40.1424 35.1452 38.9119 37.8271 38.9119 37.8271C38.9119 37.8271 36.3215 43.4721 35.5875 45.7647C35.2421 46.8029 35.5659 47.5166 36.0193 47.9924C36.5589 48.598 37.3361 48.8143 37.3361 48.8143C37.6167 48.8576 37.8973 48.8792 38.1348 48.8792C39.797 48.8792 40.3151 47.7761 40.3151 47.7761C40.3151 47.7761 42.5386 43.9479 44.4167 39.6006C45.1506 37.8704 46.0573 37.3729 46.8776 37.3729C47.9138 37.3729 48.7773 38.1948 49.0579 38.476L49.1011 38.5192L54.1741 43.883C54.1741 43.883 54.2388 43.9696 54.3684 44.0777C54.6274 44.3372 55.2534 44.8779 56.1169 44.8779C56.6998 44.8779 57.4121 44.64 58.1677 43.883C59.9163 42.3474 58.4052 40.5739 58.4052 40.5739Z" fill="#FDD300"/>
<path d="M76.3884 7.87129C77.2303 11.1372 75.2442 14.4679 71.9846 15.2898C68.7249 16.1333 65.4005 14.1435 64.5802 10.8776C63.7383 7.61175 65.7243 4.28099 68.984 3.45911C72.2436 2.63724 75.568 4.60541 76.3884 7.87129Z" fill="#04559B"/>
<path d="M89.4703 14.4462C88.7579 11.4615 85.4982 12.3915 85.4982 12.3915C81.8716 13.408 76.3453 13.4297 76.3453 13.4297C76.3453 13.4297 73.798 16.5874 69.6748 16.2846C67.0412 16.3279 64.5803 13.0187 64.5803 13.0187C64.5803 13.0187 61.1263 12.4997 59.68 12.1103C58.2336 11.721 55.0819 10.2936 53.8299 10.0989C52.5778 9.88263 51.2178 10.5747 50.894 11.7643C50.5702 12.9539 51.0883 14.3597 52.2108 15.0302C52.9016 15.4411 58.6654 18.534 59.4857 18.9016C60.306 19.2693 62.0762 19.8317 62.7885 22.6217C63.5009 25.4118 61.3638 28.1369 61.3638 28.1369C61.3638 28.1369 57.327 33.3277 55.6863 35.8799L59.4641 40.2704C59.9822 40.0541 60.2412 39.7297 60.2412 39.7297C60.2412 39.7297 63.8031 35.988 67.0844 31.5758C70.3872 27.1637 72.7186 31.6623 72.7186 31.6623L77.0145 39.1241C77.0145 39.1241 77.0792 39.2539 77.2088 39.4485C78.3313 38.5185 79.4107 37.6966 79.4754 37.6534C79.4754 37.6534 80.7059 36.6801 80.7059 35.4905C80.7059 34.4091 80.231 34.0415 79.8424 33.7387L79.7345 33.6521C79.2811 33.2845 76.3885 30.6458 76.0646 30.3214C75.2227 29.4779 75.05 28.1153 75.6329 27.0771C75.9567 26.4932 76.5396 26.1039 77.2304 25.9741C75.6545 22.9461 77.3383 21.2591 78.5903 20.4156C79.864 19.5721 86.5992 18.1663 86.5992 18.1663C86.5992 18.1663 90.1827 17.4525 89.4703 14.4462Z" fill="#04559B"/>
</svg>
