<svg width="207" height="53" viewBox="0 0 207 53" fill="none" xmlns="http://www.w3.org/2000/svg">
<path d="M89.3573 41.752H88.0312V42.267H89.3573V41.752Z" fill="#004F9E"/>
<path d="M205.725 41.8258C206.118 41.8258 206.388 41.605 206.388 41.2371C206.388 40.9673 206.241 40.673 205.75 40.673H205.111V41.8258H205.725ZM206.953 41.2617C206.953 41.8503 206.56 42.3163 205.701 42.3163H205.136V43.9351H204.596V40.207H205.774C206.56 40.1825 206.953 40.6485 206.953 41.2617Z" fill="#004F9E"/>
<path d="M93.3826 41.8258C93.7755 41.8258 94.0456 41.605 94.0456 41.2371C94.0456 40.9673 93.8983 40.673 93.4072 40.673H92.7687V41.8258H93.3826ZM94.5859 41.2617C94.5859 41.8503 94.193 42.3163 93.3335 42.3163H92.7687V43.9351H92.2285V40.207H93.4072C94.2175 40.1825 94.5859 40.6485 94.5859 41.2617Z" fill="#004F9E"/>
<path d="M60.528 41.8258C60.9209 41.8258 61.191 41.605 61.191 41.2371C61.191 40.9673 61.0437 40.673 60.5526 40.673H59.9141V41.8258H60.528ZM61.7558 41.2617C61.7558 41.8503 61.3629 42.3163 60.5034 42.3163H59.9387V43.9351H59.3984V40.207H60.5771C61.3875 40.1825 61.7558 40.6485 61.7558 41.2617Z" fill="#004F9E"/>
<path d="M200.568 40.6477V43.9098H200.028V40.6477H198.727V40.1816H201.845V40.6477H200.568Z" fill="#004F9E"/>
<path d="M195.413 43.9098V42.291H193.325V43.9098H192.785V40.1816H193.325V41.8004H195.413V40.1816H195.953V43.9098H195.413Z" fill="#004F9E"/>
<path d="M188.318 40.6477V41.7759H189.865V42.2665H188.318V43.4438H189.963V43.9098H187.777V40.1816H189.914V40.6477H188.318Z" fill="#004F9E"/>
<path d="M184.951 43.4438V44.5966H184.436V43.9098H181.219V40.1816H181.759V43.4438H183.846V40.1816H184.386V43.4438H184.951Z" fill="#004F9E"/>
<path d="M167.542 40.1816H168.082V43.9098H167.542V40.1816ZM165.7 43.4438C166.192 43.4438 166.339 43.1494 166.339 42.8796C166.339 42.5117 166.093 42.2419 165.7 42.2419H165.013V43.4438H165.7ZM164.473 40.1816H165.013V41.7514H165.627C166.486 41.7514 166.904 42.2665 166.904 42.8306C166.904 43.3947 166.462 43.9098 165.627 43.9098H164.473V40.1816Z" fill="#004F9E"/>
<path d="M160.838 43.9098V42.291H158.751V43.9098H158.211V40.1816H158.751V41.8004H160.838V40.1816H161.379V43.9098H160.838Z" fill="#004F9E"/>
<path d="M154.111 43.4438C154.602 43.4438 154.749 43.1494 154.749 42.8796C154.749 42.5117 154.503 42.2419 154.111 42.2419H153.423V43.4438H154.111ZM152.883 40.1816H153.423V41.7514H154.037C154.896 41.7514 155.314 42.2665 155.314 42.8306C155.314 43.3947 154.872 43.9098 154.037 43.9098H152.883V40.1816Z" fill="#004F9E"/>
<path d="M142.496 40.6477V41.7759H144.043V42.2665H142.496V43.4438H144.141V43.9098H141.98V40.1816H144.092V40.6477H142.496Z" fill="#004F9E"/>
<path d="M137.903 40.6477V43.9098H137.387V40.6477H136.086V40.1816H139.205V40.6477H137.903Z" fill="#004F9E"/>
<path d="M125.11 41.7023H125.257C125.65 41.7023 125.92 41.6042 126.141 41.0401C126.411 40.3779 126.681 40.1816 127.222 40.1816H127.295V40.6722C126.804 40.6722 126.706 40.8439 126.559 41.2854C126.46 41.5552 126.239 41.8495 126.043 41.9476C126.313 42.0702 126.583 42.34 126.853 42.8061L127.492 43.9588H126.878L126.288 42.9532C125.969 42.4136 125.601 42.1684 125.232 42.1684H125.085V43.9588H124.545V40.2062H125.085V41.7023H125.11Z" fill="#004F9E"/>
<path d="M120.1 40.6477V41.7759H121.647V42.2665H120.1V43.4438H121.745V43.9098H119.584V40.1816H121.696V40.6477H120.1Z" fill="#004F9E"/>
<path d="M109.517 43.4438C110.155 43.4438 110.327 43.1249 110.327 42.8551C110.327 42.5117 110.057 42.2665 109.492 42.2665H108.854V43.4438H109.517ZM109.197 41.7759C109.738 41.7759 109.983 41.5797 109.983 41.1873C109.983 40.9175 109.811 40.6722 109.32 40.6722H108.829V41.8004H109.197V41.7759ZM109.394 40.1816C110.204 40.1816 110.548 40.6722 110.548 41.1382C110.548 41.5306 110.376 41.7759 109.983 41.9476C110.548 42.0457 110.892 42.4136 110.892 42.9287C110.892 43.3947 110.548 43.9343 109.615 43.9343H108.338V40.2062H109.394V40.1816Z" fill="#004F9E"/>
<path d="M77.3232 43.4438C77.9617 43.4438 78.1336 43.1249 78.1336 42.8551C78.1336 42.5117 77.8634 42.2665 77.2987 42.2665H76.6602V43.4438H77.3232ZM77.004 41.7759C77.5442 41.7759 77.7898 41.5797 77.7898 41.1873C77.7898 40.9175 77.6424 40.6722 77.1268 40.6722H76.6356V41.8004H77.004V41.7759ZM77.2004 40.1816C78.0108 40.1816 78.3546 40.6722 78.3546 41.1382C78.3546 41.5306 78.1827 41.7759 77.7898 41.9476C78.3546 42.0457 78.6983 42.4136 78.6983 42.9287C78.6983 43.3947 78.3546 43.9343 77.4214 43.9343H76.1445V40.2062H77.2004V40.1816Z" fill="#004F9E"/>
<path d="M65.0207 40.6477V43.9098H64.4805V40.1816H66.5923V40.6477H65.0207Z" fill="#004F9E"/>
<path d="M48.5936 40.6477V43.9098H48.0534V40.6477H46.752V40.1816H49.8951V40.6477H48.5936Z" fill="#004F9E"/>
<path d="M149.665 43.9109L148.339 40.894L147.112 43.9109H146.547L148.168 40.1582H148.536L150.23 43.9109H149.665Z" fill="#004F9E"/>
<path d="M132.451 42.3411L131.837 40.9921L131.272 42.3411H132.451ZM133.188 43.9109L132.697 42.8072H131.101L130.634 43.9109H130.094L131.69 40.1582H132.058L133.728 43.9109H133.188Z" fill="#004F9E"/>
<path d="M116.369 43.9109L115.043 40.894L113.79 43.9109H113.25L114.846 40.1582H115.239L116.909 43.9109H116.369Z" fill="#004F9E"/>
<path d="M99.3018 42.3411L98.6879 40.9921L98.1232 42.3411H99.3018ZM100.014 43.9109L99.5228 42.8072H97.9267L97.4602 43.9109H96.9199L98.516 40.1582H98.9089L100.579 43.9109H100.014Z" fill="#004F9E"/>
<path d="M104.287 40.1328C104.852 40.1328 105.392 40.4026 105.392 41.1139C105.392 41.5799 105.073 41.8988 104.729 42.0214C105.073 42.1195 105.417 42.4139 105.417 42.9044C105.417 43.6157 104.803 43.9836 104.14 43.9836C103.894 43.9836 103.403 43.91 103.133 43.7874V43.1987C103.427 43.3949 103.747 43.4685 104.017 43.4685C104.385 43.4685 104.876 43.3704 104.876 42.8799C104.876 42.5855 104.655 42.2667 103.992 42.2667H103.427V41.8007H104.14C104.557 41.8007 104.852 41.4818 104.852 41.1875C104.852 40.7951 104.532 40.6479 104.14 40.6479C103.943 40.6479 103.501 40.6969 103.182 40.8932V40.4026C103.477 40.2064 103.992 40.1328 104.287 40.1328Z" fill="#004F9E"/>
<path d="M84.7651 42.0459C84.7651 41.212 84.1512 40.6234 83.3163 40.6234C82.4814 40.6234 81.8675 41.2365 81.8675 42.0459C81.8675 42.8553 82.4814 43.4685 83.3163 43.4685C84.1512 43.4685 84.7651 42.8553 84.7651 42.0459ZM85.3053 42.0459C85.3053 43.0516 84.5441 43.9591 83.2918 43.9591C82.0394 43.9591 81.3027 43.0516 81.3027 42.0459C81.3027 41.0403 82.0885 40.1328 83.3163 40.1328C84.5195 40.1328 85.3053 41.0158 85.3053 42.0459Z" fill="#004F9E"/>
<path d="M72.6331 42.0459C72.6331 41.212 72.0192 40.6234 71.1598 40.6234C70.3003 40.6234 69.711 41.2365 69.711 42.0459C69.711 42.8553 70.3249 43.4685 71.1598 43.4685C71.9947 43.4685 72.6331 42.8553 72.6331 42.0459ZM73.1979 42.0459C73.1979 43.0516 72.4367 43.9591 71.1843 43.9591C69.932 43.9591 69.1953 43.0516 69.1953 42.0459C69.1953 41.0403 69.9811 40.1328 71.2089 40.1328C72.4121 40.1328 73.1979 41.0158 73.1979 42.0459Z" fill="#004F9E"/>
<path d="M55.9359 42.0459C55.9359 41.212 55.322 40.6234 54.4871 40.6234C53.6522 40.6234 53.0383 41.2365 53.0383 42.0459C53.0383 42.8553 53.6522 43.4685 54.4871 43.4685C55.322 43.4685 55.9359 42.8553 55.9359 42.0459ZM56.5006 42.0459C56.5006 43.0516 55.7394 43.9591 54.4871 43.9591C53.2347 43.9591 52.498 43.0516 52.498 42.0459C52.498 41.0403 53.2838 40.1328 54.5116 40.1328C55.7149 40.1328 56.5006 41.0158 56.5006 42.0459Z" fill="#004F9E"/>
<path d="M172.846 40.0846H172.477L172.919 39.1035H173.582L172.846 40.0846ZM173.828 43.9109V41.1638L171.446 43.9599H171.176V40.1827H171.716V43.0279L174.098 40.1827H174.368V43.9109H173.828Z" fill="#004F9E"/>
<path d="M196.91 19.6531L194.234 28.0659H199.538L196.91 19.6531ZM199.955 36.3316V35.7675H201.944L199.661 28.6301H194.062L191.827 35.7675H194.135V36.3316H189.789V35.7675H190.992L196.861 16.9551H198.58L204.768 35.7675H205.971V36.3316H199.955Z" fill="#DC007E"/>
<path d="M147.947 17.5192H146.376C145.566 17.5192 144.952 18.1079 144.632 18.8682C144.092 20.1436 143.92 21.787 143.724 23.185H143.012V16.9551H155.511V23.185H154.799C154.602 21.787 154.43 20.0946 153.89 18.8682C153.546 18.1324 152.981 17.5192 152.146 17.5192H150.575V35.7675H152.343V36.3316H146.179V35.7675H147.947V17.5192Z" fill="#004F9E"/>
<path d="M117.793 19.6531L115.116 28.0659H120.421L117.793 19.6531ZM120.838 36.3316V35.7675H122.827L120.543 28.6301H114.945L112.71 35.7675H115.018V36.3316H110.672V35.7675H111.875L117.744 16.9551H119.463L125.651 35.7675H126.854V36.3316H120.838Z" fill="#004F9E"/>
<path d="M103.059 17.5192H101.487C100.677 17.5192 100.063 18.1079 99.7437 18.8682C99.2035 20.1436 99.0316 21.787 98.8352 23.185H98.123V16.9551H110.622V23.185H109.91C109.713 21.787 109.542 20.0946 109.001 18.8682C108.657 18.1324 108.093 17.5192 107.258 17.5192H105.686V35.7675H107.454V36.3316H101.291V35.7675H103.059V17.5192Z" fill="#F8AD00"/>
<path d="M70.9384 19.6531L68.2618 28.0659H73.5659L70.9384 19.6531ZM73.9834 36.3316V35.7675H75.9969L73.7132 28.6301H68.1145L65.8799 35.7675H68.1882V36.3316H63.8418V35.7675H65.045L70.9384 16.9551H72.6573L78.8454 35.7675H80.0486V36.3316H73.9834Z" fill="#004F9E"/>
<path d="M55.2974 20.5115H54.708V32.5544H55.371C58.2195 32.5544 59.9875 29.7829 59.9875 26.5453C59.963 23.3322 58.1949 20.5115 55.2974 20.5115ZM52.056 20.5115H51.4667C48.52 20.5115 46.7765 23.3322 46.7765 26.5207C46.7765 29.7093 48.3726 32.5299 51.3439 32.5299H52.056V20.5115ZM55.5184 33.2412H54.6835V35.743H56.2305V36.3071H50.509V35.743H52.056V33.2412H51.2211C46.7765 33.2412 43.8789 30.2489 43.8789 26.5207C43.8789 22.7926 47.0957 19.8248 50.8773 19.8248H52.056V17.5192H50.509V16.9551H56.2305V17.5192H54.6835V19.8248H55.9113C59.6929 19.8248 62.836 22.6454 62.836 26.5207C62.8606 30.2489 59.963 33.2412 55.5184 33.2412Z" fill="#F8AD00"/>
<path d="M185.714 36.3318L178.323 26.4718V35.7676H179.87V36.3318H174.148V35.7676H175.695V17.5193H174.148V16.9307H179.87V17.5193H178.323V25.7605L185.984 17.5193H184.02V16.9307H188.391V17.5193H187.065L180.091 24.902L188.317 35.7676H189.299V36.3318H185.714Z" fill="#F8AD00"/>
<path d="M168.352 20.9531L161.108 33.7564V35.7676H162.631V36.3318H156.934V35.7676H158.481V17.5193H156.934V16.9307H162.631V17.5193H161.108V32.1131L168.352 19.3343V17.5193H166.805V16.9307H172.527V17.5193H170.98V35.7676H172.527V36.3318H166.805V35.7676H168.352V20.9531Z" fill="#DC007E"/>
<path d="M92.5248 26.3982H85.3053V35.7676H86.8524V36.3318H81.1309V35.7676H82.6779V17.5193H81.1309V16.9307H86.8524V17.5193H85.3053V25.7114H92.5248V17.5193H90.9777V16.9307H96.6992V17.5193H95.1522V35.7676H96.6992V36.3318H90.9777V35.7676H92.5248V26.3982Z" fill="#DC007E"/>
<path d="M135.423 36.6501C130.463 36.6501 127.369 32.8975 127.369 26.692C127.369 21.2225 130.463 16.6113 135.473 16.6113C136.823 16.6113 138.395 16.9302 139.843 17.8132V22.6205H139.107C138.812 21.0262 138.444 19.4074 137.83 18.3773C137.412 17.6905 136.455 17.2981 135.497 17.2981C132.329 17.2981 130.39 21.7375 130.39 26.5939C130.39 32.2352 132.477 35.9388 135.473 35.9388C136.676 35.9388 137.83 35.3992 138.149 34.5408C138.567 33.4861 139.107 31.3768 139.426 29.5617H140.163V35.0559C139.156 36.3313 137.29 36.6501 135.423 36.6501Z" fill="#DC007E"/>
<path d="M16.9655 13.7664C17.0146 13.5947 17.0883 13.4475 17.1865 13.2758C17.9723 11.7797 19.151 11.2646 20.3542 10.7005C19.2001 10.259 18.1688 10.1854 17.0392 10.9457C18.5862 8.73829 23.3255 8.98356 24.2832 11.657C24.7743 12.9815 24.013 14.3796 23.0799 15.8021C24.4059 16.121 25.7074 15.4833 26.4441 14.2324C27.1316 13.0306 26.8124 11.7306 26.2967 10.6759C26.9106 11.2401 27.5491 11.9268 27.9174 12.6136C28.2366 9.32694 23.7429 7.43834 21.4101 7.38929C24.3814 6.678 27.2299 8.34585 28.3103 11.4118C28.8014 12.7117 28.7769 14.1098 28.2612 15.4097C28.4822 15.4342 28.7523 14.8701 28.8014 14.7229C31.3061 9.05714 24.8725 4.0781 20.035 4.3479C18.046 4.44601 16.278 5.32899 14.9028 6.75158C16.4744 3.85736 19.814 2.85174 22.8835 4.3479C18.7827 1.84612 14.8292 2.87627 12.128 5.47616C12.3736 6.65347 12.4227 6.70252 13.0857 6.97232C13.7978 7.24212 15.6886 7.41381 16.6463 10.0137C17.604 12.6136 15.6886 13.2758 14.7555 17.6417C13.8469 21.983 17.5794 22.4245 17.5794 22.4245C12.7419 20.9284 15.7868 15.1644 16.9655 13.7664ZM17.0392 16.4889C16.8673 15.9984 16.7691 15.4833 16.7691 14.9192C16.4253 15.4588 16.0324 16.2436 15.6395 17.3964C14.5591 20.5114 16.9655 21.934 16.9164 21.8604C16.8673 21.7868 15.5167 20.4133 16.2288 18.2304C16.4744 17.4945 16.7691 16.9059 17.0392 16.4889ZM19.1755 35.4485C18.9054 36.2824 18.6844 37.0918 18.3898 37.8522C18.1442 38.5144 17.9232 39.0786 17.6776 39.5936C18.8809 41.8011 20.7471 40.2559 21.2382 38.6371L21.3856 38.7597C21.0909 39.6427 20.0104 42.1199 17.8004 40.2068C17.7022 40.0842 17.604 39.9861 17.5303 39.888C17.4321 40.0842 17.3093 40.2559 17.1865 40.4276C17.0392 40.5992 16.941 40.7709 16.8427 40.9181C17.7022 41.6049 18.5862 42.169 19.5193 42.2671C19.9613 42.3162 20.8453 42.169 21.3856 41.6539C21.7785 41.2615 21.6066 40.2068 21.4592 39.8144C22.1714 39.1521 21.9258 41.1634 21.9258 41.3105C22.8344 40.6483 23.129 38.3427 21.9749 38.3427C21.1155 38.3427 19.8386 39.054 19.1264 38.2201C18.7827 37.8277 18.6844 37.0918 19.0773 36.7239C19.1755 36.6258 19.1264 36.7485 19.2492 36.6749C19.4702 36.9202 19.2492 37.2881 19.8631 37.2635C20.1087 37.239 20.5016 37.0673 20.7717 36.9692C21.3119 36.7975 22.1714 36.9447 22.6134 37.4352C22.7853 36.9447 22.7607 36.307 22.9571 35.7428C23.1045 35.2768 23.0799 35.2032 23.2273 34.9089C22.5643 33.658 20.6243 34.2467 19.1755 35.4485ZM20.1087 33.0694C19.7649 33.609 19.5193 34.4429 19.372 34.8844L19.3474 34.958C20.8208 33.8052 22.6625 33.2165 23.4974 34.492C23.8412 33.8788 24.0622 33.6335 24.5778 33.1429C24.7743 32.9467 24.9953 32.7996 25.1917 32.6279C25.0198 32.6524 24.5287 32.7996 24.3323 32.8731C24.0376 32.9713 23.7429 32.9713 23.4483 33.0203C22.2696 33.2411 21.2137 33.1184 20.1087 33.0694ZM27.942 30.1016V29.5374C27.9174 29.0959 27.8683 28.6299 27.8192 28.1639C27.7946 27.9922 27.721 27.6734 27.6964 27.4036V27.2809C27.721 26.6677 28.2121 25.9074 28.2858 25.2452C28.3103 25.0244 28.2121 24.8282 28.2366 24.5584C27.3526 23.9207 26.2231 23.4056 25.5846 22.6698C25.3391 22.0321 24.9216 21.468 25.1181 20.8793C25.2408 20.4133 25.7565 20.0699 25.6828 19.6529C25.6092 19.285 25.0444 19.3586 24.9216 19.0398C24.8479 19.0152 24.7988 19.1133 24.7252 19.1133C24.7988 18.77 24.4059 18.8926 24.2832 18.819C24.1604 18.6473 24.2832 18.5002 24.1113 18.402C23.8903 18.2794 23.5219 18.6964 23.2518 18.5492C23.129 18.4756 23.3255 18.353 23.2518 18.3039C23.2273 18.2549 23.1536 18.4756 23.0554 18.4266C22.6134 18.2058 22.245 18.2549 21.9504 18.3285C21.803 18.3775 21.6557 18.5492 21.5084 18.4511C21.5575 18.1322 20.7962 19.0152 20.698 19.1133C20.3788 19.4567 20.1087 19.8982 19.8877 20.3888C18.9054 19.236 17.825 18.402 17.2356 16.9549C16.3762 18.4511 15.7132 21.0265 18.2179 22.5962C18.2179 22.5962 20.2314 23.1849 17.5303 22.6943C14.8292 22.2038 11.4405 18.4511 14.0925 13.6683C16.7691 8.90998 15.3203 8.51754 14.9274 8.07605C14.5345 7.65909 12.7665 7.2176 12.4227 6.92327C12.1771 6.70252 12.1035 5.91765 12.0789 5.50069C7.95354 9.52316 6.84853 17.2738 13.012 21.4189C12.6191 21.468 12.128 21.6887 11.8579 22.2774C11.8825 22.3264 12.0298 22.2774 12.1526 22.2774C13.0611 22.1792 14.8292 22.2528 15.615 23.332H15.5658C15.4676 23.4301 15.0256 23.2339 14.7064 23.1603C12.9384 22.817 10.7529 23.4547 9.64789 25.0489C11.5632 23.9943 14.1662 23.7245 16.0078 24.9999C13.8715 24.5093 10.2127 24.7546 9.32867 27.4281C9.05855 28.2375 9.18133 29.0469 9.40233 29.6601C9.81978 27.1828 11.8334 25.8093 13.675 25.8829C12.6683 26.2263 11.3668 26.5451 10.7529 27.7224C11.3422 27.5262 11.8579 27.1338 12.4964 27.0357C11.8334 27.4526 10.0653 29.4639 11.244 30.2242C11.465 30.3714 11.7351 30.3714 12.0052 30.4449C11.8579 30.1506 11.5632 29.9299 11.7106 29.5374C11.8579 29.0959 12.3245 28.8016 12.6683 28.5809C13.675 27.9432 15.0256 27.4526 16.0324 27.2073C15.6886 27.5262 15.394 28.0658 15.5904 28.4828C15.7868 27.6243 17.0883 27.7469 17.7022 27.7469C17.604 27.9186 17.2847 28.0658 17.1129 28.213C17.8741 28.0658 20.1578 27.796 20.7471 27.3055C20.9927 27.0847 21.2382 26.8885 21.4347 26.6923L21.6066 26.913C21.8767 27.3545 22.5151 27.9922 22.7116 28.213L22.8098 28.4337C22.9326 28.8507 23.0063 29.3412 23.129 29.7582C23.2027 30.028 23.4237 30.2978 23.3255 30.5921C23.1781 31.0581 22.0977 31.5487 21.7785 31.7449C21.361 32.0147 20.8208 32.3335 20.4524 32.7015C23.0063 32.8731 25.4127 32.8241 26.837 31.4506C27.0825 31.1808 27.5982 30.6657 27.942 30.1016ZM27.7946 31.2298L27.8438 31.0091C27.8683 30.8619 27.8929 30.6902 27.9174 30.5431L27.8929 30.5921C27.5982 30.9845 27.2299 31.4015 27.1562 31.4996C27.2544 31.4506 27.5982 31.3034 27.7946 31.2298ZM26.3704 34.9825C26.8615 34.075 27.279 33.0448 27.5736 32.0637C27.4017 32.0883 27.2299 32.0883 27.1562 32.1128C25.7565 32.4317 24.234 33.3882 23.8657 34.8108C24.3077 35.2768 24.9953 36.5032 25.1672 37.0673C25.3145 36.8466 25.5846 36.3806 25.9284 35.8655C25.9775 35.7183 26.3213 35.0316 26.3704 34.9825ZM23.7184 39.6672C24.0867 39.2257 24.4059 38.7106 24.7006 38.1465C24.7743 37.9994 24.8479 37.8522 24.8971 37.705C24.7252 36.7975 24.2586 35.9391 23.6201 35.2768C23.3255 35.89 23.1781 37.4107 23.1781 37.9503C23.2027 38.4899 23.3746 39.0786 23.7184 39.6672ZM22.6379 40.82C22.9326 40.5257 23.2273 40.2313 23.4974 39.9125L23.1536 39.471C23.0799 39.3484 22.9817 40.1332 22.6379 40.82ZM12.5946 45.3085C11.3914 46.4613 9.74611 47.6876 9.05855 47.6876C8.17454 47.7122 8.05176 48.2272 7.92898 48.4235C7.16775 49.7725 5.44885 50.1649 5.54707 51.6365C5.57163 51.8327 5.59618 51.8573 5.6944 52.1026C5.71896 52.1761 5.98907 52.2988 5.98907 52.3723C5.98907 52.6667 6.35741 52.544 6.48019 52.4459C6.70119 52.2742 6.99586 51.9063 7.29053 51.6611C7.43787 51.5384 7.70798 51.3667 7.83076 51.2441C8.66566 50.5083 9.15677 50.0668 10.2372 48.9631C10.7038 48.6933 11.3177 48.3499 12.0052 47.9574C11.4405 48.4235 11.0476 48.9631 10.139 49.6743C9.67245 50.0177 9.10766 50.4592 8.73933 50.9007C8.6411 51.0233 8.39555 51.3913 8.69022 51.4648C8.78844 51.4894 8.69021 51.6611 8.76388 51.7101C9.00944 51.8573 9.20589 51.6611 9.37778 51.7592C10.5073 52.2988 11.2931 51.0969 12.3245 49.8215C12.7174 49.331 13.0366 49.0857 13.454 48.5706C13.8224 48.1046 16.1061 46.8047 17.5058 45.8236C15.7868 46.0934 14.0188 45.9217 12.5946 45.3085ZM14.4854 43.1991C15.6641 44.0576 16.8673 44.7689 18.709 44.4746C18.9054 44.45 19.0773 44.401 19.2492 44.3519C18.8809 44.7444 18.488 45.1123 18.046 45.4802C16.3271 45.9217 14.5099 45.8236 12.8156 45.0877C13.0857 44.7934 13.3313 44.5236 13.5277 44.3029C13.8715 43.8369 14.1907 43.4935 14.4854 43.1991ZM15.1729 42.6595C15.0256 42.7577 14.8783 42.8803 14.7309 43.0029C15.615 43.6406 16.5235 44.1557 17.6776 44.2048C18.2179 44.2293 18.9791 44.2293 19.6912 43.8859C20.0841 43.4444 20.4524 43.0029 20.8208 42.586C18.9791 43.8614 17.3584 43.1746 15.8114 42.2426C15.7132 42.3162 15.5904 42.3897 15.4676 42.4878C15.3448 42.5369 15.2466 42.6105 15.1729 42.6595ZM21.6066 0.840499C32.0182 2.26308 39.3359 12.0985 37.9362 22.7679C36.5365 33.4373 26.9597 40.9426 16.5481 39.4955C6.13641 38.0729 -1.18122 28.2375 0.218457 17.5681C1.59358 6.89874 11.1704 -0.582084 21.6066 0.840499Z" fill="#F8AD00"/>
</svg>
