<svg width="207" height="48" viewBox="0 0 207 48" fill="none" xmlns="http://www.w3.org/2000/svg">
<path d="M202.192 42.1081V47.17H203.772V45.1688H205.374V47.17H206.954V42.1081H205.374V43.9445H203.772V42.1081H202.192ZM199.435 45.31C199.435 45.4042 199.435 45.4984 199.411 45.569C199.317 45.8986 198.987 46.1576 198.586 46.1576C198.232 46.1576 197.973 45.9693 197.973 45.5455C197.973 44.9333 198.61 44.745 199.435 44.745V45.31ZM200.967 44.1799C200.967 42.9792 200.425 41.9904 198.751 41.9904C197.832 41.9904 197.125 42.2493 196.795 42.4377L197.077 43.4501C197.407 43.2382 197.95 43.0734 198.468 43.0734C199.246 43.0734 199.387 43.4501 199.387 43.7326V43.8032C197.596 43.8032 196.417 44.4154 196.417 45.7338C196.417 46.5343 197.03 47.2877 198.044 47.2877C198.633 47.2877 199.152 47.0758 199.505 46.6756H199.529L199.623 47.1935H201.037C200.99 46.911 200.967 46.4401 200.967 45.9693V44.1799ZM189.11 47.17H190.525L190.619 45.1688C190.643 44.745 190.643 44.0387 190.666 43.403H190.713C190.831 43.8739 190.996 44.6037 191.138 45.0746L191.75 47.0758H192.905L193.589 45.0275C193.848 44.2035 193.872 44.0387 194.084 43.3794H194.108C194.108 43.968 194.155 44.7214 194.155 45.1452L194.249 47.17H195.71L195.404 42.1081H193.424L192.858 43.8974C192.717 44.3918 192.552 44.9333 192.458 45.2865H192.434C192.34 44.8392 192.175 44.3212 192.104 44.0151L191.562 42.1081H189.558L189.11 47.17ZM188.238 45.8751C188.003 45.9693 187.72 46.0399 187.343 46.0399C186.565 46.0399 185.952 45.5455 185.952 44.6273C185.952 43.8032 186.47 43.2146 187.319 43.2146C187.743 43.2146 188.003 43.2853 188.191 43.3794L188.45 42.2023C188.12 42.0845 187.673 42.0139 187.248 42.0139C185.363 42.0139 184.349 43.2146 184.349 44.6979C184.349 46.2989 185.386 47.2877 187.036 47.2877C187.625 47.2877 188.168 47.17 188.45 47.0523L188.238 45.8751ZM178.433 42.1081V47.17H180.342C180.696 46.393 181.073 45.5219 181.403 44.7921C181.615 44.3212 181.733 43.9916 181.921 43.4265H181.968C181.921 44.5095 181.874 44.8392 181.874 45.6161V47.1464H183.359V42.0845H181.426L180.436 44.2506C180.224 44.7214 180.106 45.1217 179.847 45.7103H179.8C179.847 45.0275 179.894 44.4625 179.894 43.662V42.1081H178.433ZM173.059 42.1081V44.1564C173.059 45.004 173.011 45.4984 172.729 45.7809C172.611 45.9222 172.399 46.0163 172.163 46.0634L172.328 47.2642C173.035 47.2642 173.483 47.1229 173.789 46.7697C174.355 46.3224 174.496 45.4513 174.496 44.227V43.2853H175.604V47.1464H177.183V42.0845H173.059V42.1081ZM169.947 45.31C169.947 45.4042 169.947 45.4984 169.924 45.569C169.829 45.8986 169.499 46.1576 169.099 46.1576C168.745 46.1576 168.486 45.9693 168.486 45.5455C168.486 44.9333 169.122 44.745 169.947 44.745V45.31ZM171.479 44.1799C171.479 42.9792 170.937 41.9904 169.264 41.9904C168.344 41.9904 167.637 42.2493 167.307 42.4377L167.59 43.4501C167.92 43.2382 168.462 43.0734 168.981 43.0734C169.759 43.0734 169.9 43.4501 169.9 43.7326V43.8032C168.109 43.8032 166.93 44.4154 166.93 45.7338C166.93 46.5343 167.543 47.2877 168.556 47.2877C169.169 47.2877 169.664 47.0758 170.018 46.6756H170.041L170.136 47.1935H171.55C171.503 46.911 171.479 46.4401 171.479 45.9693V44.1799ZM162.122 42.1081V43.3088H163.583V47.17H165.162V43.3088H166.624V42.1081H162.122ZM155.31 40.0127C155.357 40.9074 155.805 41.4724 156.771 41.4724C157.667 41.4724 158.232 40.978 158.303 40.0127H157.313C157.289 40.46 157.124 40.7426 156.794 40.7426C156.512 40.7426 156.323 40.46 156.323 40.0127H155.31ZM154.343 42.1081V47.17H156.252C156.606 46.393 156.983 45.5219 157.313 44.7921C157.525 44.3212 157.643 43.9916 157.832 43.4265H157.879C157.832 44.5095 157.784 44.8392 157.784 45.6161V47.1464H159.269V42.0845H157.337L156.347 44.2506C156.134 44.7214 155.993 45.1217 155.757 45.7103H155.71C155.757 45.0275 155.805 44.4625 155.805 43.662V42.1081H154.343ZM151.515 47.17H153.094V42.1081H151.515V47.17ZM147.861 44.6508C148.002 44.6273 148.167 44.6037 148.403 44.6037C148.875 44.6037 149.393 44.7921 149.393 45.3571C149.393 45.9222 148.851 46.1576 148.332 46.1576C148.144 46.1576 148.002 46.1576 147.861 46.1341V44.6508ZM146.282 42.1081V47.1464C146.8 47.2171 147.39 47.2406 147.979 47.2406C148.733 47.2406 149.605 47.1229 150.265 46.6756C150.69 46.393 150.949 45.9693 150.949 45.3336C150.949 44.0387 149.794 43.5678 148.662 43.5678C148.309 43.5678 148.05 43.5913 147.837 43.6384V42.1316H146.282V42.1081ZM140.295 42.1081V47.17H141.874V45.1688H143.477V47.17H145.056V42.1081H143.477V43.9445H141.874V42.1081H140.295ZM135.086 40.0127C135.133 40.9074 135.581 41.4724 136.547 41.4724C137.443 41.4724 138.008 40.978 138.079 40.0127H137.089C137.065 40.46 136.9 40.7426 136.57 40.7426C136.288 40.7426 136.099 40.46 136.099 40.0127H135.086ZM134.119 42.1081V47.17H136.028C136.382 46.393 136.759 45.5219 137.089 44.7921C137.301 44.3212 137.419 43.9916 137.608 43.4265H137.655C137.608 44.5095 137.56 44.8392 137.56 45.6161V47.1464H139.045V42.0845H137.113L136.123 44.2506C135.911 44.7214 135.769 45.1217 135.533 45.7103H135.486C135.533 45.0275 135.581 44.4625 135.581 43.662V42.1081H134.119ZM129.853 44.0622C129.9 43.6384 130.159 43.0263 130.819 43.0263C131.55 43.0263 131.715 43.662 131.715 44.0622H129.853ZM133.129 45.1217C133.153 45.004 133.176 44.7685 133.176 44.5095C133.176 43.2617 132.563 41.9904 130.913 41.9904C129.146 41.9904 128.344 43.403 128.344 44.6979C128.344 46.2753 129.334 47.2877 131.055 47.2877C131.738 47.2877 132.375 47.17 132.893 46.9581L132.681 45.8986C132.257 46.0399 131.833 46.1105 131.291 46.1105C130.56 46.1105 129.923 45.8044 129.853 45.1452H133.129V45.1217ZM121.084 47.17H122.499L122.593 45.1688C122.616 44.745 122.616 44.0387 122.64 43.403H122.687C122.805 43.8739 122.97 44.6037 123.111 45.0746L123.701 47.0758H124.856L125.539 45.0275C125.799 44.2035 125.822 44.0387 126.034 43.3794H126.058C126.058 43.968 126.105 44.7214 126.105 45.1452L126.199 47.17H127.661L127.354 42.1081H125.374L124.809 43.8974C124.667 44.3918 124.502 44.9333 124.408 45.2865H124.384C124.29 44.8392 124.125 44.3212 124.054 44.0151L123.512 42.1081H121.509L121.084 47.17ZM116.983 44.0622C117.03 43.6384 117.289 43.0263 117.949 43.0263C118.68 43.0263 118.845 43.662 118.845 44.0622H116.983ZM120.259 45.1217C120.283 45.004 120.306 44.7685 120.306 44.5095C120.306 43.2617 119.694 41.9904 118.044 41.9904C116.276 41.9904 115.474 43.403 115.474 44.6979C115.474 46.2753 116.464 47.2877 118.185 47.2877C118.869 47.2877 119.505 47.17 120.024 46.9581L119.811 45.8986C119.387 46.0399 118.963 46.1105 118.421 46.1105C117.69 46.1105 117.054 45.8044 116.983 45.1452H120.259V45.1217ZM114.814 45.8751C114.579 45.9693 114.296 46.0399 113.919 46.0399C113.141 46.0399 112.528 45.5455 112.528 44.6273C112.528 43.8032 113.047 43.2146 113.895 43.2146C114.319 43.2146 114.579 43.2853 114.767 43.3794L115.027 42.2023C114.697 42.0845 114.249 42.0139 113.824 42.0139C111.939 42.0139 110.925 43.2146 110.925 44.6979C110.925 46.2989 111.962 47.2877 113.612 47.2877C114.202 47.2877 114.744 47.17 115.027 47.0523L114.814 45.8751ZM100.672 42.1081V47.17H107.861V42.1081H106.305V45.9693H105.056V42.1081H103.5V45.9693H102.251V42.1081H100.672ZM97.9139 45.31C97.9139 45.4042 97.9139 45.4984 97.8903 45.569C97.7961 45.8986 97.4661 46.1576 97.0654 46.1576C96.7118 46.1576 96.4525 45.9693 96.4525 45.5455C96.4525 44.9333 97.0889 44.745 97.9139 44.745V45.31ZM99.446 44.1799C99.446 42.9792 98.9039 41.9904 97.2303 41.9904C96.3111 41.9904 95.6039 42.2493 95.274 42.4377L95.5568 43.4501C95.8868 43.2382 96.4289 43.0734 96.9475 43.0734C97.7253 43.0734 97.8668 43.4501 97.8668 43.7326V43.8032C96.0754 43.8032 94.8968 44.4154 94.8968 45.7338C94.8968 46.5343 95.5097 47.2877 96.5232 47.2877C97.1125 47.2877 97.6311 47.0758 97.9846 46.6756H98.0082L98.1025 47.1935H99.5167C99.4696 46.911 99.446 46.4401 99.446 45.9693V44.1799ZM90.5362 44.0858H91.0783C91.8561 44.0858 92.4926 44.3683 92.4926 45.0746C92.4926 45.7809 91.8561 46.087 91.149 46.087C90.8897 46.087 90.7012 46.087 90.5362 46.0634V44.0858ZM90.5362 41.3311C90.6776 41.3076 90.8662 41.2841 91.2197 41.2841C91.9269 41.2841 92.3276 41.5666 92.3276 42.0845C92.3276 42.6025 91.8797 42.9321 91.0547 42.9321H90.5362V41.3311ZM88.9805 47.1229C89.334 47.17 89.9233 47.2171 90.7012 47.2171C92.0919 47.2171 92.9404 46.9816 93.4354 46.5814C93.8597 46.2282 94.1661 45.7338 94.1661 45.0981C94.1661 44.2035 93.5768 43.5913 92.7754 43.3794V43.3559C93.5533 43.0734 93.9304 42.4848 93.9304 41.8727C93.9304 41.2605 93.5768 40.7661 93.0818 40.5071C92.5633 40.201 91.974 40.1069 91.0312 40.1069C90.2533 40.1069 89.4047 40.1775 88.9805 40.2481V47.1229Z" fill="#0292B0"/>
<path d="M74.8613 36.881H79.5991L79.0098 35.2094C77.5249 35.7745 76.1577 36.3395 74.8613 36.881ZM80.2591 36.881H85.3269V32.9021C83.5591 33.5143 81.8619 34.1264 80.2591 34.7385V36.881ZM162.239 36.881H167.307V33.0905H170.937C173.082 33.0905 174.921 32.1723 175.557 30.0063C171.314 30.8774 166.836 31.6308 162.239 31.9368V36.881ZM201.862 28.2405H198.468V26.0509C197.455 25.9803 196.37 25.9803 195.262 26.0745C194.65 26.1215 194.037 26.2157 193.4 26.2863V36.8575H198.468V32.1252H201.862V36.8575H206.93V28.782C205.445 27.8873 203.748 27.1104 201.862 26.5924V28.2405ZM187.201 36.881H191.609V26.5689C190.195 26.8043 188.71 27.0868 187.201 27.4164V36.881ZM86.1519 32.6196L88.6504 36.881H94.7082L90.7247 31.1599C89.1454 31.6308 87.6369 32.1252 86.1519 32.6196ZM101.756 34.1499H100.436V31.4424H101.803C102.746 31.4424 103.689 31.6543 103.689 32.7844C103.689 33.8203 102.699 34.1499 101.756 34.1499ZM105.787 30.1946V30.1475C107.554 29.7002 108.521 28.7349 108.521 26.922V26.8043C106.824 27.1104 105.174 27.44 103.524 27.7931C103.335 28.523 102.487 28.7349 101.709 28.7349H100.436V28.4995C98.8096 28.8762 97.2303 29.2999 95.6746 29.7237V36.881H103.335C106.069 36.881 108.757 36.5514 108.757 33.2082C108.757 31.8898 107.625 30.4536 105.787 30.1946ZM135.298 30.9009H135.25L134.85 29.2529C133.718 29.5825 132.563 29.9121 131.385 30.2888L132.988 36.881H137.207L139.423 28.005C138.22 28.3111 136.995 28.6407 135.722 29.0174L135.298 30.9009ZM181.638 32.9728H181.591V28.6643C180.153 28.9939 178.692 29.3235 177.183 29.6531V36.881H184.632L187.107 27.44C185.693 27.7461 184.255 28.0757 182.793 28.4053L181.638 32.9728ZM115.404 30.8538L116.865 26.5218H116.912L118.35 30.8538H115.404ZM112.622 26.1215L108.851 36.8575H113.895L114.72 34.0087H118.986L119.859 36.8575H125.186L121.014 25.1562C118.161 25.3917 115.356 25.7213 112.622 26.1215ZM126.058 36.881H130.418V30.5948C129.004 31.0186 127.543 31.4895 126.058 31.9604V36.881ZM151.797 30.8538L153.259 26.5218H153.306L154.744 30.8538H151.797ZM149.087 25.9567L145.245 36.8575H150.289L151.114 34.0087H155.38L156.252 36.8575H161.579L157.549 25.5565C155.027 25.3446 152.222 25.5094 149.087 25.9567ZM139.87 36.881H144.49V26.8043C143.029 27.1104 141.473 27.4871 139.87 27.8873V36.881Z" fill="#0292B0"/>
<path d="M181.616 23.6729H177.208V29.0644C178.717 28.7347 180.178 28.4051 181.616 28.0755V23.6729ZM182.983 27.793C186 27.1102 188.923 26.451 191.634 26.0037V23.6964H184.044L182.983 27.793ZM198.493 25.4857V23.6964H193.425V25.7447C194.038 25.6505 194.651 25.5799 195.24 25.5328C196.372 25.4151 197.456 25.4151 198.493 25.4857ZM168.298 30.0061H167.191V26.7335H168.298C169.524 26.7335 170.75 26.8983 170.75 28.311C170.726 29.7942 169.501 30.0061 168.298 30.0061ZM170.962 23.6729H162.241V31.3481C166.884 31.042 171.433 30.2651 175.7 29.3704C175.77 29.0173 175.794 28.617 175.794 28.1932C175.794 24.6617 173.013 23.6729 170.962 23.6729ZM201.864 23.6729V26.0272C203.749 26.5216 205.446 27.275 206.931 28.1462V23.6729H201.864ZM100.437 26.1685H101.828C102.653 26.1685 103.407 26.4275 103.549 27.2044C105.151 26.8513 106.801 26.5216 108.475 26.2391C108.098 24.285 106.071 23.6729 103.996 23.6729H95.6994V29.135C97.2551 28.7112 98.8344 28.311 100.461 27.9107V26.1685H100.437ZM157.314 24.9678L156.843 23.6729H149.866L149.277 25.368C152.246 24.9442 154.91 24.8029 157.314 24.9678ZM69.8184 30.8537L71.2798 26.5216H71.3269L72.7648 30.8537H69.8184ZM74.8862 23.6729H67.9091L63.2656 36.8573H68.3098L69.1348 34.0085H73.4012L74.179 36.5513C75.6169 35.9627 77.149 35.327 78.8225 34.6913L74.8862 23.6729ZM135.888 28.3816C137.161 28.0284 138.387 27.6988 139.612 27.3692L139.825 26.5216H139.872V27.3221C141.474 26.9219 143.007 26.5452 144.492 26.2391V23.6964H137.02L135.888 28.3816ZM120.473 23.6729H113.496L112.836 25.5093C115.452 25.1326 118.092 24.8265 120.803 24.5911L120.473 23.6729ZM133.531 23.6729H126.035V31.3481C127.52 30.8772 128.982 30.4064 130.396 29.9826V26.4981H130.467L131.245 29.7236C132.423 29.3704 133.578 29.0173 134.71 28.6877L133.531 23.6729ZM89.8538 29.8648L94.3087 23.6729H88.5338L85.3753 28.8525H85.3282V23.6729H80.2604V34.1263C81.8632 33.5141 83.5603 32.902 85.3282 32.3134V31.2775H85.3753L85.8703 32.125C87.3317 31.6306 88.8402 31.1362 90.4195 30.6653L89.8538 29.8648Z" fill="#40A9B4"/>
<path d="M0.046875 47.3111C0.046875 47.3111 13.4117 31.9606 29.3457 29.7475C35.1442 28.947 30.6657 40.8837 33.3057 40.9072C35.9456 40.9308 53.6947 33.1614 56.7353 34.1737C60.5538 35.4215 56.9003 43.2851 60.106 43.0026C65.0088 42.5788 68.0495 40.766 73.3294 40.8837C80.9664 41.0485 84.8556 47.3818 84.8556 47.3818C84.8556 47.3818 79.1279 41.331 69.7701 44.2504C59.7053 47.3818 50.2533 50.0657 50.5126 43.45C50.7483 37.4228 35.0735 46.5342 27.5072 47.5936C19.9409 48.6531 23.9008 40.8131 22.8637 38.0584C21.9444 35.6334 13.7181 39.165 9.26317 41.4723C5.60965 43.3087 0.046875 47.3111 0.046875 47.3111Z" fill="#BDE2E8"/>
<path d="M156.369 19.2706C156.181 19.3413 155.945 19.4354 155.568 19.4354C154.861 19.4354 154.342 18.941 154.342 18.117C154.342 17.3871 154.79 16.775 155.591 16.775C155.945 16.775 156.181 16.8456 156.346 16.9398L156.487 16.4454C156.322 16.3512 155.969 16.257 155.591 16.257C154.436 16.257 153.682 17.0575 153.682 18.1405C153.682 19.2235 154.389 19.9534 155.45 19.9534C155.921 19.9534 156.299 19.8357 156.464 19.7415L156.369 19.2706ZM147.624 16.3512V19.8828H148.261V18.3289H148.379C148.968 18.3289 149.298 18.5879 149.557 19.1529C149.675 19.4354 149.793 19.718 149.887 19.8828H150.571C150.406 19.6002 150.288 19.2471 150.194 19.0116C149.911 18.376 149.581 17.9993 148.992 17.9286L150.547 16.3277H149.769L148.426 17.858H148.261V16.3277H147.624V16.3512ZM141.472 17.7638C141.52 17.3165 141.802 16.7279 142.462 16.7279C143.193 16.7279 143.358 17.3636 143.358 17.7638H141.472ZM143.947 18.2347C143.947 18.1641 143.971 18.0699 143.971 17.9286C143.971 17.2694 143.665 16.257 142.51 16.257C141.472 16.257 140.836 17.1046 140.836 18.1641C140.836 19.2235 141.496 19.9534 142.58 19.9534C143.146 19.9534 143.523 19.8357 143.759 19.718L143.641 19.2471C143.405 19.3413 143.122 19.4354 142.651 19.4354C142.015 19.4354 141.449 19.0823 141.425 18.2112H143.947V18.2347ZM134.731 16.3512V17.7638C134.731 18.5643 134.684 19.0587 134.354 19.2942C134.26 19.3648 134.118 19.4354 134 19.4354L134.071 19.9534C134.401 19.9534 134.59 19.8828 134.778 19.718C135.25 19.4119 135.344 18.7527 135.344 17.7638V16.8692H136.57V19.9063H137.206V16.3748H134.731V16.3512ZM127.683 16.3512V19.8828H128.32V16.8456H129.97V19.8828H130.606V16.3512H127.683ZM119.952 19.8828H120.541L120.636 18.2112C120.659 17.8345 120.683 17.3636 120.683 16.9398H120.706C120.801 17.2694 120.942 17.7874 121.06 18.117L121.696 19.8592H122.168L122.851 18.0699C123.04 17.5284 123.134 17.2459 123.228 16.9163H123.252C123.276 17.34 123.299 17.8109 123.323 18.1876L123.393 19.8828H124.006L123.747 16.3512H122.946L122.38 17.9051C122.238 18.2818 122.05 18.8468 121.956 19.1294H121.932C121.861 18.8468 121.696 18.4231 121.602 18.1641L120.966 16.3748H120.164L119.952 19.8828ZM114.79 16.7514C115.544 16.7514 115.851 17.5048 115.851 18.117C115.851 18.9175 115.379 19.4825 114.766 19.4825C114.153 19.4825 113.682 18.8939 113.682 18.117C113.682 17.4578 114.012 16.7514 114.79 16.7514ZM114.79 16.257C113.8 16.257 113.022 16.9398 113.022 18.1405C113.022 19.2706 113.753 19.9534 114.719 19.9534C115.568 19.9534 116.487 19.3883 116.487 18.0699C116.511 17.0104 115.803 16.257 114.79 16.257ZM106.988 16.3512V19.8828H107.624V18.3289H107.742C108.331 18.3289 108.661 18.5879 108.921 19.1529C109.039 19.4354 109.156 19.718 109.251 19.8828H109.934C109.769 19.6002 109.651 19.2471 109.557 19.0116C109.274 18.376 108.944 17.9993 108.355 17.9286L109.911 16.3277H109.133L107.789 17.858H107.624V16.3277H106.988V16.3512ZM96.1923 14.915C96.2159 15.4095 96.4752 15.8332 97.1116 15.8332C97.6773 15.8332 98.0544 15.5272 98.078 14.915H97.6066C97.583 15.2447 97.4416 15.4801 97.1116 15.4801C96.8052 15.4801 96.6637 15.2447 96.6402 14.915H96.1923ZM95.6502 16.3512V19.8828H96.3809C96.758 19.2706 97.1587 18.5879 97.4887 18.0228C97.7009 17.6697 97.8423 17.3871 98.078 16.9163H98.1016C98.078 17.4813 98.0544 17.7874 98.0544 18.3524V19.8592H98.6673V16.3277H97.913L96.8052 18.1641C96.5695 18.5643 96.4516 18.8233 96.2395 19.2471H96.2159C96.2395 18.7527 96.263 18.3995 96.263 17.8345V16.3512H95.6502ZM90.276 16.7514C91.0303 16.7514 91.3367 17.5048 91.3367 18.117C91.3367 18.9175 90.8653 19.4825 90.2524 19.4825C89.6396 19.4825 89.1681 18.8939 89.1681 18.117C89.1917 17.4578 89.5217 16.7514 90.276 16.7514ZM90.2996 16.257C89.3096 16.257 88.5317 16.9398 88.5317 18.1405C88.5317 19.2706 89.2624 19.9534 90.2288 19.9534C91.0774 19.9534 91.9967 19.3883 91.9967 18.0699C91.9967 17.0104 91.3131 16.257 90.2996 16.257ZM82.4268 16.3512V17.7638C82.4268 18.5643 82.3797 19.0587 82.0497 19.2942C81.9554 19.3648 81.814 19.4354 81.6961 19.4354L81.7668 19.9534C82.0968 19.9534 82.2854 19.8828 82.474 19.718C82.9454 19.4119 83.0397 18.7527 83.0397 17.7638V16.8692H84.2654V19.9063H84.9018V16.3748H82.4268V16.3512ZM75.2612 16.3512V19.8828H75.9919C76.369 19.2706 76.7697 18.5879 77.0997 18.0228C77.3119 17.6697 77.4533 17.3871 77.689 16.9163H77.7126C77.689 17.4813 77.6654 17.7874 77.6654 18.3524V19.8592H78.2783V16.3277H77.524L76.4162 18.1641C76.1805 18.5643 76.0626 18.8233 75.8505 19.2471H75.8269C75.8505 18.7527 75.8741 18.3995 75.8741 17.8345V16.3512H75.2612ZM67.1056 16.3512L68.5199 17.9522C67.9777 17.9993 67.6713 18.3289 67.4592 18.8939C67.3413 19.2235 67.2235 19.6002 67.082 19.8828H67.6949C67.8127 19.6709 67.907 19.3883 68.0249 19.0823C68.237 18.4937 68.5434 18.3289 69.0384 18.3289H69.1563V19.8828H69.7691V18.3289H69.887C70.3584 18.3289 70.6884 18.4937 70.9006 19.0823C70.9948 19.3883 71.1127 19.6709 71.2305 19.8828H71.867C71.7255 19.6002 71.6077 19.2235 71.4898 18.8939C71.2777 18.3289 70.9713 18.0228 70.4291 17.9522L71.8198 16.3512H71.0891L69.9106 17.9051H69.7927V16.3512H69.1799V17.9051H69.0384L67.8599 16.3512H67.1056Z" fill="#40A9B4"/>
<path d="M56.0746 18.5876C53.3168 19.1761 50.394 23.2021 49.8047 24.0262V25.015C50.5118 24.2145 53.6232 20.8007 55.9567 20.5181C57.7953 20.3062 58.4317 21.5541 58.4317 21.5541C58.4317 21.5541 58.8324 17.999 56.0746 18.5876ZM56.0746 15.621C53.3168 16.2096 50.394 20.6594 49.8047 21.6011V22.59C50.5118 21.6953 53.6232 17.8577 55.9567 17.5752C57.7953 17.3633 58.4317 18.6111 58.4317 18.6111C58.4317 18.6111 58.8324 15.0325 56.0746 15.621ZM56.0746 21.5305C53.3168 22.1191 50.394 25.7213 49.8047 26.4747V27.4635C50.5118 26.7572 53.6232 23.7672 55.9567 23.4846C57.7953 23.2728 58.4317 24.5206 58.4317 24.5206C58.4317 24.5206 58.8324 20.9655 56.0746 21.5305ZM56.0746 30.4065C53.3168 30.9951 50.394 32.8786 49.8047 33.2553V34.2677C50.5118 33.9616 53.6232 32.6196 55.9567 32.3371C57.7953 32.1252 58.4317 33.373 58.4317 33.373C58.4317 33.373 58.8324 29.8179 56.0746 30.4065ZM55.9803 14.6087C57.8189 14.3968 58.4553 15.6446 58.4553 15.6446C58.4553 15.6446 58.856 12.0895 56.0982 12.6781C53.3403 13.2667 50.4175 18.1402 49.8283 19.1761V20.165C50.5118 19.1291 53.6468 14.8912 55.9803 14.6087ZM56.0746 27.4635C53.3168 28.0521 50.394 30.5713 49.8047 31.1128V32.1016C50.5118 31.6543 53.6232 29.6766 55.9567 29.3941C57.7953 29.1822 58.4317 30.43 58.4317 30.43C58.4317 30.43 58.8324 26.8749 56.0746 27.4635ZM56.0746 24.497C53.3168 25.0856 50.394 28.2405 49.8047 28.9232V29.9121C50.5118 29.2999 53.6232 26.7337 55.9567 26.4512C57.7953 26.2393 58.4317 27.4871 58.4317 27.4871C58.4317 27.4871 58.8324 23.9084 56.0746 24.497Z" fill="#0292B0"/>
<path d="M29.7932 13.1259C26.6582 13.7851 23.3111 18.5174 22.8633 19.1766V20.2361C23.4761 19.5298 27.0354 15.5509 29.6518 15.2448C31.6553 15.0094 32.3624 16.3749 32.3624 16.3749C32.3624 16.3749 32.8103 12.4902 29.7932 13.1259ZM29.7932 9.90038C26.6582 10.5596 23.3111 15.8099 22.8633 16.5397V17.5992C23.4761 16.7987 27.0354 12.3489 29.6518 12.0429C31.6553 11.8074 32.3624 13.173 32.3624 13.173C32.3624 13.173 32.8103 9.2647 29.7932 9.90038ZM29.7932 16.3749C26.6582 17.0341 23.3111 21.272 22.8633 21.8606V22.9201C23.4761 22.2844 27.0354 18.8234 29.6518 18.4938C31.6553 18.2584 32.3624 19.6239 32.3624 19.6239C32.3624 19.6239 32.8103 15.7157 29.7932 16.3749ZM29.7932 22.8259C26.6582 23.4851 23.3111 26.4516 22.8633 26.8519V27.9349C23.4761 27.5346 27.0354 25.2509 29.6518 24.9448C31.6553 24.7094 32.3624 26.0749 32.3624 26.0749C32.3624 26.0749 32.8103 22.1902 29.7932 22.8259ZM29.6753 8.77029C31.6789 8.53485 32.386 9.90038 32.386 9.90038C32.386 9.90038 32.8103 6.01567 29.7932 6.65135C26.6582 7.31058 23.3111 13.0552 22.8633 13.8557V14.9152C23.4997 14.0205 27.0354 9.0999 29.6753 8.77029ZM29.7932 19.6004C26.6582 20.2596 23.3111 23.9795 22.8633 24.4975V25.557C23.4761 25.0154 27.0354 22.0254 29.6518 21.6958C31.6553 21.4603 32.3624 22.8259 32.3624 22.8259C32.3624 22.8259 32.8103 18.9647 29.7932 19.6004ZM29.7932 26.0749C26.6582 26.7341 23.3111 28.9472 22.8633 29.2533V30.3363C23.4761 30.0538 27.0354 28.5235 29.6518 28.1938C31.6553 27.9584 32.3624 29.3239 32.3624 29.3239C32.3624 29.3239 32.8103 25.4392 29.7932 26.0749Z" fill="#40A9B4"/>
<path d="M44.456 30.4302C39.4118 31.4897 33.9904 37.611 33.6133 38.0348V39.5416C33.8018 39.3768 34.2968 38.9766 35.004 38.4351C36.0175 37.611 37.4318 36.528 39.0346 35.6098C42.0517 33.8676 45.6345 32.8317 48.5102 34.362C48.5338 33.02 48.2274 29.6297 44.456 30.4302ZM44.456 25.3919C39.4118 26.4513 33.9904 33.797 33.6133 34.3385V35.8453C34.1554 35.2331 36.3475 32.8552 39.0346 30.9953C42.0517 28.8999 45.6345 27.6521 48.5102 29.4885C48.5574 28.2406 48.3924 24.5678 44.456 25.3919ZM39.0346 26.3571C42.0517 23.8615 45.6345 22.3783 48.5102 24.5443C48.5809 23.4848 48.5338 19.4824 44.456 20.33C39.4118 21.3894 33.9904 29.9829 33.6133 30.595V32.1254C34.1554 31.419 36.3475 28.5938 39.0346 26.3571ZM39.0346 21.5778C42.0517 18.7996 45.6345 17.1516 48.5102 19.553C48.5809 18.5406 48.5809 14.444 44.456 15.3151C39.4118 16.3746 33.9904 26.0746 33.6133 26.7574V28.3584C34.1554 27.5343 36.3475 24.0499 39.0346 21.5778ZM39.0346 16.869C41.7924 13.5965 45.6345 12.019 48.4866 14.6559C48.5574 13.9496 48.7695 9.38214 44.456 10.3003C39.4118 11.3598 33.9904 22.3076 33.6133 23.061V24.5914C33.684 24.4736 33.8254 24.2618 34.014 24.0028C34.8861 22.5902 36.9132 19.3647 39.0346 16.869ZM48.4866 5.00301C48.5338 4.60276 48.9816 -0.906464 44.456 0.129459C39.4118 1.30664 34.8154 12.4193 33.6133 15.5741V17.2457C34.1554 16.1863 36.5361 10.8889 39.0346 7.61636C41.8867 3.89645 45.611 1.91878 48.4866 5.00301ZM48.4866 9.66466C48.5338 9.28796 48.9816 4.27315 44.456 5.2149C39.4118 6.27437 34.8154 16.4452 33.6133 19.3176V20.8479C34.1554 19.8826 36.5361 15.0562 39.0346 12.0661C41.8867 8.65228 45.611 6.83942 48.4866 9.66466Z" fill="#2FB6BC"/>
</svg>
