<svg width="207" height="78" viewBox="0 0 207 78" fill="none" xmlns="http://www.w3.org/2000/svg">
<path fill-rule="evenodd" clip-rule="evenodd" d="M177.203 73.4693C176.065 73.4693 174.9 73.2314 174.212 72.782C173.524 72.3326 173.074 71.6454 172.836 70.7202C172.598 69.795 172.836 68.8963 173.286 67.4954C173.736 66.3587 174.424 65.1957 175.35 64.2705C176.276 63.3454 177.414 62.6581 178.579 62.2087C179.717 61.7594 181.119 61.5215 182.257 61.5215C183.395 61.5215 184.56 61.7594 185.248 62.2087C185.936 62.6581 186.386 63.3454 186.624 64.2705C186.862 65.1957 186.624 66.3323 186.174 67.4954C185.724 68.632 185.036 69.795 184.11 70.7202C183.184 71.4075 182.046 72.0947 180.881 72.782C179.743 73.2314 178.367 73.4693 177.203 73.4693ZM178.367 70.7202C179.293 70.7202 179.981 70.4823 180.908 69.795C181.834 69.1078 182.284 68.4205 182.734 67.4954C183.184 66.5702 183.184 65.6715 182.972 65.1957C182.734 64.5084 182.046 64.2705 181.146 64.2705C180.246 64.2705 179.532 64.5084 178.605 65.1957C177.679 65.8829 177.229 66.5702 176.779 67.4954C176.329 68.4205 176.329 69.3193 176.541 69.795C176.991 70.4823 177.441 70.7202 178.367 70.7202Z" fill="#96683B"/>
<path fill-rule="evenodd" clip-rule="evenodd" d="M149.865 73.4693C148.727 73.4693 147.562 73.2314 146.874 72.782C146.186 72.3326 145.736 71.6454 145.498 70.7202C145.26 69.795 145.498 68.8963 145.948 67.4954C146.398 66.3587 147.086 65.1957 148.012 64.2705C148.939 63.3454 150.076 62.6581 151.241 62.2087C152.379 61.7594 153.781 61.5215 154.919 61.5215C156.057 61.5215 157.222 61.7594 157.91 62.2087C158.598 62.6581 159.048 63.3454 159.048 64.5084L155.819 65.8829C155.581 64.7463 155.131 64.2705 153.993 64.2705C153.067 64.2705 152.167 64.5084 151.453 65.1957C150.526 65.8829 150.077 66.5702 149.627 67.4954C149.177 68.4205 149.177 69.3193 149.388 69.795C149.627 70.4823 150.315 70.7202 151.214 70.7202C152.352 70.7202 153.517 70.2708 154.443 69.1078L156.507 70.4823C155.581 71.4075 154.681 72.0947 153.517 72.5441C152.379 73.2314 151.003 73.4693 149.865 73.4693Z" fill="#96683B"/>
<path fill-rule="evenodd" clip-rule="evenodd" d="M43.9035 1.83496L44.1417 24.1181L0 52.3486V34.4534L5.0546 31.2286V24.1181L43.9035 1.83496Z" fill="#E8E8E8"/>
<path fill-rule="evenodd" clip-rule="evenodd" d="M0 41.3259L36.7847 18.1441C38.6108 17.0075 40.4632 15.8444 42.5274 15.3951C44.5916 14.7078 46.8939 14.4699 49.1963 14.7078L62.7458 17.0075V20.6817L48.7199 18.382C46.8939 18.1441 45.2796 18.382 43.6653 18.8314C42.0511 19.2807 40.225 20.2059 38.6108 21.3689L0 45.7138V41.3259Z" fill="#96683B"/>
<path fill-rule="evenodd" clip-rule="evenodd" d="M0 48.2252L36.7848 25.4927C38.6108 24.3561 40.4632 23.4309 42.5274 22.7437C44.5916 22.0564 46.8939 21.8185 49.1963 22.0564L57.9294 23.4309L51.0223 25.9685L48.72 25.7306C46.8939 25.4927 45.2796 25.7306 43.6654 26.18C42.0511 26.6294 40.2251 27.5545 38.6108 28.4797L0 52.3488V48.2252Z" fill="#96683B"/>
<path fill-rule="evenodd" clip-rule="evenodd" d="M0 34.454L36.7847 10.7964C38.6108 9.65973 40.4632 8.49668 42.5274 7.80942C44.5916 7.12216 46.8939 6.88426 49.1963 7.36005L62.7458 9.65973V13.3339L48.7199 10.7964C46.8939 10.5585 45.2796 10.7964 43.6653 11.2457C42.0511 11.6951 40.225 12.6202 38.6108 13.7833L0 38.8155V34.454Z" fill="#96683B"/>
<path fill-rule="evenodd" clip-rule="evenodd" d="M0 56.0223C28.7397 36.964 64.5983 18.1437 99.5305 16.5312L84.1286 54.172H76.7716L89.8712 24.0911C59.0673 28.0032 23.447 47.9602 0 63.3443V56.0223Z" fill="#364D61"/>
<path fill-rule="evenodd" clip-rule="evenodd" d="M58.1415 58.085H69.177L68.039 60.8341H60.4439L59.0678 64.0589H62.7463C64.5723 64.0589 65.7367 64.5083 66.4247 65.1955C67.1128 65.8828 67.1128 67.0194 66.4247 68.6318C65.7367 70.2443 64.8104 71.3809 63.1961 72.0681C61.82 72.9933 59.9676 73.2048 58.1415 73.2048H51.4727L56.7654 60.8076H54.2249L55.3628 58.0586H58.1415V58.085ZM59.0678 70.7201C59.994 70.7201 60.6821 70.4822 61.3701 70.2707C62.0582 69.8213 62.5081 69.3455 62.7463 68.6583C63.1961 67.2837 62.7463 66.5965 60.9202 66.5965H58.168L56.342 70.7201H59.0678Z" fill="#96683B"/>
<path fill-rule="evenodd" clip-rule="evenodd" d="M76.3217 61.5215C78.1478 61.5215 79.3122 61.9708 80.0002 62.896C80.6883 63.8212 80.4501 64.9578 79.762 66.8081L78.1477 70.7202H79.762L78.6241 73.4693H75.3955C74.9456 73.4693 74.4693 73.0199 74.4693 72.5441V72.0947C73.3313 73.2314 71.9287 73.7071 70.1027 73.7071C69.1765 73.7071 68.4884 73.4693 68.0386 73.2578C67.5887 73.0199 67.1123 72.5705 67.1123 72.1212C66.8742 71.6718 67.1123 70.9845 67.3505 70.2973C67.8004 69.1607 68.4884 68.4734 69.6529 67.7597C70.7908 67.0724 72.1934 66.8345 73.7812 66.8345H76.5335C76.7716 66.1473 76.7716 65.46 76.5335 65.2221C76.2953 64.7728 75.6072 64.5349 74.7074 64.5349C74.0194 64.5349 73.3313 64.5349 72.6433 64.7728C71.9552 65.0107 71.2672 65.2221 70.8173 65.46L70.5791 63.1603C71.5053 62.711 72.4051 62.4731 73.3313 62.0237C74.4693 61.5215 75.3955 61.5215 76.3217 61.5215ZM71.9552 71.1696C72.6433 71.1696 73.0932 70.9317 73.5695 70.7202C74.0194 70.4823 74.7075 70.0329 74.9456 69.5836L75.3955 68.447H73.0932C71.717 68.447 70.7908 68.8963 70.3409 69.8215C70.1027 70.2708 70.1027 70.5087 70.3409 70.9581C71.029 71.1696 71.2671 71.1696 71.9552 71.1696Z" fill="#96683B"/>
<path fill-rule="evenodd" clip-rule="evenodd" d="M92.4118 61.5215C93.5497 61.5215 94.476 61.7594 95.164 62.2087C95.8521 62.6581 96.302 63.3454 96.302 64.2705C96.5401 65.1957 96.302 66.3323 95.6139 67.4954C95.164 68.632 94.476 69.7951 93.5497 70.7202C92.6235 71.6454 91.7237 72.3326 90.5593 72.782C89.4214 73.2314 88.257 73.4693 87.3307 73.4693C85.7164 73.4693 84.7902 73.0199 84.3403 72.0947L82.038 77.5928H78.5977L84.1021 64.5084H82.4878L83.6258 61.7594H86.8544C87.3043 61.7594 87.7806 62.2087 87.7806 62.6845V62.9224C89.4214 61.9973 90.7975 61.5215 92.4118 61.5215ZM87.8071 70.7202C88.7333 70.7202 89.4214 70.4823 90.3476 69.7951C91.2738 69.1078 91.7237 68.4205 92.1736 67.4954C92.6235 66.5702 92.6235 65.6715 92.4118 65.1957C92.1736 64.5084 91.4855 64.2705 90.5858 64.2705C89.686 64.2705 88.9715 64.5084 88.0453 65.1957C87.119 65.8829 86.6691 66.5702 86.2192 67.4954C85.7694 68.4205 85.7694 69.3193 85.9811 69.7951C86.431 70.4823 86.8808 70.7202 87.8071 70.7202Z" fill="#96683B"/>
<path fill-rule="evenodd" clip-rule="evenodd" d="M111.254 70.4813H112.869L111.731 73.2303H108.502C108.052 73.2303 107.814 72.9924 107.576 72.7809C107.338 72.543 107.338 72.0937 107.576 71.8558L109.878 66.3577L102.759 73.2567L101.621 66.1462L98.631 73.2567H95.6406L99.5573 64.2959H97.943L99.0809 61.5469H103.209C103.659 61.5469 104.136 61.9962 104.136 62.472L105.062 68.208L111.281 61.9962C111.519 61.7583 111.969 61.5469 112.419 61.5469H114.959L111.254 70.4813Z" fill="#96683B"/>
<path fill-rule="evenodd" clip-rule="evenodd" d="M199.51 70.4823H202.051L200.913 73.2314H196.546C196.097 73.2314 195.858 72.9935 195.62 72.782C195.382 72.5441 195.382 72.0947 195.62 71.8568L197.923 66.3587L189.639 73.0199C189.401 73.2578 188.951 73.4693 188.501 73.4693H185.961L189.878 64.5084H188.052L189.19 61.7594H192.842C193.291 61.7594 193.53 61.9973 193.768 62.2087C194.006 62.4466 194.006 62.896 193.768 63.1339L191.465 68.632L199.749 61.9708C199.987 61.7329 200.437 61.5215 200.887 61.5215H203.427L199.51 70.4823Z" fill="#96683B"/>
<path fill-rule="evenodd" clip-rule="evenodd" d="M169.873 70.4823H171.487L170.349 73.2314H166.882C166.432 73.2314 165.956 72.9935 165.956 72.5441L165.03 68.8699H163.204L161.378 73.2314H157.938L161.854 64.2705H160.24L161.378 61.5215H164.342C164.792 61.5215 165.03 61.7594 165.268 61.9708C165.506 62.2087 165.506 62.6581 165.268 62.896L163.892 66.1208H165.506L169.635 62.4466C170.323 61.9973 171.011 61.5215 171.937 61.5215H174.689L173.551 64.2705H171.725C171.487 64.2705 171.275 64.2705 171.037 64.5084L168.047 67.046L168.735 69.5836C168.946 70.2444 169.396 70.4823 169.873 70.4823Z" fill="#96683B"/>
<path fill-rule="evenodd" clip-rule="evenodd" d="M127.344 70.4823H128.959L127.821 73.2314H124.38C123.931 73.2314 123.692 72.9935 123.454 72.782C123.216 72.5441 123.216 72.0947 123.454 71.8568L125.757 66.3587L117.473 73.0199C117.235 73.2578 116.785 73.4693 116.335 73.4693H113.795L117.712 64.5084H116.097L117.235 61.7594H120.676C121.125 61.7594 121.364 61.9973 121.602 62.2087C121.84 62.4466 121.84 62.896 121.602 63.1339L119.299 68.632L127.583 61.9708C127.821 61.7329 128.271 61.5215 128.721 61.5215H131.261L127.344 70.4823Z" fill="#96683B"/>
<path fill-rule="evenodd" clip-rule="evenodd" d="M142.271 70.4823H144.097L142.959 73.2314H139.519C139.069 73.2314 138.831 72.9935 138.593 72.782C138.354 72.5441 138.354 72.0947 138.593 71.8568L139.969 68.8699H135.602L133.776 73.2314H130.336L134.253 64.2705H132.638L133.776 61.5215H136.74C137.19 61.5215 137.428 61.7594 137.666 61.9708C137.905 62.2087 137.905 62.6581 137.666 62.896L136.29 66.1208H140.657L142.721 61.5215H146.161L142.271 70.4823Z" fill="#96683B"/>
<path fill-rule="evenodd" clip-rule="evenodd" d="M28.264 70.4823H29.8783L28.7403 73.2314H25.3C24.8502 73.2314 24.612 72.9935 24.3738 72.782C24.1356 72.5441 24.1356 72.0947 24.3738 71.8568L25.7499 68.8699H21.3834L19.5574 73.2314H15.8789L19.7956 64.2705H18.1813L19.3192 61.5215H22.7595C23.2094 61.5215 23.4476 61.7594 23.6857 61.9708C23.9239 62.2087 23.9239 62.6581 23.6857 62.896L22.3096 66.1208H26.9143L28.9785 61.5215H32.4188L28.264 70.4823Z" fill="#96683B"/>
<path fill-rule="evenodd" clip-rule="evenodd" d="M40.226 61.5215C42.0521 61.5215 43.2165 61.9708 43.9045 62.896C44.5926 63.8212 44.3544 64.9578 43.6663 66.8081L42.052 70.7202H43.6663L42.5284 73.4693H39.2998C38.8499 73.4693 38.3736 73.0199 38.3736 72.5441V72.0947C37.2356 73.2314 35.833 73.7071 34.007 73.7071C33.0808 73.7071 32.3927 73.4693 31.9429 73.2578C31.493 73.0199 31.0166 72.5705 31.0166 72.1212C30.7784 71.6718 31.0166 70.9845 31.2548 70.2973C31.7047 69.1607 32.3927 68.4734 33.5572 67.7597C34.6951 67.0724 36.0977 66.8345 37.6855 66.8345H40.4378C40.6759 66.1473 40.6759 65.46 40.4378 65.2221C40.1996 64.7728 39.5115 64.5349 38.6117 64.5349C37.9237 64.5349 37.2356 64.5349 36.5476 64.7728C35.8595 65.0107 35.1714 65.2221 34.7216 65.46L34.4834 63.1603C35.4096 62.711 36.3094 62.4731 37.2356 62.0237C38.4 61.5215 39.2998 61.5215 40.226 61.5215ZM35.8595 71.1696C36.5476 71.1696 36.9975 70.9317 37.4738 70.7202C37.9237 70.4823 38.6118 70.0329 38.8499 69.5836L39.2998 68.447H36.9975C35.6213 68.447 34.6951 68.8963 34.2452 69.8215C34.007 70.2708 34.007 70.5087 34.2452 70.9581C34.9333 71.1696 35.1714 71.1696 35.8595 71.1696Z" fill="#96683B"/>
<path fill-rule="evenodd" clip-rule="evenodd" d="M193.293 59.6973L194.431 56.9482H202.026L200.888 59.6973H193.293Z" fill="#96683B"/>
<path fill-rule="evenodd" clip-rule="evenodd" d="M2.75195 63.8209C19.9799 52.7983 37.9224 42.9387 55.3886 35.8018V53.4855L2.75195 63.8209Z" fill="url(#paint0_linear_349_29454)"/>
<path fill-rule="evenodd" clip-rule="evenodd" d="M128.484 54.1728L133.538 42.7008L121.365 52.7983C120.227 53.7234 118.824 54.4107 117.237 54.4107H114.246L123.429 33.0527H128.934L123.641 45.0005L135.814 34.6652C136.952 33.5285 138.566 33.0527 140.181 33.0527H142.933L134.015 54.1728H128.484Z" fill="#364D61"/>
<path fill-rule="evenodd" clip-rule="evenodd" d="M161.111 33.0527L157.67 41.0884H149.625L153.304 33.0527H147.561L138.59 54.1728H144.121L147.561 46.1371H155.368L151.928 54.1728H157.67L166.642 33.0527H161.111Z" fill="#364D61"/>
<path fill-rule="evenodd" clip-rule="evenodd" d="M111.943 33.0527H108.953C106.888 33.0527 105.036 33.9779 103.898 35.5903L102.972 36.7269L88.4961 54.4107H94.9268L97.4673 51.1859H106.439V54.4107H111.943V33.0527ZM106.412 39.2645V46.375H101.119L106.412 39.2645Z" fill="#364D61"/>
<path fill-rule="evenodd" clip-rule="evenodd" d="M169.872 36.9643L163.653 51.6611C163.414 52.1105 163.414 52.7978 163.891 53.2736C164.129 53.7229 164.817 53.9608 165.267 53.9608H178.128L180.192 49.15H170.321L171.698 45.7137H180.431L182.495 40.9029H173.762L175.138 37.678H184.797L186.861 32.8672H176.064C173.074 33.0522 170.771 34.4532 169.872 36.9643Z" fill="#364D61"/>
<path fill-rule="evenodd" clip-rule="evenodd" d="M191.706 33.0524L182.734 54.1724H188.239L190.991 47.5113H193.743C199.036 47.5113 203.614 45.8988 206.155 40.1629C208.457 34.6648 205.229 32.8145 199.936 32.8145H191.706V33.0524ZM200.439 40.1893C199.512 42.0132 197.898 42.7269 196.31 42.7269H193.293L195.358 37.916H198.348C199.962 37.8896 201.127 38.339 200.439 40.1893Z" fill="#364D61"/>
<path fill-rule="evenodd" clip-rule="evenodd" d="M141.581 26.418H128.957L127.555 30.0657H139.966L141.581 26.418Z" fill="#364D61"/>
<path fill-rule="evenodd" clip-rule="evenodd" d="M5.05469 24.1178L36.5467 3.68503C38.3727 2.54841 40.4633 1.38535 42.2893 0.698089C44.3535 0.0108277 46.6559 -0.22707 49.1964 0.248726L62.7459 2.99777V6.67197L48.5083 3.68503C46.894 3.23567 45.2797 3.44713 43.6919 3.92293C41.8659 4.37229 40.2516 5.53535 38.6373 6.46051L5.08115 28.2678V24.1178H5.05469Z" fill="#96683B"/>
<defs>
<linearGradient id="paint0_linear_349_29454" x1="29.0703" y1="34.6334" x2="29.0703" y2="64.8755" gradientUnits="userSpaceOnUse">
<stop stop-color="#EDEDED"/>
<stop offset="1" stop-color="white"/>
</linearGradient>
</defs>
</svg>
