<svg width="185" height="97" viewBox="0 0 185 97" fill="none" xmlns="http://www.w3.org/2000/svg">
<g clip-path="url(#clip0_349_29858)">
<path fill-rule="evenodd" clip-rule="evenodd" d="M87.5215 81.5753C88.3666 78.6733 89.2117 75.7942 90.0796 72.915C92.5234 75.4514 94.9901 77.9878 97.4339 80.5242L111.8 78.9932V80.9355L102.801 86.054L108.625 92.2693V94.2116L94.6703 90.6927L83.5703 96.9994V95.0571C84.2327 92.8177 84.8722 90.5784 85.5345 88.3391L73.2012 85.0486V83.1063C77.9975 82.5808 82.7481 82.0781 87.5215 81.5753Z" fill="#83746C"/>
<path fill-rule="evenodd" clip-rule="evenodd" d="M87.5202 81.5525L90.0782 72.915L97.4325 80.5014L111.799 78.9704L101.612 84.7744L108.624 92.2465L94.6918 88.7275L83.5918 95.0342L86.0813 86.511L73.2227 83.0835L87.5202 81.5525Z" fill="white"/>
<path fill-rule="evenodd" clip-rule="evenodd" d="M88.0245 81.782L90.377 73.8301L97.1147 80.7995L110.293 79.4056L100.952 84.7297L107.392 91.5848L94.6023 88.3401L84.4159 94.1441L86.7227 86.3292L74.9375 83.1759L88.0245 81.782Z" fill="#E20613"/>
<path fill-rule="evenodd" clip-rule="evenodd" d="M21.8807 63.4782C22.4288 61.376 22.977 59.2737 23.5023 57.1943C25.3751 59.0681 27.2251 60.9189 29.098 62.7927L40.9288 61.4674V63.4096L33.506 67.637L37.914 71.91V73.8523L27.4992 71.0645L19.14 75.8403V73.898C19.5282 72.3899 19.9393 70.8589 20.3276 69.3508L10.4609 66.7687V64.8264C14.2751 64.3922 18.0665 63.9352 21.8807 63.4782Z" fill="#83746C"/>
<path fill-rule="evenodd" clip-rule="evenodd" d="M49.1513 77.2348C49.7223 74.6755 50.2933 72.1163 50.8415 69.5342C53.1026 71.7278 55.3865 73.8986 57.6476 76.0694L70.6661 74.3099V76.2522L63.0149 81.0051L68.1995 86.1464V88.0887L56.2773 85.1867L46.5476 91.2421V89.2998C46.9816 87.3118 47.4155 85.301 47.8495 83.2901L37.252 80.7994V78.8572C41.226 78.3087 45.1773 77.7832 49.1513 77.2348Z" fill="#83746C"/>
<path fill-rule="evenodd" clip-rule="evenodd" d="M49.15 77.2348L50.8401 69.5342L57.6691 76.0694L70.6876 74.2871L61.8259 79.794L68.221 86.1236L56.2987 83.2444L46.5691 89.2769L48.2821 81.4164L37.2734 78.8343L49.15 77.2348Z" fill="white"/>
<path fill-rule="evenodd" clip-rule="evenodd" d="M135.987 79.0622C137.882 75.8632 139.778 72.6869 141.674 69.5107C143.569 72.7555 145.488 76.0003 147.384 79.245H164.125V81.1873L151.495 86.2372L156.086 94.0978V96.0401L141.263 90.1218L127.216 95.7202V93.7779C128.678 91.31 130.14 88.8422 131.624 86.3743L118.697 81.1187V79.1765C124.499 79.1308 130.254 79.0851 135.987 79.0622Z" fill="#83746C"/>
<path fill-rule="evenodd" clip-rule="evenodd" d="M135.986 79.0398L141.673 69.4883L147.406 79.2226H164.147L150.58 84.6381L156.108 94.0525L141.308 88.1342L127.261 93.7326L132.583 84.7752L118.742 79.1312L135.986 79.0398Z" fill="white"/>
<path fill-rule="evenodd" clip-rule="evenodd" d="M21.8793 63.4782L23.5009 57.1943L29.0966 62.7698L40.9275 61.4445L32.2485 66.4031L37.9127 71.91L27.5207 69.1222L19.1614 73.898L20.8059 67.5456L10.4824 64.8492L21.8793 63.4782Z" fill="white"/>
<path fill-rule="evenodd" clip-rule="evenodd" d="M22.3817 63.6388L23.8435 58.0176L28.8453 63.0218L39.4428 61.8336L31.6774 66.2666L36.7478 71.2023L27.4293 68.6887L19.9607 72.9617L21.4453 67.2948L12.1953 64.8727L22.3817 63.6388Z" fill="#E20613"/>
<path fill-rule="evenodd" clip-rule="evenodd" d="M49.6076 77.4397L51.1379 70.4932L57.3045 76.3886L69.0897 74.789L61.073 79.7476L66.8514 85.483L56.0712 82.8552L47.278 88.3165L48.8082 81.2329L38.873 78.9021L49.6076 77.4397Z" fill="#E20613"/>
<path fill-rule="evenodd" clip-rule="evenodd" d="M136.375 79.2224L141.674 70.3564L146.973 79.4052H162.549L149.942 84.4552L155.081 93.184L141.308 87.6999L128.244 92.9098L133.223 84.5694L120.342 79.3138L136.375 79.2224Z" fill="#E20613"/>
<path fill-rule="evenodd" clip-rule="evenodd" d="M126.303 59.0458V45.1299H129.523V50.5454H139.824V45.1299H143.044V59.0458H139.824V53.0818H129.523V59.0458H126.303Z" fill="#1D1D1B"/>
<path fill-rule="evenodd" clip-rule="evenodd" d="M113.284 51.6651L122.58 45.1299H117.852L110.155 50.8882L110.064 45.1299H106.843V50.8882L99.055 45.1299H94.3272L103.646 51.6651L93.3223 59.0458H98.0729L106.843 52.5334V59.0458H110.064L110.155 52.5334L118.811 59.0458H123.539L113.284 51.6651Z" fill="#1D1D1B"/>
<path fill-rule="evenodd" clip-rule="evenodd" d="M73.0176 59.0458V45.1299H75.941L75.9867 54.7728L87.2923 45.1299H89.5991V59.0458H86.7213L86.6299 49.3572L75.3472 59.0458H73.0176Z" fill="#1D1D1B"/>
<path fill-rule="evenodd" clip-rule="evenodd" d="M51.8906 59.0458V45.1299H55.0882V50.5454H65.4116V45.1299H68.632V59.0458H65.4116V53.0818H55.0882V59.0458H51.8906Z" fill="#1D1D1B"/>
<path fill-rule="evenodd" clip-rule="evenodd" d="M168.418 58.9311V45.0381H171.341L171.387 54.681L182.67 45.0381H184.999V58.9311H182.122L182.03 49.2654L170.748 58.9311H168.418Z" fill="#1D1D1B"/>
<path fill-rule="evenodd" clip-rule="evenodd" d="M147.451 58.9311V45.0381H150.352L150.397 54.681L161.703 45.0381H164.01V58.9311H161.132L161.064 49.2654L149.781 58.9311H147.451Z" fill="#1D1D1B"/>
<path fill-rule="evenodd" clip-rule="evenodd" d="M0 44.9928C3.35741 44.6044 6.71481 44.2159 10.0722 43.8046C10.5062 41.8395 10.9401 39.8743 11.3512 37.9092C13.1327 39.623 14.9142 41.3367 16.6957 43.0505L26.471 41.7709V43.6903L20.8525 47.0265L24.6667 50.6826V52.6248L15.3025 50.4541L8.13086 54.7042V52.7619C8.40494 51.528 8.67901 50.2941 8.93025 49.0602L0 46.9351V44.9928Z" fill="#83746C"/>
<path fill-rule="evenodd" clip-rule="evenodd" d="M9.34136 47.2321L0 44.97L10.0722 43.8046L11.3512 37.9092L16.7185 43.0277L26.471 41.748L19.6191 45.8383L24.6667 50.6826L15.3025 48.5118L8.13086 52.7848L9.34136 47.2321Z" fill="white"/>
<path fill-rule="evenodd" clip-rule="evenodd" d="M9.95719 47.0031L1.75781 45.0151L10.5967 43.9868L11.7387 38.7998L16.4208 43.3013L25.0084 42.1817L19.0016 45.7692L23.4325 50.0422L15.1874 48.1456L8.88374 51.8702L9.95719 47.0031Z" fill="#E20613"/>
<path fill-rule="evenodd" clip-rule="evenodd" d="M113.306 23.2842L122.076 37.1772H104.535L113.306 23.2842Z" fill="#E20613"/>
<path fill-rule="evenodd" clip-rule="evenodd" d="M123.584 37.0171V23.124H126.507L126.553 32.7669L137.859 23.124H140.165V37.0171H137.288L137.196 27.3285L125.914 37.0171H123.584Z" fill="#1D1D1B"/>
<path fill-rule="evenodd" clip-rule="evenodd" d="M87.0415 23.124H100.996C101.887 23.124 102.618 23.8324 102.618 24.7236V35.4175C102.618 36.3087 101.887 37.0399 100.996 37.0399H87.0415C86.1508 37.0399 85.4199 36.3087 85.4199 35.4175V24.7236C85.4199 23.8552 86.1508 23.124 87.0415 23.124ZM88.3434 25.4776H99.7175V34.6635H88.3434V25.4776Z" fill="#1D1D1B"/>
<path fill-rule="evenodd" clip-rule="evenodd" d="M74.183 37.0171V25.4776H67.9707V23.124H83.6614V25.5005L77.4263 25.4776V37.0171H74.183Z" fill="#1D1D1B"/>
<path fill-rule="evenodd" clip-rule="evenodd" d="M180.934 42.4098H51.8223V24.7236C51.8223 23.8324 52.4389 23.124 53.2155 23.124H65.2747C66.0513 23.124 66.6679 23.8324 66.6679 24.7236V27.8541L63.6075 27.8769V25.4776H54.7457V39.3707H179.449L180.934 42.4098Z" fill="#1D1D1B"/>
<path fill-rule="evenodd" clip-rule="evenodd" d="M181.55 40.3991L178.124 33.9325H169.56L167.824 37.0173H164.672L172.392 23.1699H175.543L184.656 40.422H181.55V40.3991ZM170.953 31.4189L173.945 26.0491L176.777 31.4189H170.953Z" fill="#1D1D1B"/>
<path fill-rule="evenodd" clip-rule="evenodd" d="M159.214 23.1477L159.145 34.6643H162.343V36.995L145.898 37.0179C145.008 37.0179 144.277 36.2866 144.277 35.3955L144.254 23.0791H147.2L147.177 34.6414L156.245 34.6643L156.267 23.1248H159.214V23.1477Z" fill="#1D1D1B"/>
<path fill-rule="evenodd" clip-rule="evenodd" d="M35.9034 11.6311L28.709 10.3057V12.248L31.9065 14.693L29.0744 16.8867V18.829L35.8121 17.7093L41.0195 21.6624V21.571V21.4796V21.3882V21.2968V21.2054V21.0911V20.9997V20.9083V20.8169V20.7255V20.6341V20.5427V20.4513V20.3599V20.2685V20.1543V20.04V19.9258V19.8344V19.7201C40.9738 18.7604 40.9281 17.8235 40.8824 16.8638L47.6886 15.7441V13.8019C45.359 13.3677 43.0294 12.9564 40.7226 12.5222C40.654 11.037 40.5627 9.55168 40.4942 8.06641C38.9868 9.25463 37.4565 10.4657 35.9034 11.6311Z" fill="#83746C"/>
<path fill-rule="evenodd" clip-rule="evenodd" d="M18.3406 25.7525L9.86719 24.7928V26.7351L14.4808 29.4314L11.4431 32.402V34.3443L19.2999 32.4705L26.0604 36.4694V34.5271C25.7863 33.3845 25.5123 32.2192 25.2382 31.0767L32.5468 29.34V27.3977C29.7376 27.0778 26.9511 26.7579 24.1647 26.438C23.7536 24.7014 23.3653 22.9648 22.9542 21.251C21.4011 22.7134 19.8709 24.2215 18.3406 25.7525Z" fill="#83746C"/>
<path fill-rule="evenodd" clip-rule="evenodd" d="M18.3406 25.7295L9.86719 24.7697L15.7141 28.1973L11.4431 32.3789L19.2999 30.5052L26.0376 34.504L24.7814 29.2027L32.524 27.3518L24.1419 26.3921L22.9314 21.2051L18.3406 25.7295Z" fill="white"/>
<path fill-rule="evenodd" clip-rule="evenodd" d="M18.6829 26.0037L11.4199 25.1811L16.4446 28.1288L12.7675 31.7163L19.5051 30.1168L25.3063 33.5443L24.2329 28.9743L30.8792 27.3976L23.6847 26.575L22.6341 22.1191L18.6829 26.0037Z" fill="#E20613"/>
<path fill-rule="evenodd" clip-rule="evenodd" d="M35.904 11.6311L28.7324 10.3057L33.1861 13.7333L29.0979 16.8867L35.8355 15.767L41.0429 19.7201L40.8145 14.9444L47.712 13.8019L40.746 12.5222L40.5176 8.06641L35.904 11.6311Z" fill="white"/>
<path fill-rule="evenodd" clip-rule="evenodd" d="M36.2013 11.951L30.2402 10.8542L33.9402 13.6877L30.5371 16.3155L36.1328 15.3786L40.4495 18.669L40.2896 14.6931L46.0223 13.7562L40.2211 12.6822L40.0384 8.98047L36.2013 11.951Z" fill="#E20613"/>
<path fill-rule="evenodd" clip-rule="evenodd" d="M154.943 10.3056L151.997 9.5058L149.782 11.1739L149.919 8.93454L147.338 8.27188L147.68 7.03796C148.48 6.94656 149.256 6.83231 150.056 6.7409L150.444 4.52441C151.129 5.16423 151.792 5.80404 152.477 6.44385L155.309 6.07824L154.966 7.31216L154.098 7.95198L155.286 9.07165L154.943 10.3056Z" fill="#83746C"/>
<path fill-rule="evenodd" clip-rule="evenodd" d="M153.48 7.44985L155.262 9.09508L152.338 8.31817L150.1 9.9634L150.237 7.72406L147.656 7.08425L150.306 6.74149L150.42 4.54785L152.453 6.46729L155.285 6.10168L153.48 7.44985Z" fill="white"/>
<path fill-rule="evenodd" clip-rule="evenodd" d="M152.75 7.38077L153.8 8.36334L152.064 7.88348L150.74 8.86605L150.831 7.54073L149.301 7.15227L150.854 6.94662L150.945 5.66699L152.156 6.78666L153.823 6.58101L152.75 7.38077Z" fill="#E20613"/>
<path fill-rule="evenodd" clip-rule="evenodd" d="M54.3574 8.86642C55.2938 8.24946 56.2303 7.6325 57.1667 7.01554L54.9513 5.0047V3.06242C56.9383 3.54228 58.9253 4.02214 60.9124 4.52485L65.5488 1.46289V3.40518L65.3889 5.62167L71.0759 7.06124V9.00353L65.0691 9.71189L64.7494 13.8935L60.6154 10.1232L54.3803 10.7859V8.86642H54.3574Z" fill="#83746C"/>
<path fill-rule="evenodd" clip-rule="evenodd" d="M54.3574 8.86584L58.4 6.19234L54.9284 3.06183L60.9124 4.52426L65.5488 1.43945L65.229 5.57538L71.0531 7.06065L65.0463 7.76902L64.7266 11.9506L60.5926 8.18032L54.3574 8.86584Z" fill="white"/>
<path fill-rule="evenodd" clip-rule="evenodd" d="M55.8203 8.36376L59.0864 6.21582L56.2771 3.67943L61.1191 4.8448L64.8419 2.37695L64.5907 5.71311L69.3185 6.90133L64.4536 7.49545L64.2024 10.8545L60.845 7.81535L55.8203 8.36376Z" fill="#E20613"/>
<path fill-rule="evenodd" clip-rule="evenodd" d="M139.526 4.77558L138.452 5.57535L139.503 6.55792V8.5002L135.872 7.51763L133.108 9.57417L133.131 9.45992C133.131 9.45992 133.108 9.45992 133.108 9.48277C133.108 9.43707 133.108 9.41422 133.131 9.36852H133.108C133.108 9.32282 133.108 9.29997 133.131 9.25426H133.108C133.108 9.23141 133.108 9.18571 133.131 9.16286H133.108C133.108 9.11716 133.108 9.09431 133.131 9.04861H133.108C133.108 9.02576 133.108 8.98006 133.131 8.95721H133.108C133.108 8.93436 133.108 8.88866 133.131 8.86581H133.108C133.108 8.84296 133.108 8.79726 133.131 8.77441H133.108C133.108 8.75156 133.108 8.70585 133.131 8.683H133.108C133.108 8.6373 133.108 8.61445 133.131 8.56875H133.108C133.108 8.52305 133.108 8.5002 133.131 8.4545H133.108C133.108 8.43165 133.108 8.38595 133.131 8.3631H133.108C133.108 8.3174 133.108 8.29455 133.131 8.24885H133.108C133.108 8.226 133.108 8.1803 133.131 8.15745H133.108C133.108 8.13459 133.108 8.08889 133.131 8.06604H133.108C133.108 8.02034 133.108 7.99749 133.131 7.95179H133.108C133.108 7.92894 133.108 7.88324 133.131 7.86039H133.108C133.108 7.81469 133.108 7.79184 133.131 7.76899H133.108C133.108 7.72329 133.108 7.70044 133.131 7.65474L133.108 7.67759C133.108 7.63189 133.108 7.60904 133.131 7.58618H133.108C133.131 7.31198 133.154 7.01492 133.154 6.71787L130.07 5.91811V3.97582C131.167 3.83872 132.263 3.70162 133.336 3.56451C133.405 2.67335 133.451 1.75933 133.496 0.868164C134.341 1.64508 135.164 2.44484 136.009 3.22176L139.526 2.7876V4.77558Z" fill="#83746C"/>
<path fill-rule="evenodd" clip-rule="evenodd" d="M137.288 4.47912L139.503 6.53565L135.872 5.55309L133.108 7.60962L133.268 4.84472L130.07 4.02211L133.336 3.6108L133.496 0.891602L136.009 3.26804L139.526 2.81104L137.288 4.47912Z" fill="white"/>
<path fill-rule="evenodd" clip-rule="evenodd" d="M136.58 4.43308L138.042 5.78126L135.621 5.14145L133.817 6.48962L133.908 4.66159L131.807 4.11318L133.954 3.83897L134.068 2.05664L135.735 3.61047L138.065 3.31341L136.58 4.43308Z" fill="#E20613"/>
<path fill-rule="evenodd" clip-rule="evenodd" d="M81.9707 4.63824C83.0442 4.27264 84.0948 3.90703 85.1682 3.54142L84.346 1.96475V0.0224609C85.8991 0.753674 87.475 1.46204 89.0281 2.19325L93.6417 0.593721V2.53601L92.8195 3.97558L95.8571 5.41516V7.35744L91.0151 7.10609L88.9596 10.6936L86.9269 6.85473L81.9707 6.58053V4.63824Z" fill="#83746C"/>
<path fill-rule="evenodd" clip-rule="evenodd" d="M106.82 3.79317C107.665 3.51896 108.488 3.24476 109.355 2.97055L108.899 1.94228V0C110.178 0.662662 111.457 1.30247 112.736 1.94228L116.618 0.731213V2.6735L116.025 3.56466L118.491 4.77574V6.71802L114.152 6.35241L112.142 9.36867L110.68 6.03251L106.82 5.7126V3.79317Z" fill="#83746C"/>
<path fill-rule="evenodd" clip-rule="evenodd" d="M106.82 3.77032L110.086 2.7192L108.899 0L112.736 1.94228L116.618 0.754064L115.043 3.08481L118.491 4.77574L114.152 4.43298L112.119 7.44923L110.68 4.09022L106.82 3.77032Z" fill="white"/>
<path fill-rule="evenodd" clip-rule="evenodd" d="M108.352 3.58775L110.727 2.83369L109.859 0.845703L112.645 2.26243L115.477 1.39411L114.336 3.08504L116.825 4.31896L113.673 4.06761L112.211 6.26125L111.161 3.83911L108.352 3.58775Z" fill="#E20613"/>
<path fill-rule="evenodd" clip-rule="evenodd" d="M81.9707 4.63863L86.0133 3.24476L84.346 0L89.0281 2.19364L93.6417 0.594111L91.9516 3.54181L95.8571 5.3927L91.0151 5.16419L88.9824 8.72886L86.9269 4.91284L81.9707 4.63863Z" fill="white"/>
<path fill-rule="evenodd" clip-rule="evenodd" d="M83.5234 4.38752L86.6296 3.31355L85.3506 0.845703L88.9592 2.51378L92.4994 1.27986L91.1975 3.5649L94.2123 4.98163L90.4895 4.79882L88.9136 7.56372L87.3605 4.61602L83.5234 4.38752Z" fill="#E20613"/>
</g>
<defs>
<clipPath id="clip0_349_29858">
<rect width="185" height="97" fill="white"/>
</clipPath>
</defs>
</svg>
