<svg width="207" height="101" viewBox="0 0 207 101" fill="none" xmlns="http://www.w3.org/2000/svg">
<g clip-path="url(#clip0_349_28912)">
<path d="M34.4104 70.3506L34.2476 73.3586C32.5108 73.2773 30.7741 73.2502 29.0102 73.2502H24.017L23.7728 78.0469H28.6845C29.8514 78.0469 31.0726 77.9656 32.7822 77.9385L32.5923 80.7297H23.61L23.3657 85.7431H29.3901C30.2042 85.7431 31.0997 85.7431 33.732 85.5805L33.542 88.6428H18.5625C19.1324 84.903 19.4852 74.0632 19.4852 70.3506H34.4104Z" fill="#A42336"/>
<path d="M6.54045 78.2636C7.13746 78.3449 7.65306 78.3991 8.25007 78.3991C11.0723 78.3991 12.5377 77.2881 12.5377 75.2827C12.5377 73.5212 11.4522 73.0334 9.30841 73.0334C8.1958 73.0334 7.13746 73.0876 6.02485 73.1689C5.88916 74.9304 5.50925 84.0359 5.50925 88.6428H1.08594C1.49299 85.4721 1.92718 74.9304 1.92718 70.3506H11.6693C15.7398 70.3506 16.9339 73.2231 16.9339 75.1743C16.9339 78.9953 13.6232 81.1091 9.55264 81.1091C8.81994 81.1091 8.06011 81.0549 7.32742 80.9465L6.54045 78.2636Z" fill="#A42336"/>
<path d="M54.4909 73.6833C52.9441 73.2768 51.2888 72.8975 49.6606 72.8975C44.9659 72.8975 41.5195 75.5532 41.5195 79.8349C41.5195 83.7915 44.4232 86.0407 48.8193 86.0407C50.6104 86.0407 52.4557 85.6884 54.1653 85.2277L53.5954 88.4526C51.8315 88.7236 50.0405 88.9404 48.0595 88.9404C42.0351 88.9404 36.9062 86.0136 36.9062 80.0517C36.9062 73.4936 41.9808 69.9707 49.0364 69.9707C50.7732 69.9707 52.5642 70.1875 54.301 70.4856L54.4909 73.6833Z" fill="#A42336"/>
<path d="M123.149 44.8771C122.281 46.3946 117.966 55.5543 103.068 51.2455C94.3838 49.6737 95.6864 54.7684 92.3486 50.6493C92.6471 50.2699 94.1939 51.6249 94.8994 50.297C95.4422 49.213 98.0744 42.7091 93.8411 40.7308C82.6878 35.5277 90.5033 54.7684 84.7774 49.1317C73.8955 38.4003 76.582 27.696 90.4761 24.0917C90.7475 23.2245 73.7869 23.6852 73.7598 39.9991C73.7327 60.0257 87.9795 69.9983 88.9022 74.2801C96.2563 61.6246 95.2522 59.7005 98.5358 58.4539C107.301 55.1478 116.962 60.3509 123.366 45.2565L123.149 44.8771Z" fill="#14387F"/>
<path d="M57.041 88.6428C57.4752 82.9248 57.9365 77.6675 57.9365 70.3506H77.5022C77.068 76.448 76.661 82.5183 76.661 88.6428H71.8306C72.0477 85.5805 72.6176 76.448 72.5633 73.2502H62.5227C62.3598 76.0957 62.0071 85.1469 61.8442 88.6428H57.041Z" fill="#A42336"/>
<path d="M147.625 33.4138C147.625 33.4138 143.88 39.9719 136.173 42.0585C128.467 44.1452 120.163 40.0532 111.832 36.3947C103.501 32.7634 93.1344 31.3271 88.8468 31.7878C84.5591 32.2485 81.1399 32.6279 83.0395 29.7011C84.9119 26.7744 91.0177 21.6526 108.819 26.9641C126.621 32.3027 130.122 35.9882 135.224 36.9096C136.038 36.9909 139.62 36.9096 143.446 33.0073C143.446 33.0073 149.796 26.4492 143.093 17.6148C136.391 8.7803 125.102 3.82109 104.613 2.22221C97.0964 1.62602 94.6812 2.22221 94.6812 2.22221L100.678 5.04978e-05C100.678 5.04978e-05 128.521 -0.135447 142.388 13.6311C156.255 27.3977 141.058 37.3432 141.058 37.3432C141.058 37.3432 134.084 43.1967 124.152 37.3974C114.22 31.6252 106.621 27.1267 98.7246 27.1267C96.1194 27.1809 93.2701 27.1809 91.7504 27.8313C94.6269 28.2107 104.993 29.2676 119.403 36.8012C124.45 39.2673 135.441 46.1506 147.625 33.4138Z" fill="#A42336"/>
<path d="M126.917 73.2502C125.75 86.8271 124.285 88.968 120.377 88.968C119.156 88.968 118.559 88.8054 117.718 88.5615L117.338 85.5805C117.989 85.7431 118.451 85.8244 119.346 85.8244C121.11 85.8244 122.25 82.7622 122.982 70.3506H139.617C139.183 76.448 138.776 82.5183 138.776 88.6428H133.946C134.163 85.5805 134.733 76.448 134.678 73.2502H126.917Z" fill="#A42336"/>
<path d="M100.242 88.6428C100.541 85.9057 101.056 77.6675 101.056 70.3506H114.842L114.679 73.3586C112.942 73.2773 111.205 73.2502 109.442 73.2502H105.29C105.073 76.2312 104.72 83.3042 104.72 85.9599H108.6C110.988 85.9599 111.884 84.7404 111.884 83.0061C111.884 81.4343 110.771 80.5129 107.976 80.5129C107.162 80.5129 106.402 80.5129 105.317 80.7568L106.782 78.0198C107.732 77.8843 108.682 77.8301 109.469 77.8301C114.245 77.8301 116.253 80.4587 116.253 83.0061C116.253 86.258 113.621 88.6428 109.686 88.6428H100.242Z" fill="#A42336"/>
<path d="M163.5 70.2969L162.388 88.6433H158.263L159.077 75.0664L147.87 88.6433H142.279L143.392 70.2969H147.571L146.648 85.3913L158.697 70.2969H163.5Z" fill="#A42336"/>
<path d="M87.87 88.6433H82.7682L85.9432 83.657L79.2676 70.2969H84.2879L88.5213 79.5378L93.6501 70.2969H98.779L87.87 88.6433Z" fill="#A42336"/>
<path d="M203.908 96.095C204.097 96.1221 204.233 96.1492 204.423 96.1492C205.264 96.1492 205.699 95.7969 205.699 95.1194C205.699 94.5232 205.373 94.3877 204.749 94.3877C204.423 94.3877 204.097 94.4148 203.772 94.4419C203.745 95.0381 203.609 98.0461 203.609 99.5637H202.279C202.388 98.5068 202.524 95.0381 202.524 93.5205H205.427C206.648 93.5205 207.001 94.469 207.001 95.1194C207.001 96.3931 206.024 97.0705 204.803 97.0705C204.586 97.0705 204.369 97.0434 204.125 97.0163L203.908 96.095Z" fill="#14387F"/>
<path d="M34.5716 96.095C34.7344 96.1221 34.8972 96.1492 35.0872 96.1492C35.9284 96.1492 36.3626 95.7969 36.3626 95.1194C36.3626 94.5232 36.037 94.3877 35.4128 94.3877C35.0872 94.3877 34.7615 94.4148 34.4359 94.4419C34.4087 95.0381 34.2731 98.0461 34.2731 99.5637H32.9434C33.0519 98.5068 33.1876 95.0381 33.1876 93.5205H36.0912C37.3124 93.5205 37.6652 94.469 37.6652 95.1194C37.6652 96.3931 36.6882 97.0705 35.4671 97.0705C35.25 97.0705 35.0329 97.0434 34.7887 97.0163L34.5716 96.095Z" fill="#14387F"/>
<path d="M174.951 95.8779C174.951 95.7153 175.005 94.3603 175.005 93.4932H176.444C176.308 95.4985 176.199 97.531 176.199 99.5364H174.761C174.815 98.7776 174.87 98.0188 174.897 96.8535H171.858C171.803 97.802 171.803 98.6421 171.776 99.5364H170.338C170.474 97.6394 170.609 95.905 170.609 93.4932H172.02C171.993 94.0894 171.939 94.7126 171.885 95.8779H174.951Z" fill="#14387F"/>
<path d="M102.414 99.5364C102.522 97.7207 102.658 95.905 102.658 93.4932H104.096C103.961 95.2275 103.906 96.9077 103.852 99.5364H102.414ZM96.7422 99.5364C96.8236 98.6421 96.9864 95.905 96.9864 93.4932H98.4247C98.289 95.2546 98.1804 97.3955 98.1804 98.6692H99.3745C100.08 98.6692 100.351 98.2627 100.351 97.6936C100.351 97.1787 100.026 96.8806 99.1845 96.8806C98.9403 96.8806 98.7232 96.8806 98.3975 96.9619L98.8317 96.0676C99.1302 96.0134 99.4016 96.0134 99.6458 96.0134C101.084 96.0134 101.681 96.8806 101.681 97.7207C101.681 98.8047 100.894 99.5906 99.7272 99.5906H96.7422V99.5364Z" fill="#14387F"/>
<path d="M159.565 93.4658L159.511 94.4685C158.995 94.4414 158.48 94.4414 157.937 94.4414H156.444L156.363 96.0132H157.828C158.181 96.0132 158.534 95.9861 159.05 95.9861L158.995 96.9075H156.309L156.227 98.5605H158.018C158.263 98.5605 158.534 98.5605 159.321 98.5063L159.267 99.509H154.789C154.952 98.2624 155.06 94.6853 155.06 93.4658H159.565Z" fill="#14387F"/>
<path d="M139.429 93.4658C139.375 94.4956 139.212 97.5037 139.212 98.5605H142.197C142.251 97.6121 142.36 94.6311 142.414 93.4658H143.852C143.744 95.0918 143.608 96.6094 143.581 98.5605H144.123L143.988 100.999H142.685L142.767 99.509H137.773C137.909 97.5037 138.018 95.4712 138.018 93.4658H139.429Z" fill="#14387F"/>
<path d="M82.6316 95.9861H83.7171C84.5312 95.9861 84.8568 95.5525 84.8568 95.0918C84.8568 94.4143 84.3412 94.3601 83.7985 94.3601H82.7402L82.6316 95.9861ZM82.5231 98.6418H83.6085C84.5855 98.6418 84.9111 98.2353 84.9111 97.6934C84.9111 96.9617 84.3141 96.8804 83.7171 96.8804H82.5773L82.5231 98.6418ZM84.6126 93.4658C85.3182 93.4658 86.1323 93.7639 86.1323 94.875C86.1323 95.6338 85.6981 96.1758 85.0197 96.3655V96.3926C85.7523 96.5281 86.2137 97.043 86.2137 97.8288C86.2137 98.9399 85.3453 99.509 83.9342 99.509H81.1934C81.2748 98.6147 81.4376 95.8777 81.4376 93.4658H84.6126Z" fill="#14387F"/>
<path d="M52.6725 93.4658L52.6182 94.4685C52.1026 94.4414 51.587 94.4414 51.0443 94.4414H49.7688C49.7417 94.9834 49.5517 98.3708 49.5246 99.5361H48.1406C48.3034 98.2895 48.412 94.7124 48.412 93.4929H52.6725V93.4658Z" fill="#14387F"/>
<path d="M192.046 93.4666L192.019 94.4692C191.449 94.4421 190.88 94.415 190.12 94.415C190.038 95.9597 189.93 97.5315 189.93 99.5098H188.491C188.627 97.9922 188.709 96.1494 188.763 94.415C187.433 94.415 187.27 94.4421 186.863 94.4421L186.89 93.4395H192.046V93.4666Z" fill="#14387F"/>
<path d="M5.21028 93.4666L5.18314 94.4692C4.61327 94.4421 4.04339 94.415 3.28356 94.415C3.20215 95.9597 3.0936 97.5315 3.0936 99.5098H1.65535C1.79103 97.9922 1.87244 96.1494 1.92672 94.415C0.597011 94.415 0.43419 94.4421 0 94.4421L0.0271369 93.4395H5.21028V93.4666Z" fill="#14387F"/>
<path d="M64.9113 96.6374C64.9113 97.884 65.7254 98.697 66.9737 98.697C68.3306 98.697 69.0904 97.7214 69.0904 96.4206C69.0904 95.2012 68.3577 94.334 67.1094 94.334C65.7254 94.334 64.9113 95.3096 64.9113 96.6374ZM70.4744 96.3664C70.4744 98.5073 68.9819 99.6184 66.9195 99.6184C65.0741 99.6184 63.5273 98.6428 63.5273 96.6916C63.5273 94.5237 65.047 93.3584 67.1365 93.3584C69.0361 93.3584 70.4744 94.4153 70.4744 96.3664Z" fill="#14387F"/>
<path d="M16.6885 96.6374C16.6885 97.884 17.5026 98.697 18.7509 98.697C20.1077 98.697 20.8675 97.7214 20.8675 96.4206C20.8675 95.2012 20.1348 94.334 18.8865 94.334C17.5026 94.334 16.6885 95.3096 16.6885 96.6374ZM22.2244 96.3664C22.2244 98.5073 20.7319 99.6184 18.6695 99.6184C16.8241 99.6184 15.2773 98.6428 15.2773 96.6916C15.2773 94.5237 16.797 93.3584 18.8865 93.3584C20.7861 93.3584 22.2244 94.4153 22.2244 96.3664Z" fill="#14387F"/>
<path d="M116.879 92.0027C117.069 92.0027 117.259 92.0298 117.422 92.0298C118.181 92.0298 118.995 91.9485 119.647 91.7588L119.43 92.7344C118.67 92.8157 117.856 92.897 117.042 92.897H116.553L116.879 92.0027ZM121.112 93.4661L120.787 99.5364H119.565L119.81 95.0649L116.472 99.5364H114.816L115.142 93.4661H116.39L116.119 98.4524L119.701 93.4661H121.112Z" fill="#14387F"/>
<path d="M176.308 78.8325C178.94 82.2199 181.762 85.3906 184.557 88.6425H178.94C176.606 85.3093 173.974 82.1657 171.423 78.9409C174.001 76.1225 176.66 73.3313 179.021 70.3232H184.367L176.308 78.8325ZM165.941 88.6425C166.484 82.8974 166.891 74.9302 166.891 70.3503H171.667C171.287 75.9599 170.88 81.5154 170.745 88.6425H165.941Z" fill="#A42336"/>
<path d="M198.37 79.3476L196.009 73.2231L192.671 79.3476H198.37ZM191.287 82.2473C190.093 84.2797 188.98 86.4477 187.868 88.6428H182.82C186.511 82.6267 190.093 76.4751 193.485 70.3506H199.075C201.382 76.448 203.987 82.5996 206.511 88.6428H201.599C200.893 86.4206 200.025 84.2527 199.184 82.2473H191.287Z" fill="#A42336"/>
</g>
<defs>
<clipPath id="clip0_349_28912">
<rect width="207" height="101" fill="white"/>
</clipPath>
</defs>
</svg>
