<svg width="137" height="93" viewBox="0 0 137 93" fill="none" xmlns="http://www.w3.org/2000/svg">
<g clip-path="url(#clip0_349_30539)">
<mask id="mask0_349_30539" style="mask-type:luminance" maskUnits="userSpaceOnUse" x="0" y="0" width="137" height="93">
<path d="M137 0H0V93H137V0Z" fill="white"/>
</mask>
<g mask="url(#mask0_349_30539)">
<path d="M6.63281 69.4174L13.5279 77.2536H8.73703L4.11525 71.9863C4.0401 71.9124 3.94616 71.8939 3.87101 71.9309C3.77707 71.9679 3.7395 72.0418 3.7395 72.1342V77.2536H0.0195312V61.5996H3.7395V66.719C3.7395 66.8299 3.77707 66.8854 3.87101 66.9223C3.96495 66.9593 4.0401 66.9223 4.11525 66.8484L8.73703 61.5996H13.5279L6.63281 69.4174Z" fill="#EC6E18"/>
</g>
<mask id="mask1_349_30539" style="mask-type:luminance" maskUnits="userSpaceOnUse" x="0" y="0" width="137" height="93">
<path d="M137 0H0V93H137V0Z" fill="white"/>
</mask>
<g mask="url(#mask1_349_30539)">
<path d="M29.3468 61.6924L28.9147 62.8752C28.9147 62.8937 28.8395 63.0785 28.708 63.4481C28.5765 63.8178 28.4074 64.2798 28.2008 64.8712C27.9941 65.4442 27.7686 66.1095 27.5056 66.8303C27.2426 67.5511 26.9796 68.2719 26.7165 68.9742C26.4535 69.6765 26.2093 70.3418 25.965 70.9887C25.7208 71.6171 25.5329 72.1346 25.3826 72.5412C24.9693 73.5761 24.4996 74.3893 23.9547 75.0177C23.4099 75.6461 22.8463 76.1266 22.2263 76.4408C21.6063 76.7735 20.9487 76.9768 20.2723 77.0877C19.596 77.1985 18.9008 77.2355 18.2057 77.2355H17.3039V73.6685H18.2057C18.9948 73.6685 19.6524 73.5576 20.1784 73.3174L15.9512 61.7109H19.7839L22.6208 69.5286L25.4765 61.7109H29.3468V61.6924Z" fill="#EC6E18"/>
</g>
<mask id="mask2_349_30539" style="mask-type:luminance" maskUnits="userSpaceOnUse" x="0" y="0" width="137" height="93">
<path d="M137 0H0V93H137V0Z" fill="white"/>
</mask>
<g mask="url(#mask2_349_30539)">
<path d="M42.3859 69.3251C42.7804 69.7502 43.081 70.2492 43.2877 70.7852C43.4944 71.3211 43.5883 71.8756 43.5883 72.467C43.5883 73.1139 43.4568 73.7422 43.2126 74.3152C42.9683 74.8881 42.6114 75.4056 42.1792 75.8307C41.7471 76.2558 41.2211 76.6069 40.6386 76.8472C40.0562 77.0874 39.4174 77.2168 38.7599 77.2168H31.5078V73.6498H38.7599C39.098 73.6498 39.3987 73.5389 39.6241 73.2987C39.8496 73.0769 39.9623 72.7812 39.9623 72.467C39.9623 72.1159 39.8496 71.8201 39.6053 71.5799C39.3611 71.3211 39.0793 71.1918 38.7599 71.1918H32.7854V67.6248H38.6471C38.9665 67.6248 39.2483 67.4954 39.4926 67.2367C39.7368 66.9779 39.8496 66.6822 39.8496 66.3496C39.8496 66.0169 39.7368 65.7212 39.4926 65.4994C39.2671 65.2776 38.9665 65.1667 38.6471 65.1667H31.5266V61.6367H38.7787C39.4362 61.6367 40.0562 61.7661 40.6386 62.0248C41.2211 62.2836 41.7095 62.6163 42.1417 63.0413C42.5738 63.4664 42.8932 63.9654 43.1374 64.5384C43.3816 65.1113 43.4944 65.7212 43.4944 66.3496C43.4756 67.44 43.1186 68.4565 42.3859 69.3251Z" fill="#EC6E18"/>
</g>
<mask id="mask3_349_30539" style="mask-type:luminance" maskUnits="userSpaceOnUse" x="0" y="0" width="137" height="93">
<path d="M137 0H0V93H137V0Z" fill="white"/>
</mask>
<g mask="url(#mask3_349_30539)">
<path d="M58.3915 61.5996V77.2536H54.7655V73.2246C54.7655 73.0768 54.6903 73.0028 54.54 73.0028H49.7116C49.5801 73.0028 49.5049 73.0768 49.5049 73.2246V77.2536H45.8789V61.5996H49.5049V69.2141C49.5049 69.3619 49.5801 69.4359 49.7116 69.4359H54.5213C54.6716 69.4359 54.7467 69.3619 54.7467 69.2141V61.5996H58.3915Z" fill="#EC6E18"/>
</g>
<mask id="mask4_349_30539" style="mask-type:luminance" maskUnits="userSpaceOnUse" x="0" y="0" width="137" height="93">
<path d="M137 0H0V93H137V0Z" fill="white"/>
</mask>
<g mask="url(#mask4_349_30539)">
<path d="M64.8373 65.2221C64.7058 65.2221 64.6495 65.2775 64.6495 65.4069V68.3825C64.6495 68.5118 64.7058 68.5858 64.8373 68.5858H72.2209V72.1343H64.8373C64.7058 72.1343 64.6495 72.2082 64.6495 72.3376V73.5019C64.6495 73.6128 64.7058 73.6867 64.8373 73.6867H73.9682V77.2537H61.0234V61.6182H73.9682V65.2406H64.8373V65.2221Z" fill="#EC6E18"/>
</g>
<mask id="mask5_349_30539" style="mask-type:luminance" maskUnits="userSpaceOnUse" x="0" y="0" width="137" height="93">
<path d="M137 0H0V93H137V0Z" fill="white"/>
</mask>
<g mask="url(#mask5_349_30539)">
<path d="M88.2457 61.6182V77.2352H84.6196V73.2801C84.413 73.3171 84.1875 73.3356 83.9809 73.3541C83.7554 73.3725 83.53 73.391 83.3045 73.391C82.4591 73.391 81.6324 73.2247 80.8057 72.9105C79.9979 72.5963 79.2464 72.1343 78.6076 71.5428C77.8749 70.896 77.33 70.1382 76.9543 69.2881C76.5785 68.4379 76.3906 67.5323 76.3906 66.5897V61.6366H80.0167V66.5897C80.0167 67.0333 80.1106 67.4584 80.2797 67.8465C80.4488 68.2346 80.693 68.5858 80.9748 68.863C81.2754 69.1587 81.6136 69.3805 82.0269 69.5653C82.4215 69.7316 82.8536 69.824 83.3045 69.824C83.7554 69.824 84.2063 69.7316 84.6196 69.5653V61.6366H88.2457V61.6182Z" fill="#EC6E18"/>
</g>
<mask id="mask6_349_30539" style="mask-type:luminance" maskUnits="userSpaceOnUse" x="0" y="0" width="137" height="93">
<path d="M137 0H0V93H137V0Z" fill="white"/>
</mask>
<g mask="url(#mask6_349_30539)">
<path d="M94.3331 61.5996V69.7685C94.3331 69.8055 94.3331 69.824 94.3519 69.824C94.3706 69.824 94.3894 69.824 94.3894 69.787L100.026 61.5996H103.314V77.2536H99.6876V68.6042C99.6876 68.5672 99.6876 68.5487 99.6688 68.5487C99.65 68.5487 99.6312 68.5487 99.6312 68.5857L93.9385 77.2536H90.707V61.5996H94.3331Z" fill="#EC6E18"/>
</g>
<mask id="mask7_349_30539" style="mask-type:luminance" maskUnits="userSpaceOnUse" x="0" y="0" width="137" height="93">
<path d="M137 0H0V93H137V0Z" fill="white"/>
</mask>
<g mask="url(#mask7_349_30539)">
<path d="M114.643 69.4174C114.624 69.4359 114.624 69.4543 114.643 69.5098L119.884 77.2536H115.526L112.482 72.7626C112.426 72.7071 112.369 72.7071 112.351 72.7626L109.307 77.2536H104.929L110.19 69.5098C110.209 69.4728 110.209 69.4359 110.19 69.3989L104.873 61.5996H109.251L112.332 66.1276C112.369 66.1831 112.407 66.1831 112.463 66.1276L115.544 61.5996H119.922L114.643 69.4174Z" fill="#EC6E18"/>
</g>
<mask id="mask8_349_30539" style="mask-type:luminance" maskUnits="userSpaceOnUse" x="0" y="0" width="137" height="93">
<path d="M137 0H0V93H137V0Z" fill="white"/>
</mask>
<g mask="url(#mask8_349_30539)">
<path d="M136.643 77.2536H132.792L132.209 75.6642C132.172 75.5533 132.115 75.5163 132.003 75.5163H125.145C125.051 75.5163 124.976 75.5718 124.939 75.6642L124.375 77.2536H120.523L126.254 61.5996H130.951L136.643 77.2536ZM126.404 71.6537C126.366 71.7276 126.385 71.8015 126.423 71.857C126.46 71.9124 126.536 71.9494 126.611 71.9494H130.537C130.725 71.9494 130.8 71.857 130.744 71.6537L128.79 66.294C128.752 66.1831 128.677 66.1461 128.565 66.1461C128.452 66.1461 128.395 66.2016 128.358 66.294L126.404 71.6537Z" fill="#EC6E18"/>
</g>
<mask id="mask9_349_30539" style="mask-type:luminance" maskUnits="userSpaceOnUse" x="0" y="0" width="137" height="93">
<path d="M137 0H0V93H137V0Z" fill="white"/>
</mask>
<g mask="url(#mask9_349_30539)">
<path d="M13.2079 39.2734V55.4265H9.46918V51.2681C9.46918 51.1202 9.39403 51.0463 9.24373 51.0463H4.28378C4.13347 51.0463 4.07711 51.1202 4.07711 51.2681V55.4265H0.300781V39.2734H4.03954V47.1282C4.03954 47.276 4.11469 47.3499 4.2462 47.3499H9.20616C9.35646 47.3499 9.43161 47.276 9.43161 47.1282V39.2734H13.2079Z" fill="#4FA134"/>
</g>
<mask id="mask10_349_30539" style="mask-type:luminance" maskUnits="userSpaceOnUse" x="0" y="0" width="137" height="93">
<path d="M137 0H0V93H137V0Z" fill="white"/>
</mask>
<g mask="url(#mask10_349_30539)">
<path d="M29.4588 41.6763C29.9097 42.471 30.1727 43.3211 30.2479 44.2452C30.323 45.1508 30.3606 46.1304 30.3606 47.1284V48.6993H30.3418C30.3042 49.3831 30.2291 50.067 30.1164 50.6953C30.0036 51.3422 29.7782 51.9521 29.44 52.5435C28.8576 53.5415 28.0309 54.2623 26.96 54.7059C25.9831 55.1494 24.7055 55.3712 23.1273 55.3712C21.5492 55.3712 20.2904 55.1494 19.2946 54.7059C18.2425 54.2438 17.4159 53.523 16.8334 52.5435C16.3825 51.7488 16.1195 50.8802 16.0444 49.9561C15.9692 49.032 15.9316 48.0709 15.9316 47.0729V45.502H15.9504C15.988 44.8182 16.0444 44.1343 16.1571 43.5059C16.2698 42.8591 16.4953 42.2492 16.8334 41.6578C17.4159 40.6782 18.2237 39.9575 19.2946 39.4954C20.2904 39.0519 21.568 38.8301 23.1273 38.8301C24.6867 38.8301 26.0019 39.0519 26.96 39.4954C28.0497 39.9575 28.8764 40.6782 29.4588 41.6763ZM26.5655 47.1284C26.5655 46.3891 26.5467 45.7053 26.5091 45.0399C26.4715 44.3931 26.3588 43.8756 26.1334 43.5059C26.0958 43.4505 26.0394 43.3581 25.9643 43.2657C25.8703 43.1733 25.72 43.0624 25.5134 42.97C25.2879 42.8776 25.0061 42.7852 24.6304 42.7112C24.2546 42.6373 23.7473 42.6003 23.1273 42.6003C22.5073 42.6003 22.0189 42.6373 21.6431 42.7112C21.2486 42.7852 20.9667 42.8776 20.7413 42.97C20.5346 43.0624 20.3843 43.1733 20.2904 43.2657C20.1965 43.3766 20.1401 43.4505 20.1213 43.5059C19.8958 43.8756 19.7831 44.3746 19.7455 45.003C19.708 45.6313 19.708 46.3152 19.708 47.036V47.0729C19.708 47.8122 19.7268 48.5145 19.7455 49.1614C19.7831 49.8082 19.8958 50.3257 20.1213 50.6953C20.1589 50.7508 20.2152 50.8247 20.2904 50.9171C20.3843 51.028 20.5158 51.1204 20.7413 51.2313C20.948 51.3237 21.2486 51.4161 21.6431 51.4901C22.0189 51.564 22.5261 51.6009 23.1273 51.6009C23.7285 51.6009 24.2546 51.564 24.6304 51.4901C25.0061 51.4161 25.3067 51.3237 25.5134 51.2313C25.7388 51.1389 25.8891 51.028 25.9643 50.9171C26.0582 50.8062 26.1146 50.7323 26.1334 50.6953C26.3588 50.3257 26.4715 49.8267 26.5091 49.1983C26.5467 48.5699 26.5655 47.8861 26.5655 47.1469V47.1284Z" fill="#4FA134"/>
</g>
<mask id="mask11_349_30539" style="mask-type:luminance" maskUnits="userSpaceOnUse" x="0" y="0" width="137" height="93">
<path d="M137 0H0V93H137V0Z" fill="white"/>
</mask>
<g mask="url(#mask11_349_30539)">
<path d="M45.0907 47.2577C45.5041 47.7012 45.8047 48.2003 46.0113 48.7547C46.218 49.3092 46.3307 49.8821 46.3307 50.492C46.3307 51.1758 46.1992 51.8042 45.9362 52.3956C45.6732 52.987 45.3162 53.5045 44.8653 53.9481C44.4144 54.3916 43.8883 54.7428 43.2871 55.0015C42.6859 55.2603 42.0471 55.3896 41.352 55.3896H32.5781V39.3105H41.352C42.0471 39.3105 42.7047 39.4399 43.3247 39.6802C43.9259 39.9389 44.4707 40.3086 44.9217 40.7706C45.335 41.2142 45.6356 41.7317 45.8798 42.3231C46.1053 42.9145 46.218 43.5244 46.218 44.1897C46.218 45.3541 45.8423 46.389 45.0907 47.2577ZM36.3169 45.2801C36.3169 45.4095 36.392 45.4834 36.5423 45.4834H41.2205C41.5399 45.4834 41.8405 45.3541 42.0847 45.1138C42.3289 44.8551 42.4605 44.5594 42.4605 44.2082C42.4792 43.857 42.3477 43.5613 42.1035 43.3211C41.8593 43.0808 41.5587 42.9699 41.2205 42.9699H36.5423C36.392 42.9699 36.3169 43.0439 36.3169 43.1732V45.2801ZM36.3169 51.5085C36.3169 51.6563 36.392 51.7118 36.5423 51.7118H41.352C41.6902 51.7118 41.9908 51.6009 42.235 51.3606C42.4793 51.1204 42.6108 50.8247 42.6108 50.4735C42.592 50.1224 42.4605 49.8266 42.235 49.5679C41.9908 49.3092 41.709 49.1798 41.3708 49.1798H36.5423C36.392 49.1798 36.3169 49.2537 36.3169 49.3831V51.5085Z" fill="#4FA134"/>
</g>
<mask id="mask12_349_30539" style="mask-type:luminance" maskUnits="userSpaceOnUse" x="0" y="0" width="137" height="93">
<path d="M137 0H0V93H137V0Z" fill="white"/>
</mask>
<g mask="url(#mask12_349_30539)">
<path d="M64.1603 55.4265H60.1773L59.5761 53.7816C59.5386 53.6707 59.4822 53.6153 59.3695 53.6153H52.3053C52.2113 53.6153 52.1362 53.6707 52.0986 53.7816L51.5162 55.4265H47.5332L53.4325 39.2734H58.2798L64.1603 55.4265ZM53.5828 49.6417C53.5453 49.7156 53.5641 49.7895 53.6016 49.845C53.6392 49.9004 53.7144 49.9374 53.7895 49.9374H57.8477C58.0543 49.9374 58.1295 49.845 58.0543 49.6417L56.044 44.1156C56.0065 44.0048 55.9125 43.9493 55.8186 43.9493C55.7059 43.9493 55.6307 44.0048 55.6119 44.1156L53.5828 49.6417Z" fill="#4FA134"/>
</g>
<mask id="mask13_349_30539" style="mask-type:luminance" maskUnits="userSpaceOnUse" x="0" y="0" width="137" height="93">
<path d="M137 0H0V93H137V0Z" fill="white"/>
</mask>
<g mask="url(#mask13_349_30539)">
<path d="M71.0734 39.2549H79.6594V55.4264H75.9206V53.5413C75.9206 53.4119 75.8643 53.338 75.7327 53.338H72.52C72.4073 53.338 72.351 53.3934 72.3322 53.4858L71.5807 55.4449H67.5601L68.537 52.8759C67.3346 52.4323 66.3389 51.73 65.531 50.7505C65.005 50.1221 64.5916 49.4198 64.3098 48.6621C64.028 47.9043 63.8965 47.1096 63.8965 46.2964C63.8965 45.3354 64.0844 44.4113 64.4601 43.5611C64.8359 42.711 65.3431 41.9532 66.0007 41.3064C66.6583 40.678 67.4098 40.1605 68.274 39.7909C69.1758 39.4397 70.0964 39.2549 71.0734 39.2549ZM71.111 49.6416H75.7515C75.883 49.6416 75.9394 49.5862 75.9394 49.4568V43.1545C75.9394 43.0067 75.883 42.9512 75.7515 42.9512H71.0922C70.6225 42.9512 70.1904 43.0436 69.777 43.21C69.3637 43.3948 69.0067 43.635 68.6874 43.9308C68.368 44.2449 68.1237 44.5961 67.9546 45.0027C67.7855 45.4093 67.6916 45.8344 67.6916 46.2964C67.6916 46.7585 67.7855 47.1835 67.9546 47.5901C68.1237 47.9967 68.368 48.3479 68.6874 48.6436C69.0067 48.9393 69.3637 49.1796 69.777 49.3644C70.1904 49.5492 70.6413 49.6416 71.111 49.6416Z" fill="#4FA134"/>
</g>
<mask id="mask14_349_30539" style="mask-type:luminance" maskUnits="userSpaceOnUse" x="0" y="0" width="137" height="93">
<path d="M137 0H0V93H137V0Z" fill="white"/>
</mask>
<g mask="url(#mask14_349_30539)">
<path d="M136.999 82.5205H59.5V93.0181H136.999V82.5205Z" fill="#9E4426"/>
</g>
<mask id="mask15_349_30539" style="mask-type:luminance" maskUnits="userSpaceOnUse" x="0" y="0" width="137" height="93">
<path d="M137 0H0V93H137V0Z" fill="white"/>
</mask>
<g mask="url(#mask15_349_30539)">
<path d="M58.3929 82.5205H0.263672V93.0181H58.3929V82.5205Z" fill="#4FA134"/>
</g>
<mask id="mask16_349_30539" style="mask-type:luminance" maskUnits="userSpaceOnUse" x="0" y="0" width="137" height="93">
<path d="M137 0H0V93H137V0Z" fill="white"/>
</mask>
<g mask="url(#mask16_349_30539)">
<path d="M9.319 88.0282V85.7734H10.2584V88.0282L12.0808 85.7734H13.1329L11.2729 88.0282L13.302 90.4308H12.1935L10.2584 88.0652V90.4308H9.319V88.0652L7.38387 90.4308H6.27539L8.30446 88.0282L6.44448 85.7734H7.49659L9.319 88.0282Z" fill="white"/>
</g>
<mask id="mask17_349_30539" style="mask-type:luminance" maskUnits="userSpaceOnUse" x="0" y="0" width="137" height="93">
<path d="M137 0H0V93H137V0Z" fill="white"/>
</mask>
<g mask="url(#mask17_349_30539)">
<path d="M18.9184 85.7734V88.1576C18.9184 88.4348 18.8996 88.8414 18.8432 89.3774L21.2105 85.7734H22.4317V90.4308H21.4735V88.0837C21.4735 87.9543 21.4735 87.751 21.4923 87.4553C21.5111 87.1596 21.5299 86.9563 21.5299 86.8269L19.1626 90.4308H17.9414V85.7734H18.9184Z" fill="white"/>
</g>
<mask id="mask18_349_30539" style="mask-type:luminance" maskUnits="userSpaceOnUse" x="0" y="0" width="137" height="93">
<path d="M137 0H0V93H137V0Z" fill="white"/>
</mask>
<g mask="url(#mask18_349_30539)">
<path d="M31.7322 90.4309H30.7176V86.5497H29.4213C29.3461 87.5478 29.2334 88.324 29.1019 88.8969C28.9704 89.4514 28.7825 89.8765 28.5758 90.1352C28.3504 90.3939 28.0686 90.5233 27.7304 90.5233C27.5049 90.5233 27.3358 90.4863 27.1855 90.4309V89.6547C27.2983 89.6916 27.3922 89.7101 27.5049 89.7101C27.7868 89.7101 28.031 89.3959 28.2001 88.7491C28.3692 88.1022 28.5007 87.1227 28.5946 85.792H31.7698V90.4309H31.7322Z" fill="white"/>
</g>
<mask id="mask19_349_30539" style="mask-type:luminance" maskUnits="userSpaceOnUse" x="0" y="0" width="137" height="93">
<path d="M137 0H0V93H137V0Z" fill="white"/>
</mask>
<g mask="url(#mask19_349_30539)">
<path d="M41.295 88.1028C41.295 88.8606 41.0883 89.452 40.6937 89.8771C40.2992 90.3021 39.7544 90.5239 39.0404 90.5239C38.5895 90.5239 38.2138 90.4315 37.8756 90.2282C37.5374 90.0249 37.2744 89.7477 37.0865 89.3781C36.8986 89.0084 36.8047 88.5833 36.8047 88.1028C36.8047 87.3451 36.9926 86.7537 37.3871 86.3286C37.7816 85.9035 38.3265 85.7002 39.0592 85.7002C39.7356 85.7002 40.2804 85.922 40.6937 86.3471C41.1071 86.7721 41.295 87.3635 41.295 88.1028ZM37.8568 88.1028C37.8568 89.1748 38.2513 89.7107 39.0592 89.7107C39.8671 89.7107 40.2616 89.1748 40.2616 88.1028C40.2616 87.0309 39.8671 86.5134 39.0592 86.5134C38.6271 86.5134 38.3265 86.6428 38.1386 86.92C37.9507 87.1972 37.8568 87.5853 37.8568 88.1028Z" fill="white"/>
</g>
<mask id="mask20_349_30539" style="mask-type:luminance" maskUnits="userSpaceOnUse" x="0" y="0" width="137" height="93">
<path d="M137 0H0V93H137V0Z" fill="white"/>
</mask>
<g mask="url(#mask20_349_30539)">
<path d="M47.3637 85.7735V88.1577C47.3637 88.4349 47.3449 88.8415 47.2885 89.3775L49.6558 85.7735H50.877V90.4309H49.9188V88.0837C49.9188 87.9544 49.9188 87.7511 49.9376 87.4554C49.9564 87.1596 49.9752 86.9563 49.9752 86.827L47.6079 90.4309H46.3867V85.7735H47.3637ZM48.6225 85.2006C48.0212 85.2006 47.5703 85.0897 47.2885 84.8864C47.0067 84.6646 46.8564 84.3135 46.8188 83.8145H47.7206C47.7394 84.0178 47.777 84.1656 47.8334 84.295C47.8897 84.4059 47.9837 84.4798 48.0964 84.5352C48.2091 84.5907 48.397 84.6092 48.6225 84.6092C48.9043 84.6092 49.1109 84.5537 49.2612 84.4243C49.4115 84.295 49.4867 84.1102 49.5243 83.8145H50.4449C50.4073 84.295 50.2382 84.6461 49.9188 84.8679C49.6558 85.0897 49.2049 85.2006 48.6225 85.2006Z" fill="white"/>
</g>
<mask id="mask21_349_30539" style="mask-type:luminance" maskUnits="userSpaceOnUse" x="0" y="0" width="137" height="93">
<path d="M137 0H0V93H137V0Z" fill="white"/>
</mask>
<g mask="url(#mask21_349_30539)">
<path d="M67.0149 85.7734H68.1233L66.1694 88.0097L68.2924 90.4308H67.1276L65.0985 88.0652V90.4308H64.084V85.7734H65.0985V88.0282L67.0149 85.7734Z" fill="white"/>
</g>
<mask id="mask22_349_30539" style="mask-type:luminance" maskUnits="userSpaceOnUse" x="0" y="0" width="137" height="93">
<path d="M137 0H0V93H137V0Z" fill="white"/>
</mask>
<g mask="url(#mask22_349_30539)">
<path d="M77.2168 88.1028C77.2168 88.8606 77.0102 89.452 76.6156 89.8771C76.2211 90.3021 75.6762 90.5239 74.9623 90.5239C74.5114 90.5239 74.1356 90.4315 73.7975 90.2282C73.4593 90.0249 73.1963 89.7477 73.0084 89.3781C72.8205 89.0084 72.7266 88.5833 72.7266 88.1028C72.7266 87.3451 72.9144 86.7537 73.309 86.3286C73.7035 85.9035 74.2484 85.7002 74.9811 85.7002C75.6574 85.7002 76.2023 85.922 76.6156 86.3471C77.0102 86.7721 77.2168 87.3635 77.2168 88.1028ZM73.7599 88.1028C73.7599 89.1748 74.1544 89.7107 74.9623 89.7107C75.7702 89.7107 76.1647 89.1748 76.1647 88.1028C76.1647 87.0309 75.7702 86.5134 74.9623 86.5134C74.549 86.5134 74.2296 86.6428 74.0417 86.92C73.8538 87.1972 73.7599 87.5853 73.7599 88.1028Z" fill="white"/>
</g>
<mask id="mask23_349_30539" style="mask-type:luminance" maskUnits="userSpaceOnUse" x="0" y="0" width="137" height="93">
<path d="M137 0H0V93H137V0Z" fill="white"/>
</mask>
<g mask="url(#mask23_349_30539)">
<path d="M85.0336 89.4883L85.0899 89.285C85.2026 88.8599 85.3154 88.5457 85.3905 88.3239L86.4426 85.7734H87.7766V90.4308H86.856V86.679L86.7808 86.9378C86.6493 87.3813 86.5366 87.714 86.4614 87.9358L85.4281 90.4493H84.6766L83.6433 87.9173C83.493 87.5477 83.3614 87.1411 83.2487 86.679V90.4308H82.3281V85.7734H83.662L84.6954 88.2315C84.7517 88.4718 84.8833 88.8784 85.0336 89.4883Z" fill="white"/>
</g>
<mask id="mask24_349_30539" style="mask-type:luminance" maskUnits="userSpaceOnUse" x="0" y="0" width="137" height="93">
<path d="M137 0H0V93H137V0Z" fill="white"/>
</mask>
<g mask="url(#mask24_349_30539)">
<path d="M97.3025 85.7734V90.4308H96.2879V86.5681H94.1649V90.4308H93.1504V85.7734H97.3025Z" fill="white"/>
</g>
<mask id="mask25_349_30539" style="mask-type:luminance" maskUnits="userSpaceOnUse" x="0" y="0" width="137" height="93">
<path d="M137 0H0V93H137V0Z" fill="white"/>
</mask>
<g mask="url(#mask25_349_30539)">
<path d="M106.545 90.4309H105.53V86.5497H104.234C104.159 87.5478 104.046 88.324 103.914 88.8969C103.783 89.4514 103.595 89.8765 103.388 90.1352C103.163 90.3939 102.881 90.5233 102.543 90.5233C102.317 90.5233 102.148 90.4863 101.998 90.4309V89.6547C102.111 89.6916 102.205 89.7101 102.317 89.7101C102.599 89.7101 102.843 89.3959 103.013 88.7491C103.182 88.1022 103.313 87.1227 103.407 85.792H106.582V90.4309H106.545Z" fill="white"/>
</g>
<mask id="mask26_349_30539" style="mask-type:luminance" maskUnits="userSpaceOnUse" x="0" y="0" width="137" height="93">
<path d="M137 0H0V93H137V0Z" fill="white"/>
</mask>
<g mask="url(#mask26_349_30539)">
<path d="M114.005 90.5054C113.272 90.5054 112.69 90.3021 112.276 89.8771C111.863 89.452 111.656 88.879 111.656 88.1398C111.656 87.4005 111.844 86.7906 112.239 86.3471C112.633 85.9035 113.159 85.7002 113.817 85.7002C114.437 85.7002 114.944 85.885 115.301 86.2546C115.658 86.6243 115.846 87.1418 115.846 87.7886V88.3246H112.69C112.708 88.7682 112.821 89.1193 113.065 89.3596C113.291 89.5998 113.629 89.7292 114.061 89.7292C114.343 89.7292 114.606 89.7107 114.85 89.6553C115.094 89.5998 115.357 89.5259 115.62 89.3965V90.2097C115.376 90.3206 115.132 90.413 114.869 90.45C114.606 90.487 114.324 90.5054 114.005 90.5054ZM113.817 86.4395C113.497 86.4395 113.234 86.5319 113.047 86.7352C112.859 86.9385 112.746 87.2157 112.708 87.6038H114.85C114.85 87.2157 114.756 86.92 114.568 86.7352C114.38 86.5319 114.136 86.4395 113.817 86.4395Z" fill="white"/>
</g>
<mask id="mask27_349_30539" style="mask-type:luminance" maskUnits="userSpaceOnUse" x="0" y="0" width="137" height="93">
<path d="M137 0H0V93H137V0Z" fill="white"/>
</mask>
<g mask="url(#mask27_349_30539)">
<path d="M123.849 85.7734H124.957L123.003 88.0097L125.126 90.4308H123.962L121.914 88.0652V90.4308H120.918V85.7734H121.914V88.0282L123.849 85.7734Z" fill="white"/>
</g>
<mask id="mask28_349_30539" style="mask-type:luminance" maskUnits="userSpaceOnUse" x="0" y="0" width="137" height="93">
<path d="M137 0H0V93H137V0Z" fill="white"/>
</mask>
<g mask="url(#mask28_349_30539)">
<path d="M131.759 90.5054C131.045 90.5054 130.5 90.3021 130.124 89.8955C129.748 89.4889 129.561 88.8975 129.561 88.1212C129.561 87.345 129.748 86.7351 130.143 86.31C130.538 85.8849 131.101 85.6816 131.834 85.6816C132.341 85.6816 132.773 85.774 133.187 85.9589L132.886 86.7536C132.454 86.5872 132.116 86.5133 131.834 86.5133C131.007 86.5133 130.613 87.0493 130.613 88.1212C130.613 88.6387 130.707 89.0268 130.913 89.3041C131.12 89.5628 131.421 89.6922 131.815 89.6922C132.266 89.6922 132.679 89.5813 133.093 89.3595V90.2281C132.905 90.339 132.717 90.413 132.51 90.4499C132.285 90.4869 132.041 90.5054 131.759 90.5054Z" fill="white"/>
</g>
<mask id="mask29_349_30539" style="mask-type:luminance" maskUnits="userSpaceOnUse" x="0" y="0" width="137" height="93">
<path d="M137 0H0V93H137V0Z" fill="white"/>
</mask>
<g mask="url(#mask29_349_30539)">
<path d="M91.6644 45.4646L88.0008 44.4665L85.2578 45.3906V44.3926L88.0008 43.4131L91.6644 44.4665V45.4646Z" fill="#EC6E18"/>
</g>
<mask id="mask30_349_30539" style="mask-type:luminance" maskUnits="userSpaceOnUse" x="0" y="0" width="137" height="93">
<path d="M137 0H0V93H137V0Z" fill="white"/>
</mask>
<g mask="url(#mask30_349_30539)">
<path d="M91.6644 47.4796L88.0008 46.5925L85.2578 47.4242V46.4077L88.0008 45.5391L91.6644 46.4816V47.4796Z" fill="#EC6E18"/>
</g>
<mask id="mask31_349_30539" style="mask-type:luminance" maskUnits="userSpaceOnUse" x="0" y="0" width="137" height="93">
<path d="M137 0H0V93H137V0Z" fill="white"/>
</mask>
<g mask="url(#mask31_349_30539)">
<path d="M91.6644 49.4937L88.0008 48.699L85.2578 49.4382V48.4217L88.0008 47.6455L91.6644 48.4957V49.4937Z" fill="#EC6E18"/>
</g>
<mask id="mask32_349_30539" style="mask-type:luminance" maskUnits="userSpaceOnUse" x="0" y="0" width="137" height="93">
<path d="M137 0H0V93H137V0Z" fill="white"/>
</mask>
<g mask="url(#mask32_349_30539)">
<path d="M91.6644 51.5088L88.0008 50.8249L85.2578 51.4533V50.4368L88.0008 49.7715L91.6644 50.5108V51.5088Z" fill="#EC6E18"/>
</g>
<mask id="mask33_349_30539" style="mask-type:luminance" maskUnits="userSpaceOnUse" x="0" y="0" width="137" height="93">
<path d="M137 0H0V93H137V0Z" fill="white"/>
</mask>
<g mask="url(#mask33_349_30539)">
<path d="M91.6644 53.5228L88.0008 52.9314L85.2578 53.4674V52.4693L88.0008 51.8779L91.6644 52.5063V53.5228Z" fill="#EC6E18"/>
</g>
<mask id="mask34_349_30539" style="mask-type:luminance" maskUnits="userSpaceOnUse" x="0" y="0" width="137" height="93">
<path d="M137 0H0V93H137V0Z" fill="white"/>
</mask>
<g mask="url(#mask34_349_30539)">
<path d="M91.6644 55.5379L88.0008 55.0574L85.2578 55.5009V54.4844L88.0008 54.0039L91.6644 54.5214V55.5379Z" fill="#EC6E18"/>
</g>
<mask id="mask35_349_30539" style="mask-type:luminance" maskUnits="userSpaceOnUse" x="0" y="0" width="137" height="93">
<path d="M137 0H0V93H137V0Z" fill="white"/>
</mask>
<g mask="url(#mask35_349_30539)">
<path d="M105.68 23.4528V25.5967L109.663 23.6377L115.769 25.7631V23.6192L109.663 21.4014L105.68 23.4528Z" fill="#59A332"/>
</g>
<mask id="mask36_349_30539" style="mask-type:luminance" maskUnits="userSpaceOnUse" x="0" y="0" width="137" height="93">
<path d="M137 0H0V93H137V0Z" fill="white"/>
</mask>
<g mask="url(#mask36_349_30539)">
<path d="M105.68 27.7407V29.8661L109.663 28.1288L115.769 30.0139V27.8885L109.663 25.874L105.68 27.7407Z" fill="#59A332"/>
</g>
<mask id="mask37_349_30539" style="mask-type:luminance" maskUnits="userSpaceOnUse" x="0" y="0" width="137" height="93">
<path d="M137 0H0V93H137V0Z" fill="white"/>
</mask>
<g mask="url(#mask37_349_30539)">
<path d="M105.682 32.0101V34.154L109.665 32.6015L115.771 34.2834V32.158L109.665 30.3652L105.682 32.0101Z" fill="#59A332"/>
</g>
<mask id="mask38_349_30539" style="mask-type:luminance" maskUnits="userSpaceOnUse" x="0" y="0" width="137" height="93">
<path d="M137 0H0V93H137V0Z" fill="white"/>
</mask>
<g mask="url(#mask38_349_30539)">
<path d="M105.682 36.298V38.4419L109.665 37.0927L115.771 38.5528V36.4089L109.665 34.8564L105.682 36.298Z" fill="#59A332"/>
</g>
<mask id="mask39_349_30539" style="mask-type:luminance" maskUnits="userSpaceOnUse" x="0" y="0" width="137" height="93">
<path d="M137 0H0V93H137V0Z" fill="white"/>
</mask>
<g mask="url(#mask39_349_30539)">
<path d="M105.682 40.5674V42.7113L109.665 41.5839L115.771 42.8037V40.6783L109.665 39.3291L105.682 40.5674Z" fill="#59A332"/>
</g>
<mask id="mask40_349_30539" style="mask-type:luminance" maskUnits="userSpaceOnUse" x="0" y="0" width="137" height="93">
<path d="M137 0H0V93H137V0Z" fill="white"/>
</mask>
<g mask="url(#mask40_349_30539)">
<path d="M105.682 44.8553V46.9992L109.665 46.0751L115.771 47.0731V44.9477L109.665 43.8203L105.682 44.8553Z" fill="#59A332"/>
</g>
<mask id="mask41_349_30539" style="mask-type:luminance" maskUnits="userSpaceOnUse" x="0" y="0" width="137" height="93">
<path d="M137 0H0V93H137V0Z" fill="white"/>
</mask>
<g mask="url(#mask41_349_30539)">
<path d="M105.68 49.1247V51.2686L109.663 50.5478L115.769 51.324V49.1986L109.663 48.3115L105.68 49.1247Z" fill="#59A332"/>
</g>
<mask id="mask42_349_30539" style="mask-type:luminance" maskUnits="userSpaceOnUse" x="0" y="0" width="137" height="93">
<path d="M137 0H0V93H137V0Z" fill="white"/>
</mask>
<g mask="url(#mask42_349_30539)">
<path d="M105.68 53.4126V55.5565L109.663 55.039L115.769 55.5935V53.4681L109.663 52.8027L105.68 53.4126Z" fill="#59A332"/>
</g>
<mask id="mask43_349_30539" style="mask-type:luminance" maskUnits="userSpaceOnUse" x="0" y="0" width="137" height="93">
<path d="M137 0H0V93H137V0Z" fill="white"/>
</mask>
<g mask="url(#mask43_349_30539)">
<path d="M118.381 17.8538C118.343 17.7984 118.325 17.7429 118.381 17.6875C118.494 17.6875 118.644 17.6135 118.7 17.5396C118.813 17.4102 118.719 17.2993 118.606 17.1885C118.569 17.1515 118.512 17.096 118.512 17.0406C118.494 16.9297 118.569 16.9112 118.606 16.8558C118.681 16.7634 118.757 16.634 118.663 16.5416C118.531 16.4122 118.381 16.5046 118.231 16.5231C118.137 16.5231 118.061 16.5231 118.024 16.4492C117.986 16.3753 117.986 16.3383 117.911 16.3198C117.742 16.2644 117.742 16.4492 117.629 16.5231C117.554 16.5786 117.441 16.3568 117.366 16.3013C117.009 16.1165 116.972 16.597 116.803 16.7819C116.765 16.8373 116.709 16.8743 116.652 16.8003C116.615 16.7449 116.671 16.6525 116.634 16.597C116.558 16.4677 116.371 16.634 116.295 16.7079C116.183 16.8188 116.145 16.9667 116.108 17.096C116.07 17.2439 116.014 17.3733 115.938 17.5026C115.863 17.6135 115.713 17.6875 115.694 17.5026C115.694 17.4287 115.694 17.3548 115.619 17.3363C115.563 17.3178 115.469 17.3548 115.412 17.3918C115.187 17.5951 115.281 17.9277 115.187 18.1865C115.131 18.3158 115.055 18.4637 114.98 18.2604C114.962 18.205 114.924 18.1495 114.849 18.168C114.774 18.1865 114.755 18.2789 114.755 18.3528C114.736 18.4452 114.755 18.5376 114.736 18.6115C114.717 18.704 114.68 18.7964 114.623 18.8888C114.623 18.8888 115.375 18.8333 116.277 18.3343C117.16 17.8353 117.761 17.2624 117.761 17.2624C117.761 17.2624 117.103 18.1125 116.333 18.5376C115.563 18.9627 114.285 19.3508 114.285 19.3508C114.304 19.4063 114.473 19.5356 114.548 19.5911C114.68 19.6835 114.792 19.7389 114.943 19.7944C115.093 19.8313 115.619 19.9977 115.694 19.7389C115.713 19.6835 115.638 19.6465 115.657 19.5911C115.657 19.5172 115.732 19.5172 115.788 19.5172C115.92 19.5172 116.07 19.5726 116.22 19.5911C116.352 19.6096 116.521 19.6465 116.652 19.6096C116.822 19.5541 116.84 19.4617 116.709 19.3508C116.652 19.2954 116.427 19.129 116.558 19.0551C116.615 19.0181 116.709 19.0551 116.765 19.0736C116.84 19.0921 116.897 19.0921 116.972 19.0921C117.122 19.1106 117.254 19.0921 117.404 19.0551C117.46 19.0366 117.554 19.0366 117.611 18.9812C117.667 18.9073 117.611 18.8703 117.592 18.8148C117.423 18.4637 117.949 18.5191 118.155 18.4637C118.306 18.4267 118.418 18.3528 118.494 18.2234C118.606 18.0386 118.456 18.0017 118.381 17.8538Z" fill="#59A332"/>
</g>
<mask id="mask44_349_30539" style="mask-type:luminance" maskUnits="userSpaceOnUse" x="0" y="0" width="137" height="93">
<path d="M137 0H0V93H137V0Z" fill="white"/>
</mask>
<g mask="url(#mask44_349_30539)">
<path d="M110.903 14.8597C110.696 15.1924 111.166 15.2663 111.354 15.4326C111.41 15.4696 111.429 15.5435 111.354 15.5805C111.298 15.6174 111.204 15.562 111.147 15.5805C111.016 15.6544 111.166 15.8392 111.222 15.9132C111.316 16.024 111.467 16.0795 111.617 16.1165C111.767 16.1719 111.899 16.2089 112.03 16.3013C112.143 16.3752 112.218 16.5415 112.012 16.5415C111.936 16.5415 111.861 16.5231 111.824 16.6155C111.805 16.6709 111.824 16.7633 111.861 16.8188C112.049 17.059 112.406 16.9851 112.65 17.096C112.782 17.1514 112.932 17.2438 112.707 17.2993C112.65 17.3178 112.594 17.3362 112.613 17.4287C112.632 17.5026 112.725 17.5211 112.782 17.5395C112.876 17.558 112.97 17.5395 113.045 17.5765C113.139 17.595 113.233 17.6504 113.327 17.7059C113.327 17.7059 113.327 16.9481 112.876 16.0425C112.425 15.1369 111.899 14.5085 111.899 14.5085C111.899 14.5085 112.725 15.2108 113.101 16.0056C113.477 16.7818 113.778 18.057 113.778 18.057C113.834 18.0386 113.984 17.8907 114.041 17.8168C114.135 17.7059 114.21 17.5765 114.266 17.4287C114.322 17.2808 114.51 16.7818 114.266 16.6894C114.21 16.6709 114.153 16.7264 114.097 16.7264C114.022 16.7079 114.022 16.6524 114.022 16.5785C114.041 16.4491 114.097 16.3013 114.116 16.1719C114.153 16.0425 114.191 15.8762 114.153 15.7468C114.097 15.5805 114.022 15.562 113.89 15.6729C113.834 15.7283 113.646 15.9316 113.59 15.8023C113.571 15.7468 113.608 15.6544 113.627 15.599C113.646 15.525 113.646 15.4696 113.665 15.3957C113.684 15.2478 113.684 15.1184 113.665 14.9706C113.646 14.9151 113.646 14.8227 113.59 14.7673C113.515 14.7118 113.477 14.7488 113.421 14.7858C113.045 14.9151 113.139 14.4161 113.101 14.2128C113.064 14.065 113.007 13.9541 112.876 13.8617C112.707 13.7508 112.65 13.8986 112.519 13.9726C112.444 14.0095 112.406 14.0095 112.35 13.9541C112.369 13.8432 112.293 13.6953 112.218 13.6214C112.087 13.5105 111.974 13.5845 111.861 13.6769C111.824 13.7138 111.767 13.7508 111.711 13.7693C111.598 13.7878 111.579 13.7138 111.523 13.6584C111.429 13.566 111.316 13.492 111.204 13.5845C111.072 13.7138 111.147 13.8617 111.147 13.9911C111.147 14.0835 111.129 14.1574 111.053 14.1944C110.978 14.2313 110.941 14.2128 110.903 14.2868C110.828 14.4531 111.016 14.4716 111.091 14.5825C111.185 14.6934 110.959 14.7673 110.903 14.8597Z" fill="#59A332"/>
</g>
<mask id="mask45_349_30539" style="mask-type:luminance" maskUnits="userSpaceOnUse" x="0" y="0" width="137" height="93">
<path d="M137 0H0V93H137V0Z" fill="white"/>
</mask>
<g mask="url(#mask45_349_30539)">
<path d="M116.709 7.20836C116.446 7.57799 116.991 7.68888 117.179 7.89218C117.235 7.94762 117.273 8.02155 117.16 8.077C117.085 8.11396 117.01 8.04003 116.935 8.077C116.765 8.15092 116.935 8.3727 117.01 8.46511C117.122 8.59448 117.292 8.66841 117.442 8.72386C117.611 8.7793 117.761 8.85323 117.893 8.96412C118.005 9.05653 118.081 9.24134 117.855 9.22286C117.78 9.22286 117.686 9.1859 117.648 9.29679C117.611 9.37072 117.648 9.46313 117.686 9.51857C117.893 9.81428 118.287 9.74035 118.569 9.88821C118.719 9.96213 118.87 10.073 118.625 10.1285C118.55 10.1469 118.494 10.1654 118.513 10.2578C118.532 10.3502 118.625 10.3687 118.701 10.3872C118.795 10.4057 118.907 10.4057 119.001 10.4427C119.114 10.4796 119.208 10.5351 119.321 10.609C119.321 10.609 119.358 9.75883 118.907 8.68689C118.456 7.61495 117.874 6.87568 117.874 6.87568C117.874 6.87568 118.757 7.72584 119.152 8.64993C119.546 9.57402 119.79 11.0526 119.79 11.0526C119.865 11.0341 120.035 10.8677 120.11 10.7938C120.222 10.6644 120.316 10.5351 120.391 10.3687C120.467 10.2024 120.711 9.62946 120.429 9.53705C120.373 9.51857 120.316 9.57402 120.241 9.55553C120.147 9.53705 120.166 9.46313 120.166 9.3892C120.185 9.24134 120.26 9.07501 120.298 8.92716C120.335 8.7793 120.41 8.59448 120.373 8.42815C120.316 8.24333 120.241 8.20637 120.091 8.31726C120.016 8.39119 119.809 8.61297 119.734 8.44663C119.696 8.3727 119.753 8.2803 119.79 8.22485C119.809 8.15092 119.828 8.077 119.847 8.00307C119.884 7.83673 119.903 7.68888 119.865 7.50406C119.847 7.43014 119.865 7.31925 119.79 7.2638C119.715 7.18987 119.678 7.24532 119.602 7.2638C119.17 7.39317 119.302 6.82024 119.283 6.59846C119.264 6.43212 119.189 6.28427 119.058 6.19186C118.87 6.06249 118.795 6.22882 118.644 6.28427C118.569 6.32123 118.513 6.32123 118.456 6.24731C118.475 6.13642 118.419 5.9516 118.325 5.85919C118.193 5.72982 118.043 5.80375 117.912 5.89615C117.855 5.93312 117.799 5.98856 117.724 5.98856C117.592 6.00704 117.592 5.91464 117.517 5.84071C117.423 5.72982 117.292 5.63741 117.16 5.7483C116.991 5.87767 117.085 6.06249 117.066 6.22882C117.047 6.33972 117.047 6.41364 116.953 6.45061C116.878 6.48757 116.822 6.46909 116.784 6.5615C116.69 6.74631 116.916 6.76479 116.972 6.89417C117.047 7.02354 116.765 7.11595 116.709 7.20836Z" fill="#59A332"/>
</g>
<mask id="mask46_349_30539" style="mask-type:luminance" maskUnits="userSpaceOnUse" x="0" y="0" width="137" height="93">
<path d="M137 0H0V93H137V0Z" fill="white"/>
</mask>
<g mask="url(#mask46_349_30539)">
<path d="M121.048 12.9003C120.992 12.8448 120.936 12.8079 120.879 12.8818C120.804 12.9557 120.842 13.0296 120.879 13.1221C120.917 13.2145 120.973 13.3069 121.011 13.3993C121.048 13.5102 121.048 13.6211 121.048 13.7504C121.048 13.7504 121.8 13.3069 122.439 12.3458C123.077 11.3848 123.397 10.4976 123.397 10.4976C123.397 10.4976 123.171 11.699 122.608 12.5306C122.044 13.3623 120.954 14.3973 120.954 14.3973C121.011 14.4343 121.236 14.4897 121.349 14.5082C121.518 14.5267 121.687 14.5267 121.856 14.5082C122.025 14.4712 122.645 14.3603 122.589 14.0831C122.57 14.0277 122.476 14.0092 122.457 13.9537C122.42 13.8613 122.495 13.8428 122.551 13.8059C122.683 13.7319 122.871 13.7135 123.021 13.658C123.171 13.6026 123.359 13.5656 123.472 13.4362C123.604 13.2884 123.585 13.196 123.397 13.1405C123.303 13.1221 122.984 13.0666 123.096 12.9188C123.134 12.8633 123.247 12.8448 123.322 12.8263C123.397 12.8079 123.472 12.7709 123.528 12.7524C123.697 12.6785 123.829 12.623 123.961 12.4937C124.017 12.4567 124.111 12.3828 124.111 12.3089C124.13 12.198 124.054 12.198 123.998 12.161C123.641 11.8838 124.205 11.6805 124.393 11.5141C124.524 11.4033 124.599 11.2739 124.599 11.0891C124.599 10.8673 124.43 10.9042 124.28 10.7934C124.205 10.7379 124.167 10.7009 124.205 10.627C124.317 10.5901 124.43 10.4237 124.449 10.3128C124.487 10.128 124.336 10.0541 124.186 9.99864C124.13 9.98016 124.054 9.96168 123.998 9.90623C123.923 9.81383 123.979 9.75838 123.998 9.66597C124.036 9.51812 124.036 9.37027 123.885 9.31482C123.679 9.25938 123.585 9.42571 123.434 9.49964C123.341 9.55508 123.265 9.59205 123.171 9.5366C123.096 9.48116 123.077 9.44419 122.984 9.46267C122.777 9.49964 122.871 9.68445 122.796 9.81383C122.739 9.90623 122.514 9.7399 122.401 9.7399C121.95 9.7399 122.138 10.2389 122.082 10.5161C122.063 10.5901 122.025 10.664 121.931 10.6085C121.856 10.5716 121.875 10.4607 121.8 10.4237C121.65 10.3313 121.556 10.5901 121.518 10.7009C121.462 10.8673 121.499 11.0336 121.537 11.2C121.574 11.3663 121.593 11.5326 121.593 11.699C121.574 11.8468 121.462 12.0132 121.349 11.8283C121.311 11.7544 121.274 11.6805 121.18 11.699C121.105 11.7174 121.03 11.7914 121.011 11.8653C120.879 12.198 121.161 12.4752 121.199 12.7894C121.217 12.8818 121.217 13.0851 121.048 12.9003Z" fill="#59A332"/>
</g>
<mask id="mask47_349_30539" style="mask-type:luminance" maskUnits="userSpaceOnUse" x="0" y="0" width="137" height="93">
<path d="M137 0H0V93H137V0Z" fill="white"/>
</mask>
<g mask="url(#mask47_349_30539)">
<path d="M116.051 11.0516C115.826 11.0516 115.863 11.2365 115.769 11.3843C115.732 11.4582 115.694 11.4952 115.6 11.4767C115.544 11.3658 115.375 11.2549 115.262 11.2549C115.074 11.2365 114.999 11.3843 114.961 11.5322C114.943 11.5876 114.924 11.6615 114.867 11.717C114.773 11.8094 114.717 11.7355 114.623 11.7355C114.473 11.717 114.323 11.717 114.266 11.8648C114.21 12.0681 114.398 12.1605 114.492 12.2899C114.548 12.3823 114.586 12.4562 114.529 12.5487C114.492 12.6226 114.435 12.6411 114.454 12.7335C114.492 12.9368 114.68 12.8259 114.811 12.8998C114.905 12.9553 114.755 13.177 114.755 13.2879C114.773 13.7315 115.281 13.5097 115.563 13.5467C115.638 13.5652 115.713 13.6021 115.656 13.6945C115.619 13.7685 115.506 13.7685 115.469 13.8239C115.375 13.9718 115.656 14.0642 115.769 14.0826C115.938 14.1196 116.107 14.0826 116.276 14.0272C116.446 13.9718 116.596 13.9533 116.784 13.9533C116.934 13.9533 117.103 14.0642 116.915 14.175C116.84 14.2305 116.765 14.249 116.784 14.3599C116.803 14.4338 116.878 14.4892 116.953 14.5262C117.291 14.6371 117.573 14.3414 117.892 14.2859C118.061 14.2675 118.249 14.249 118.08 14.4338C118.043 14.4892 118.005 14.5447 118.08 14.6001C118.155 14.6556 118.23 14.6186 118.324 14.5816C118.418 14.5447 118.493 14.4708 118.587 14.4338C118.7 14.3968 118.813 14.3783 118.944 14.3783C118.944 14.3783 118.456 13.676 117.441 13.1031C116.427 12.5302 115.506 12.2714 115.506 12.2714C115.506 12.2714 116.746 12.4193 117.61 12.9368C118.475 13.4358 119.602 14.4708 119.602 14.4708C119.639 14.4153 119.677 14.175 119.696 14.0642C119.715 13.8978 119.696 13.7315 119.658 13.5652C119.621 13.3988 119.47 12.7889 119.189 12.8628C119.132 12.8813 119.113 12.9737 119.057 12.9922C118.982 13.0292 118.926 12.9553 118.888 12.8998C118.813 12.7704 118.775 12.5856 118.719 12.4562C118.663 12.3084 118.606 12.1236 118.475 12.0312C118.324 11.9018 118.23 11.9203 118.193 12.1236C118.174 12.216 118.136 12.5302 117.986 12.4378C117.93 12.4008 117.911 12.2899 117.892 12.2345C117.873 12.1605 117.836 12.0866 117.798 12.0312C117.723 11.8648 117.648 11.7539 117.516 11.6246C117.46 11.5691 117.404 11.4952 117.31 11.4767C117.197 11.4767 117.197 11.5322 117.16 11.5876C116.896 11.9388 116.652 11.4028 116.483 11.2365C116.37 11.1071 116.239 11.0332 116.051 11.0516Z" fill="#59A332"/>
</g>
<mask id="mask48_349_30539" style="mask-type:luminance" maskUnits="userSpaceOnUse" x="0" y="0" width="137" height="93">
<path d="M137 0H0V93H137V0Z" fill="white"/>
</mask>
<g mask="url(#mask48_349_30539)">
<path d="M120.034 19.6275C119.996 19.6829 119.959 19.9232 119.94 20.0341C119.921 20.2189 119.921 20.3667 119.959 20.5331C119.996 20.6994 120.128 21.3093 120.429 21.2354C120.485 21.2169 120.504 21.1245 120.56 21.106C120.635 21.0691 120.692 21.143 120.71 21.1984C120.786 21.3278 120.823 21.5126 120.879 21.642C120.936 21.7898 120.992 21.9747 121.105 22.0855C121.255 22.2149 121.349 22.1964 121.406 22.0116C121.424 21.9192 121.462 21.605 121.612 21.6974C121.669 21.7344 121.687 21.8453 121.706 21.9007C121.725 21.9747 121.762 22.0486 121.8 22.104C121.875 22.2704 121.95 22.3997 122.082 22.5106C122.138 22.5661 122.195 22.6585 122.27 22.6585C122.382 22.6585 122.382 22.603 122.42 22.5476C122.683 22.1964 122.927 22.7324 123.078 22.8987C123.209 23.0281 123.341 23.102 123.51 23.102C123.735 23.102 123.698 22.9172 123.792 22.7879C123.829 22.7139 123.867 22.677 123.961 22.6954C124.017 22.8063 124.167 22.9172 124.299 22.9357C124.487 22.9542 124.562 22.8063 124.599 22.6585C124.618 22.603 124.637 22.5291 124.693 22.4737C124.787 22.3813 124.844 22.4552 124.938 22.4737C125.088 22.4921 125.238 22.4921 125.295 22.3443C125.351 22.141 125.163 22.0486 125.088 21.9192C125.032 21.8268 124.994 21.7529 125.05 21.6605C125.088 21.5865 125.144 21.5681 125.125 21.4756C125.088 21.2724 124.9 21.3832 124.769 21.3093C124.675 21.2539 124.844 21.0321 124.844 20.9212C124.825 20.4776 124.318 20.6809 124.055 20.644C123.979 20.6255 123.904 20.5885 123.961 20.4961C123.998 20.4222 124.111 20.4407 124.149 20.3667C124.242 20.2189 123.961 20.1265 123.848 20.0895C123.679 20.0526 123.51 20.0895 123.341 20.1265C123.172 20.1634 123.002 20.2004 122.833 20.2004C122.683 20.2004 122.514 20.0895 122.702 19.9601C122.777 19.9232 122.852 19.8862 122.833 19.7938C122.815 19.7199 122.739 19.646 122.664 19.6275C122.326 19.5166 122.044 19.7938 121.725 19.8493C121.556 19.8677 121.368 19.8677 121.537 19.6829C121.593 19.6275 121.631 19.572 121.556 19.5166C121.481 19.4611 121.406 19.4981 121.312 19.5166C121.218 19.5536 121.142 19.6275 121.03 19.646C120.917 19.6829 120.804 19.6829 120.673 19.7014C120.673 19.7014 121.142 20.4222 122.157 21.0136C123.172 21.605 124.073 21.8822 124.073 21.8822C124.073 21.8822 122.833 21.6974 121.969 21.1799C121.124 20.6809 120.034 19.6275 120.034 19.6275Z" fill="#59A332"/>
</g>
<mask id="mask49_349_30539" style="mask-type:luminance" maskUnits="userSpaceOnUse" x="0" y="0" width="137" height="93">
<path d="M137 0H0V93H137V0Z" fill="white"/>
</mask>
<g mask="url(#mask49_349_30539)">
<path d="M127.775 15.7469C127.756 15.636 127.643 15.6175 127.531 15.6175C127.455 15.6175 127.399 15.6545 127.343 15.5806C127.305 15.5436 127.305 15.4882 127.286 15.4327C127.268 15.3218 127.23 15.1925 127.098 15.1925C127.005 15.1925 126.873 15.2664 126.835 15.3403C126.76 15.3403 126.742 15.3218 126.723 15.2664C126.666 15.1555 126.723 15.0261 126.554 15.0076C126.422 14.9892 126.309 15.0261 126.215 15.1C126.084 15.2109 125.859 15.5806 125.689 15.3033C125.652 15.2479 125.671 15.2109 125.595 15.2109C125.539 15.2109 125.483 15.2664 125.445 15.3033C125.332 15.3773 125.276 15.4697 125.201 15.5806C125.163 15.6175 125.145 15.673 125.107 15.7284C125.088 15.7839 125.069 15.8578 125.013 15.8763C124.882 15.9317 124.9 15.7099 124.882 15.636C124.863 15.4882 124.806 15.4697 124.675 15.5436C124.581 15.6175 124.525 15.7469 124.449 15.8393C124.393 15.9317 124.355 16.0611 124.28 16.1535C124.243 16.1905 124.205 16.2459 124.149 16.209C124.111 16.1905 124.111 16.1165 124.055 16.0981C123.848 16.0057 123.679 16.4492 123.642 16.5601C123.604 16.671 123.566 16.8004 123.566 16.9297C123.566 17.0221 123.566 17.1885 123.604 17.2254C123.604 17.2254 124.506 16.5601 125.201 16.2644C125.896 15.9687 126.817 15.9502 126.817 15.9502C126.817 15.9502 126.122 16.0611 125.314 16.3938C124.506 16.7264 124.092 17.207 124.092 17.207C124.168 17.2254 124.262 17.2439 124.337 17.2809C124.412 17.3179 124.468 17.3733 124.525 17.4103C124.581 17.4472 124.637 17.4842 124.694 17.4472C124.75 17.4103 124.731 17.3548 124.694 17.3179C124.6 17.17 124.731 17.1885 124.844 17.2254C125.069 17.2809 125.257 17.5212 125.52 17.4842C125.577 17.4657 125.633 17.4287 125.652 17.3733C125.689 17.2994 125.614 17.2624 125.577 17.2254C125.464 17.1146 125.595 17.0591 125.708 17.0591C125.84 17.0776 125.952 17.1146 126.084 17.1515C126.197 17.1885 126.328 17.2439 126.441 17.2254C126.516 17.207 126.742 17.17 126.685 17.0591C126.666 17.0037 126.572 17.0037 126.554 16.9482C126.516 16.8743 126.591 16.8558 126.648 16.8558C126.854 16.8558 127.211 17.0591 127.268 16.7264C127.286 16.6525 127.174 16.4677 127.249 16.4307C127.343 16.3938 127.474 16.4862 127.531 16.3383C127.549 16.2644 127.512 16.2644 127.493 16.1905C127.455 16.1165 127.493 16.0611 127.549 16.0057C127.643 15.9502 127.794 15.8948 127.775 15.7469Z" fill="#59A332"/>
</g>
<mask id="mask50_349_30539" style="mask-type:luminance" maskUnits="userSpaceOnUse" x="0" y="0" width="137" height="93">
<path d="M137 0H0V93H137V0Z" fill="white"/>
</mask>
<g mask="url(#mask50_349_30539)">
<path d="M130.763 13.9537H130.65C131.326 12.66 131.702 11.1814 131.702 9.62897C131.702 4.30624 127.306 0 121.914 0C117.818 0 114.305 2.47655 112.858 5.98808C111.731 2.86467 108.631 0.609897 105.061 0.609897C100.721 0.609897 97.1891 3.95509 96.9636 8.16892C96.9636 8.22436 96.9448 8.27981 96.9448 8.33525V8.594C96.9448 9.57353 97.1139 10.4976 97.4521 11.3663C97.997 13.2699 98.8048 14.157 98.8048 14.157C98.8048 14.157 96.7945 13.2144 93.2437 12.8078C92.8303 12.7524 92.4358 12.7154 92.0413 12.6969C91.7594 12.6785 91.4964 12.66 91.2334 12.6415H90.8576C90.6698 12.6415 90.4819 12.6415 90.294 12.66C90.1813 12.66 90.0873 12.6785 89.9934 12.6785C89.7492 12.6969 89.5613 12.7154 89.3922 12.7339C89.2982 12.7524 89.2231 12.7524 89.148 12.7709C89.0916 12.7709 89.0164 12.7893 88.9601 12.8078C88.0019 12.9742 87.1001 13.2329 86.2359 13.621C82.3656 15.3398 79.6602 19.184 79.6602 23.6381C79.6602 29.7186 84.6765 34.5054 90.8388 34.6347C91.6091 34.6532 92.3419 34.5793 93.0182 34.4499C92.4546 34.339 91.9285 34.1172 91.4025 33.8955C84.7704 31.308 83.1171 27.8704 83.1171 23.7305C83.1171 18.8883 86.8558 14.8223 91.6467 14.3973H91.6655C92.5861 14.3973 93.5819 14.4342 94.6152 14.5451C95.4418 14.6375 96.2873 14.7669 97.1327 14.9702C100.345 15.7649 102.638 16.7999 102.994 16.7444C103.126 16.726 101.792 15.9867 100.778 14.8963C100.646 14.7299 100.515 14.5636 100.364 14.3788C100.251 14.2309 100.139 14.0831 100.045 13.9352C99.8194 13.5471 99.6127 13.1405 99.4436 12.7339C99.4248 12.6785 99.3873 12.623 99.3873 12.5676C98.9363 11.2923 98.9739 10.0356 99.1242 9.16693C99.1618 8.96363 99.1994 8.76033 99.237 8.57552C99.237 8.55703 99.2369 8.52007 99.2557 8.50159C100.026 5.58148 102.731 3.40064 105.944 3.40064C108.744 3.40064 111.242 4.97158 112.407 7.2818C112.82 8.13196 113.065 9.07452 113.065 10.091C113.065 10.3128 113.083 10.6824 113.065 10.9042C113.102 10.7748 113.14 10.6455 113.159 10.5161V10.4607C113.177 10.2758 113.196 10.1095 113.234 9.92468C113.929 5.95111 117.442 2.92011 121.688 2.92011C126.423 2.92011 130.274 6.70886 130.274 11.3663C130.274 12.2719 130.124 13.1405 129.861 13.9537C129.767 14.2309 129.673 14.4897 129.542 14.7669C129.654 14.7669 129.786 14.7484 129.898 14.7484H130.124C132.886 14.8593 135.084 17.0956 135.084 19.8494C135.084 21.2725 134.483 22.5477 133.525 23.4718L133.261 23.712C133.374 24.1556 133.449 24.6176 133.468 25.0797V25.4678C133.468 29.349 130.274 32.4909 126.329 32.4909C125.709 32.4909 125.126 32.4169 124.563 32.2691C124.506 32.2506 124.469 32.2506 124.412 32.2321C124.412 32.2136 124.394 32.1951 124.375 32.1767V32.3245C124.375 32.6757 124.3 33.0083 124.187 33.3041C123.736 34.3945 122.571 35.1707 121.2 35.1707C120.993 35.1707 120.786 35.1522 120.599 35.1153C120.035 35.0229 119.509 34.7826 119.096 34.4499C118.851 34.2651 118.645 34.0248 118.476 33.7846C118.494 34.1912 118.626 34.5978 118.833 34.9489C119.208 35.5958 119.847 36.0948 120.617 36.3351C120.937 36.4459 121.294 36.5014 121.669 36.5014C123.417 36.5014 124.845 35.2262 124.845 33.6367V33.5628C125.634 33.8585 126.479 34.0064 127.362 34.0064C131.308 34.0064 134.501 30.8645 134.501 26.9833C134.501 26.1516 134.351 25.3569 134.088 24.6176C134.238 24.5252 134.426 24.3774 134.858 24.0632C135.685 23.4533 136.756 21.4573 136.756 19.757C136.775 16.5966 134.069 13.9537 130.763 13.9537Z" fill="#59A332"/>
</g>
<mask id="mask51_349_30539" style="mask-type:luminance" maskUnits="userSpaceOnUse" x="0" y="0" width="137" height="93">
<path d="M137 0H0V93H137V0Z" fill="white"/>
</mask>
<g mask="url(#mask51_349_30539)">
<path d="M92.3608 29.5893C92.2856 29.6262 92.2105 29.6447 92.2292 29.7371C92.248 29.8111 92.3044 29.8665 92.3608 29.9035C92.6614 30.0513 92.9432 29.8111 93.2438 29.8111C93.3941 29.8111 93.582 29.8295 93.3941 29.9774C93.3377 30.0144 93.3001 30.0698 93.3565 30.1437C93.4129 30.2177 93.5068 30.1807 93.582 30.1622C93.6759 30.1437 93.751 30.0883 93.845 30.0698C93.9577 30.0513 94.0704 30.0513 94.1644 30.0513C94.1644 30.0513 93.8074 29.349 92.9432 28.6837C92.0789 28.0368 91.2899 27.6857 91.2899 27.6857C91.2899 27.6857 92.3983 27.9814 93.1311 28.5543C93.8638 29.1272 94.7468 30.1992 94.7468 30.1992C94.7844 30.1437 94.8595 29.9404 94.8783 29.848C94.9159 29.6817 94.9347 29.5523 94.9159 29.386C94.8971 29.2196 94.8407 28.6467 94.5589 28.7022C94.5026 28.7022 94.4838 28.7946 94.4274 28.813C94.3523 28.8315 94.3147 28.7761 94.2959 28.7022C94.2395 28.5728 94.2207 28.4064 94.1832 28.2586C94.1456 28.1107 94.1268 27.9444 94.0141 27.8335C93.8826 27.7041 93.7886 27.7041 93.7323 27.8705C93.6947 27.9629 93.6383 28.2401 93.5068 28.1292C93.4504 28.0923 93.4504 27.9814 93.4317 27.9259C93.4129 27.852 93.3941 27.7966 93.3753 27.7226C93.3189 27.5748 93.2626 27.4454 93.1686 27.316C93.1311 27.2606 93.0747 27.1682 92.9995 27.1497C92.9056 27.1312 92.8868 27.1867 92.8492 27.2421C92.5674 27.5378 92.4171 27.0018 92.2856 26.8355C92.1917 26.7061 92.0789 26.6322 91.9099 26.6137C91.7032 26.5952 91.722 26.7616 91.6092 26.8725C91.5529 26.9279 91.5153 26.9649 91.4402 26.9279C91.4026 26.817 91.2711 26.7061 91.1583 26.6692C90.9893 26.6137 90.9141 26.7616 90.8577 26.8909C90.839 26.9464 90.8014 27.0018 90.7638 27.0573C90.6699 27.1312 90.6135 27.0573 90.5383 27.0388C90.4068 27.0018 90.2565 26.9834 90.2002 27.1127C90.125 27.2975 90.2753 27.39 90.3505 27.5378C90.388 27.6302 90.4256 27.7041 90.3505 27.7781C90.2941 27.852 90.2565 27.852 90.2565 27.9444C90.2753 28.1292 90.4632 28.0553 90.5759 28.1292C90.6511 28.1847 90.482 28.3695 90.4632 28.4804C90.4256 28.887 90.9141 28.7576 91.1583 28.8315C91.2335 28.85 91.2899 28.9055 91.2335 28.9794C91.1959 29.0348 91.0832 29.0163 91.0456 29.0903C90.9517 29.2196 91.1771 29.3305 91.2899 29.3675C91.4402 29.4229 91.6092 29.4045 91.7595 29.386C91.9286 29.3675 92.0602 29.349 92.2292 29.386C92.3983 29.386 92.5486 29.4969 92.3608 29.5893Z" fill="#59A332"/>
</g>
<mask id="mask52_349_30539" style="mask-type:luminance" maskUnits="userSpaceOnUse" x="0" y="0" width="137" height="93">
<path d="M137 0H0V93H137V0Z" fill="white"/>
</mask>
<g mask="url(#mask52_349_30539)">
<path d="M100.327 26.8352C100.402 26.7798 100.459 26.7058 100.515 26.6319C100.647 26.4656 100.741 26.3177 100.816 26.1329C100.834 26.059 100.91 25.9481 100.872 25.8557C100.834 25.7448 100.759 25.7818 100.665 25.7633C100.139 25.6709 100.609 25.1349 100.703 24.8762C100.778 24.6729 100.778 24.5065 100.684 24.3217C100.571 24.0814 100.402 24.2108 100.196 24.1923C100.102 24.1739 100.027 24.1554 100.008 24.063C100.102 23.9521 100.139 23.7303 100.083 23.6009C100.008 23.3791 99.8199 23.3976 99.632 23.4161C99.5569 23.4346 99.463 23.4346 99.3878 23.4161C99.2563 23.3607 99.2939 23.2682 99.2563 23.1574C99.1999 22.991 99.1248 22.8247 98.9369 22.8616C98.6927 22.9171 98.6927 23.1389 98.5799 23.3052C98.5048 23.4161 98.4484 23.49 98.3169 23.4715C98.2042 23.4531 98.1666 23.4161 98.0727 23.49C97.866 23.6379 98.0915 23.7857 98.0727 23.9521C98.0727 24.0814 97.7345 24.026 97.6218 24.0814C97.1521 24.3217 97.6405 24.7468 97.7345 25.061C97.7533 25.1534 97.7533 25.2458 97.6218 25.2458C97.5278 25.2458 97.4715 25.1164 97.3775 25.1164C97.1521 25.0979 97.2084 25.4306 97.2272 25.56C97.2648 25.7633 97.3963 25.9296 97.5278 26.059C97.6593 26.2068 97.7721 26.3732 97.866 26.558C97.9412 26.7243 97.9036 26.9461 97.6781 26.8167C97.5842 26.7613 97.509 26.6874 97.4151 26.7613C97.3399 26.8167 97.3212 26.9276 97.3212 27.02C97.3775 27.4451 97.8284 27.5745 98.0351 27.8887C98.1478 28.055 98.2418 28.2398 97.9599 28.1659C97.866 28.1474 97.7909 28.1289 97.7721 28.2398C97.7345 28.3507 97.8284 28.4246 97.9036 28.4801C97.9975 28.554 98.1102 28.6095 98.1854 28.7019C98.2793 28.7943 98.3545 28.9237 98.4296 29.0345C98.4296 29.0345 98.9557 28.1659 99.0872 26.7983C99.1999 25.4306 99.0308 24.3402 99.0308 24.3402C99.0308 24.3402 99.463 25.7263 99.3502 26.8907C99.2375 28.055 98.6739 29.7368 98.6739 29.7368C98.7678 29.7553 99.0308 29.6814 99.1623 29.626C99.369 29.552 99.5381 29.4596 99.6884 29.3487C99.8575 29.2194 100.44 28.7573 100.214 28.4986C100.158 28.4431 100.064 28.4801 100.008 28.4246C99.9326 28.3507 99.9702 28.2768 100.027 28.2029C100.139 28.055 100.308 27.9256 100.44 27.7963C100.571 27.6669 100.741 27.519 100.797 27.3342C100.853 27.1124 100.778 27.02 100.553 27.0755C100.44 27.094 100.083 27.2233 100.102 27.02C100.177 26.9646 100.271 26.8907 100.327 26.8352Z" fill="#59A332"/>
</g>
<mask id="mask53_349_30539" style="mask-type:luminance" maskUnits="userSpaceOnUse" x="0" y="0" width="137" height="93">
<path d="M137 0H0V93H137V0Z" fill="white"/>
</mask>
<g mask="url(#mask53_349_30539)">
<path d="M96.5123 33.4521C96.5123 33.4151 96.4559 33.2858 96.4183 33.2118C96.362 33.1194 96.3056 33.0455 96.2305 32.9716C96.1553 32.8977 95.8735 32.6389 95.7608 32.7683C95.742 32.8053 95.7608 32.8422 95.742 32.8792C95.7044 32.9161 95.6668 32.8977 95.6293 32.8792C95.5353 32.8422 95.4602 32.7683 95.385 32.6944C95.3099 32.6389 95.2159 32.565 95.122 32.5465C95.0093 32.528 94.9529 32.5835 95.0093 32.6759C95.0281 32.7313 95.122 32.8977 95.0093 32.8977C94.9717 32.8977 94.9153 32.8607 94.8777 32.8237C94.8402 32.7868 94.8026 32.7683 94.765 32.7498C94.6711 32.6944 94.5959 32.6574 94.4832 32.6389C94.4456 32.6389 94.3705 32.602 94.3329 32.6204C94.2765 32.6574 94.2953 32.6759 94.2953 32.7313C94.2765 33.0086 93.9759 32.8053 93.8256 32.7683C93.7129 32.7498 93.619 32.7498 93.5438 32.8053C93.4311 32.8792 93.5062 32.9531 93.5062 33.064C93.5062 33.1194 93.5062 33.1379 93.4499 33.1564C93.3935 33.1194 93.262 33.1194 93.2056 33.1564C93.0929 33.2118 93.1117 33.3043 93.1493 33.3967C93.1681 33.4336 93.1681 33.4706 93.1681 33.526C93.1493 33.6 93.0929 33.5815 93.0366 33.6184C92.9614 33.6554 92.8675 33.7109 92.905 33.8033C92.9426 33.9142 93.0741 33.9142 93.1681 33.9511C93.2244 33.9881 93.2808 34.0066 93.2808 34.062C93.2808 34.1175 93.262 34.1359 93.2996 34.1729C93.3935 34.2653 93.4499 34.1544 93.5438 34.1359C93.6002 34.1359 93.6002 34.3023 93.6378 34.3577C93.8068 34.5795 93.9759 34.3023 94.145 34.2468C94.1826 34.2283 94.239 34.2283 94.239 34.2838C94.239 34.3392 94.1826 34.3577 94.1826 34.4132C94.1826 34.5241 94.3517 34.4686 94.4268 34.4501C94.5208 34.4132 94.5959 34.3392 94.6711 34.2653C94.7462 34.1914 94.8214 34.1175 94.9153 34.062C94.9905 34.0066 95.122 34.0066 95.0656 34.1359C95.0468 34.1914 95.0093 34.2283 95.0656 34.2653C95.1032 34.3023 95.1596 34.3023 95.2159 34.2838C95.4226 34.2283 95.479 33.9881 95.6293 33.8587C95.7044 33.7848 95.7983 33.7293 95.7796 33.8772C95.7796 33.9142 95.7796 33.9511 95.8359 33.9696C95.8923 33.9881 95.9299 33.9326 95.9487 33.8957C95.9862 33.8402 96.005 33.7848 96.0426 33.7293C96.0802 33.6739 96.1553 33.6369 96.2117 33.5815C96.2117 33.5815 95.7232 33.3782 95.0093 33.4151C94.2953 33.4521 93.7317 33.6 93.7317 33.6C93.7317 33.6 94.4268 33.2858 95.0468 33.2673C95.5917 33.2858 96.5123 33.4521 96.5123 33.4521Z" fill="#59A332"/>
</g>
<mask id="mask54_349_30539" style="mask-type:luminance" maskUnits="userSpaceOnUse" x="0" y="0" width="137" height="93">
<path d="M137 0H0V93H137V0Z" fill="white"/>
</mask>
<g mask="url(#mask54_349_30539)">
<path d="M94.7285 38.9227V40.2534L98.317 39.0336L102.582 40.3643V39.0336L98.317 37.6475L94.7285 38.9227Z" fill="#A04221"/>
</g>
<mask id="mask55_349_30539" style="mask-type:luminance" maskUnits="userSpaceOnUse" x="0" y="0" width="137" height="93">
<path d="M137 0H0V93H137V0Z" fill="white"/>
</mask>
<g mask="url(#mask55_349_30539)">
<path d="M94.7285 41.4729V42.8036L98.317 41.7132L102.582 42.896V41.5653L98.317 40.3086L94.7285 41.4729Z" fill="#A04221"/>
</g>
<mask id="mask56_349_30539" style="mask-type:luminance" maskUnits="userSpaceOnUse" x="0" y="0" width="137" height="93">
<path d="M137 0H0V93H137V0Z" fill="white"/>
</mask>
<g mask="url(#mask56_349_30539)">
<path d="M94.7285 44.0233V45.3539L98.317 44.3929L102.582 45.4279V44.0972L98.317 42.9883L94.7285 44.0233Z" fill="#A04221"/>
</g>
<mask id="mask57_349_30539" style="mask-type:luminance" maskUnits="userSpaceOnUse" x="0" y="0" width="137" height="93">
<path d="M137 0H0V93H137V0Z" fill="white"/>
</mask>
<g mask="url(#mask57_349_30539)">
<path d="M94.7266 46.5736V47.9043L98.315 47.0726L102.58 47.9597V46.6475L98.315 45.668L94.7266 46.5736Z" fill="#A04221"/>
</g>
<mask id="mask58_349_30539" style="mask-type:luminance" maskUnits="userSpaceOnUse" x="0" y="0" width="137" height="93">
<path d="M137 0H0V93H137V0Z" fill="white"/>
</mask>
<g mask="url(#mask58_349_30539)">
<path d="M94.7266 49.1064V50.4371L98.315 49.7348L102.58 50.511V49.1803L98.315 48.3486L94.7266 49.1064Z" fill="#A04221"/>
</g>
<mask id="mask59_349_30539" style="mask-type:luminance" maskUnits="userSpaceOnUse" x="0" y="0" width="137" height="93">
<path d="M137 0H0V93H137V0Z" fill="white"/>
</mask>
<g mask="url(#mask59_349_30539)">
<path d="M94.7266 51.6567V52.9874L98.315 52.4144L102.58 53.0428V51.7121L98.315 51.0283L94.7266 51.6567Z" fill="#A04221"/>
</g>
<mask id="mask60_349_30539" style="mask-type:luminance" maskUnits="userSpaceOnUse" x="0" y="0" width="137" height="93">
<path d="M137 0H0V93H137V0Z" fill="white"/>
</mask>
<g mask="url(#mask60_349_30539)">
<path d="M94.7285 54.2069V55.5376L98.317 55.0941L102.582 55.5746V54.2439L98.317 53.6895L94.7285 54.2069Z" fill="#A04221"/>
</g>
<mask id="mask61_349_30539" style="mask-type:luminance" maskUnits="userSpaceOnUse" x="0" y="0" width="137" height="93">
<path d="M137 0H0V93H137V0Z" fill="white"/>
</mask>
<g mask="url(#mask61_349_30539)">
<path d="M114.247 20.3853C114.21 20.2375 114.191 20.0711 114.153 19.9233C114.135 19.7754 114.078 19.6276 114.041 19.4797C113.966 19.2025 113.853 18.9438 113.778 18.7405C113.702 18.5187 113.59 18.3523 113.533 18.2415L113.439 18.0566C113.439 18.0566 113.458 18.1306 113.515 18.2599C113.552 18.3893 113.646 18.5556 113.702 18.7774C113.759 18.9992 113.834 19.258 113.872 19.5352C113.89 19.683 113.928 19.8124 113.928 19.9603C113.947 20.1081 113.947 20.256 113.966 20.4038C113.947 20.6995 113.966 20.9952 113.909 21.2725C113.89 21.4018 113.89 21.5497 113.853 21.6606C113.834 21.7899 113.796 21.9008 113.778 22.0117C113.74 22.215 113.665 22.4183 113.627 22.5477C113.627 22.5847 113.609 22.6031 113.609 22.6216L114.153 22.8249C114.153 22.788 114.172 22.7325 114.172 22.6586C114.191 22.5292 114.229 22.3444 114.247 22.1041C114.266 21.9932 114.266 21.8639 114.285 21.716C114.304 21.5866 114.285 21.4388 114.304 21.2909C114.322 21.0137 114.285 20.6995 114.247 20.3853Z" fill="#A04221"/>
</g>
<mask id="mask62_349_30539" style="mask-type:luminance" maskUnits="userSpaceOnUse" x="0" y="0" width="137" height="93">
<path d="M137 0H0V93H137V0Z" fill="white"/>
</mask>
<g mask="url(#mask62_349_30539)">
<path d="M120.41 18.7037C120.466 18.445 120.767 16.9295 120.673 15.6173C120.542 14.0093 119.527 11.1816 119.527 11.1816L119.49 11.2186C119.49 11.2186 120.391 14.3605 120.391 15.6727C120.41 17.1697 120.034 18.5558 119.94 18.907C119.076 19.2582 118.25 19.6463 117.63 20.0713C115.788 21.3466 114.736 22.7882 114.586 23.0099L115.375 23.3056C115.619 22.8806 116.577 21.402 118.024 20.4225C119.997 19.0733 123.886 17.6502 123.886 17.6502C123.886 17.6502 122.176 18.0384 120.41 18.7037Z" fill="#A04221"/>
</g>
<mask id="mask63_349_30539" style="mask-type:luminance" maskUnits="userSpaceOnUse" x="0" y="0" width="137" height="93">
<path d="M137 0H0V93H137V0Z" fill="white"/>
</mask>
<g mask="url(#mask63_349_30539)">
<path d="M96.7382 32.7498C96.9448 32.9716 97.1327 33.2119 97.3206 33.4706C97.5085 33.7293 97.6963 33.9881 97.8842 34.2468C98.6357 35.3003 99.2933 36.4092 99.6315 37.2778C99.7066 37.4996 99.7818 37.7029 99.8193 37.8692C99.8193 37.9062 99.8381 37.9247 99.8381 37.9432L100.59 38.1834C100.552 38.0171 100.514 37.8508 100.458 37.6659C100.402 37.4626 100.289 37.2593 100.195 37.0191C99.8381 36.2798 99.2181 35.4851 98.6733 34.561C98.3915 34.0805 98.3727 33.8217 98.26 33.3412C98.0533 32.4726 98.2036 29.2383 98.2036 29.2383C98.2036 29.2383 97.7339 32.3062 97.9218 33.3597C97.9594 33.5076 97.9782 33.6554 98.0157 33.7848C98.0157 33.8033 98.0157 33.8217 98.0345 33.8402C97.8654 33.6369 97.6963 33.4521 97.546 33.2488C97.3394 33.0086 97.1139 32.7683 96.9072 32.5465C96.7006 32.3247 96.4751 32.1214 96.2873 31.9181C96.0806 31.7333 95.9115 31.53 95.7236 31.3637C94.9721 30.7353 94.4648 30.3102 94.4648 30.3102C94.4648 30.3102 95.9679 31.8257 96.1557 32.029C96.3436 32.2878 96.5503 32.5095 96.7382 32.7498Z" fill="#A04221"/>
</g>
</g>
<defs>
<clipPath id="clip0_349_30539">
<rect width="137" height="93" fill="white"/>
</clipPath>
</defs>
</svg>
