<svg width="208" height="100" viewBox="0 0 208 100" fill="none" xmlns="http://www.w3.org/2000/svg">
<path d="M183.965 85.8589C184.58 85.8589 184.99 85.7055 185.143 85.424C185.323 85.1426 185.4 84.8101 185.4 84.4263C185.4 83.9914 185.272 83.6588 184.99 83.4542C184.734 83.2495 184.298 83.1472 183.684 83.1472H182.172V85.8589H183.965ZM182.172 90.7708H180.252L180.277 81.5355H184.503C185.092 81.5355 185.605 81.6634 186.04 81.8936C186.475 82.1239 186.808 82.482 187.039 82.9169C187.269 83.3774 187.372 83.8891 187.372 84.5031C187.372 84.8612 187.295 85.2705 187.116 85.731C186.936 86.1915 186.655 86.5753 186.219 86.9078C185.784 87.2404 185.195 87.4195 184.426 87.4195H182.224L182.172 90.7708ZM176.307 90.7708H174.361V83.1728H171.569V81.5355H179.073V83.1728H176.282L176.307 90.7708ZM164.961 86.6009V90.7452H163.04V81.5099H164.961V85.0147H168.547V81.5099H170.493L170.468 90.7452H168.547V86.6009H164.961ZM161.298 83.1472H156.406V85.0915H160.914V86.7288H156.406V89.1335H161.529V90.7452H154.511L154.537 81.5099L161.324 81.5355L161.298 83.1472ZM151.694 90.7197H145.137L145.163 81.4843H147.083L147.058 89.0824H150.669V81.4843H152.59V89.0824H153.487V92.4337H151.694V90.7197ZM135.43 79.5656C135.379 80.0261 135.199 80.461 134.866 80.8448C134.533 81.2285 133.97 81.4332 133.125 81.4332C132.612 81.4332 132.203 81.3308 131.895 81.1006C131.588 80.8703 131.383 80.6145 131.281 80.3331C131.178 80.0517 131.101 79.7959 131.076 79.54H131.921C131.972 79.7959 132.075 80.0261 132.228 80.1796C132.382 80.3587 132.715 80.4354 133.176 80.4354C133.56 80.4354 133.867 80.3843 134.098 80.2563C134.328 80.154 134.482 79.8982 134.533 79.54L135.43 79.5656ZM131.178 87.9056H131.204L134.866 81.4843H136.89V90.7197H135.097V84.1449H135.071L131.281 90.7197H129.36V81.4843H131.153L131.178 87.9056ZM119.268 86.3706V89.0824H120.805C121.42 89.0824 121.855 88.98 122.111 88.801C122.368 88.5963 122.521 88.2637 122.521 87.8288C122.521 87.4451 122.444 87.1125 122.265 86.8311C122.111 86.5497 121.702 86.3962 121.087 86.3962L119.268 86.3706ZM127.516 90.6941H125.595L125.62 81.4587H127.541L127.516 90.6941ZM119.268 84.7845H121.497C122.239 84.7845 122.854 84.9636 123.29 85.2961C123.725 85.6543 124.032 86.038 124.186 86.4985C124.34 86.959 124.442 87.3683 124.442 87.7265C124.442 88.3149 124.34 88.8521 124.084 89.287C123.853 89.7219 123.52 90.0801 123.11 90.3103C122.675 90.5406 122.163 90.6685 121.574 90.6685H117.347V81.4332H119.268V84.7845ZM109.894 85.0659H112.148C112.558 85.0659 112.891 84.9891 113.147 84.8101C113.403 84.6566 113.531 84.3752 113.531 84.0426C113.531 83.6844 113.429 83.4286 113.173 83.2751C112.942 83.1216 112.584 83.0449 112.123 83.0449H109.92L109.894 85.0659ZM109.894 89.0824H112.276C113.249 89.0824 113.736 88.6475 113.762 87.7265C113.762 87.3683 113.634 87.0613 113.378 86.8823C113.121 86.7032 112.788 86.6009 112.379 86.6009H109.92V89.0824H109.894ZM108.05 81.4332H112.558C113.249 81.4332 113.813 81.5611 114.248 81.7913C114.684 82.0471 114.966 82.3285 115.145 82.6867C115.324 83.0449 115.401 83.403 115.401 83.7868C115.401 84.3496 115.298 84.7845 115.068 85.0403C114.863 85.2961 114.581 85.5008 114.274 85.6799C115.222 86.038 115.708 86.7799 115.708 87.9311C115.708 88.2893 115.631 88.6475 115.503 88.9544C115.35 89.287 115.17 89.5684 114.914 89.8243C114.709 90.0289 114.504 90.1824 114.3 90.2847C114.095 90.4127 113.813 90.4894 113.454 90.5662C113.096 90.6173 112.609 90.6685 111.994 90.6429H108.076L108.05 81.4332ZM102.057 89.287C102.364 89.287 102.646 89.2359 102.928 89.1335C103.209 89.0312 103.491 88.8521 103.722 88.5963C103.978 88.366 104.183 88.0335 104.336 87.5986C104.49 87.1892 104.567 86.6776 104.567 86.0636C104.567 85.4496 104.49 84.938 104.336 84.5031C104.183 84.0682 103.978 83.7356 103.747 83.5053C103.491 83.2495 103.209 83.096 102.928 82.9937C102.62 82.8914 102.339 82.8402 102.057 82.8402C101.775 82.8402 101.493 82.8914 101.186 82.9937C100.904 83.096 100.623 83.2751 100.392 83.5053C100.136 83.7356 99.931 84.0682 99.7774 84.5031C99.6237 84.938 99.5469 85.4496 99.5469 86.0636C99.5469 86.6776 99.6237 87.1893 99.7774 87.6242C99.931 88.0591 100.136 88.3916 100.392 88.6219C100.623 88.8777 100.904 89.0312 101.186 89.1335C101.468 89.2359 101.775 89.287 102.057 89.287ZM102.057 81.2029C102.467 81.2029 102.902 81.2541 103.389 81.382C103.875 81.5099 104.336 81.7146 104.823 82.0727C105.31 82.4053 105.694 82.9169 106.027 83.5565C106.334 84.2217 106.488 85.0659 106.488 86.0636C106.488 87.0613 106.334 87.9056 106.001 88.5707C105.668 89.2359 105.284 89.7219 104.797 90.0545C104.311 90.3871 103.824 90.6173 103.363 90.7197C102.876 90.8476 102.441 90.8987 102.057 90.8987C101.673 90.8987 101.212 90.8476 100.751 90.7197C100.264 90.5917 99.803 90.3615 99.3163 90.0289C98.8297 89.6963 98.4455 89.1847 98.1126 88.5451C97.7796 87.88 97.6259 87.0613 97.6259 86.038C97.6259 85.0147 97.7796 84.1961 98.1126 83.5565C98.4199 82.8914 98.8297 82.4053 99.3163 82.0471C99.803 81.7146 100.264 81.4843 100.751 81.3564C101.212 81.2541 101.647 81.2029 102.057 81.2029ZM93.0413 90.6429H91.1204V81.4076H97.8308V83.0449H93.0413V90.6429ZM86.254 85.731C86.8687 85.731 87.2785 85.6031 87.4322 85.2961C87.6115 85.0147 87.6883 84.6822 87.6883 84.2984C87.6883 83.8635 87.5603 83.5309 87.2785 83.3263C86.9968 83.1216 86.587 83.0193 85.9723 83.0193H84.4355V85.731H86.254ZM84.4612 90.6429H82.5402V81.4076H86.7663C87.3554 81.4076 87.8676 81.5355 88.303 81.7657C88.7384 81.996 89.0714 82.3541 89.3019 82.789C89.5324 83.2495 89.6349 83.7612 89.6349 84.3496C89.6349 84.7333 89.558 85.1426 89.3787 85.5775C89.2251 86.038 88.9177 86.4218 88.4823 86.7543C88.0469 87.1125 87.4322 87.266 86.6894 87.266H84.4612V90.6429ZM76.5469 89.2359C76.8287 89.2359 77.136 89.1847 77.4177 89.0824C77.6995 88.98 77.9812 88.801 78.2117 88.5707C78.4679 88.3405 78.6728 87.9823 78.8264 87.573C78.9801 87.1381 79.0569 86.6264 79.0569 86.0124C79.0569 85.3985 78.9801 84.8868 78.8264 84.4519C78.6728 84.017 78.4679 83.6844 78.2117 83.4542C77.9556 83.1984 77.6995 83.0449 77.4177 82.9425C77.1104 82.8402 76.8287 82.789 76.5469 82.789C76.2652 82.789 75.9835 82.8402 75.6761 82.9425C75.3944 83.0449 75.1126 83.2239 74.8821 83.4542C74.626 83.71 74.4211 84.017 74.2674 84.4519C74.1137 84.8868 74.0369 85.3985 74.0369 86.0124C74.0369 86.6264 74.1137 87.1381 74.2674 87.573C74.4211 87.9823 74.626 88.3405 74.8821 88.5707C75.1382 88.8265 75.3944 88.98 75.6761 89.0824C75.9835 89.2103 76.2652 89.2359 76.5469 89.2359ZM76.5725 81.1517C76.9823 81.1517 77.4177 81.2029 77.8788 81.3308C78.3654 81.4587 78.8264 81.6634 79.3131 81.996C79.7997 82.3285 80.1839 82.8402 80.5169 83.5053C80.8242 84.1705 81.0035 84.9891 81.0035 86.0124C81.0035 87.0358 80.8498 87.8544 80.5169 88.5195C80.1839 89.1847 79.7997 89.6708 79.3131 90.0033C78.8264 90.3359 78.3654 90.5662 77.8788 90.6941C77.3921 90.822 76.9567 90.8731 76.5725 90.8731C76.1883 90.8731 75.7273 90.7964 75.2663 90.6941C74.7797 90.5917 74.293 90.3615 73.8064 90.0033C73.3198 89.6708 72.9356 89.1591 72.6026 88.5195C72.2953 87.8544 72.116 87.0358 72.1416 86.0124C72.1416 84.9891 72.2953 84.1705 72.6026 83.5053C72.9356 82.8402 73.3198 82.3541 73.8064 81.996C74.293 81.6634 74.7797 81.4332 75.2407 81.3052C75.7017 81.2285 76.1627 81.1517 76.5725 81.1517ZM69.2986 90.6173H67.3777V83.0193H64.5859V81.4076H72.0904V83.0449H69.2986V90.6173Z" fill="white"/>
<path d="M145.161 48.176L145.136 71.2515H141.883L141.909 51.5785H137.068C134.968 51.5785 133.175 52.3459 131.741 53.8809C130.306 55.4159 129.589 57.309 129.564 59.5603C129.564 61.8883 130.281 63.8581 131.689 65.4187C133.124 67.0048 134.891 67.7979 137.017 67.7979H139.962V71.2259H137.017C134.123 71.2259 131.613 70.0491 129.461 67.7467C127.335 65.4443 126.285 62.7069 126.285 59.5603C126.285 56.4136 127.361 53.7786 129.487 51.5273C131.613 49.276 134.123 48.1504 137.042 48.1504L145.161 48.176Z" fill="#1D1D1B"/>
<path d="M95.2949 71.1752L95.3205 48.0996H100.417C101.8 48.0996 103.132 48.4066 104.439 48.9694C105.745 49.5578 106.897 50.3765 107.896 51.3998V48.0996H112.993C115.913 48.0996 118.449 49.2508 120.549 51.5533C122.675 53.8557 123.725 56.5675 123.725 59.7397L123.699 71.2007H120.421L120.446 59.7397C120.446 57.4373 119.729 55.5186 118.295 53.958C116.886 52.3975 115.093 51.63 112.967 51.6044H111.123L111.098 71.1752H107.845L107.871 59.7141C107.871 57.4117 107.153 55.4674 105.719 53.9325C104.285 52.3719 102.518 51.6044 100.392 51.6044H98.5477L98.5221 71.2007L95.2949 71.1752Z" fill="#1D1D1B"/>
<path d="M79.3401 56.7713L89.8156 56.7969C89.3033 55.2108 88.33 53.9572 86.947 53.0107C85.5639 52.0641 84.0272 51.5781 82.3367 51.5781H77.9826V48.0732H82.3367C85.2566 48.0732 87.7922 49.1989 89.8924 51.4502C92.0182 53.7014 93.0683 56.4132 93.0683 59.5343C93.0683 62.6553 91.9926 65.3927 89.8668 67.6951C87.741 69.9976 85.231 71.1488 82.3111 71.1488H77.957V67.644H82.3111C84.3857 67.644 86.153 66.9788 87.5873 65.6229C89.0216 64.2671 89.8412 62.5019 90.0973 60.2506L79.3145 60.225L79.3401 56.7713Z" fill="#1D1D1B"/>
<path d="M207.478 76.5971V95.477L61.5898 95.298L61.6155 76.418L207.478 76.5971Z" fill="#1D1D1B"/>
<path d="M190.676 87.0361L202.97 87.0617L202.944 99.3414L190.676 99.3158V87.0361Z" fill="#FBBB00"/>
<path d="M62.2305 61.8359H74.5244V74.1156L62.2305 74.09V61.8359Z" fill="#FBBB00"/>
<path d="M41.5634 49.5813L34.3438 49.7891L34.5517 57.0004L41.7714 56.7926L41.5634 49.5813Z" fill="#FBBB00"/>
<path d="M176.563 48.2012H179.816L179.791 59.611C179.791 61.8879 180.508 63.8322 181.968 65.4439C183.428 67.0556 185.169 67.8486 187.269 67.8486H192.085L192.11 48.2012H195.363L195.337 71.2767H187.244C184.273 71.2767 181.737 70.1255 179.637 67.8742C177.537 65.5974 176.487 62.86 176.512 59.611L176.563 48.2012Z" fill="#1D1D1B"/>
<path d="M162.502 48.1504L162.477 60.2766L170.955 48.2016H175.001L166.6 60.0463L174.643 71.2771H170.596L164.654 62.886L162.477 65.9815V71.2515H159.199L159.224 65.9815L157.021 62.886L151.079 71.2515L147.033 71.2259L155.101 60.0207L146.648 48.176H150.695L159.224 60.251L159.25 48.1504H162.502Z" fill="#EE7D00"/>
<path d="M24.5014 45.5664L31.5192 47.3316L29.752 54.3413L22.7598 52.576L24.5014 45.5664Z" fill="#FBBB00"/>
<path d="M23.3242 33.4395L30.5725 33.465L30.5469 40.6793H23.3242V33.4395Z" fill="#FBBB00"/>
<path d="M22.9656 58.7415L22.7351 94.9665C22.7351 95.3247 22.4533 95.6061 22.0948 95.6061C21.7362 95.6061 21.4545 95.3247 21.4545 94.9665L21.685 58.7415C21.685 58.3834 21.9667 58.102 22.3253 58.102C22.6839 58.102 22.9656 58.3834 22.9656 58.7415ZM6.47121 7.37158L7.39326 7.01342C7.72622 6.88551 8.08479 7.039 8.21285 7.37158C8.34092 7.70415 8.18724 8.06231 7.85428 8.19022L6.93223 8.54838C6.59927 8.67629 6.2407 8.5228 6.11264 8.19022C6.01019 7.88323 6.16386 7.49949 6.47121 7.37158ZM3.06476 12.309L8.75071 10.2113C9.03245 10.1089 9.62153 9.90426 9.82643 10.3903L24.5279 45.2595C24.656 45.592 24.5023 45.9502 24.195 46.0781C23.862 46.206 23.5035 46.0525 23.3498 45.7455L9.05806 11.9253C8.90439 11.516 8.80194 11.4648 8.3153 11.5671L3.37211 13.537C3.03915 13.6137 2.68058 13.4091 2.60374 13.0765C2.5269 12.7184 2.7318 12.3858 3.06476 12.309ZM8.44337 1.23175L8.49459 3.81559L13.8732 2.05039C14.2574 1.92248 14.7184 2.15272 14.7952 2.56204C15.0001 3.58535 12.9768 6.09245 12.2084 6.70643L31.3921 45.4385L43.0201 49.148C46.0424 50.1202 47.4254 52.6529 47.5791 55.7739V55.8507L48.5268 66.5954C48.578 66.928 48.3475 67.2605 48.0145 67.3117C47.6559 67.3629 47.3486 67.1326 47.2718 66.8L46.7083 60.2253C46.529 60.7114 46.3497 61.223 46.196 61.7603C45.5045 64.0883 45.2228 66.4931 45.1203 68.8978L44.9666 94.8898C44.9923 95.2479 44.7105 95.5294 44.3519 95.5549C43.9934 95.5805 43.7116 95.2991 43.686 94.941L43.8397 68.8722C43.9678 66.2884 44.2751 63.7557 45.0179 61.2742C45.4533 59.816 46.1448 58.7159 46.2729 57.181C46.4009 55.5437 46.2473 53.6506 45.2484 52.3203C44.3263 51.0667 43.5067 50.6318 42.098 50.1969L30.8286 46.6409C30.5469 46.5386 30.4444 46.3595 30.3163 46.1293L11.0046 7.09017C10.8765 6.80876 10.7997 6.52735 10.9278 6.24594C10.979 6.11803 11.0558 6.0157 11.1839 5.88779C11.901 5.32497 12.7975 4.12258 12.9768 3.68768L8.80194 5.01798L8.28969 5.17147C7.49571 5.29939 7.2652 4.89006 7.23958 4.19933L7.13713 1.35966C7.11152 1.0015 7.36764 0.69451 7.70061 0.668927C8.08479 0.643345 8.39214 0.873588 8.44337 1.23175ZM39.5112 58.6648C39.8698 58.6648 40.0491 59.0485 40.0491 59.3043L40.1515 94.9154C40.1515 95.2735 39.8698 95.5549 39.5112 95.5549C39.1526 95.5549 38.8709 95.2735 38.8709 94.9154L38.8965 60.1741C38.8965 59.9183 38.7172 59.8672 38.4611 59.8672L28.0625 59.816C27.9088 59.7904 27.8576 59.8672 27.8576 60.0207L27.8063 94.9154C27.8063 95.2735 27.5246 95.5549 27.166 95.5549C26.8074 95.5549 26.5257 95.2735 26.5257 94.9154L26.5769 59.1764C26.5769 58.8439 26.8843 58.5624 27.2685 58.5624L39.5112 58.6648ZM0.631585 11.3881C0.810872 10.6973 0.964546 10.0578 1.39996 9.46936C2.37323 8.13906 4.19171 7.49949 4.57589 5.73429C4.88324 4.40399 4.60151 3.12486 4.49906 1.76898C4.47344 1.43641 4.72957 1.10383 5.06253 1.07825C5.4211 1.05267 5.72845 1.28291 5.75406 1.64107C5.90774 3.55977 6.31754 5.58079 5.2162 7.32041C4.1661 8.9577 2.45007 9.57169 1.88659 11.4136C1.75853 11.7718 1.80976 12.2067 1.22067 12.2579C0.913321 12.2834 0.657198 12.0788 0.58036 11.823C0.554748 11.6439 0.58036 11.5416 0.631585 11.3881Z" fill="#1D1D1B"/>
</svg>
