<svg width="207" height="105" viewBox="0 0 207 105" fill="none" xmlns="http://www.w3.org/2000/svg">
<g clip-path="url(#clip0_349_29028)">
<path d="M138.65 96.0254V101.963H137.291V97.0311H135.758C135.719 97.8241 135.7 98.1529 135.68 98.7137C135.642 99.3326 135.603 100.628 135.079 101.344C134.788 101.731 134.419 101.886 134.167 101.944C134.011 101.982 133.856 102.021 133.681 102.021C133.565 102.021 133.448 102.002 133.332 101.982V100.957H133.448C133.623 100.938 133.856 100.861 134.011 100.744C134.477 100.377 134.516 99.526 134.574 98.8685C134.632 97.9981 134.652 97.4759 134.652 96.683L134.671 96.0641H138.65V96.0254Z" fill="#F8B120"/>
<path d="M129.546 96.0254V101.963H128.188V97.0311H125.917V101.963H124.559V96.0254H129.546Z" fill="#F8B120"/>
<path d="M115.34 96.0254L116.893 100.087L118.368 96.0254H120.153V101.963H118.892V97.9788C118.892 97.8047 118.911 97.65 118.931 97.1278C118.795 97.4373 118.62 97.8821 118.581 98.0175L117.165 101.944H116.427L114.913 98.0175C114.816 97.7467 114.874 97.8821 114.583 97.1278C114.603 97.6307 114.622 97.7274 114.622 97.9594V101.963H113.555V96.0254H115.34Z" fill="#F8B120"/>
<path d="M66.433 96.0254V101.963H65.0744V97.0311H63.5412C63.5024 97.8241 63.483 98.1529 63.4636 98.7137C63.4248 99.3326 63.3859 100.628 62.8619 101.344C62.5708 101.731 62.2021 101.886 61.9498 101.944C61.7945 101.982 61.6392 102.021 61.4646 102.021C61.3481 102.021 61.2317 102.002 61.1152 101.982V100.957H61.2317C61.4063 100.938 61.6392 100.861 61.7945 100.744C62.2603 100.377 62.2991 99.526 62.3573 98.8685C62.4156 97.9981 62.435 97.4759 62.435 96.683L62.4544 96.0641H66.433V96.0254Z" fill="#F8B120"/>
<path d="M53.7022 96.0254V99.1586C53.7022 99.526 53.6828 99.468 53.6634 99.8742C53.8962 99.4293 53.9545 99.3713 54.0903 99.1779L55.9729 96.5089V96.0254H57.3314V101.963H55.9729V98.8104C55.9729 98.5783 55.9923 98.3076 56.0117 98.0948C55.9147 98.3076 55.7982 98.4816 55.5847 98.7718L53.6828 101.441V101.963H52.3242V96.0254H53.7022Z" fill="#F8B120"/>
<path d="M153.788 96.026V98.3855H154.409C154.992 98.3855 155.263 98.2308 155.457 97.8053C155.574 97.5346 155.613 97.2638 155.729 96.935L155.787 96.7609C155.865 96.5675 156.001 96.3161 156.175 96.1807C156.389 96.026 156.699 95.9873 156.893 95.9873C157.126 95.9873 157.32 96.0066 157.456 96.026V96.9157C157.417 96.8963 157.359 96.8963 157.301 96.8963C157.146 96.8963 157.029 96.935 156.932 97.051C156.855 97.1477 156.777 97.3218 156.68 97.6699C156.622 97.8827 156.544 98.1921 156.35 98.4242C156.156 98.6563 155.865 98.753 155.632 98.7724V98.7917C156.098 98.8691 156.35 99.1205 156.486 99.3526C156.622 99.546 156.699 99.7974 156.835 100.126C157.01 100.571 157.049 100.745 157.146 100.842C157.282 100.977 157.456 100.977 157.553 100.977C157.592 100.977 157.65 100.977 157.709 100.958V101.906C157.534 101.944 157.32 101.983 157.088 101.983C156.719 101.983 156.389 101.906 156.117 101.654C155.865 101.403 155.748 101.035 155.632 100.648C155.477 100.146 155.399 99.8941 155.283 99.72C155.069 99.3719 154.797 99.3719 154.487 99.3719H153.788V101.964H152.43V96.026H153.788Z" fill="#F8B120"/>
<path d="M96.4953 96.026V98.3855H97.1163C97.6985 98.3855 97.9703 98.2308 98.1643 97.8053C98.2808 97.5346 98.3196 97.2638 98.436 96.935L98.4943 96.7609C98.5719 96.5675 98.7077 96.3161 98.8824 96.1807C99.0959 96.026 99.4064 95.9873 99.6005 95.9873C99.8334 95.9873 100.027 96.0066 100.163 96.026V96.9157C100.125 96.8963 100.066 96.8963 100.008 96.8963C99.8528 96.8963 99.7364 96.935 99.6393 97.051C99.5617 97.1477 99.4841 97.3218 99.387 97.6699C99.3288 97.8827 99.2512 98.1921 99.0571 98.4242C98.863 98.6563 98.5719 98.753 98.339 98.7724V98.7917C98.8048 98.8691 99.0571 99.1205 99.2123 99.3526C99.3482 99.546 99.4258 99.7974 99.5423 100.126C99.717 100.571 99.7558 100.745 99.8528 100.842C99.9887 100.977 100.163 100.977 100.26 100.977C100.299 100.977 100.357 100.977 100.416 100.958V101.906C100.241 101.944 100.027 101.983 99.7946 101.983C99.4258 101.983 99.0959 101.906 98.8242 101.654C98.5719 101.403 98.4554 101.035 98.339 100.648C98.1837 100.146 98.1061 99.8941 97.9897 99.72C97.7762 99.3719 97.5045 99.3719 97.1745 99.3719H96.4953V101.964H95.1367V96.026H96.4953Z" fill="#F8B120"/>
<path d="M45.0065 98.366H45.3752C45.7052 98.366 46.0545 98.3467 46.2874 97.6891C46.4232 97.3216 46.4815 96.9928 46.5203 96.8188C46.5785 96.606 46.7144 96.3352 46.9084 96.1805C47.1802 95.9678 47.5101 95.9678 47.743 95.9678C47.9176 95.9678 48.0535 95.9871 48.2282 96.0065V96.9155L48.0147 96.8961C47.8594 96.8768 47.7624 96.9348 47.6848 97.0702C47.6071 97.2056 47.5877 97.341 47.5489 97.4763L47.413 97.9212C47.3548 98.1146 47.2578 98.4047 47.0055 98.5788C46.9084 98.6561 46.7532 98.7141 46.5785 98.7335V98.7528C47.0443 98.8302 47.2772 99.0623 47.4325 99.2944C47.5683 99.5071 47.6848 99.7779 47.8594 100.339C48.0147 100.842 48.1505 100.958 48.4222 100.958H48.5775V101.905C48.364 101.944 48.2088 101.944 47.9953 101.944C47.743 101.944 47.4325 101.925 47.1802 101.77C46.8114 101.538 46.6561 101.054 46.5591 100.784C46.4232 100.358 46.365 100.107 46.2486 99.8165C46.0351 99.333 45.744 99.3137 45.414 99.3137H45.0065V101.905H43.745V99.3137H43.3374C43.0269 99.3137 42.7164 99.333 42.5029 99.8165C42.3864 100.087 42.3282 100.358 42.1924 100.784C42.0953 101.054 41.9401 101.538 41.5713 101.77C41.319 101.925 41.0085 101.944 40.7756 101.944C40.5621 101.944 40.4068 101.925 40.1934 101.905V100.958H40.3486C40.6203 100.958 40.7368 100.842 40.9114 100.339C41.0861 99.7779 41.2026 99.5071 41.3384 99.2944C41.4937 99.0623 41.7266 98.8108 42.1924 98.7528V98.7335C42.0177 98.7141 41.8624 98.6561 41.7654 98.5788C41.5131 98.3853 41.416 98.1146 41.3578 97.9212L41.222 97.4763C41.1832 97.341 41.1637 97.2056 41.0861 97.0702C41.0085 96.9348 40.892 96.8768 40.7562 96.8961L40.5427 96.9155V96.0065C40.7174 95.9678 40.8532 95.9678 41.0279 95.9678C41.2802 95.9678 41.6101 95.9678 41.8624 96.1805C42.0565 96.3352 42.1924 96.606 42.2506 96.8188C42.2894 96.9735 42.3476 97.3216 42.4835 97.6891C42.7164 98.3467 43.0657 98.366 43.3956 98.366H43.7644V96.0065H45.0259V98.366H45.0065Z" fill="#F8B120"/>
<path d="M165.004 98.1916C164.985 97.8821 164.869 97.534 164.713 97.3212C164.578 97.1085 164.286 96.8764 163.821 96.8764C163.355 96.8764 163.064 97.1085 162.87 97.4179C162.579 97.9015 162.559 98.6364 162.559 98.9845C162.559 99.5261 162.637 100.184 162.87 100.551C163.025 100.783 163.335 101.093 163.821 101.093C164.17 101.093 164.461 100.957 164.694 100.648C164.869 100.396 164.985 100.048 165.004 99.7581L166.247 99.9129C166.169 100.454 165.936 101.073 165.509 101.46C165.14 101.789 164.578 102.079 163.801 102.079C162.908 102.079 162.346 101.731 161.996 101.421C161.55 100.996 161.104 100.222 161.104 99.0232C161.104 97.9014 161.492 97.2245 161.802 96.8571C162.229 96.3542 162.967 95.9287 163.84 95.9287C164.578 95.9287 165.179 96.1801 165.567 96.5863C165.955 96.9731 166.188 97.5533 166.266 98.0755L165.004 98.1916Z" fill="#F8B120"/>
<path d="M104.725 96.6258C105.132 96.2389 105.734 95.9102 106.646 95.9102C107.558 95.9102 108.16 96.2389 108.567 96.6258C109.169 97.1866 109.479 98.0763 109.479 98.9853C109.479 99.8943 109.169 100.784 108.567 101.345C108.16 101.732 107.558 102.06 106.646 102.06C105.734 102.06 105.132 101.732 104.725 101.345C104.123 100.784 103.793 99.8943 103.793 98.9853C103.812 98.0763 104.123 97.1866 104.725 96.6258ZM105.714 100.668C105.85 100.823 106.141 101.093 106.646 101.093C107.151 101.093 107.461 100.823 107.577 100.668C107.675 100.571 108.024 100.107 108.024 98.9853C108.024 97.8636 107.675 97.4187 107.577 97.3027C107.442 97.148 107.151 96.8772 106.646 96.8772C106.141 96.8772 105.831 97.148 105.714 97.3027C105.617 97.3994 105.268 97.8636 105.268 98.9853C105.287 100.088 105.637 100.552 105.714 100.668Z" fill="#F8B120"/>
<path d="M71.4023 96.6258C71.8098 96.2389 72.4115 95.9102 73.3236 95.9102C74.2358 95.9102 74.8374 96.2389 75.245 96.6258C75.8466 97.1866 76.1766 98.0763 76.1766 98.9853C76.1766 99.8943 75.8661 100.784 75.245 101.345C74.8374 101.732 74.2358 102.06 73.3236 102.06C72.4115 102.06 71.8098 101.732 71.4023 101.345C70.8006 100.784 70.4707 99.8943 70.4707 98.9853C70.4901 98.0763 70.8006 97.1866 71.4023 96.6258ZM72.3921 100.668C72.5279 100.823 72.819 101.093 73.3236 101.093C73.8282 101.093 74.1388 100.823 74.2552 100.668C74.3523 100.571 74.7016 100.107 74.7016 98.9853C74.7016 97.8636 74.3523 97.4187 74.2552 97.3027C74.1194 97.148 73.8282 96.8772 73.3236 96.8772C72.819 96.8772 72.5085 97.148 72.3921 97.3027C72.295 97.3994 71.9457 97.8636 71.9457 98.9853C71.9457 100.088 72.295 100.552 72.3921 100.668Z" fill="#F8B120"/>
<path d="M148.295 100.223C148.081 100.919 147.654 101.325 147.324 101.577C146.858 101.886 146.257 102.06 145.616 102.06C144.801 102.06 143.986 101.731 143.501 101.229C143.054 100.764 142.705 99.9521 142.705 99.0045C142.705 97.786 143.21 96.993 143.753 96.5289C144.064 96.2581 144.665 95.8906 145.558 95.8906C146.684 95.8906 147.421 96.4128 147.79 96.9544C148.197 97.5152 148.392 98.2889 148.392 98.9658V99.2365H144.161C144.161 99.3139 144.141 99.8361 144.355 100.281C144.665 100.939 145.247 101.093 145.636 101.093C145.946 101.093 146.354 100.997 146.684 100.668C146.878 100.455 146.955 100.262 146.994 100.068L148.295 100.223ZM146.917 98.3662C146.917 98.0374 146.839 97.6506 146.664 97.3799C146.451 97.0511 146.043 96.8383 145.616 96.8383C145.189 96.8383 144.782 97.0511 144.549 97.3412C144.355 97.5733 144.199 97.9407 144.199 98.3662H146.917Z" fill="#F8B120"/>
<path d="M81.5713 96.0261V99.1593C81.5713 99.5267 81.5519 99.4687 81.5325 99.8749C81.7654 99.43 81.8236 99.372 81.9595 99.1786L83.842 96.5096V96.0261H85.2006V101.964H83.842V98.8111C83.842 98.579 83.8614 98.3083 83.8808 98.0955C83.7838 98.3083 83.6673 98.4823 83.4539 98.7725L81.5519 101.441V101.964H80.1934V96.0261H81.5713ZM82.0177 93.918C82.0371 94.0727 82.0759 94.2468 82.173 94.3628C82.3282 94.5755 82.5611 94.5949 82.7164 94.5949C82.8716 94.5949 83.1045 94.5755 83.2598 94.3628C83.3568 94.2468 83.3956 94.0727 83.415 93.918H84.5019C84.4825 94.4208 84.2302 94.769 83.9585 94.9817C83.6285 95.2331 83.1627 95.3492 82.7164 95.3492C82.27 95.3492 81.7848 95.2138 81.4743 94.9817C81.2026 94.769 80.9503 94.4402 80.9309 93.918H82.0177Z" fill="#F8B120"/>
<path d="M127.043 84.17H126.053V84.8083H131.351V84.17H130.497V74.3257H132.787V84.17H131.933V84.8083H137.232V84.17H136.242V64.8295H137.232V64.1719H131.933V64.8295H132.787V73.5134H130.497V64.8295H131.351V64.1719H126.053V64.8295H127.043V84.17Z" fill="#0C75BA"/>
<path d="M71.3438 64.1719V64.8295H72.3724V84.1507H71.3826V84.8083H76.7197C80.543 84.8083 81.6881 80.7081 81.6881 78.1745C81.6881 75.2734 79.8055 72.1982 76.7197 72.1982H75.8075V64.8295H76.8361V64.1719H71.3438ZM75.8269 72.8558C77.0496 72.8558 78.0782 73.4747 78.0782 74.403V82.3907C78.0782 83.1643 77.593 84.1507 75.8269 84.1507V72.8558Z" fill="#0C75BA"/>
<path d="M60.4155 64.1719V64.8295H60.9007C61.4441 64.8295 61.8905 65.313 61.8905 65.9319V77.4395C61.8905 79.8958 61.1918 82.352 59.5422 84.1507H58.8047V90.1269H59.4646C59.4646 87.1872 59.7945 84.7889 61.5218 84.7889H67.2665C68.9938 84.7889 69.3625 87.1678 69.3625 90.1269H70.0224V84.1507H68.3339V64.8295H69.3625V64.1719H60.4155ZM60.6872 84.17C61.8323 82.5648 62.531 80.2052 62.531 78.3485V64.8295H64.8793V84.1507H60.6872V84.17Z" fill="#0C75BA"/>
<path d="M83.4139 64.1717V64.8293H84.4037V82.874C84.4037 84.1505 83.7827 84.1505 83.084 84.1505V84.8081H86.3639V84.1505C85.51 84.1505 85.0442 84.1505 85.0442 82.8353V67.8851H85.083L87.5478 84.7887H89.1004L91.4875 67.8851H91.5652V84.1312H90.5754V84.7887H95.9901V84.1312H95.0003V64.8099H95.9901V64.1523H91.2158L89.7408 75.6213H89.6632L87.9359 64.1523H83.4139V64.1717Z" fill="#0C75BA"/>
<path d="M161.395 74.3256C161.395 79.1607 162.753 85.2143 166.169 85.2143C169.585 85.2143 170.943 79.2381 170.943 74.3256C170.943 68.7942 169.332 63.7656 166.169 63.7656C163.005 63.7656 161.395 68.8135 161.395 74.3256ZM165.004 65.4869C165.004 64.8294 165.49 64.4232 166.149 64.4232C166.809 64.4232 167.294 64.8294 167.294 65.4869V83.4156C167.294 84.1506 166.809 84.5567 166.149 84.5567C165.49 84.5567 165.004 84.1506 165.004 83.4156V65.4869Z" fill="#0C75BA"/>
<path d="M148.237 74.3256C148.237 68.8329 147.286 63.7656 143.638 63.7656C140.435 63.7656 138.883 68.7942 138.883 74.2869C138.883 79.1607 140.203 85.2337 143.638 85.2337C147.752 85.2337 148.237 79.5862 148.237 76.0469H147.655C147.655 79.0834 146.995 84.5567 143.618 84.5567C143.094 84.5567 142.512 84.1506 142.512 83.377V74.3256H148.237ZM142.531 73.5133V65.4869C142.531 64.8294 143.075 64.4232 143.638 64.4232C144.259 64.4232 144.783 64.8294 144.783 65.4869V73.5133H142.531Z" fill="#0C75BA"/>
<path d="M118.214 74.3256C118.214 68.8329 117.263 63.7656 113.614 63.7656C110.412 63.7656 108.859 68.7942 108.859 74.2869C108.859 79.1607 110.179 85.2337 113.614 85.2337C117.729 85.2337 118.214 79.5862 118.214 76.0469H117.632C117.632 79.0834 116.972 84.5567 113.614 84.5567C113.071 84.5567 112.508 84.1506 112.508 83.377V74.3256H118.214ZM112.508 73.5133V65.4869C112.508 64.8294 113.032 64.4232 113.614 64.4232C114.235 64.4232 114.759 64.8294 114.759 65.4869V73.5133H112.508Z" fill="#0C75BA"/>
<path d="M97.6797 74.3256C97.6797 79.1607 99.0382 85.2143 102.454 85.2143C105.87 85.2143 107.228 79.2381 107.228 74.3256C107.228 68.7942 105.617 63.7656 102.454 63.7656C99.2905 63.7656 97.6797 68.8135 97.6797 74.3256ZM101.29 65.4869C101.29 64.8294 101.775 64.4232 102.435 64.4232C103.094 64.4232 103.58 64.8294 103.58 65.4869V83.4156C103.58 84.1506 103.094 84.5567 102.435 84.5567C101.775 84.5567 101.29 84.1506 101.29 83.4156V65.4869Z" fill="#0C75BA"/>
<path d="M57.7393 74.3256C57.7393 68.8329 56.7883 63.7656 53.1397 63.7656C49.9374 63.7656 48.3848 68.7942 48.3848 74.2869C48.3848 79.1607 49.7045 85.2337 53.1397 85.2337C57.2541 85.2337 57.7393 79.5862 57.7393 76.0469H57.1571C57.1571 79.0834 56.4972 84.5567 53.1397 84.5567C52.6157 84.5567 52.0334 84.1506 52.0334 83.377V74.3256H57.7393ZM52.0334 73.5133V65.4869C52.0334 64.8294 52.5768 64.4232 53.1397 64.4232C53.7607 64.4232 54.2847 64.8294 54.2847 65.4869V73.5133H52.0334Z" fill="#0C75BA"/>
<path d="M36.2928 75.9304C36.2928 79.4504 37.3603 85.2332 41.5912 85.2332C46.4431 85.2332 46.0744 77.4003 46.3072 72.9906H45.725C45.3951 77.4583 45.5115 84.5756 41.5718 84.5756C40.9895 84.5756 40.4655 84.1695 40.4655 83.2992V57.7116C40.4655 56.8606 41.0089 56.4351 41.5718 56.4351C42.7556 56.4351 44.9487 61.2316 45.725 68.2329H46.3072V56.203H45.725L44.4441 58.1758C43.8231 56.8606 42.9691 55.7969 41.5718 55.7969C37.4961 55.7969 36.2734 61.367 36.2734 64.8483V75.9304H36.2928Z" fill="#0C75BA"/>
<path d="M154.933 65.6802C153.089 65.6802 151.789 67.0533 151.012 69.2969C151.109 67.7883 151.381 66.125 152.099 65.1C153.574 63.0305 155.496 62.9918 157.825 61.1932C160.153 59.3945 159.629 55.5457 159.629 55.5457L159.067 55.5264C159.067 55.5264 159.067 56.358 158.659 56.9769C158.077 57.8666 156.971 58.176 154.428 59.5492C153.108 60.2648 152.06 61.4639 151.439 62.8178C150.061 65.7769 150.217 69.3742 150.217 69.3742V74.248C150.197 74.5768 150.197 74.9056 150.197 75.2344C150.197 80.0696 151.556 85.1368 154.952 85.1368C158.349 85.1368 159.726 80.1469 159.726 75.2344C159.707 69.7417 158.096 65.6802 154.933 65.6802ZM156.078 83.3575C156.078 84.0924 155.593 84.4985 154.933 84.4985C154.273 84.4985 153.788 84.0924 153.788 83.3575V67.4015C153.788 66.7439 154.273 66.3377 154.933 66.3377C155.593 66.3377 156.078 66.7439 156.078 67.4015V83.3575Z" fill="#0C75BA"/>
<path d="M170.884 92.6025H36.0586V105H170.884V92.6025Z" fill="#0C75BA"/>
<path d="M87.0811 49.8411C87.0811 49.8411 84.0729 44.6772 82.5591 39.3392C80.7153 32.8407 80.4824 29.2434 80.4824 29.2434L91.933 28.2764L84.7133 30.81C84.7133 30.81 84.7909 34.3687 86.033 42.6658C86.7511 47.5783 87.0811 49.8411 87.0811 49.8411Z" fill="#0C75BA"/>
<path d="M101.016 17.0587L113.903 18.5286L112.68 25.1044C113.185 25.3945 113.67 25.704 114.136 26.0134C114.116 25.8394 114.116 25.6653 114.116 25.4912C114.116 23.1704 115.475 21.1783 117.455 20.2499V20.1532C117.455 18.5093 118.425 17.0781 119.822 16.4012C119.473 10.541 114.602 5.87988 108.624 5.87988C103.733 5.87988 99.5606 9.01306 98.0273 13.3647C99.5606 14.0223 100.706 15.3954 101.016 17.0587Z" fill="#F8B120"/>
<path d="M78.8719 14.6601C78.8719 14.9308 78.8913 15.2016 78.9107 15.4724C78.6973 15.4337 78.4838 15.4143 78.2703 15.4143C75.9414 15.4143 74.0394 17.2904 74.0394 19.6113C74.0394 19.9594 74.0976 20.3075 74.1752 20.6363H74.0782C73.0302 20.6363 72.021 20.8684 71.1088 21.2552L77.4163 29.6684C79.9394 27.1154 82.9281 25.046 86.2663 23.5761L79.8617 10.9467C79.2407 12.0491 78.8719 13.3062 78.8719 14.6601ZM66.6839 28.0631C66.6839 29.2429 66.975 30.3453 67.4602 31.3316C63.3651 32.1246 60.2793 35.7026 60.2793 40.0156C60.2793 44.696 63.9474 48.5254 68.5664 48.8349L69.168 48.8542C69.4009 42.2978 71.8269 36.3215 75.7279 31.5831L67.4408 24.8139C66.9556 25.8002 66.6839 26.9027 66.6839 28.0631ZM96.0866 14.602C95.1744 14.602 94.3399 14.9502 93.6994 15.511C93.7383 15.2403 93.7577 14.9502 93.7577 14.6601C93.7577 11.7203 92.0304 9.16734 89.5268 7.98756L90.7107 22.0482C91.6228 21.8161 92.5544 21.6227 93.5054 21.4679C93.6606 19.2051 93.8741 17.8706 93.8741 17.8706L99.6964 18.3928V18.1994C99.677 16.2073 98.0662 14.602 96.0866 14.602ZM82.1712 8.50976L87.1202 23.2279C87.3337 23.1506 87.5472 23.0539 87.7607 22.9765L83.7627 7.7168C83.1999 7.92954 82.6758 8.18097 82.1712 8.50976ZM131.7 27.5022C131.176 24.4271 128.498 22.0868 125.256 22.0868C125.004 22.0868 124.771 22.1062 124.519 22.1255C124.829 21.642 125.004 21.0811 125.004 20.4622C125.004 18.7216 123.587 17.3097 121.841 17.3097C120.094 17.3097 118.677 18.7216 118.677 20.4622C118.677 20.7137 118.716 20.9651 118.774 21.2165C116.853 21.9515 115.494 23.7695 115.494 25.9356C115.494 26.3418 115.553 26.7479 115.65 27.1154C115.883 27.2895 116.115 27.4829 116.348 27.6763L123.549 27.9857C123.549 27.9857 122.656 30.1132 121.724 33.4784C122.093 34.02 122.462 34.5615 122.792 35.1224L133.408 28.3532C132.864 27.9857 132.301 27.6956 131.7 27.5022ZM137.328 37.3466L124.888 39.4353C125.994 42.2784 126.673 45.3342 126.828 48.5254H130.632C131.622 49.125 132.767 49.4731 134.009 49.4731C137.619 49.4731 140.55 46.5527 140.55 42.9553C140.55 40.5571 139.249 38.4683 137.328 37.3466ZM136.164 33.6912C136.164 33.4204 136.144 33.169 136.105 32.8982L123.82 37.0758C123.976 37.3852 124.111 37.6754 124.267 37.9848L136.028 34.9097C136.125 34.5228 136.164 34.1167 136.164 33.6912Z" fill="url(#paint0_linear_349_29028)"/>
<path d="M86.7893 38.5068C86.8281 38.8163 86.8669 39.1451 86.9057 39.4545L92.5146 37.0563L86.7893 38.5068ZM86.207 32.608C86.2264 32.8981 86.2653 33.2075 86.2847 33.5556L91.8353 31.1768L86.207 32.608ZM86.5758 36.5534C86.6146 36.8629 86.634 37.1723 86.6728 37.5011L92.2623 35.1029L86.5758 36.5534ZM86.3817 34.5807C86.4011 34.8901 86.4399 35.1996 86.4787 35.5284L92.0294 33.1495L86.3817 34.5807Z" fill="#0C75BA"/>
<path d="M93.6798 34.3106C92.7482 25.0464 93.8544 17.8711 93.8544 17.8711L111.69 19.457L99.5409 21.3331C99.5409 21.3331 98.4347 27.5607 98.2018 35.2196C97.9883 42.3176 98.4153 53.98 98.4153 53.98C98.4153 53.98 94.8054 45.3541 93.6798 34.3106Z" fill="#F8B120"/>
<path d="M107.847 39.4938C107.576 31.4481 108.895 26.1875 108.895 26.1875L123.529 27.9668L113.282 28.7985C113.282 28.7985 111.904 34.2719 111.147 41.0991C110.429 47.4235 109.943 53.4384 109.943 53.4384C109.943 53.4384 108.1 47.4428 107.847 39.4938Z" fill="#0C75BA"/>
<path d="M72.3111 55.662C60.2395 55.9134 52.1465 59.1046 52.1465 59.1046C52.1465 59.1046 64.3928 50.3433 79.6084 52.6448C86.1683 53.6312 93.2133 58.0602 102.84 57.7121C116.58 57.2285 127.39 44.5605 140.82 44.5218C160.267 44.4444 168.166 59.298 168.166 59.298C168.166 59.298 155.726 47.4809 134.629 51.4264C119.064 54.3275 109.283 61.6382 92.0294 58.1182C84.6739 56.5903 78.1335 55.5459 72.3111 55.662Z" fill="#0C75BA"/>
<path d="M112.681 40.8081C112.642 41.1176 112.603 41.4464 112.545 41.7558L118.62 40.402L112.681 40.8081ZM112.952 38.8354C112.914 39.1448 112.875 39.4736 112.817 39.7831L118.891 38.4292L112.952 38.8354ZM113.263 36.8626C113.205 37.1721 113.166 37.5009 113.108 37.8103L119.182 36.4565L113.263 36.8626ZM114.292 30.9444C114.233 31.2345 114.175 31.5633 114.117 31.8921L120.114 30.5576L114.292 30.9444ZM113.574 34.8899C113.515 35.1994 113.476 35.5088 113.418 35.8376L119.473 34.5031L113.574 34.8899ZM113.923 32.8978C113.865 33.2073 113.806 33.5167 113.748 33.8455L119.745 32.511L113.923 32.8978Z" fill="#0C75BA"/>
<path d="M99.5801 38.4683L105.305 36.9018L99.5801 37.5787C99.5995 37.8688 99.5995 38.1589 99.5801 38.4683ZM100.861 23.7308C100.822 23.9436 100.745 24.253 100.667 24.6592L106.47 23.0732L100.861 23.7308ZM99.6771 34.5229L105.519 32.9176L99.7159 33.5945C99.7159 33.904 99.6965 34.2134 99.6771 34.5229ZM99.6189 36.5149L105.48 34.9097L99.6577 35.5866C99.6383 35.896 99.6189 36.2055 99.6189 36.5149ZM100.104 28.624L106.043 26.9994L100.201 27.6763C100.182 27.9857 100.143 28.3145 100.104 28.624ZM99.7742 32.5695L105.674 30.9449L99.8324 31.6411C99.813 31.9312 99.7936 32.2407 99.7742 32.5695ZM100.356 26.6512L106.237 25.046L100.492 25.7229C100.453 25.9937 100.395 26.3031 100.356 26.6512ZM99.9294 30.5967L105.868 28.9721L100.007 29.6684C99.9682 29.9585 99.9488 30.2679 99.9294 30.5967Z" fill="#F8B120"/>
<path fill-rule="evenodd" clip-rule="evenodd" d="M115.301 2.88175C114.777 3.50064 114.156 3.63603 113.632 4.15822C113.147 4.66108 113.069 5.2413 113.069 5.29932C113.749 5.55075 114.408 5.87953 115.049 6.24701C114.797 5.18327 115.554 4.60306 115.961 3.69405C116.485 2.51427 116.019 1.52791 116.019 1.52791C116.019 1.52791 115.825 2.24351 115.301 2.88175ZM105.423 0.174065C105.423 0.174065 105.694 0.870326 105.636 1.68263C105.578 2.49493 105.151 2.95911 105.054 3.69405C104.957 4.35163 105.209 4.85448 105.267 4.95119C105.966 4.75778 106.684 4.6224 107.422 4.56438C106.587 3.84877 106.859 2.92043 106.665 1.97274C106.374 0.696261 105.423 0.174065 105.423 0.174065ZM123.802 8.85798C123.802 8.85798 123.22 9.32216 122.424 9.5349C121.628 9.72831 121.046 9.47688 120.328 9.59293C119.649 9.70897 119.241 10.1151 119.202 10.1731C119.61 10.7727 119.959 11.4109 120.25 12.0685C120.677 11.0628 121.648 11.0435 122.482 10.56C123.588 9.92171 123.802 8.85798 123.802 8.85798ZM120.502 4.58372C120.502 4.58372 120.095 5.20261 119.396 5.64745C118.717 6.07294 118.057 6.01492 117.417 6.34371C116.796 6.6725 116.543 7.21403 116.524 7.25272C117.087 7.69755 117.63 8.2004 118.096 8.74194C118.193 7.63953 119.105 7.33008 119.765 6.61448C120.638 5.66679 120.502 4.58372 120.502 4.58372ZM110.566 1.50856C110.255 2.26285 109.692 2.5723 109.382 3.22988C109.071 3.84877 109.188 4.42899 109.188 4.48701C109.925 4.52569 110.643 4.6224 111.342 4.77712C110.76 3.84877 111.323 3.05581 111.42 2.06944C111.556 0.792964 110.818 0 110.818 0C110.818 0 110.857 0.754282 110.566 1.50856ZM95.1366 9.78633C93.9527 9.26414 92.9629 9.72831 92.9629 9.72831C92.9629 9.72831 93.681 9.92171 94.3214 10.4439C94.9425 10.9661 95.0783 11.585 95.6023 12.1072C96.0487 12.5327 96.5533 12.6487 96.7086 12.6681C96.9609 11.9912 97.2908 11.3336 97.6402 10.7147C96.6115 10.9468 96.0293 10.1925 95.1366 9.78633ZM124.112 14.138C123.297 14.0799 122.831 13.6544 122.094 13.5577C121.453 13.461 120.949 13.7125 120.852 13.7705C121.046 14.4667 121.182 15.163 121.259 15.898C121.977 15.0856 122.89 15.3564 123.841 15.163C125.102 14.8922 125.626 13.9446 125.626 13.9446C125.626 13.9446 124.927 14.196 124.112 14.138ZM98.0671 5.99558C97.1161 5.12525 96.0293 5.26064 96.0293 5.26064C96.0293 5.26064 96.6504 5.66679 97.0967 6.36305C97.5237 7.05931 97.4655 7.69755 97.7954 8.33579C98.0865 8.89666 98.5523 9.14809 98.6882 9.22545C99.1346 8.66458 99.6392 8.14238 100.183 7.65887C99.1151 7.56216 98.7852 6.65316 98.0671 5.99558ZM102.026 3.30724C101.386 2.18548 100.318 1.97274 100.318 1.97274C100.318 1.97274 100.784 2.55296 100.998 3.34592C101.192 4.13888 100.939 4.7191 101.056 5.4347C101.172 6.07294 101.541 6.45975 101.638 6.55646C102.24 6.16964 102.88 5.82151 103.56 5.5314C102.55 5.10591 102.512 4.13888 102.026 3.30724Z" fill="#F8B120"/>
</g>
<defs>
<linearGradient id="paint0_linear_349_29028" x1="101.612" y1="52.9022" x2="96.7373" y2="6.35751" gradientUnits="userSpaceOnUse">
<stop offset="0.15" stop-color="white"/>
<stop offset="0.18" stop-color="#FBFBFD"/>
<stop offset="0.22" stop-color="#ECEDF8"/>
<stop offset="0.47" stop-color="#0C6CB3"/>
</linearGradient>
<clipPath id="clip0_349_29028">
<rect width="207" height="105" fill="white"/>
</clipPath>
</defs>
</svg>
