<svg width="207" height="108" viewBox="0 0 207 108" fill="none" xmlns="http://www.w3.org/2000/svg">
<g clip-path="url(#clip0_349_29133)">
<path d="M162.768 106.469C162.693 107.235 162.52 107.457 162.026 107.457C161.902 107.457 161.754 107.432 161.581 107.408H161.531V107.902H161.556C161.729 107.926 161.877 107.951 162.026 107.951C162.842 107.951 163.237 107.531 163.336 106.519L163.806 102.123H166.452V107.926H167.02V101.653H163.262L162.768 106.469Z" fill="#404041"/>
<path d="M139.376 104.37H135.717V101.653H135.148V107.902H135.717V104.839H139.376V107.902H139.97V101.653H139.376V104.37Z" fill="#404041"/>
<path d="M132.849 104.37H129.19V101.653H128.621V107.902H129.19V104.839H132.849V107.902H133.443V101.653H132.849V104.37Z" fill="#404041"/>
<path d="M123.997 104.913H127.063V104.444H123.997V102.098H127.187V101.653H123.453V107.902H127.236V107.432H123.997V104.913Z" fill="#404041"/>
<path d="M111.387 104.913H114.428V104.444H111.387V102.098H114.552V101.653H110.818V107.902H114.601V107.432H111.387V104.913Z" fill="#404041"/>
<path d="M107.432 101.653H104.959V107.926H105.528V105.827H107.456C108.816 105.827 109.706 104.987 109.706 103.753C109.682 102.444 108.816 101.653 107.432 101.653ZM105.503 102.098H107.432C108.495 102.098 109.113 102.691 109.113 103.703C109.113 104.716 108.495 105.308 107.432 105.308H105.503V102.098Z" fill="#404041"/>
<path d="M102.486 104.642C103.005 104.419 103.326 103.925 103.326 103.308C103.326 102.246 102.584 101.653 101.274 101.653H98.9004V107.926H101.595C102.881 107.926 103.648 107.284 103.648 106.198C103.623 105.432 103.203 104.864 102.486 104.642ZM99.4938 104.913H101.323C102.486 104.913 103.054 105.333 103.054 106.173C103.054 106.963 102.51 107.432 101.546 107.432H99.4938V104.913ZM101.274 104.469H99.4938V102.098H101.274C102.288 102.098 102.782 102.493 102.782 103.283C102.758 104.098 102.288 104.469 101.274 104.469Z" fill="#404041"/>
<path d="M203.934 101.653L203.662 101.628L200.695 107.802V107.901H201.289L202.129 106.123H205.467L206.308 107.876V107.901H206.901V107.802L203.934 101.653ZM205.245 105.654H202.302L203.786 102.492L205.245 105.654Z" fill="#404041"/>
<path d="M198.939 103.036L198.964 102.962C199.162 102.245 199.384 101.949 200.225 102.048H200.275V101.653H200.25C200.102 101.628 199.953 101.628 199.83 101.628C198.989 101.628 198.667 102.122 198.445 102.863L198.42 102.937C198.272 103.456 198.049 104.196 197.654 104.419C197.332 104.592 196.689 104.616 196.096 104.616V101.653H195.527V107.926H196.096V105.086C196.516 105.086 197.308 105.086 197.654 104.937L199.83 107.926V107.95H200.423V107.852L198.099 104.715C198.544 104.295 198.742 103.628 198.939 103.036Z" fill="#404041"/>
<path d="M189.345 106.765L189.369 104.641V101.628H188.801V107.901H189.023L193.276 102.764L193.251 104.764V107.901H193.82V101.628H193.573L189.345 106.765Z" fill="#404041"/>
<path d="M171.272 101.628H171L168.033 107.802V107.901H168.627L169.467 106.123H172.805L173.646 107.876V107.901H174.239V107.802L171.272 101.628ZM172.607 105.654H169.665L171.149 102.492L172.607 105.654Z" fill="#404041"/>
<path d="M159.947 103.036L159.972 102.962C160.17 102.245 160.392 101.949 161.233 102.048H161.282V101.653H161.258C161.109 101.628 160.961 101.628 160.837 101.628C159.997 101.628 159.675 102.122 159.453 102.863L159.428 102.937C159.28 103.456 159.057 104.196 158.662 104.419C158.34 104.592 157.697 104.616 157.104 104.616V101.653H156.535V107.926H157.104V105.086C157.524 105.086 158.315 105.086 158.662 104.937L160.837 107.926V107.95H161.431V107.852L159.107 104.715C159.576 104.295 159.774 103.628 159.947 103.036Z" fill="#404041"/>
<path d="M144.198 101.628H143.926L140.959 107.802V107.901H141.552L142.393 106.123H145.731L146.572 107.876V107.901H147.165V107.802L144.198 101.628ZM145.508 105.654H142.566L144.05 102.492L145.508 105.654Z" fill="#404041"/>
<path d="M118.879 105.332L116.283 101.653L116.258 101.628H115.986V107.901H116.555V102.912L118.805 106.073V106.098H118.953L121.203 102.912V107.901H121.747V101.628H121.475L118.879 105.332Z" fill="#404041"/>
<path d="M147.833 103.604C147.833 104.542 148.426 105.135 149.464 105.308L147.561 107.778V107.877H148.179L150.083 105.333H151.912V107.877H152.481V101.604H149.984C148.723 101.628 147.833 102.443 147.833 103.604ZM151.912 102.122V104.938H150.008C149.415 104.938 148.376 104.765 148.376 103.604C148.376 102.74 149.069 102.122 150.008 102.122H151.912Z" fill="#404041"/>
<path d="M187.021 106.024C186.625 107.259 185.562 107.53 184.721 107.53C183.04 107.53 182.076 106.518 182.076 104.789C182.076 103.06 183.09 102.023 184.721 102.023C185.265 102.023 186.576 102.146 186.996 103.406V103.431H187.54L187.515 103.381C187.194 102.221 186.155 101.554 184.697 101.554C182.768 101.554 181.482 102.838 181.482 104.764C181.482 106.691 182.719 107.975 184.697 107.975C185.785 107.975 187.194 107.456 187.54 106.024V105.974H186.996L187.021 106.024Z" fill="#404041"/>
<path d="M180.124 106.024C179.729 107.259 178.666 107.53 177.825 107.53C176.144 107.53 175.179 106.518 175.179 104.789C175.179 103.06 176.193 102.023 177.825 102.023C178.369 102.023 179.679 102.146 180.1 103.406V103.431H180.644L180.619 103.381C180.297 102.221 179.259 101.554 177.8 101.554C175.872 101.554 174.586 102.838 174.586 104.764C174.586 106.691 175.822 107.975 177.8 107.975C178.888 107.975 180.297 107.456 180.644 106.024V105.974H180.1L180.124 106.024Z" fill="#404041"/>
<path d="M89.7279 106.024C89.3323 107.259 88.2691 107.53 87.4285 107.53C85.7471 107.53 84.7829 106.518 84.7829 104.789C84.7829 103.06 85.7966 102.023 87.4285 102.023C87.9724 102.023 89.2829 102.146 89.7032 103.406V103.431H90.2471L90.2224 103.381C89.901 102.221 88.8625 101.554 87.4037 101.554C85.4752 101.554 84.1895 102.838 84.1895 104.764C84.1895 106.691 85.4257 107.975 87.4037 107.975C88.4917 107.975 89.901 107.456 90.2471 106.024V105.974H89.7032L89.7279 106.024Z" fill="#404041"/>
<path d="M94.3276 101.529C92.399 101.529 91.1133 102.838 91.1133 104.765C91.1133 106.691 92.399 108 94.3276 108C96.2561 108 97.5666 106.74 97.5666 104.765C97.5913 102.838 96.2809 101.529 94.3276 101.529ZM96.9979 104.765C96.9979 106.469 95.9842 107.506 94.3276 107.506C92.671 107.506 91.682 106.419 91.682 104.765C91.682 103.11 92.7452 102.023 94.3523 102.023C95.9594 102.023 96.9979 103.11 96.9979 104.765Z" fill="#404041"/>
<path d="M207.001 81.2049V78.834H199.781V94.4178H207.001V92.0469H202.18V89.3302H207.001V86.9593H202.18V81.2049H207.001Z" fill="#6D6E70"/>
<path d="M164.101 84.9341C164.175 84.8354 160.837 84.8107 160.219 84.8354V80.8838H163.804V78.834H157.846V94.4178H162.222C165.634 94.3684 167.365 92.6149 167.439 89.1573C167.217 87.0087 166.104 85.601 164.101 84.9341ZM161.678 92.3926H160.219V86.2678H161.678C163.854 86.416 164.942 87.4038 164.942 89.2808C164.942 91.1578 163.854 92.2445 161.678 92.3926Z" fill="#6D6E70"/>
<path d="M134.258 84.9341C135.222 83.7487 135.445 82.4397 134.926 81.0073C134.382 79.5749 133.22 78.834 131.439 78.834H128.027V94.4178H132.404C135.816 94.3684 137.547 92.6149 137.621 89.1573C137.373 87.0087 136.261 85.601 134.258 84.9341ZM130.376 80.8838C131.909 80.8838 132.676 81.526 132.676 82.8102C132.676 84.0944 131.909 84.7613 130.376 84.8354V80.8838ZM131.835 92.3926H130.376V86.2678H131.835C134.011 86.416 135.099 87.4038 135.099 89.2808C135.099 91.2072 134.011 92.2445 131.835 92.3926Z" fill="#6D6E70"/>
<path d="M118.68 80.0194C116.183 81.7235 114.922 83.9463 114.922 86.6876C114.922 88.2929 115.416 89.7994 116.405 91.2072C118.161 93.4052 120.337 94.4919 122.883 94.4919C123.971 94.4919 124.96 94.319 125.9 93.9485V91.306C124.886 91.8493 123.897 92.121 123.007 92.121C121.944 92.121 120.98 91.8493 120.065 91.3307C118.334 90.1452 117.469 88.614 117.469 86.737C117.469 85.8479 117.666 85.0082 118.062 84.1685C119.224 82.2422 120.856 81.279 122.908 81.279C123.947 81.279 124.886 81.526 125.752 82.0446H125.9V79.402C124.936 79.0316 123.971 78.834 123.007 78.834C121.425 78.834 119.966 79.2291 118.68 80.0194Z" fill="#6D6E70"/>
<path d="M92.1016 86.9345H86.662V78.7598H84.2637V94.4177H86.662V89.3301H92.1016V94.4177H94.4999V78.7598H92.1016V86.9345Z" fill="#6D6E70"/>
<path d="M184.947 83.5256C184.526 82.5624 183.958 81.7227 183.216 81.0312C182.499 80.315 181.634 79.7716 180.669 79.3518C179.705 78.932 178.667 78.7344 177.554 78.7344C176.441 78.7344 175.403 78.932 174.439 79.3518C173.474 79.7716 172.634 80.315 171.892 81.0312C171.175 81.7474 170.581 82.5624 170.161 83.5256C169.741 84.4888 169.543 85.5014 169.543 86.588C169.543 87.6747 169.741 88.6873 170.161 89.6505C170.581 90.5889 171.15 91.4286 171.892 92.1202C172.609 92.8364 173.474 93.3797 174.439 93.7995C175.403 94.2194 176.441 94.417 177.554 94.417C178.667 94.417 179.705 94.2194 180.669 93.7995C181.634 93.3797 182.474 92.8364 183.216 92.1202C183.933 91.4039 184.526 90.5889 184.947 89.6505C185.367 88.712 185.59 87.6747 185.59 86.588C185.59 85.5014 185.367 84.4888 184.947 83.5256ZM182.598 88.712C182.326 89.3788 181.93 89.9468 181.436 90.4408C180.941 90.9347 180.373 91.3052 179.705 91.6015C179.037 91.8732 178.345 92.0214 177.579 92.0214C176.812 92.0214 176.12 91.8732 175.452 91.6015C174.785 91.3298 174.216 90.9347 173.722 90.4408C173.227 89.9468 172.831 89.3788 172.559 88.712C172.287 88.0452 172.139 87.3536 172.139 86.588C172.139 85.8224 172.287 85.1309 172.559 84.4641C172.831 83.7973 173.227 83.2292 173.722 82.7353C174.216 82.2414 174.785 81.8709 175.452 81.5745C176.12 81.3029 176.837 81.1547 177.579 81.1547C178.32 81.1547 179.037 81.3029 179.705 81.5745C180.373 81.8462 180.941 82.2414 181.436 82.7353C181.93 83.2292 182.326 83.7973 182.598 84.4641C182.87 85.1309 183.018 85.8224 183.018 86.588C183.018 87.3536 182.87 88.0452 182.598 88.712Z" fill="#6D6E70"/>
<path d="M153.396 81.0312C152.679 80.315 151.813 79.7716 150.849 79.3518C149.885 78.932 148.846 78.7344 147.734 78.7344C146.621 78.7344 145.583 78.932 144.618 79.3518C143.654 79.7716 142.813 80.315 142.072 81.0312C141.355 81.7474 140.761 82.5624 140.341 83.5256C139.92 84.4888 139.723 85.5014 139.723 86.588C139.723 87.6747 139.92 88.6873 140.341 89.6505C140.761 90.5889 141.33 91.4286 142.072 92.1202C142.789 92.8364 143.654 93.3797 144.618 93.7995C145.583 94.2194 146.621 94.417 147.734 94.417C148.846 94.417 149.885 94.2194 150.849 93.7995C151.813 93.3797 152.654 92.8364 153.396 92.1202C154.113 91.4039 154.706 90.5889 155.127 89.6505C155.547 88.712 155.745 87.6747 155.745 86.588C155.745 85.5014 155.522 84.4888 155.127 83.5256C154.681 82.5624 154.113 81.7227 153.396 81.0312ZM152.728 88.712C152.456 89.3788 152.061 89.9468 151.566 90.4408C151.072 90.9347 150.503 91.3052 149.835 91.6015C149.168 91.8732 148.475 92.0214 147.709 92.0214C146.942 92.0214 146.25 91.8732 145.583 91.6015C144.915 91.3298 144.346 90.9347 143.852 90.4408C143.357 89.9468 142.962 89.3788 142.69 88.712C142.418 88.0452 142.269 87.3536 142.269 86.588C142.269 85.8224 142.418 85.1309 142.69 84.4641C142.962 83.7973 143.357 83.2292 143.852 82.7353C144.346 82.2414 144.915 81.8709 145.583 81.5745C146.25 81.3029 146.967 81.1547 147.709 81.1547C148.451 81.1547 149.168 81.3029 149.835 81.5745C150.503 81.8462 151.072 82.2414 151.566 82.7353C152.061 83.2292 152.456 83.7973 152.728 84.4641C153 85.1309 153.148 85.8224 153.148 86.588C153.173 87.3536 153.025 88.0452 152.728 88.712Z" fill="#6D6E70"/>
<path d="M192.312 78.6855H190.878L187.194 92.3183H184.969V94.4916H197.974V92.3183H195.996L192.312 78.6855ZM189.691 91.9725L190.359 89.4534L191.57 84.4152L192.757 89.4534L193.425 91.9725L193.524 92.3183H189.568L189.691 91.9725Z" fill="#6D6E70"/>
<path d="M100.878 78.6855L96.625 94.4669H99.0481L99.7157 91.9725H103.499L104.166 94.4669H106.589L102.337 78.6855H100.878ZM100.383 89.4781L101.595 84.4399L102.782 89.4781H100.383Z" fill="#6D6E70"/>
<path d="M207 73.3999V27.0684H201.14L192.017 51.8889L182.893 27.0684H177.033V73.3258H184.055V50.6787L192.017 72.1404L199.954 50.9751V73.3999H207Z" fill="#6D6E70"/>
<path d="M168.873 41.0716C167.637 38.2314 165.931 35.7617 163.78 33.6625C161.629 31.5632 159.107 29.9332 156.239 28.7231C153.371 27.5129 150.305 26.8955 147.016 26.8955C143.728 26.8955 140.637 27.5129 137.769 28.7231C134.901 29.9332 132.404 31.5879 130.252 33.6625C128.101 35.7617 126.395 38.2314 125.159 41.0716C123.923 43.9117 123.305 46.9495 123.305 50.1354C123.305 53.3213 123.923 56.359 125.159 59.1745C126.395 61.99 128.101 64.435 130.252 66.5342C132.404 68.6334 134.926 70.2881 137.769 71.4983C140.637 72.7085 143.728 73.3259 147.016 73.3259C150.305 73.3259 153.371 72.7085 156.239 71.4983C159.107 70.2881 161.604 68.6334 163.78 66.5342C165.931 64.435 167.637 61.99 168.873 59.1745C170.11 56.359 170.752 53.346 170.752 50.1354C170.752 46.9248 170.134 43.9117 168.873 41.0716ZM161.876 56.4331C161.035 58.3842 159.898 60.0883 158.439 61.5454C156.981 63.0025 155.274 64.1386 153.321 64.9536C151.343 65.7686 149.266 66.1884 147.041 66.1884C144.816 66.1884 142.689 65.7686 140.736 64.9536C138.783 64.1386 137.052 63.0025 135.593 61.5454C134.134 60.0883 132.972 58.3842 132.132 56.4331C131.291 54.4821 130.871 52.3828 130.871 50.1601C130.871 47.9374 131.291 45.8381 132.132 43.887C132.972 41.936 134.11 40.2319 135.593 38.7748C137.052 37.3176 138.783 36.1816 140.736 35.3666C142.714 34.5516 144.791 34.1564 147.041 34.1564C149.291 34.1564 151.343 34.5516 153.321 35.3666C155.274 36.1816 157.005 37.3176 158.439 38.7748C159.898 40.2319 161.035 41.936 161.876 43.887C162.717 45.8381 163.137 47.9374 163.137 50.1601C163.137 52.3828 162.717 54.4821 161.876 56.4331Z" fill="#6D6E70"/>
<path d="M116.135 67.1023L105.255 26.7227H100.978L90.0988 67.1023H84.2637V73.5235H122.019V67.1023H116.135ZM97.2692 67.1023L97.5411 66.0897L99.5439 58.6559L103.154 43.7142L106.689 58.6559L108.692 66.0897L108.964 67.1023H97.2692Z" fill="#6D6E70"/>
<path d="M7.34454 103.727H5.76213L5.9352 83.2041L0.841797 93.2311V107.16H6.08356L7.34454 103.727Z" fill="url(#paint0_linear_349_29133)"/>
<path d="M68.3154 76.3626V78.4372L73.211 86.8835V72.0653L64.4336 60.3096L64.3594 71.5714L66.1149 74.6091L68.3154 74.9302L68.266 76.2144L68.3154 76.3626Z" fill="url(#paint1_linear_349_29133)"/>
<path d="M73.2128 92.3419L68.3419 83.1299L68.3913 90.292V103.678H66.2402L67.526 107.16H73.2128V92.3419Z" fill="url(#paint2_linear_349_29133)"/>
<path d="M64.5839 50.3564L64.4603 57.1481L64.4355 57.8643L73.213 68.6816V58.7287L64.5839 50.3564Z" fill="url(#paint3_linear_349_29133)"/>
<path d="M64.1884 49.9617L59.0703 44.9482V46.8993L64.1884 49.9617Z" fill="url(#paint4_linear_349_29133)"/>
<path d="M59.0443 43.2933L73.2118 55.79V48.8748L59.0195 38.749L59.0443 43.2933Z" fill="url(#paint5_linear_349_29133)"/>
<path d="M58.9961 34.4766L59.0208 37.4896L73.2131 46.6275V42.0091L58.9961 34.4766Z" fill="url(#paint6_linear_349_29133)"/>
<path d="M15.3555 24.2273L16.7896 22.7949L0.841797 22.8196V26.8946L15.3308 25.3634L15.3555 24.2273Z" fill="url(#paint7_linear_349_29133)"/>
<path d="M15.3061 26.2773L0.841797 28.7223V32.822L15.2319 29.0681L15.3061 26.2773Z" fill="url(#paint8_linear_349_29133)"/>
<path d="M15.2319 30.3525L0.841797 35.2425V39.1941L15.2319 32.7481V30.3525Z" fill="url(#paint9_linear_349_29133)"/>
<path d="M15.2319 34.2793L0.841797 42.0589V46.8748L15.2319 37.3911V34.2793Z" fill="url(#paint10_linear_349_29133)"/>
<path d="M15.2319 38.749L0.841797 49.3934V56.0863L15.2319 42.9969V38.749Z" fill="url(#paint11_linear_349_29133)"/>
<path d="M9.71817 50.2588L0.841797 59.2238V67.4232L9.76762 56.5071L9.71817 50.2588Z" fill="url(#paint12_linear_349_29133)"/>
<path d="M6.00938 76.3627L6.05883 76.2145L6.15773 75.1772L7.56707 74.7574L9.89125 70.6824L9.79235 59.9639L0.841797 72.2383V86.6119L5.98465 77.5234L6.00938 76.3627Z" fill="url(#paint13_linear_349_29133)"/>
<path d="M15.2312 44.6768L9.81641 50.1348L15.2312 46.9489V44.6768Z" fill="url(#paint14_linear_349_29133)"/>
<path d="M58.9707 30.3281L58.9954 32.7731L73.2125 38.8733V34.9959L58.9707 30.3281Z" fill="url(#paint15_linear_349_29133)"/>
<path d="M57.4141 22.7207L58.9718 24.2025V25.4868L73.2135 26.7463V22.7454L57.4141 22.7207Z" fill="url(#paint16_linear_349_29133)"/>
<path d="M58.9453 26.376L58.97 29.1914L73.2118 32.896V28.6975L58.9453 26.376Z" fill="url(#paint17_linear_349_29133)"/>
<path d="M20.2759 19.2393L21.611 17.9056L0.841797 11.3115V14.7938L20.2759 19.2393Z" fill="url(#paint18_linear_349_29133)"/>
<path d="M17.2841 22.3017L19.5094 20.0296L0.841797 17.5352V21.6349L17.2841 22.3017Z" fill="url(#paint19_linear_349_29133)"/>
<path d="M0.841797 4.39593L0.990148 2.39547L22.7731 14.7934V12.6447L6.15773 0.864258H0.841797V4.39593Z" fill="url(#paint20_linear_349_29133)"/>
<path d="M22.7731 16.7204V15.6831L0.841797 5.40918V8.99025L22.1055 17.3872L22.7731 16.7204Z" fill="url(#paint21_linear_349_29133)"/>
<path d="M51.4531 14.4228L51.3789 16.7197L51.5273 16.8679L73.2113 7.45829V2.14844L51.4531 14.4228Z" fill="url(#paint22_linear_349_29133)"/>
<path d="M52.0234 17.3616L53.8531 19.1891L73.213 14.9166V9.75488L52.0234 17.3616Z" fill="url(#paint23_linear_349_29133)"/>
<path d="M56.8711 22.1774L73.2145 21.5106V17.4355L54.6211 19.9299L56.8711 22.1774Z" fill="url(#paint24_linear_349_29133)"/>
<path d="M35.8286 7.03851H38.1775L38.8203 0.864258H35.4824L35.8286 7.03851Z" fill="url(#paint25_linear_349_29133)"/>
<path d="M38.6953 7.03851H41.0442L42.9233 0.864258H39.6349L38.6953 7.03851Z" fill="url(#paint26_linear_349_29133)"/>
<path d="M41.5645 7.03851H43.5425L46.2375 0.864258H43.765L41.5645 7.03851Z" fill="url(#paint27_linear_349_29133)"/>
<path d="M44.1602 7.03851H46.064L46.1876 7.18669L49.8964 0.864258H47.2014L44.1602 7.03851Z" fill="url(#paint28_linear_349_29133)"/>
<path d="M46.6074 7.58184L48.264 9.23654L55.3602 0.864258H50.9838L46.6074 7.58184Z" fill="url(#paint29_linear_349_29133)"/>
<path d="M56.9191 0.913652L48.6855 9.68109L50.5152 11.5087L62.9768 0.864258H56.746L56.9191 0.913652Z" fill="url(#paint30_linear_349_29133)"/>
<path d="M50.7617 11.7556L51.5529 12.5459L51.5035 13.5585L70.9623 0.864258H64.2617L50.7617 11.7556Z" fill="url(#paint31_linear_349_29133)"/>
<path d="M28.2125 7.06321L28.2619 7.03851H30.413L27.9158 0.864258H25.2207L28.2125 7.06321Z" fill="url(#paint32_linear_349_29133)"/>
<path d="M30.9812 7.03851H32.6625L30.8576 0.864258H28.8301L30.9812 7.03851Z" fill="url(#paint33_linear_349_29133)"/>
<path d="M33.1072 7.03851H35.2088L34.5165 0.864258H31.5742L33.1072 7.03851Z" fill="url(#paint34_linear_349_29133)"/>
<path d="M26.0875 9.23654L27.7936 7.50775L24.159 0.864258H19.832L26.0875 9.23654Z" fill="url(#paint35_linear_349_29133)"/>
<path d="M23.3432 11.9779L25.1234 10.175L16.346 0.864258H10.041L23.3432 11.9779Z" fill="url(#paint36_linear_349_29133)"/>
<path d="M63 85.0569L63.8159 85.0322V83.1553H63V85.0569Z" fill="#58595B"/>
<path d="M61.5664 84.9827L62.4318 85.0321L62.3823 83.0811H61.5664V84.9827Z" fill="#58595B"/>
<path d="M66.1662 80.5126L65.3008 80.4385V82.192L66.1662 82.2908V80.5126Z" fill="#58595B"/>
<path d="M63.0508 81.4265L63.7925 81.5253V79.6483L63.0508 79.5742V81.4265Z" fill="#58595B"/>
<path d="M61.5664 81.4021H62.4318V79.4757L61.5664 79.377V81.4021Z" fill="#58595B"/>
<path d="M63 77.4746L63.7665 77.5981V75.7211L63 75.5977V77.4746Z" fill="#58595B"/>
<path d="M56.8672 73.8937L57.8067 74.116V72.1649L56.8672 71.918V73.8937Z" fill="#58595B"/>
<path d="M62.9766 73.2518L63.842 73.4741L63.8172 71.5971L63.0013 71.3008L62.9766 73.2518Z" fill="#58595B"/>
<path d="M56.8672 69.5968L57.7573 69.8438L57.8067 68.0903L56.8672 67.7939V69.5968Z" fill="#58595B"/>
<path d="M63.8159 69.8431V68.0155L63.0247 67.7686L63 69.6208L63.8159 69.8431Z" fill="#58595B"/>
<path d="M56.8672 64.04V65.9664L57.782 66.2628V64.3611L56.8672 64.04Z" fill="#58595B"/>
<path d="M63 65.645L63.7912 65.966L63.7665 64.1878L63 63.8174V65.645Z" fill="#58595B"/>
<path d="M63.0254 61.4959L63.6435 61.8169L63.6682 59.8165L63.0254 59.4707V61.4959Z" fill="#58595B"/>
<path d="M63.0254 57.8654L63.6435 58.2112V56.2354L63.0254 55.8896V57.8654Z" fill="#58595B"/>
<path d="M63.0254 52.0117V53.9628L63.6188 54.3085V52.3822L63.0254 52.0117Z" fill="#58595B"/>
<path d="M60.1797 50.333V52.3335L61.0451 52.8274V50.8516L60.1797 50.333Z" fill="#58595B"/>
<path d="M59.2163 51.7645V49.764L58.3262 49.2207V51.2459L59.2163 51.7645Z" fill="#58595B"/>
<path d="M68.3898 103.53V103.234H68.5629V76.2401H68.4392L68.464 76.166L68.3403 76.1413V74.9559H68.2414V74.9065L64.5574 74.1162L64.6315 51.5678V50.2341L59.2167 46.8013V24.0553L51.5519 16.745H51.5766V12.5712L46.2607 7.01439L46.1123 7.28606L51.4035 12.67V13.2133L50.3651 12.1514L46.137 7.85409H45.8898L46.6315 8.6197V10.7436H46.8046V8.79258L47.1755 9.21243V11.2376H47.398V9.38531L47.7195 9.73106V11.8303H47.942V9.92864L48.2634 10.2497V12.1514H48.4859V10.472L48.7332 10.7436V12.6453H48.9557V10.9412L49.2277 11.2129V13.1393H49.4502V11.4352L49.7222 11.7068V13.9543H49.9447V11.9291L50.3651 12.3489V14.5964H50.5876V12.5712L50.9832 12.9911V15.2385H51.2057V13.1886L51.5271 13.5344V16.7203L46.409 11.7809L46.2359 11.9538L59.1425 24.3517V47.8879L58.6233 47.5669V45.6405L57.8321 45.0972V47.0729L57.4612 46.8507V44.8502L56.3733 44.1093V46.1591L56.0024 45.9369V43.8623L54.692 42.9732V45.1219L54.2469 44.8502V42.6769L53.0354 41.8619V44.1093L52.4667 43.7635V41.4667L51.5766 40.8493L51.6013 43.2202L51.0574 42.8991V19.437L50.0189 18.4985V80.9572L49.648 80.9325V18.1774L49.3513 17.9058V80.8831L48.9063 80.8337V17.4859L48.6096 17.2143V80.8091L48.0903 80.7597V16.7697L47.7936 16.498V80.735L47.2497 80.6856V16.0288L46.953 15.7571V80.6362L45.42 80.4633V80.5374L45.5436 80.5621L54.2222 81.4759L54.7662 81.55L61.0958 82.2168H61.1206V54.9019L60.8733 54.7537V82.0933L60.3541 82.0439V54.4573L60.0574 54.2845V82.0192L59.5629 81.9451V54.0128L59.2167 53.8152V81.9204L58.8211 81.871H58.7469V53.5436L58.4008 53.346V81.8216L57.9557 81.7722L57.9063 79.7965L57.0162 79.673V81.6734L56.4475 81.6241V79.6236L55.3843 79.5001V81.5253L54.7662 81.4512L54.7909 79.5001L53.7524 79.3272V81.3524L52.9859 81.2783L53.0354 79.2531L51.7744 79.0309V81.1301L51.0326 81.056L51.0574 43.3931L64.4337 51.6419L64.3596 85.6991H61.1453L61.1206 83.6739L45.5684 82.4144V85.6991L45.5931 87.2797L48.0409 87.2303V103.678H26.703V87.2303L29.1508 87.2797L29.1755 85.6991V82.4144L13.6233 83.6739L13.5986 85.6991H10.3843L10.3101 51.6419L23.6865 43.3931L23.7112 81.056L22.9695 81.1301V79.0309L21.7085 79.2531L21.7579 81.2783L20.9914 81.3524V79.3272L19.953 79.5001L19.9777 81.4512L19.3596 81.5253V79.5001L18.2964 79.6236V81.6241L17.7277 81.6734V79.673L16.8376 79.7965L16.7881 81.7722L16.3431 81.8216V53.346L15.9969 53.5436V81.871H15.9228L15.5272 81.9204V53.667L15.181 53.8646V81.7969L14.6865 81.871V54.1363L14.3898 54.3092V81.8957L13.8706 81.9451V54.6055L13.6233 54.7537V82.0686H13.648L19.9777 81.4018L20.5217 81.3277L29.2002 80.4139L29.3239 80.3892V80.3151L27.7909 80.488V15.609L27.4942 15.8806V80.5374L26.9502 80.5868V16.3499L26.6535 16.6215V80.6115L26.1343 80.6609V17.0661L25.8376 17.3377V80.6856L25.3925 80.735V17.7576L25.0958 18.0293V80.7844L24.725 80.8091V18.3503L23.6865 19.2888V42.751L23.1425 43.072L23.1673 40.7011L22.2772 41.3185V43.6154L21.7085 43.9611V41.7137L20.4969 42.5287V44.702L20.0519 44.9737V42.8251L18.7414 43.7141V45.7887L18.3706 46.011V43.9611L17.2826 44.702V46.7025L16.9118 46.9248V44.949L16.1206 45.4923V47.4187L15.6013 47.7398V24.2035L28.5079 11.8056L28.3348 11.6327L23.2167 16.5721V13.3862L23.5381 13.0405V15.0903H23.7607V12.8429L24.1563 12.423V14.4482H24.3788V12.2008L24.7991 11.7809V13.8061H25.0217V11.5586L25.2936 11.287V12.9911H25.5162V11.0647L25.7881 10.793V12.4971H26.0107V10.5955L26.2579 10.3238V12.0032H26.4804V10.1015L26.8019 9.78046V11.6821H27.0244V9.58288L27.3458 9.23712V11.0894H27.5684V9.06424L27.9392 8.6444V10.5955H28.1123V8.47152L28.8541 7.70591H28.6068L24.3788 12.0032L23.3403 13.0652V12.5218L28.6315 7.13788L28.4832 6.86621L23.1673 12.423V16.5968H23.192L15.5272 23.9071V46.6531L10.1123 50.086V51.4196L10.1865 73.968L6.50243 74.7583V74.8077H6.40352V75.9931L6.2799 76.0178L6.30462 76.0919H6.181V103.086H6.35407V103.382H5.06836V107.062H69.9722V103.382H68.3898V103.53ZM47.5217 85.0322H46.5079V82.8836H47.5217V85.0322ZM26.9502 82.8836H27.964V85.0322H26.9502V82.8836ZM13.9942 83.8468H14.4887V85.1804H13.9942V83.8468ZM10.1618 50.3329L15.2799 47.1223V47.8879L10.1618 51.0739V50.3329ZM6.45297 75.1534L9.93924 74.4125V75.3757L6.45297 76.0919V75.1534ZM9.34583 88.7615H6.20572V76.4377L9.93924 75.6721V85.5262H9.17275V84.316L8.30737 84.3901V85.8472L8.28264 86.1683L9.17275 86.1189L9.22221 86.7116H9.34583V88.7615ZM10.6563 103.53H9.91451V86.7363L10.6563 86.761V103.53ZM12.2881 103.53H11.4969V86.761L12.2881 86.7857V103.53ZM15.1315 103.53H13.0793V86.8104L15.1315 86.8598V103.53ZM15.3046 85.1557H14.7854V83.8468H15.3046V85.1557ZM15.6755 83.6986H16.1947V85.1063H15.6755V83.6986ZM16.7634 103.53H15.9475V86.8598L16.7634 86.8845V103.53ZM17.159 85.131H16.5162V83.6492H17.159V85.131ZM17.4557 83.5751H18.1233V85.0816H17.4557V83.5751ZM18.3706 103.53H17.5793V86.8845L18.3706 86.9092V103.53ZM18.5436 83.501H19.1865V85.0816H18.5436V83.501ZM19.9777 103.53H19.1865V86.9339L19.9777 86.9586V103.53ZM20.398 85.1063H19.7057V83.5257H20.398V85.1063ZM20.8925 83.3775H21.6343V85.1063H20.8925V83.3775ZM21.8568 103.53H20.9914V86.9586L21.8568 86.9833V103.53ZM22.2772 83.2541H23.0931V85.0816H22.2772V83.2541ZM23.7607 103.53H22.8706V87.008L23.7607 87.0327V103.53ZM24.5519 85.0322H23.6123V83.1553H24.5519V85.0322ZM26.2332 85.0075H25.3184V83.0318H26.2332V85.0075ZM64.5079 74.3878L67.9942 75.1287V76.0425L64.5079 75.3263V74.3878ZM59.1673 47.8879V47.1223L64.2854 50.3329V51.0739L59.1673 47.8879ZM59.9585 83.8468H60.453V85.1804H59.9585V83.8468ZM49.1288 85.0075H48.214V83.0318H49.1288V85.0075ZM49.92 83.1553H50.8596V85.0322H49.92V83.1553ZM51.6013 103.53H50.7112V87.008L51.6013 86.9833V103.53ZM52.17 85.0816H51.3541V83.2541H52.17V85.0816ZM53.4804 103.53H52.6151V86.9833L53.4804 86.9586V103.53ZM53.5793 85.131H52.8376V83.4022H53.5793V85.131ZM54.0739 83.501H54.7662V85.0816H54.0739V83.501ZM55.2607 103.53H54.4695V86.9339L55.2607 86.9092V103.53ZM55.9035 85.1063H55.2607V83.5257H55.9035V85.1063ZM56.8678 103.53H56.0766V86.9092L56.8678 86.8845V103.53ZM57.0162 85.1063H56.3486V83.5998H57.0162V85.1063ZM57.3129 83.6245H57.9557V85.1063H57.3129V83.6245ZM58.4997 103.53H57.6837V86.8845L58.4997 86.8598V103.53ZM58.7964 85.1063H58.2771V83.6986H58.7964V85.1063ZM59.1425 83.8221H59.6618V85.131H59.1425V83.8221ZM61.3925 103.53H59.3403V86.8351L61.3925 86.7857V103.53ZM62.9502 103.53H62.159V86.7857L62.9502 86.761V103.53ZM64.5574 103.53H63.8156V86.761L64.5574 86.7363V103.53ZM68.2662 88.7615H65.126V86.7363H65.2497L65.2991 86.1436L66.1892 86.193L66.1645 85.8719V84.4148L65.2991 84.3407V85.5509H64.5326V75.6968L68.2662 76.4624V88.7615Z" fill="#58595B"/>
<path d="M67.7716 84.4891L66.9062 84.415V86.1685L67.7716 86.2673V84.4891Z" fill="#58595B"/>
<path d="M6.67578 86.2673L7.54117 86.1685V84.415L6.67578 84.4891V86.2673Z" fill="#58595B"/>
<path d="M10.6562 85.0322L11.4475 85.0569V83.1553H10.6562V85.0322Z" fill="#58595B"/>
<path d="M12.8797 84.9827V83.0811H12.0638L12.0391 85.0321L12.8797 84.9827Z" fill="#58595B"/>
<path d="M67.7716 80.7843L66.9062 80.6855V82.4637L67.7716 82.5378V80.7843Z" fill="#58595B"/>
<path d="M6.67578 82.5378L7.54117 82.4637V80.6855L6.67578 80.7843V82.5378Z" fill="#58595B"/>
<path d="M9.17398 80.4385L8.30859 80.5126V82.2908L9.17398 82.192V80.4385Z" fill="#58595B"/>
<path d="M10.6562 79.6483V81.5253L11.4227 81.4265V79.5742L10.6562 79.6483Z" fill="#58595B"/>
<path d="M12.8797 79.377L12.0391 79.4757V81.4021H12.8797V79.377Z" fill="#58595B"/>
<path d="M67.8224 77.5236L66.957 77.4248V79.203L67.8224 79.2771V77.5236Z" fill="#58595B"/>
<path d="M7.51578 77.4248L6.65039 77.5236V79.2771L7.51578 79.203V77.4248Z" fill="#58595B"/>
<path d="M66.1662 77.1288L65.3008 77.0547V78.8082L66.1662 78.907V77.1288Z" fill="#58595B"/>
<path d="M9.17398 77.0547L8.30859 77.1288V78.907L9.17398 78.8082V77.0547Z" fill="#58595B"/>
<path d="M56.8672 77.87L57.8067 78.0182L57.8315 76.1165L56.8672 75.9189V77.87Z" fill="#58595B"/>
<path d="M16.6647 78.0182L17.6042 77.87V75.9189L16.6152 76.1165L16.6647 78.0182Z" fill="#58595B"/>
<path d="M55.2617 77.6235L56.3002 77.7717V75.8206L55.2617 75.623V77.6235Z" fill="#58595B"/>
<path d="M18.1484 77.7717L19.2116 77.6235V75.623L18.1484 75.8206V77.7717Z" fill="#58595B"/>
<path d="M11.4481 75.5977L10.6816 75.7211V77.5981L11.4481 77.4746V75.5977Z" fill="#58595B"/>
<path d="M53.6289 77.376L54.6674 77.5983V75.5731L53.6289 75.3262V77.376Z" fill="#58595B"/>
<path d="M19.8047 77.5983L20.8184 77.376V75.3262L19.8047 75.5731V77.5983Z" fill="#58595B"/>
<path d="M62.4559 77.4504L62.4806 75.4746L61.6152 75.3018V77.3516L62.4559 77.4504Z" fill="#58595B"/>
<path d="M12.855 75.3018L11.9648 75.4746L11.9896 77.4504L12.855 77.3516V75.3018Z" fill="#58595B"/>
<path d="M52.9133 77.3016V75.2023L51.6771 74.9307L51.6523 77.0546L52.9133 77.3016Z" fill="#58595B"/>
<path d="M21.5586 77.3016L22.8196 77.0546L22.7701 74.9307L21.5586 75.2023V77.3016Z" fill="#58595B"/>
<path d="M17.6056 71.918L16.666 72.1649V74.116L17.6056 73.8937V71.918Z" fill="#58595B"/>
<path d="M56.3002 71.7941L55.2617 71.5225V73.5476L56.3002 73.7699V71.7941Z" fill="#58595B"/>
<path d="M18.1484 73.7699L19.2116 73.5476V71.5225L18.1484 71.7941V73.7699Z" fill="#58595B"/>
<path d="M11.4735 71.3008L10.6575 71.5971L10.6328 73.4741L11.4982 73.2518L11.4735 71.3008Z" fill="#58595B"/>
<path d="M54.6674 71.424L53.6289 71.1523V73.2269L54.6674 73.4986V71.424Z" fill="#58595B"/>
<path d="M19.8047 73.4986L20.8184 73.2269V71.1523L19.8047 71.424V73.4986Z" fill="#58595B"/>
<path d="M62.5307 73.2022V71.2512L61.5911 70.9795L61.5664 72.9553L62.5307 73.2022Z" fill="#58595B"/>
<path d="M12.881 70.9795L11.9414 71.2512V73.2022L12.881 72.9553V70.9795Z" fill="#58595B"/>
<path d="M52.912 70.9554L51.6016 70.585V72.7583L52.912 73.0794V70.9554Z" fill="#58595B"/>
<path d="M21.5586 73.0794L22.8443 72.7583V70.585L21.5586 70.9554V73.0794Z" fill="#58595B"/>
<path d="M17.6036 67.7939L16.6641 68.0903L16.6888 69.8438L17.6036 69.5968V67.7939Z" fill="#58595B"/>
<path d="M10.6562 69.8431L11.4722 69.6208L11.4227 67.7686L10.6562 68.0155V69.8431Z" fill="#58595B"/>
<path d="M56.3002 67.5958L55.2617 67.25V69.1764L56.3002 69.448V67.5958Z" fill="#58595B"/>
<path d="M18.1484 69.448L19.2116 69.1764V67.25L18.1484 67.5958V69.448Z" fill="#58595B"/>
<path d="M61.5664 69.275L62.4812 69.4973V67.5709L61.5664 67.1758V69.275Z" fill="#58595B"/>
<path d="M12.8797 67.1758L11.9648 67.5709V69.4973L12.8797 69.275V67.1758Z" fill="#58595B"/>
<path d="M54.6674 67.127L53.6289 66.7812V68.7817L54.6674 69.0781V67.127Z" fill="#58595B"/>
<path d="M19.8047 69.0781L20.8184 68.7817V66.7812L19.8047 67.127V69.0781Z" fill="#58595B"/>
<path d="M52.9133 66.4846L51.6028 66.04L51.5781 68.164L52.9133 68.5591V66.4846Z" fill="#58595B"/>
<path d="M21.5605 68.5591L22.8957 68.164L22.8463 66.04L21.5605 66.4846V68.5591Z" fill="#58595B"/>
<path d="M17.6043 64.04L16.6895 64.3611V66.2628L17.6043 65.9664V64.04Z" fill="#58595B"/>
<path d="M10.6562 65.966L11.4475 65.645L11.4722 63.8174L10.7057 64.1878L10.6562 65.966Z" fill="#58595B"/>
<path d="M56.3002 63.8177L55.2617 63.4473V65.423L56.3002 65.7688V63.8177Z" fill="#58595B"/>
<path d="M18.1484 65.7688L19.2116 65.423V63.4473L18.1484 63.8177V65.7688Z" fill="#58595B"/>
<path d="M61.5898 65.1256L62.5789 65.496V63.6685L61.5898 63.1992V65.1256Z" fill="#58595B"/>
<path d="M11.8945 65.496L12.8835 65.1256V63.1992L11.8945 63.6685V65.496Z" fill="#58595B"/>
<path d="M54.6674 63.2738L53.6289 62.9033V64.9532L54.6674 65.2742V63.2738Z" fill="#58595B"/>
<path d="M19.8047 65.2742L20.8184 64.9532V62.9033L19.8047 63.2738V65.2742Z" fill="#58595B"/>
<path d="M52.9114 62.5578L51.6504 62.1133L51.6998 64.2372L52.9114 64.6324V62.5578Z" fill="#58595B"/>
<path d="M21.5605 64.6324L22.7474 64.2372L22.7968 62.1133L21.5605 62.5578V64.6324Z" fill="#58595B"/>
<path d="M57.8809 60.508L56.8672 60.0635V62.0886L57.8562 62.5085L57.8809 60.508Z" fill="#58595B"/>
<path d="M16.5898 62.5085L17.6036 62.0886V60.0635L16.5898 60.508V62.5085Z" fill="#58595B"/>
<path d="M10.804 61.8169L11.4222 61.4959V59.4707L10.7793 59.8165L10.804 61.8169Z" fill="#58595B"/>
<path d="M56.3002 59.8159L55.2617 59.3467V61.4459L56.3002 61.8658V59.8159Z" fill="#58595B"/>
<path d="M18.1484 61.8658L19.2116 61.4459V59.3467L18.1484 59.8159V61.8658Z" fill="#58595B"/>
<path d="M61.6406 60.7546L62.506 61.2239V59.1987L61.6406 58.7295V60.7546Z" fill="#58595B"/>
<path d="M11.9648 61.2239L12.8055 60.7546V58.7295L11.9648 59.1987V61.2239Z" fill="#58595B"/>
<path d="M54.6674 59.1249L53.6289 58.7051V60.8537L54.6674 61.2489V59.1249Z" fill="#58595B"/>
<path d="M19.8047 61.2489L20.8184 60.8537V58.7051L19.8047 59.1249V61.2489Z" fill="#58595B"/>
<path d="M52.912 58.2605L51.7005 57.7666L51.6758 59.9893L52.912 60.4833V58.2605Z" fill="#58595B"/>
<path d="M21.5605 60.4833L22.7721 59.9893L22.7474 57.7666L21.5605 58.2605V60.4833Z" fill="#58595B"/>
<path d="M56.8672 58.2848L57.8315 58.7787V56.7042L56.8672 56.1855V58.2848Z" fill="#58595B"/>
<path d="M16.6152 58.7787L17.6042 58.2848V56.1855L16.6152 56.7042V58.7787Z" fill="#58595B"/>
<path d="M10.8047 58.2112L11.4228 57.8654V55.8896L10.8047 56.2354V58.2112Z" fill="#58595B"/>
<path d="M56.3002 55.8646L55.2617 55.3213V57.4452L56.3002 57.9886V55.8646Z" fill="#58595B"/>
<path d="M18.1484 57.9886L19.2116 57.4452V55.3213L18.1484 55.8646V57.9886Z" fill="#58595B"/>
<path d="M61.6406 57.1248L62.506 57.594V55.5935L61.6406 55.0996V57.1248Z" fill="#58595B"/>
<path d="M11.9648 57.594L12.8055 57.1248V55.0996L11.9648 55.5935V57.594Z" fill="#58595B"/>
<path d="M54.6674 55.0252L53.6289 54.5312V56.6799L54.6674 57.1738V55.0252Z" fill="#58595B"/>
<path d="M19.8047 57.1738L20.8184 56.6799V54.5312L19.8047 55.0252V57.1738Z" fill="#58595B"/>
<path d="M52.9107 54.0131L51.6497 53.2969L51.625 55.5443L52.9107 56.1617V54.0131Z" fill="#58595B"/>
<path d="M21.5586 56.1617L22.8196 55.5443L22.7949 53.2969L21.5586 54.0131V56.1617Z" fill="#58595B"/>
<path d="M56.8672 54.5559L57.8315 55.0745V52.9753L56.8672 52.4072V54.5559Z" fill="#58595B"/>
<path d="M16.6152 55.0745L17.6042 54.5559V52.4072L16.6152 52.9753V55.0745Z" fill="#58595B"/>
<path d="M11.4215 52.0117L10.8281 52.3822V54.3085L11.4215 53.9628V52.0117Z" fill="#58595B"/>
<path d="M56.3002 52.1113L55.2617 51.5186V53.6672L56.3002 54.2352V52.1113Z" fill="#58595B"/>
<path d="M18.1484 54.2352L19.2116 53.6672V51.5186L18.1484 52.1113V54.2352Z" fill="#58595B"/>
<path d="M62.506 51.6912L61.6406 51.1973V52.9754V53.173L62.506 53.667V51.6912Z" fill="#58595B"/>
<path d="M12.8055 52.9754V51.1973L11.9648 51.6912V53.667L12.8055 53.173V52.9754Z" fill="#58595B"/>
<path d="M54.6674 51.2218L53.6289 50.7031V52.9012L54.6674 53.3951V51.2218Z" fill="#58595B"/>
<path d="M19.8047 53.3951L20.8184 52.9012V50.7031L19.8047 51.2218V53.3951Z" fill="#58595B"/>
<path d="M14.2658 50.333L13.4004 50.8516V52.8274L14.2658 52.3335V50.333Z" fill="#58595B"/>
<path d="M52.912 50.1359L51.6016 49.4443L51.6263 51.7165L52.912 52.3586V50.1359Z" fill="#58595B"/>
<path d="M21.5586 52.3586L22.8196 51.7165L22.8443 49.4443L21.5586 50.1359V52.3586Z" fill="#58595B"/>
<path d="M16.1453 49.2207L15.2305 49.764V51.7645L16.1453 51.2459V49.2207Z" fill="#58595B"/>
<path d="M57.8315 48.9245L56.8672 48.3564V50.431L57.8315 50.9743V48.9245Z" fill="#58595B"/>
<path d="M17.6042 48.3564L16.6152 48.9245V50.9743L17.6042 50.431V48.3564Z" fill="#58595B"/>
<path d="M56.3002 48.0367L55.2617 47.3945V49.4938L56.3002 50.1112V48.0367Z" fill="#58595B"/>
<path d="M19.2116 47.3945L18.1484 48.0367V50.1112L19.2116 49.4938V47.3945Z" fill="#58595B"/>
<path d="M54.6674 47.097L53.6289 46.5537V48.653L54.6674 49.1963V47.097Z" fill="#58595B"/>
<path d="M20.8184 46.5537L19.8047 47.097V49.1963L20.8184 48.653V46.5537Z" fill="#58595B"/>
<path d="M52.912 45.9373L51.6758 45.2705V47.4438L52.912 48.086V45.9373Z" fill="#58595B"/>
<path d="M21.5586 45.9373V48.086L22.7701 47.4438V45.2705L21.5586 45.9373Z" fill="#58595B"/>
<path d="M57.6602 44.3317L58.4514 44.875V41.6891L57.6602 41.1211V44.3317Z" fill="#58595B"/>
<path d="M16.7899 44.3317V41.1211L16.0234 41.6891V44.875L16.7899 44.3317Z" fill="#58595B"/>
<path d="M56.2246 43.2939L57.3125 44.0595V40.8489L56.2246 40.0586V43.2939Z" fill="#58595B"/>
<path d="M17.1602 44.0595L18.2481 43.2939V40.0586L17.1602 40.8489V44.0595Z" fill="#58595B"/>
<path d="M54.543 42.1092L55.8534 43.023V39.7877L54.543 38.7998V42.1092Z" fill="#58595B"/>
<path d="M18.5918 43.023L19.9022 42.1092V38.7998L18.5918 39.7877V43.023Z" fill="#58595B"/>
<path d="M52.8867 40.9239L54.0983 41.7883V38.4789L52.8867 37.5898V40.9239Z" fill="#58595B"/>
<path d="M20.3477 41.7883L21.5592 40.9239V37.5898L20.3477 38.4789V41.7883Z" fill="#58595B"/>
<path d="M57.6602 40.3055L58.4761 40.9229L58.4514 37.7617L57.6602 37.1689V40.3055Z" fill="#58595B"/>
<path d="M16.7873 37.1689L16.0208 37.7617L15.9961 40.9229L16.7873 40.3055V37.1689Z" fill="#58595B"/>
<path d="M52.3172 40.5283V37.1695L51.4765 36.5273L51.4023 39.8614L52.3172 40.5283Z" fill="#58595B"/>
<path d="M22.1289 40.5283L23.0437 39.8614L22.9696 36.5273L22.1289 37.1695V40.5283Z" fill="#58595B"/>
<path d="M56.2246 39.2191L57.3125 40.0341V36.8729L56.2246 36.0332V39.2191Z" fill="#58595B"/>
<path d="M18.2481 36.0332L17.1602 36.8729V40.0341L18.2481 39.2191V36.0332Z" fill="#58595B"/>
<path d="M52.8867 36.7004L54.0983 37.6142V34.3789L52.8867 33.4404V36.7004Z" fill="#58595B"/>
<path d="M57.6602 36.428L58.4514 37.0701V33.8101L57.6602 33.168V36.428Z" fill="#58595B"/>
<path d="M51.4525 35.6131L52.3178 36.2799V32.9952L51.4277 32.3037L51.4525 35.6131Z" fill="#58595B"/>
<path d="M56.2246 35.2671L57.3125 36.1315V32.8715L56.2246 31.9824V35.2671Z" fill="#58595B"/>
<path d="M52.8867 32.5763L54.0983 33.5395V30.2301L52.8867 29.2422V32.5763Z" fill="#58595B"/>
<path d="M51.4525 31.39L52.3178 32.1063V28.7722L51.4277 28.0312L51.4525 31.39Z" fill="#58595B"/>
<path d="M55.8534 23.7336L54.543 22.5234V25.5859L55.8534 26.7219V23.7336Z" fill="#58595B"/>
<path d="M54.543 29.5375L55.8534 30.6241V27.4876L54.543 26.3516V29.5375Z" fill="#58595B"/>
<path d="M54.543 33.909L55.8534 34.971V31.6863L54.543 30.5996V33.909Z" fill="#58595B"/>
<path d="M54.543 37.9596L55.8534 38.9475V35.7616L54.543 34.749V37.9596Z" fill="#58595B"/>
<path d="M21.5592 33.4404L20.3477 34.3789V37.6142L21.5592 36.7004V33.4404Z" fill="#58595B"/>
<path d="M16.7899 33.168L16.0234 33.8101V37.0701L16.7899 36.428V33.168Z" fill="#58595B"/>
<path d="M22.1289 36.2799L22.9943 35.6131L23.019 32.3037L22.1289 32.9952V36.2799Z" fill="#58595B"/>
<path d="M18.2481 31.9824L17.1602 32.8715V36.1315L18.2481 35.2671V31.9824Z" fill="#58595B"/>
<path d="M21.5592 29.2422L20.3477 30.2301V33.5395L21.5592 32.5763V29.2422Z" fill="#58595B"/>
<path d="M57.6602 32.1558L58.4514 32.7979V29.7108L57.6602 29.0439V32.1558Z" fill="#58595B"/>
<path d="M22.1289 32.1063L22.9943 31.39L23.019 28.0312L22.1289 28.7722V32.1063Z" fill="#58595B"/>
<path d="M56.2246 30.9464L57.3125 31.8355V28.7236L56.2246 27.7852V30.9464Z" fill="#58595B"/>
<path d="M58.4514 26.1049L57.6602 25.3887V28.3276L58.4514 29.0191V26.1049Z" fill="#58595B"/>
<path d="M51.4785 26.9443L52.3192 27.6605V24.4252L51.4785 23.709V26.9443Z" fill="#58595B"/>
<path d="M54.0983 22.1287L52.8867 21.042V24.1044L54.0983 25.1911V22.1287Z" fill="#58595B"/>
<path d="M52.8867 28.1543L54.0983 29.1668V25.9809L52.8867 24.9189V28.1543Z" fill="#58595B"/>
<path d="M57.3125 25.0673L56.2246 24.0547V27.043L57.3125 28.0062V25.0673Z" fill="#58595B"/>
<path d="M19.9042 22.5234L18.5938 23.7336V26.7219L19.9042 25.5859V22.5234Z" fill="#58595B"/>
<path d="M19.9022 26.3516L18.5918 27.4876V30.6241L19.9022 29.5375V26.3516Z" fill="#58595B"/>
<path d="M19.9022 30.5996L18.5918 31.6863V34.971L19.9022 33.909V30.5996Z" fill="#58595B"/>
<path d="M19.9022 34.749L18.5918 35.7616V38.9475L19.9022 37.9596V34.749Z" fill="#58595B"/>
<path d="M16.7899 29.0439L16.0234 29.7108V32.7979L16.7899 32.1558V29.0439Z" fill="#58595B"/>
<path d="M18.2481 27.7852L17.1602 28.7236V31.8355L18.2481 30.9464V27.7852Z" fill="#58595B"/>
<path d="M16.7899 25.3887L16.0234 26.1049V29.0191L16.7899 28.3276V25.3887Z" fill="#58595B"/>
<path d="M22.1289 27.6605L22.9696 26.9443V23.709L22.1289 24.4252V27.6605Z" fill="#58595B"/>
<path d="M21.5592 21.042L20.3477 22.1287V25.1911L21.5592 24.1044V21.042Z" fill="#58595B"/>
<path d="M21.5592 24.9189L20.3477 25.9809V29.1668L21.5592 28.1543V24.9189Z" fill="#58595B"/>
<path d="M18.2481 24.0547L17.1602 25.0673V28.0062L18.2481 27.043V24.0547Z" fill="#58595B"/>
<path d="M52.3192 20.5233L51.5774 19.8564L51.4785 22.8448L52.3192 23.6104V20.5233Z" fill="#58595B"/>
<path d="M22.8707 19.8564L22.1289 20.5233V23.6104L22.9696 22.8448L22.8707 19.8564Z" fill="#58595B"/>
<path d="M41.7612 79.8457H40.8711V82.6365H41.7612V79.8457Z" fill="#231F20"/>
<path d="M33.478 79.8457H32.5879V82.6365H33.478V79.8457Z" fill="#231F20"/>
<path d="M41.7612 74.8564H40.8711V78.4622H41.7612V74.8564Z" fill="#231F20"/>
<path d="M33.478 74.8564H32.5879V78.4622H33.478V74.8564Z" fill="#231F20"/>
<path d="M41.7612 71.1768H40.8711V73.4489H41.7612V71.1768Z" fill="#231F20"/>
<path d="M33.478 71.1768H32.5879V73.4489H33.478V71.1768Z" fill="#231F20"/>
<path d="M41.7612 66.6074H40.8711V69.7933H41.7612V66.6074Z" fill="#231F20"/>
<path d="M33.478 66.6074H32.5879V69.7933H33.478V66.6074Z" fill="#231F20"/>
<path d="M41.7612 62.2119H40.8711V65.225H41.7612V62.2119Z" fill="#231F20"/>
<path d="M33.478 62.2119H32.5879V65.225H33.478V62.2119Z" fill="#231F20"/>
<path d="M41.7612 57.2227H40.8711V60.8284H41.7612V57.2227Z" fill="#231F20"/>
<path d="M33.478 57.2227H32.5879V60.8284H33.478V57.2227Z" fill="#231F20"/>
<path d="M41.7612 52.9258H40.8711V55.84H41.7612V52.9258Z" fill="#231F20"/>
<path d="M33.478 52.9258H32.5879V55.84H33.478V52.9258Z" fill="#231F20"/>
<path d="M41.7612 48.3564H40.8711V51.5424H41.7612V48.3564Z" fill="#231F20"/>
<path d="M33.478 48.3564H32.5879V51.5424H33.478V48.3564Z" fill="#231F20"/>
<path d="M41.7612 43.9609H40.8711V46.974H41.7612V43.9609Z" fill="#231F20"/>
<path d="M33.478 43.9609H32.5879V46.974H33.478V43.9609Z" fill="#231F20"/>
<path d="M41.7612 38.9717H40.8711V42.5774H41.7612V38.9717Z" fill="#231F20"/>
<path d="M33.478 38.9717H32.5879V42.5774H33.478V38.9717Z" fill="#231F20"/>
<path d="M44.3335 35.7861H43.4434V82.6117H44.3335V35.7861Z" fill="#231F20"/>
<path d="M41.7612 35.7861H40.8711V37.5643H41.7612V35.7861Z" fill="#231F20"/>
<path d="M39.1401 35.7861H38.25V82.6117H39.1401V35.7861Z" fill="#231F20"/>
<path d="M36.1714 35.7861H35.2812V82.6117H36.1714V35.7861Z" fill="#231F20"/>
<path d="M33.478 35.7861H32.5879V37.5643H33.478V35.7861Z" fill="#231F20"/>
<path d="M30.685 35.7861H29.7949V82.6117H30.685V35.7861Z" fill="#231F20"/>
<path d="M44.3335 15.1641H43.4434V33.3658H44.3335V15.1641Z" fill="#231F20"/>
<path d="M41.7612 15.1641H40.8711V33.3658H41.7612V15.1641Z" fill="#231F20"/>
<path d="M39.1401 15.1641H38.25V33.3658H39.1401V15.1641Z" fill="#231F20"/>
<path d="M36.1714 15.1641H35.2812V33.3658H36.1714V15.1641Z" fill="#231F20"/>
<path d="M33.478 15.1641H32.5879V33.3658H33.478V15.1641Z" fill="#231F20"/>
<path d="M30.685 15.1641H29.7949V33.3658H30.685V15.1641Z" fill="#231F20"/>
<path d="M45.4946 87.0567V83.772H45.4451V34.9214H45.6429C45.816 34.9214 45.9891 34.7732 45.9891 34.5756C45.9891 34.378 45.8407 34.2298 45.6429 34.2298H45.4451V12.7188H45.1484V34.2298H29.1017V12.7188H28.805V34.2298H28.632C28.4342 34.2298 28.2858 34.378 28.2858 34.5756C28.2858 34.7732 28.4342 34.9214 28.632 34.9214H28.805V83.772H28.7803V87.0567H27.1484V88.8102H29.1512V103.381H31.3023V88.8102H33.8984V103.381H36.0495V88.8102H38.5715V103.381H40.7226V88.8102H43.2446V103.381H45.3957V88.8102H47.2254V87.0567H45.4946ZM29.1017 34.9214H45.1484V83.772H29.1017V34.9214ZM45.1732 87.0567H29.0523V86.6369H29.9424V84.4882H31.3023V86.6369H32.4644V84.4882H33.8243V86.6369H35.0852V84.4882H36.4451V86.6369H37.805V84.4882H39.1649V86.6369H40.5001V84.4882H41.86V86.6369H43.121V84.4882H44.4809V86.6369H45.099V87.0567H45.1732Z" fill="#231F20"/>
<path d="M28.1372 12.1261H45.8899C46.0877 12.1261 46.2361 11.9779 46.2361 11.7803C46.2361 11.5828 46.0877 11.4346 45.8899 11.4346H28.1372C27.9394 11.4346 27.791 11.5828 27.791 11.7803C27.791 11.9779 27.9394 12.1261 28.1372 12.1261Z" fill="#231F20"/>
<path d="M46.0874 6.98926H28.2852V7.80426H30.7082V10.7432H31.1533V7.80426H32.0681V10.7432H32.5132V7.80426H33.428V10.7432H33.8731V7.80426H34.7879V10.7432H35.233V7.80426H36.1231V10.7432H36.5681V7.80426H37.5819V10.7432H38.0269V7.80426H38.917V10.7432H39.3868V7.80426H40.2769V10.7432H40.722V7.80426H41.7357V10.7432H42.1808V7.80426H43.1698V10.7432H43.6148V7.80426H46.0874V6.98926Z" fill="#231F20"/>
<path d="M73.2115 0.864395V107.16H0.840659V0.864395H73.2115ZM74.0522 0H0V107.975H74.0522V0Z" fill="url(#paint37_linear_349_29133)"/>
</g>
<defs>
<linearGradient id="paint0_linear_349_29133" x1="0.423938" y1="103.537" x2="67.6937" y2="2.68253" gradientUnits="userSpaceOnUse">
<stop stop-color="#DBAE27"/>
<stop offset="0.29" stop-color="#FFDD00"/>
<stop offset="0.63" stop-color="#DBAE27"/>
<stop offset="1" stop-color="#FFDD00"/>
</linearGradient>
<linearGradient id="paint1_linear_349_29133" x1="33.8855" y1="125.855" x2="101.155" y2="25.0008" gradientUnits="userSpaceOnUse">
<stop stop-color="#DBAE27"/>
<stop offset="0.29" stop-color="#FFDD00"/>
<stop offset="0.63" stop-color="#DBAE27"/>
<stop offset="1" stop-color="#FFDD00"/>
</linearGradient>
<linearGradient id="paint2_linear_349_29133" x1="45.2015" y1="133.403" x2="112.471" y2="32.5485" gradientUnits="userSpaceOnUse">
<stop stop-color="#DBAE27"/>
<stop offset="0.29" stop-color="#FFDD00"/>
<stop offset="0.63" stop-color="#DBAE27"/>
<stop offset="1" stop-color="#FFDD00"/>
</linearGradient>
<linearGradient id="paint3_linear_349_29133" x1="27.4292" y1="121.546" x2="94.699" y2="20.6959" gradientUnits="userSpaceOnUse">
<stop stop-color="#DBAE27"/>
<stop offset="0.29" stop-color="#FFDD00"/>
<stop offset="0.63" stop-color="#DBAE27"/>
<stop offset="1" stop-color="#FFDD00"/>
</linearGradient>
<linearGradient id="paint4_linear_349_29133" x1="16.8049" y1="114.502" x2="84.1043" y2="13.6057" gradientUnits="userSpaceOnUse">
<stop stop-color="#DBAE27"/>
<stop offset="0.29" stop-color="#FFDD00"/>
<stop offset="0.63" stop-color="#DBAE27"/>
<stop offset="1" stop-color="#FFDD00"/>
</linearGradient>
<linearGradient id="paint5_linear_349_29133" x1="19.8399" y1="116.488" x2="87.1121" y2="15.6332" gradientUnits="userSpaceOnUse">
<stop stop-color="#DBAE27"/>
<stop offset="0.29" stop-color="#FFDD00"/>
<stop offset="0.63" stop-color="#DBAE27"/>
<stop offset="1" stop-color="#FFDD00"/>
</linearGradient>
<linearGradient id="paint6_linear_349_29133" x1="16.7332" y1="114.401" x2="83.9981" y2="13.5587" gradientUnits="userSpaceOnUse">
<stop stop-color="#DBAE27"/>
<stop offset="0.29" stop-color="#FFDD00"/>
<stop offset="0.63" stop-color="#DBAE27"/>
<stop offset="1" stop-color="#FFDD00"/>
</linearGradient>
<linearGradient id="paint7_linear_349_29133" x1="-31.0093" y1="82.5715" x2="36.2654" y2="-18.288" gradientUnits="userSpaceOnUse">
<stop stop-color="#DBAE27"/>
<stop offset="0.29" stop-color="#FFDD00"/>
<stop offset="0.63" stop-color="#DBAE27"/>
<stop offset="1" stop-color="#FFDD00"/>
</linearGradient>
<linearGradient id="paint8_linear_349_29133" x1="-28.8211" y1="84.0288" x2="38.4536" y2="-16.8307" gradientUnits="userSpaceOnUse">
<stop stop-color="#DBAE27"/>
<stop offset="0.29" stop-color="#FFDD00"/>
<stop offset="0.63" stop-color="#DBAE27"/>
<stop offset="1" stop-color="#FFDD00"/>
</linearGradient>
<linearGradient id="paint9_linear_349_29133" x1="-26.4648" y1="85.6022" x2="40.8075" y2="-15.2549" gradientUnits="userSpaceOnUse">
<stop stop-color="#DBAE27"/>
<stop offset="0.29" stop-color="#FFDD00"/>
<stop offset="0.63" stop-color="#DBAE27"/>
<stop offset="1" stop-color="#FFDD00"/>
</linearGradient>
<linearGradient id="paint10_linear_349_29133" x1="-23.8167" y1="87.3704" x2="43.458" y2="-13.4866" gradientUnits="userSpaceOnUse">
<stop stop-color="#DBAE27"/>
<stop offset="0.29" stop-color="#FFDD00"/>
<stop offset="0.63" stop-color="#DBAE27"/>
<stop offset="1" stop-color="#FFDD00"/>
</linearGradient>
<linearGradient id="paint11_linear_349_29133" x1="-20.825" y1="89.3655" x2="46.4498" y2="-11.4916" gradientUnits="userSpaceOnUse">
<stop stop-color="#DBAE27"/>
<stop offset="0.29" stop-color="#FFDD00"/>
<stop offset="0.63" stop-color="#DBAE27"/>
<stop offset="1" stop-color="#FFDD00"/>
</linearGradient>
<linearGradient id="paint12_linear_349_29133" x1="-17.3164" y1="91.7028" x2="49.9558" y2="-9.15178" gradientUnits="userSpaceOnUse">
<stop stop-color="#DBAE27"/>
<stop offset="0.29" stop-color="#FFDD00"/>
<stop offset="0.63" stop-color="#DBAE27"/>
<stop offset="1" stop-color="#FFDD00"/>
</linearGradient>
<linearGradient id="paint13_linear_349_29133" x1="-10.4354" y1="96.2932" x2="56.8369" y2="-4.56146" gradientUnits="userSpaceOnUse">
<stop stop-color="#DBAE27"/>
<stop offset="0.29" stop-color="#FFDD00"/>
<stop offset="0.63" stop-color="#DBAE27"/>
<stop offset="1" stop-color="#FFDD00"/>
</linearGradient>
<linearGradient id="paint14_linear_349_29133" x1="-16.6347" y1="92.1568" x2="50.6351" y2="-8.69539" gradientUnits="userSpaceOnUse">
<stop stop-color="#DBAE27"/>
<stop offset="0.29" stop-color="#FFDD00"/>
<stop offset="0.63" stop-color="#DBAE27"/>
<stop offset="1" stop-color="#FFDD00"/>
</linearGradient>
<linearGradient id="paint15_linear_349_29133" x1="13.9732" y1="112.559" x2="81.2355" y2="11.717" gradientUnits="userSpaceOnUse">
<stop stop-color="#DBAE27"/>
<stop offset="0.29" stop-color="#FFDD00"/>
<stop offset="0.63" stop-color="#DBAE27"/>
<stop offset="1" stop-color="#FFDD00"/>
</linearGradient>
<linearGradient id="paint16_linear_349_29133" x1="8.36158" y1="109.923" x2="76.2016" y2="8.21609" gradientUnits="userSpaceOnUse">
<stop stop-color="#DBAE27"/>
<stop offset="0.29" stop-color="#FFDD00"/>
<stop offset="0.63" stop-color="#DBAE27"/>
<stop offset="1" stop-color="#FFDD00"/>
</linearGradient>
<linearGradient id="paint17_linear_349_29133" x1="11.6632" y1="111.03" x2="78.9329" y2="10.1777" gradientUnits="userSpaceOnUse">
<stop stop-color="#DBAE27"/>
<stop offset="0.29" stop-color="#FFDD00"/>
<stop offset="0.63" stop-color="#DBAE27"/>
<stop offset="1" stop-color="#FFDD00"/>
</linearGradient>
<linearGradient id="paint18_linear_349_29133" x1="-33.2222" y1="81.0954" x2="34.0501" y2="-19.7617" gradientUnits="userSpaceOnUse">
<stop stop-color="#DBAE27"/>
<stop offset="0.29" stop-color="#FFDD00"/>
<stop offset="0.63" stop-color="#DBAE27"/>
<stop offset="1" stop-color="#FFDD00"/>
</linearGradient>
<linearGradient id="paint19_linear_349_29133" x1="-32.0181" y1="81.8956" x2="35.2517" y2="-18.9566" gradientUnits="userSpaceOnUse">
<stop stop-color="#DBAE27"/>
<stop offset="0.29" stop-color="#FFDD00"/>
<stop offset="0.63" stop-color="#DBAE27"/>
<stop offset="1" stop-color="#FFDD00"/>
</linearGradient>
<linearGradient id="paint20_linear_349_29133" x1="-35.9519" y1="79.2674" x2="31.3154" y2="-21.5823" gradientUnits="userSpaceOnUse">
<stop stop-color="#DBAE27"/>
<stop offset="0.29" stop-color="#FFDD00"/>
<stop offset="0.63" stop-color="#DBAE27"/>
<stop offset="1" stop-color="#FFDD00"/>
</linearGradient>
<linearGradient id="paint21_linear_349_29133" x1="-34.456" y1="80.2658" x2="32.8113" y2="-20.5839" gradientUnits="userSpaceOnUse">
<stop stop-color="#DBAE27"/>
<stop offset="0.29" stop-color="#FFDD00"/>
<stop offset="0.63" stop-color="#DBAE27"/>
<stop offset="1" stop-color="#FFDD00"/>
</linearGradient>
<linearGradient id="paint22_linear_349_29133" x1="0.427528" y1="103.537" x2="67.6973" y2="2.6849" gradientUnits="userSpaceOnUse">
<stop stop-color="#DBAE27"/>
<stop offset="0.29" stop-color="#FFDD00"/>
<stop offset="0.63" stop-color="#DBAE27"/>
<stop offset="1" stop-color="#FFDD00"/>
</linearGradient>
<linearGradient id="paint23_linear_349_29133" x1="3.02784" y1="105.273" x2="70.3001" y2="4.41839" gradientUnits="userSpaceOnUse">
<stop stop-color="#DBAE27"/>
<stop offset="0.29" stop-color="#FFDD00"/>
<stop offset="0.63" stop-color="#DBAE27"/>
<stop offset="1" stop-color="#FFDD00"/>
</linearGradient>
<linearGradient id="paint24_linear_349_29133" x1="6.04334" y1="107.288" x2="73.3181" y2="6.42862" gradientUnits="userSpaceOnUse">
<stop stop-color="#DBAE27"/>
<stop offset="0.29" stop-color="#FFDD00"/>
<stop offset="0.63" stop-color="#DBAE27"/>
<stop offset="1" stop-color="#FFDD00"/>
</linearGradient>
<linearGradient id="paint25_linear_349_29133" x1="-20.4461" y1="89.6253" x2="46.8311" y2="-11.2367" gradientUnits="userSpaceOnUse">
<stop stop-color="#DBAE27"/>
<stop offset="0.29" stop-color="#FFDD00"/>
<stop offset="0.63" stop-color="#DBAE27"/>
<stop offset="1" stop-color="#FFDD00"/>
</linearGradient>
<linearGradient id="paint26_linear_349_29133" x1="-18.0096" y1="91.2306" x2="49.2552" y2="-9.61661" gradientUnits="userSpaceOnUse">
<stop stop-color="#DBAE27"/>
<stop offset="0.29" stop-color="#FFDD00"/>
<stop offset="0.63" stop-color="#DBAE27"/>
<stop offset="1" stop-color="#FFDD00"/>
</linearGradient>
<linearGradient id="paint27_linear_349_29133" x1="-15.724" y1="92.7668" x2="51.5483" y2="-8.08785" gradientUnits="userSpaceOnUse">
<stop stop-color="#DBAE27"/>
<stop offset="0.29" stop-color="#FFDD00"/>
<stop offset="0.63" stop-color="#DBAE27"/>
<stop offset="1" stop-color="#FFDD00"/>
</linearGradient>
<linearGradient id="paint28_linear_349_29133" x1="-13.5832" y1="94.1868" x2="53.6866" y2="-6.66284" gradientUnits="userSpaceOnUse">
<stop stop-color="#DBAE27"/>
<stop offset="0.29" stop-color="#FFDD00"/>
<stop offset="0.63" stop-color="#DBAE27"/>
<stop offset="1" stop-color="#FFDD00"/>
</linearGradient>
<linearGradient id="paint29_linear_349_29133" x1="-10.5648" y1="96.2021" x2="56.7025" y2="-4.65003" gradientUnits="userSpaceOnUse">
<stop stop-color="#DBAE27"/>
<stop offset="0.29" stop-color="#FFDD00"/>
<stop offset="0.63" stop-color="#DBAE27"/>
<stop offset="1" stop-color="#FFDD00"/>
</linearGradient>
<linearGradient id="paint30_linear_349_29133" x1="-6.68918" y1="98.7903" x2="60.5806" y2="-2.06427" gradientUnits="userSpaceOnUse">
<stop stop-color="#DBAE27"/>
<stop offset="0.29" stop-color="#FFDD00"/>
<stop offset="0.63" stop-color="#DBAE27"/>
<stop offset="1" stop-color="#FFDD00"/>
</linearGradient>
<linearGradient id="paint31_linear_349_29133" x1="-2.73141" y1="101.43" x2="64.5409" y2="0.578315" gradientUnits="userSpaceOnUse">
<stop stop-color="#DBAE27"/>
<stop offset="0.29" stop-color="#FFDD00"/>
<stop offset="0.63" stop-color="#DBAE27"/>
<stop offset="1" stop-color="#FFDD00"/>
</linearGradient>
<linearGradient id="paint32_linear_349_29133" x1="-26.6702" y1="85.454" x2="40.5946" y2="-15.3932" gradientUnits="userSpaceOnUse">
<stop stop-color="#DBAE27"/>
<stop offset="0.29" stop-color="#FFDD00"/>
<stop offset="0.63" stop-color="#DBAE27"/>
<stop offset="1" stop-color="#FFDD00"/>
</linearGradient>
<linearGradient id="paint33_linear_349_29133" x1="-24.6482" y1="86.8074" x2="42.6216" y2="-14.0423" gradientUnits="userSpaceOnUse">
<stop stop-color="#DBAE27"/>
<stop offset="0.29" stop-color="#FFDD00"/>
<stop offset="0.63" stop-color="#DBAE27"/>
<stop offset="1" stop-color="#FFDD00"/>
</linearGradient>
<linearGradient id="paint34_linear_349_29133" x1="-22.8189" y1="88.0323" x2="44.4509" y2="-12.8223" gradientUnits="userSpaceOnUse">
<stop stop-color="#DBAE27"/>
<stop offset="0.29" stop-color="#FFDD00"/>
<stop offset="0.63" stop-color="#DBAE27"/>
<stop offset="1" stop-color="#FFDD00"/>
</linearGradient>
<linearGradient id="paint35_linear_349_29133" x1="-29.3342" y1="83.6807" x2="37.9356" y2="-17.169" gradientUnits="userSpaceOnUse">
<stop stop-color="#DBAE27"/>
<stop offset="0.29" stop-color="#FFDD00"/>
<stop offset="0.63" stop-color="#DBAE27"/>
<stop offset="1" stop-color="#FFDD00"/>
</linearGradient>
<linearGradient id="paint36_linear_349_29133" x1="-33.0279" y1="81.2234" x2="34.2443" y2="-19.6337" gradientUnits="userSpaceOnUse">
<stop stop-color="#DBAE27"/>
<stop offset="0.29" stop-color="#FFDD00"/>
<stop offset="0.63" stop-color="#DBAE27"/>
<stop offset="1" stop-color="#FFDD00"/>
</linearGradient>
<linearGradient id="paint37_linear_349_29133" x1="37.0261" y1="107.975" x2="37.0261" y2="0.884153" gradientUnits="userSpaceOnUse">
<stop stop-color="#58595B"/>
<stop offset="0.25" stop-color="#A6A8AB"/>
<stop offset="0.54" stop-color="#808184"/>
<stop offset="0.77" stop-color="#D0D2D3"/>
<stop offset="1" stop-color="#929497"/>
</linearGradient>
<clipPath id="clip0_349_29133">
<rect width="207" height="108" fill="white"/>
</clipPath>
</defs>
</svg>
