<svg width="207" height="108" viewBox="0 0 207 108" fill="none" xmlns="http://www.w3.org/2000/svg">
<path d="M106.904 104.428H100.066V106.135H106.904V104.428Z" fill="#713C2F"/>
<path d="M112.032 103.875H94.9375V104.645H112.032V103.875Z" fill="#713C2F"/>
<path d="M143.623 96.9615C143.556 97.5139 143.355 97.9324 143.02 98.2169C142.685 98.5183 142.232 98.6689 141.663 98.6689C141.059 98.6689 140.556 98.4513 140.188 98.0161C139.819 97.5808 139.635 96.995 139.635 96.2584V95.7562C139.635 95.2708 139.719 94.8523 139.886 94.484C140.054 94.1157 140.305 93.8479 140.607 93.647C140.925 93.4462 141.277 93.3625 141.696 93.3625C142.249 93.3625 142.685 93.5131 143.02 93.8144C143.355 94.1157 143.54 94.551 143.607 95.0866H142.92C142.869 94.6682 142.735 94.3836 142.534 94.1995C142.333 94.0153 142.065 93.9149 141.713 93.9149C141.277 93.9149 140.942 94.0823 140.691 94.4003C140.439 94.7184 140.322 95.1871 140.322 95.773V96.2752C140.322 96.8443 140.439 97.2795 140.674 97.6143C140.908 97.9491 141.244 98.1165 141.663 98.1165C142.048 98.1165 142.333 98.0328 142.534 97.8654C142.735 97.698 142.869 97.3967 142.936 96.9782H143.623V96.9615ZM135.596 96.2752H134.976V98.602H134.289V93.4462H134.976V95.7228H135.512L137.322 93.4462H138.177L136.199 95.9404L138.311 98.602H137.473L135.596 96.2752ZM132.026 96.2249H129.797V98.0496H132.395V98.602H129.11V93.4462H132.361V93.9986H129.797V95.6558H132.026V96.2249ZM126.864 93.4462V98.602H126.177V93.9986H124.334L124.25 96.0408C124.216 96.7271 124.149 97.246 124.032 97.5808C123.932 97.9324 123.764 98.1835 123.563 98.3341C123.362 98.5015 123.094 98.5852 122.742 98.5852H122.524V98.0328H122.658C122.876 98.0161 123.043 97.9491 123.161 97.8152C123.278 97.6813 123.362 97.4804 123.429 97.2126C123.496 96.928 123.529 96.5095 123.563 95.9404L123.663 93.4462H126.864ZM120.714 98.602H120.027V93.9986H117.479V98.602H116.792V93.4462H120.697V98.602H120.714ZM110.306 93.4462L111.999 97.6478L113.692 93.4462H114.58V98.602H113.876V96.5932L113.943 94.4338L112.25 98.602H111.731L110.038 94.4338L110.105 96.5932V98.602H109.418V93.4462H110.306ZM106.703 95.8567C106.703 95.254 106.586 94.7853 106.335 94.4505C106.083 94.1158 105.748 93.9651 105.296 93.9651C104.843 93.9651 104.525 94.1325 104.273 94.4505C104.022 94.7853 103.905 95.2373 103.888 95.8064V96.1915C103.888 96.7773 104.005 97.246 104.256 97.5808C104.508 97.9156 104.843 98.083 105.279 98.083C105.714 98.083 106.066 97.9156 106.301 97.5976C106.536 97.2795 106.67 96.8276 106.67 96.2249V95.8567H106.703ZM107.39 96.1915C107.39 96.6936 107.307 97.1456 107.139 97.5139C106.971 97.8989 106.737 98.1835 106.418 98.3843C106.1 98.5852 105.748 98.6857 105.329 98.6857C104.91 98.6857 104.558 98.5852 104.256 98.3843C103.938 98.1835 103.703 97.8989 103.519 97.5306C103.351 97.1624 103.251 96.7271 103.251 96.2417V95.8734C103.251 95.3712 103.335 94.936 103.502 94.551C103.67 94.166 103.921 93.8814 104.24 93.6805C104.558 93.4796 104.91 93.3792 105.329 93.3792C105.748 93.3792 106.1 93.4796 106.418 93.6805C106.737 93.8814 106.971 94.166 107.139 94.551C107.307 94.936 107.39 95.3712 107.39 95.8734V96.1915ZM99.1952 96.2752H98.5751V98.602H97.888V93.4462H98.5751V95.7228H99.1114L100.921 93.4462H101.776L99.7985 95.9404L101.91 98.602H101.072L99.1952 96.2752ZM92.9273 92.1572C92.9273 92.4418 92.8268 92.6762 92.6424 92.8603C92.4413 93.0277 92.1899 93.1281 91.8715 93.1281C91.5531 93.1281 91.3017 93.0444 91.1006 92.8603C90.8995 92.6929 90.7989 92.4585 90.7989 92.174H91.3352C91.3352 92.3414 91.3855 92.4753 91.4693 92.559C91.5531 92.6594 91.6872 92.6929 91.8715 92.6929C92.0391 92.6929 92.1732 92.6427 92.257 92.559C92.3575 92.4753 92.3911 92.3414 92.3911 92.174H92.9273V92.1572ZM93.1117 93.4462H93.7988V98.602H93.1117V94.6347L90.5643 98.602H89.8772V93.4462H90.5643V97.4134L93.1117 93.4462ZM87.1455 95.8567C87.1455 95.254 87.0282 94.7853 86.7768 94.4505C86.5254 94.1158 86.1902 93.9651 85.7377 93.9651C85.2852 93.9651 84.9668 94.1325 84.7154 94.4505C84.464 94.7853 84.3467 95.2373 84.33 95.8064V96.1915C84.33 96.7773 84.4473 97.246 84.6987 97.5808C84.95 97.9156 85.2852 98.083 85.721 98.083C86.1567 98.083 86.5086 97.9156 86.7433 97.5976C86.9779 97.2795 87.112 96.8276 87.112 96.2249V95.8567H87.1455ZM87.8326 96.1915C87.8326 96.6936 87.7488 97.1456 87.5812 97.5139C87.4136 97.8989 87.179 98.1835 86.8606 98.3843C86.5422 98.5852 86.1902 98.6857 85.7712 98.6857C85.3523 98.6857 85.0003 98.5852 84.6987 98.3843C84.3802 98.1835 84.1456 97.8989 83.9613 97.5306C83.7937 97.1624 83.6931 96.7271 83.6931 96.2417V95.8734C83.6931 95.3712 83.7769 94.936 83.9445 94.551C84.1121 94.166 84.3635 93.8814 84.6819 93.6805C85.0003 93.4796 85.3523 93.3792 85.7712 93.3792C86.1902 93.3792 86.5422 93.4796 86.8606 93.6805C87.179 93.8814 87.4136 94.166 87.5812 94.551C87.7488 94.936 87.8326 95.3712 87.8326 95.8734V96.1915ZM81.615 93.4462V98.602H80.9279V93.9986H79.0844L79.0006 96.0408C78.9671 96.7271 78.9 97.246 78.7827 97.5808C78.6822 97.9324 78.5146 98.1835 78.3135 98.3341C78.1124 98.5015 77.8442 98.5852 77.4923 98.5852H77.2744V98.0328H77.4085C77.6263 98.0161 77.7939 97.9491 77.9113 97.8152C78.0286 97.6813 78.1124 97.4804 78.1794 97.2126C78.2464 96.928 78.28 96.5095 78.3135 95.9404L78.414 93.4462H81.615ZM74.7103 93.4462H75.3974V98.602H74.7103V94.6347L72.1629 98.602H71.4758V93.4462H72.1629V97.4134L74.7103 93.4462ZM67.4871 96.2417H66.9341V98.602H66.247V96.2417H65.6604L64.2024 98.602H63.3477L65.0906 95.8901L63.4817 93.4462H64.2862L65.6604 95.6893H66.247V93.4462H66.9341V95.6893H67.4871L68.8614 93.4462H69.6658L68.0569 95.8734L69.7999 98.602H68.9452L67.4871 96.2417Z" fill="#713C2F"/>
<path fill-rule="evenodd" clip-rule="evenodd" d="M113.423 75.3508H107.021V80.8414C107.021 80.9586 107.038 81.0757 107.055 81.1762C107.071 81.2934 107.122 81.4105 107.172 81.511C107.222 81.6114 107.289 81.6951 107.356 81.7788C107.423 81.8458 107.49 81.8792 107.574 81.8792H107.758V82.2308H103.736V81.8792H103.921C104.004 81.8792 104.072 81.8458 104.139 81.7788C104.222 81.7118 104.289 81.6114 104.34 81.511C104.39 81.3938 104.44 81.2766 104.474 81.1594C104.49 81.0423 104.507 80.9251 104.507 80.8246V69.9272C104.507 69.8268 104.49 69.7096 104.474 69.6091C104.44 69.492 104.407 69.3915 104.356 69.2744C104.306 69.1739 104.239 69.0902 104.172 69.0233C104.105 68.9563 104.021 68.9228 103.937 68.9228H103.753V68.5713H107.775V68.9228H107.591C107.507 68.9228 107.423 68.9563 107.356 69.0233C107.272 69.0902 107.222 69.1739 107.172 69.2744C107.122 69.3748 107.088 69.492 107.071 69.6091C107.055 69.7096 107.038 69.81 107.038 69.9272V74.4804H113.44V69.9272C113.44 69.8268 113.423 69.7096 113.406 69.6091C113.373 69.492 113.339 69.3915 113.289 69.2744C113.239 69.1739 113.172 69.0902 113.105 69.0233C113.038 68.9563 112.954 68.9228 112.87 68.9228H112.686V68.5713H116.708V68.9228H116.523C116.44 68.9228 116.356 68.9563 116.289 69.0233C116.205 69.0902 116.155 69.1739 116.121 69.2744C116.071 69.3748 116.037 69.492 116.021 69.6091C116.004 69.7096 115.987 69.81 115.987 69.9272V80.8246C115.987 80.9418 116.004 81.059 116.037 81.1594C116.071 81.2766 116.104 81.3938 116.172 81.511C116.222 81.6114 116.272 81.6951 116.356 81.7788C116.406 81.8458 116.473 81.8792 116.557 81.8792H116.741V82.2308H112.719V81.8792H112.904C112.987 81.8792 113.054 81.8458 113.121 81.7788C113.205 81.7118 113.272 81.6114 113.322 81.511C113.373 81.3938 113.423 81.2766 113.457 81.1594C113.473 81.0423 113.49 80.9251 113.49 80.8246V75.3508H113.423Z" fill="#713C2F"/>
<path fill-rule="evenodd" clip-rule="evenodd" d="M91.9543 75.1667C90.2784 75.2839 89.0885 78.8996 88.4684 80.1551C88.3344 80.4062 88.217 80.674 88.0662 80.9083C87.9154 81.1594 87.7478 81.3771 87.5467 81.5779C87.3456 81.7788 87.1109 81.9295 86.8428 82.0466C86.5411 82.1806 86.1892 82.2308 85.854 82.2308H83.8262V81.8792H83.91C84.1614 81.8792 84.3792 81.7955 84.5803 81.6616C85.1669 81.2431 85.5859 80.4731 85.9043 79.837L87.5299 76.5561C87.8316 75.9534 88.217 75.401 88.7701 75.016C89.3567 74.5975 90.0773 74.4636 90.7979 74.4636H91.2169L87.7143 70.7809C87.1445 70.1783 85.854 68.9228 84.9825 68.9228H84.7982V68.5713H88.4517V68.9228H88.217C87.9657 68.9228 87.8316 69.107 87.8651 69.3413C87.8986 69.6761 88.3679 70.0778 88.5857 70.3289L91.9543 73.9447V69.9272C91.9543 69.8268 91.9375 69.7096 91.9208 69.6091C91.8873 69.492 91.8537 69.3915 91.8035 69.2744C91.7532 69.1739 91.6862 69.0902 91.6191 69.0233C91.5521 68.9563 91.4683 68.9228 91.3845 68.9228H91.2001V68.5713H95.2558V68.9228H95.0212C94.8369 68.9228 94.7028 69.1404 94.6357 69.2911C94.5519 69.4752 94.4849 69.7096 94.4849 69.9105V73.9279L98.2222 69.9439C98.4065 69.7431 98.8925 68.9228 98.306 68.9228H98.0713V68.5713H101.725V68.9228H101.54C100.753 68.9228 99.5126 69.9774 98.9931 70.5131L95.2558 74.4469H95.6748C96.3787 74.4469 97.1161 74.5808 97.7026 74.9993C98.2557 75.3843 98.6579 75.9367 98.9428 76.5393L100.568 79.8203C100.669 80.0212 100.77 80.222 100.887 80.4062C101.021 80.6405 101.172 80.8749 101.339 81.0757C101.507 81.2934 101.691 81.4775 101.909 81.6281C102.11 81.7788 102.328 81.8458 102.58 81.8458H102.663V82.1973H100.602C99.9484 82.1973 99.3953 82.0132 98.9261 81.5444C98.7249 81.3436 98.5574 81.126 98.4233 80.8749C98.2725 80.6238 98.1384 80.3559 98.0043 80.0881C97.3172 78.6987 96.4122 75.2002 94.5017 75.0997V80.7744C94.5017 80.8916 94.5184 80.992 94.5352 81.1092C94.5687 81.2264 94.6022 81.3436 94.6525 81.444C94.7028 81.5445 94.7531 81.6449 94.8369 81.7286C94.9039 81.7955 94.9709 81.829 95.0547 81.829H95.2726V82.1806H91.2169V81.829H91.4013C91.485 81.829 91.5688 81.7955 91.6359 81.7286C91.7197 81.6616 91.77 81.5612 91.8202 81.4608C91.8705 81.3436 91.904 81.2264 91.9375 81.1092C91.9543 80.992 91.9711 80.8749 91.9711 80.7744V75.1667H91.9543Z" fill="#713C2F"/>
<path fill-rule="evenodd" clip-rule="evenodd" d="M79.1674 71.7016L72.5309 80.674V80.8246C72.5309 80.9418 72.5476 81.059 72.5811 81.1594C72.6147 81.2766 72.6482 81.3938 72.7152 81.511C72.7655 81.6114 72.8325 81.6951 72.8996 81.7788C72.9666 81.8458 73.0336 81.8792 73.1342 81.8792H73.3185V82.2308H69.2461V81.8792H69.4304C69.5142 81.8792 69.598 81.8458 69.6651 81.7788C69.7489 81.7118 69.8159 81.6114 69.8662 81.511C69.9165 81.3938 69.9667 81.2766 70.0002 81.1594C70.017 81.0423 70.0338 80.9251 70.0338 80.8246V69.9272C70.0338 69.8268 70.017 69.7096 70.0002 69.6091C69.9667 69.492 69.9332 69.3915 69.8829 69.2744C69.8327 69.1739 69.7656 69.0902 69.6818 69.0233C69.6148 68.9563 69.531 68.9228 69.4472 68.9228H69.2629V68.5713H73.3353V68.9228H73.1007C73.0169 68.9396 72.9498 68.973 72.8996 69.04C72.8325 69.1237 72.7655 69.2074 72.7152 69.3078C72.6649 69.4083 72.6314 69.5087 72.5979 69.6091C72.5811 69.7096 72.5644 69.81 72.5644 69.9105V79.134L79.201 70.1615V69.9272C79.201 69.8268 79.1842 69.7096 79.1674 69.6091C79.1339 69.492 79.1004 69.3915 79.0501 69.2744C78.9998 69.1739 78.9328 69.0902 78.849 69.0233C78.782 68.9563 78.6982 68.9228 78.6144 68.9228H78.43V68.5713H82.5025V68.9228H82.3181C82.2343 68.9228 82.1505 68.9563 82.0835 69.0233C81.9997 69.0902 81.9494 69.1739 81.8992 69.2744C81.8489 69.3748 81.7986 69.492 81.7651 69.6091C81.7316 69.7096 81.7148 69.81 81.7148 69.9105V80.8079C81.7148 80.9251 81.7316 81.0255 81.7651 81.1427C81.7986 81.2599 81.8489 81.3771 81.8992 81.4942C81.9494 81.5947 82.0165 81.6951 82.0835 81.7621C82.1505 81.829 82.2176 81.8625 82.3181 81.8625H82.5025V82.214H78.43V81.8625H78.6144C78.6982 81.8625 78.782 81.829 78.849 81.7621C78.9328 81.6951 78.9998 81.5947 79.0501 81.4942C79.1004 81.3771 79.1507 81.2599 79.1842 81.1427C79.201 81.0255 79.2177 80.9083 79.2177 80.8079V71.7016H79.1674Z" fill="#713C2F"/>
<path fill-rule="evenodd" clip-rule="evenodd" d="M63.716 75.3508H57.3141V80.8414C57.3141 80.9586 57.3308 81.0757 57.3476 81.1762C57.3643 81.2934 57.4146 81.4105 57.4649 81.511C57.5152 81.6114 57.5822 81.6951 57.6492 81.7788C57.7163 81.8458 57.7833 81.8792 57.8671 81.8792H58.0515V82.2308H54.0293V81.8792H54.2136C54.2974 81.8792 54.3645 81.8458 54.4315 81.7788C54.5153 81.7118 54.5823 81.6114 54.6326 81.511C54.6829 81.3938 54.7332 81.2766 54.7667 81.1594C54.7835 81.0423 54.8002 80.9251 54.8002 80.8246V69.9272C54.8002 69.8268 54.7835 69.7096 54.7667 69.6091C54.7332 69.492 54.6997 69.3915 54.6494 69.2744C54.5991 69.1739 54.5321 69.0902 54.465 69.0233C54.398 68.9563 54.3142 68.9228 54.2304 68.9228H54.0461V68.5713H58.0682V68.9228H57.8839C57.8001 68.9228 57.7163 68.9563 57.6492 69.0233C57.5655 69.0902 57.5152 69.1739 57.4649 69.2744C57.4146 69.3748 57.3811 69.492 57.3643 69.6091C57.3476 69.7096 57.3308 69.81 57.3308 69.9272V74.4804H63.7328V69.9272C63.7328 69.8268 63.716 69.7096 63.6993 69.6091C63.6657 69.492 63.6322 69.3915 63.5819 69.2744C63.5317 69.1739 63.4646 69.0902 63.3976 69.0233C63.3306 68.9563 63.2468 68.9228 63.163 68.9228H62.9786V68.5713H67.0008V68.9228H66.8164C66.7326 68.9228 66.6488 68.9563 66.5818 69.0233C66.498 69.0902 66.4477 69.1739 66.3975 69.2744C66.3472 69.3748 66.3137 69.492 66.2969 69.6091C66.2801 69.7096 66.2634 69.81 66.2634 69.9272V80.8246C66.2634 80.9418 66.2801 81.059 66.3137 81.1594C66.3472 81.2766 66.3807 81.3938 66.4477 81.4942C66.498 81.5947 66.5483 81.6784 66.6321 81.7621C66.6824 81.829 66.7494 81.8625 66.8332 81.8625H67.0175V82.214H62.9954V81.8625H63.1797C63.2635 81.8625 63.3306 81.829 63.3976 81.7621C63.4814 81.6951 63.5484 81.5947 63.5987 81.4942C63.649 81.3771 63.6993 81.2599 63.7328 81.1427C63.7495 81.0255 63.7663 80.9083 63.7663 80.8079V75.3508H63.716Z" fill="#713C2F"/>
<path fill-rule="evenodd" clip-rule="evenodd" d="M138.645 75.5519C138.645 66.094 154.13 65.7592 154.13 75.3677C154.13 84.9762 138.645 84.993 138.645 75.5519ZM141.326 75.2673C141.326 83.3023 151.482 83.9719 151.482 75.6188C151.482 67.3997 141.326 66.8808 141.326 75.2673Z" fill="#713C2F"/>
<path fill-rule="evenodd" clip-rule="evenodd" d="M133.098 69.4585V80.8749C133.098 80.992 133.115 81.0925 133.132 81.2097C133.165 81.3268 133.199 81.4273 133.249 81.5444C133.3 81.6449 133.367 81.7286 133.45 81.7955C133.517 81.8625 133.601 81.896 133.685 81.896H133.869V82.2475H129.797V81.896H129.981C130.065 81.896 130.149 81.8625 130.216 81.7955C130.3 81.7286 130.367 81.6281 130.417 81.5444C130.467 81.444 130.518 81.3268 130.534 81.2097C130.551 81.1092 130.568 80.992 130.568 80.8749V69.9272C130.568 69.8268 130.551 69.7096 130.534 69.6091C130.501 69.492 130.467 69.3915 130.417 69.2744C130.367 69.1739 130.3 69.0902 130.216 69.0233C130.149 68.9563 130.065 68.9228 129.981 68.9228H129.797V68.5713H138.83V70.8981H138.478V70.8144C138.478 70.4629 138.428 70.0444 138.176 69.7765C137.942 69.5087 137.573 69.4417 137.238 69.4417H133.098V69.4585Z" fill="#713C2F"/>
<path fill-rule="evenodd" clip-rule="evenodd" d="M113.423 75.3508H107.021V80.8414C107.021 80.9586 107.038 81.0757 107.055 81.1762C107.071 81.2934 107.122 81.4105 107.172 81.511C107.222 81.6114 107.289 81.6951 107.356 81.7788C107.423 81.8458 107.49 81.8792 107.574 81.8792H107.758V82.2308H103.736V81.8792H103.921C104.004 81.8792 104.072 81.8458 104.139 81.7788C104.222 81.7118 104.289 81.6114 104.34 81.511C104.39 81.3938 104.44 81.2766 104.474 81.1594C104.49 81.0423 104.507 80.9251 104.507 80.8246V69.9272C104.507 69.8268 104.49 69.7096 104.474 69.6091C104.44 69.492 104.407 69.3915 104.356 69.2744C104.306 69.1739 104.239 69.0902 104.172 69.0233C104.105 68.9563 104.021 68.9228 103.937 68.9228H103.753V68.5713H107.775V68.9228H107.591C107.507 68.9228 107.423 68.9563 107.356 69.0233C107.272 69.0902 107.222 69.1739 107.172 69.2744C107.122 69.3748 107.088 69.492 107.071 69.6091C107.055 69.7096 107.038 69.81 107.038 69.9272V74.4804H113.44V69.9272C113.44 69.8268 113.423 69.7096 113.406 69.6091C113.373 69.492 113.339 69.3915 113.289 69.2744C113.239 69.1739 113.172 69.0902 113.105 69.0233C113.038 68.9563 112.954 68.9228 112.87 68.9228H112.686V68.5713H116.708V68.9228H116.523C116.44 68.9228 116.356 68.9563 116.289 69.0233C116.205 69.0902 116.155 69.1739 116.121 69.2744C116.071 69.3748 116.037 69.492 116.021 69.6091C116.004 69.7096 115.987 69.81 115.987 69.9272V80.8246C115.987 80.9418 116.004 81.059 116.037 81.1594C116.071 81.2766 116.104 81.3938 116.172 81.511C116.222 81.6114 116.272 81.6951 116.356 81.7788C116.406 81.8458 116.473 81.8792 116.557 81.8792H116.741V82.2308H112.719V81.8792H112.904C112.987 81.8792 113.054 81.8458 113.121 81.7788C113.205 81.7118 113.272 81.6114 113.322 81.511C113.373 81.3938 113.423 81.2766 113.457 81.1594C113.473 81.0423 113.49 80.9251 113.49 80.8246V75.3508H113.423Z" fill="#713C2F"/>
<path fill-rule="evenodd" clip-rule="evenodd" d="M91.9543 75.1667C90.2784 75.2839 89.0885 78.8996 88.4684 80.1551C88.3344 80.4062 88.217 80.674 88.0662 80.9083C87.9154 81.1594 87.7478 81.3771 87.5467 81.5779C87.3456 81.7788 87.1109 81.9295 86.8428 82.0466C86.5411 82.1806 86.1892 82.2308 85.854 82.2308H83.8262V81.8792H83.91C84.1614 81.8792 84.3792 81.7955 84.5803 81.6616C85.1669 81.2431 85.5859 80.4731 85.9043 79.837L87.5299 76.5561C87.8316 75.9534 88.217 75.401 88.7701 75.016C89.3567 74.5975 90.0773 74.4636 90.7979 74.4636H91.2169L87.7143 70.7809C87.1445 70.1783 85.854 68.9228 84.9825 68.9228H84.7982V68.5713H88.4517V68.9228H88.217C87.9657 68.9228 87.8316 69.107 87.8651 69.3413C87.8986 69.6761 88.3679 70.0778 88.5857 70.3289L91.9543 73.9447V69.9272C91.9543 69.8268 91.9375 69.7096 91.9208 69.6091C91.8873 69.492 91.8537 69.3915 91.8035 69.2744C91.7532 69.1739 91.6862 69.0902 91.6191 69.0233C91.5521 68.9563 91.4683 68.9228 91.3845 68.9228H91.2001V68.5713H95.2558V68.9228H95.0212C94.8369 68.9228 94.7028 69.1404 94.6357 69.2911C94.5519 69.4752 94.4849 69.7096 94.4849 69.9105V73.9279L98.2222 69.9439C98.4065 69.7431 98.8925 68.9228 98.306 68.9228H98.0713V68.5713H101.725V68.9228H101.54C100.753 68.9228 99.5126 69.9774 98.9931 70.5131L95.2558 74.4469H95.6748C96.3787 74.4469 97.1161 74.5808 97.7026 74.9993C98.2557 75.3843 98.6579 75.9367 98.9428 76.5393L100.568 79.8203C100.669 80.0212 100.77 80.222 100.887 80.4062C101.021 80.6405 101.172 80.8749 101.339 81.0757C101.507 81.2934 101.691 81.4775 101.909 81.6281C102.11 81.7788 102.328 81.8458 102.58 81.8458H102.663V82.1973H100.602C99.9484 82.1973 99.3953 82.0132 98.9261 81.5444C98.7249 81.3436 98.5574 81.126 98.4233 80.8749C98.2725 80.6238 98.1384 80.3559 98.0043 80.0881C97.3172 78.6987 96.4122 75.2002 94.5017 75.0997V80.7744C94.5017 80.8916 94.5184 80.992 94.5352 81.1092C94.5687 81.2264 94.6022 81.3436 94.6525 81.444C94.7028 81.5445 94.7531 81.6449 94.8369 81.7286C94.9039 81.7955 94.9709 81.829 95.0547 81.829H95.2726V82.1806H91.2169V81.829H91.4013C91.485 81.829 91.5688 81.7955 91.6359 81.7286C91.7197 81.6616 91.77 81.5612 91.8202 81.4608C91.8705 81.3436 91.904 81.2264 91.9375 81.1092C91.9543 80.992 91.9711 80.8749 91.9711 80.7744V75.1667H91.9543Z" fill="#713C2F"/>
<path fill-rule="evenodd" clip-rule="evenodd" d="M79.1674 71.7016L72.5309 80.674V80.8246C72.5309 80.9418 72.5476 81.059 72.5811 81.1594C72.6147 81.2766 72.6482 81.3938 72.7152 81.511C72.7655 81.6114 72.8325 81.6951 72.8996 81.7788C72.9666 81.8458 73.0336 81.8792 73.1342 81.8792H73.3185V82.2308H69.2461V81.8792H69.4304C69.5142 81.8792 69.598 81.8458 69.6651 81.7788C69.7489 81.7118 69.8159 81.6114 69.8662 81.511C69.9165 81.3938 69.9667 81.2766 70.0002 81.1594C70.017 81.0423 70.0338 80.9251 70.0338 80.8246V69.9272C70.0338 69.8268 70.017 69.7096 70.0002 69.6091C69.9667 69.492 69.9332 69.3915 69.8829 69.2744C69.8327 69.1739 69.7656 69.0902 69.6818 69.0233C69.6148 68.9563 69.531 68.9228 69.4472 68.9228H69.2629V68.5713H73.3353V68.9228H73.1007C73.0169 68.9396 72.9498 68.973 72.8996 69.04C72.8325 69.1237 72.7655 69.2074 72.7152 69.3078C72.6649 69.4083 72.6314 69.5087 72.5979 69.6091C72.5811 69.7096 72.5644 69.81 72.5644 69.9105V79.134L79.201 70.1615V69.9272C79.201 69.8268 79.1842 69.7096 79.1674 69.6091C79.1339 69.492 79.1004 69.3915 79.0501 69.2744C78.9998 69.1739 78.9328 69.0902 78.849 69.0233C78.782 68.9563 78.6982 68.9228 78.6144 68.9228H78.43V68.5713H82.5025V68.9228H82.3181C82.2343 68.9228 82.1505 68.9563 82.0835 69.0233C81.9997 69.0902 81.9494 69.1739 81.8992 69.2744C81.8489 69.3748 81.7986 69.492 81.7651 69.6091C81.7316 69.7096 81.7148 69.81 81.7148 69.9105V80.8079C81.7148 80.9251 81.7316 81.0255 81.7651 81.1427C81.7986 81.2599 81.8489 81.3771 81.8992 81.4942C81.9494 81.5947 82.0165 81.6951 82.0835 81.7621C82.1505 81.829 82.2176 81.8625 82.3181 81.8625H82.5025V82.214H78.43V81.8625H78.6144C78.6982 81.8625 78.782 81.829 78.849 81.7621C78.9328 81.6951 78.9998 81.5947 79.0501 81.4942C79.1004 81.3771 79.1507 81.2599 79.1842 81.1427C79.201 81.0255 79.2177 80.9083 79.2177 80.8079V71.7016H79.1674Z" fill="#713C2F"/>
<path fill-rule="evenodd" clip-rule="evenodd" d="M63.716 75.3508H57.3141V80.8414C57.3141 80.9586 57.3308 81.0757 57.3476 81.1762C57.3643 81.2934 57.4146 81.4105 57.4649 81.511C57.5152 81.6114 57.5822 81.6951 57.6492 81.7788C57.7163 81.8458 57.7833 81.8792 57.8671 81.8792H58.0515V82.2308H54.0293V81.8792H54.2136C54.2974 81.8792 54.3645 81.8458 54.4315 81.7788C54.5153 81.7118 54.5823 81.6114 54.6326 81.511C54.6829 81.3938 54.7332 81.2766 54.7667 81.1594C54.7835 81.0423 54.8002 80.9251 54.8002 80.8246V69.9272C54.8002 69.8268 54.7835 69.7096 54.7667 69.6091C54.7332 69.492 54.6997 69.3915 54.6494 69.2744C54.5991 69.1739 54.5321 69.0902 54.465 69.0233C54.398 68.9563 54.3142 68.9228 54.2304 68.9228H54.0461V68.5713H58.0682V68.9228H57.8839C57.8001 68.9228 57.7163 68.9563 57.6492 69.0233C57.5655 69.0902 57.5152 69.1739 57.4649 69.2744C57.4146 69.3748 57.3811 69.492 57.3643 69.6091C57.3476 69.7096 57.3308 69.81 57.3308 69.9272V74.4804H63.7328V69.9272C63.7328 69.8268 63.716 69.7096 63.6993 69.6091C63.6657 69.492 63.6322 69.3915 63.5819 69.2744C63.5317 69.1739 63.4646 69.0902 63.3976 69.0233C63.3306 68.9563 63.2468 68.9228 63.163 68.9228H62.9786V68.5713H67.0008V68.9228H66.8164C66.7326 68.9228 66.6488 68.9563 66.5818 69.0233C66.498 69.0902 66.4477 69.1739 66.3975 69.2744C66.3472 69.3748 66.3137 69.492 66.2969 69.6091C66.2801 69.7096 66.2634 69.81 66.2634 69.9272V80.8246C66.2634 80.9418 66.2801 81.059 66.3137 81.1594C66.3472 81.2766 66.3807 81.3938 66.4477 81.4942C66.498 81.5947 66.5483 81.6784 66.6321 81.7621C66.6824 81.829 66.7494 81.8625 66.8332 81.8625H67.0175V82.214H62.9954V81.8625H63.1797C63.2635 81.8625 63.3306 81.829 63.3976 81.7621C63.4814 81.6951 63.5484 81.5947 63.5987 81.4942C63.649 81.3771 63.6993 81.2599 63.7328 81.1427C63.7495 81.0255 63.7663 80.9083 63.7663 80.8079V75.3508H63.716Z" fill="#713C2F"/>
<path fill-rule="evenodd" clip-rule="evenodd" d="M121.936 69.4586V74.4805H125.254C125.539 74.4805 125.79 74.3968 125.991 74.2127C126.176 74.0453 126.276 73.8444 126.276 73.5933V73.5096H126.628V76.2214H126.276V76.1377C126.276 75.9034 126.176 75.7192 125.991 75.5686C125.774 75.3844 125.522 75.3175 125.237 75.3175H121.919V81.3605H126.327C126.545 81.3605 126.762 81.3102 126.963 81.1931C127.148 81.0759 127.299 80.942 127.433 80.7746C127.55 80.6072 127.651 80.4398 127.701 80.2389C127.751 80.0882 127.785 79.9208 127.785 79.7535V79.6698H128.137V82.2142H118.584V81.8626H118.768C118.852 81.8626 118.936 81.8292 119.003 81.7622C119.087 81.6952 119.154 81.5948 119.204 81.5111C119.271 81.4107 119.305 81.2935 119.338 81.1763C119.372 81.0759 119.388 80.9587 119.388 80.8415V69.8939C119.388 69.7934 119.372 69.693 119.338 69.5925C119.305 69.4754 119.254 69.3582 119.204 69.2577C119.154 69.1573 119.087 69.0736 119.003 69.0067C118.936 68.9397 118.852 68.9062 118.768 68.9062H118.584V68.5547H127.634V70.6137H127.282V70.5467C127.248 70.2454 127.131 69.9943 126.93 69.7599C126.679 69.4921 126.31 69.4251 125.958 69.4251H121.936V69.4586Z" fill="#713C2F"/>
<path fill-rule="evenodd" clip-rule="evenodd" d="M138.645 75.5519C138.645 66.094 154.13 65.7592 154.13 75.3677C154.13 84.9762 138.645 84.993 138.645 75.5519ZM141.326 75.2673C141.326 83.3023 151.482 83.9719 151.482 75.6188C151.482 67.3997 141.326 66.8808 141.326 75.2673Z" fill="#713C2F"/>
<path fill-rule="evenodd" clip-rule="evenodd" d="M133.098 69.4585V80.8749C133.098 80.992 133.115 81.0925 133.132 81.2097C133.165 81.3268 133.199 81.4273 133.249 81.5444C133.3 81.6449 133.367 81.7286 133.45 81.7955C133.517 81.8625 133.601 81.896 133.685 81.896H133.869V82.2475H129.797V81.896H129.981C130.065 81.896 130.149 81.8625 130.216 81.7955C130.3 81.7286 130.367 81.6281 130.417 81.5444C130.467 81.444 130.518 81.3268 130.534 81.2097C130.551 81.1092 130.568 80.992 130.568 80.8749V69.9272C130.568 69.8268 130.551 69.7096 130.534 69.6091C130.501 69.492 130.467 69.3915 130.417 69.2744C130.367 69.1739 130.3 69.0902 130.216 69.0233C130.149 68.9563 130.065 68.9228 129.981 68.9228H129.797V68.5713H138.83V70.8981H138.478V70.8144C138.478 70.4629 138.428 70.0444 138.176 69.7765C137.942 69.5087 137.573 69.4417 137.238 69.4417H133.098V69.4585Z" fill="#713C2F"/>
<path fill-rule="evenodd" clip-rule="evenodd" d="M121.936 69.4586V74.4805H125.254C125.539 74.4805 125.79 74.3968 125.991 74.2127C126.176 74.0453 126.276 73.8444 126.276 73.5933V73.5096H126.628V76.2214H126.276V76.1377C126.276 75.9034 126.176 75.7192 125.991 75.5686C125.774 75.3844 125.522 75.3175 125.237 75.3175H121.919V81.3605H126.327C126.545 81.3605 126.762 81.3102 126.963 81.1931C127.148 81.0759 127.299 80.942 127.433 80.7746C127.55 80.6072 127.651 80.4398 127.701 80.2389C127.751 80.0882 127.785 79.9208 127.785 79.7535V79.6698H128.137V82.2142H118.584V81.8626H118.768C118.852 81.8626 118.936 81.8292 119.003 81.7622C119.087 81.6952 119.154 81.5948 119.204 81.5111C119.271 81.4107 119.305 81.2935 119.338 81.1763C119.372 81.0759 119.388 80.9587 119.388 80.8415V69.8939C119.388 69.7934 119.372 69.693 119.338 69.5925C119.305 69.4754 119.254 69.3582 119.204 69.2577C119.154 69.1573 119.087 69.0736 119.003 69.0067C118.936 68.9397 118.852 68.9062 118.768 68.9062H118.584V68.5547H127.634V70.6137H127.282V70.5467C127.248 70.2454 127.131 69.9943 126.93 69.7599C126.679 69.4921 126.31 69.4251 125.958 69.4251H121.936V69.4586Z" fill="#713C2F"/>
<path fill-rule="evenodd" clip-rule="evenodd" d="M98.3899 52.9364C100.066 53.0703 101.893 53.539 103.116 54.5769C104.842 56.05 105.462 58.5442 104.373 60.5864C103.2 62.796 100.77 63.6162 98.3899 63.8339V63.8506C98.3899 63.951 98.4066 64.0682 98.4234 64.1686C98.4569 64.2858 98.4904 64.3863 98.5407 64.5034C98.591 64.6039 98.658 64.6876 98.7418 64.7545C98.8088 64.8215 98.8926 64.8382 98.9764 64.8382H99.1608V65.1898H95.1051V64.8382H95.2894C95.3732 64.8382 95.457 64.8047 95.5241 64.7378C95.6079 64.6708 95.6749 64.5871 95.7252 64.4867C95.7755 64.3863 95.8257 64.2691 95.8593 64.1519C95.8928 64.0515 95.9095 63.951 95.9095 63.8506C93.4795 63.6665 90.9824 62.8295 89.8595 60.4859C88.854 58.4102 89.4908 55.9328 91.284 54.4932C92.4572 53.5558 94.2672 53.1205 95.9095 52.9531C95.9095 52.8527 95.8928 52.7355 95.8593 52.6351C95.8257 52.5179 95.7922 52.4007 95.7252 52.2836C95.6749 52.1831 95.6079 52.0827 95.5408 52.0157C95.4906 51.9655 95.4068 51.8985 95.323 51.8985H95.1051V51.5303H99.1775V51.8818H98.9429C98.8591 51.8818 98.7921 51.9488 98.7418 51.999C98.6748 52.0827 98.6077 52.1664 98.5575 52.2668C98.5072 52.3673 98.4737 52.4844 98.4402 52.6016C98.4066 52.702 98.3899 52.8192 98.3899 52.9364ZM98.3899 53.8403V63.0638C100.434 62.7123 102.194 61.256 102.211 58.6446C102.228 57.0878 101.641 55.7152 100.384 54.7777C99.7976 54.3258 99.1105 54.0077 98.3899 53.8403ZM95.876 62.9634V53.7399C94.9208 53.8906 94.0158 54.2756 93.2951 54.9117C92.2225 55.8658 91.8371 57.1882 91.9712 58.6111C92.189 61.0049 93.9152 62.4779 95.876 62.9634Z" fill="#713C2F"/>
<path fill-rule="evenodd" clip-rule="evenodd" d="M98.3899 52.9364C100.066 53.0703 101.893 53.539 103.116 54.5769C104.842 56.05 105.462 58.5442 104.373 60.5864C103.2 62.796 100.77 63.6162 98.3899 63.8339V63.8506C98.3899 63.951 98.4066 64.0682 98.4234 64.1686C98.4569 64.2858 98.4904 64.3863 98.5407 64.5034C98.591 64.6039 98.658 64.6876 98.7418 64.7545C98.8088 64.8215 98.8926 64.8382 98.9764 64.8382H99.1608V65.1898H95.1051V64.8382H95.2894C95.3732 64.8382 95.457 64.8047 95.5241 64.7378C95.6079 64.6708 95.6749 64.5871 95.7252 64.4867C95.7755 64.3863 95.8257 64.2691 95.8593 64.1519C95.8928 64.0515 95.9095 63.951 95.9095 63.8506C93.4795 63.6665 90.9824 62.8295 89.8595 60.4859C88.854 58.4102 89.4908 55.9328 91.284 54.4932C92.4572 53.5558 94.2672 53.1205 95.9095 52.9531C95.9095 52.8527 95.8928 52.7355 95.8593 52.6351C95.8257 52.5179 95.7922 52.4007 95.7252 52.2836C95.6749 52.1831 95.6079 52.0827 95.5408 52.0157C95.4906 51.9655 95.4068 51.8985 95.323 51.8985H95.1051V51.5303H99.1775V51.8818H98.9429C98.8591 51.8818 98.7921 51.9488 98.7418 51.999C98.6748 52.0827 98.6077 52.1664 98.5575 52.2668C98.5072 52.3673 98.4737 52.4844 98.4402 52.6016C98.4066 52.702 98.3899 52.8192 98.3899 52.9364ZM98.3899 53.8403V63.0638C100.434 62.7123 102.194 61.256 102.211 58.6446C102.228 57.0878 101.641 55.7152 100.384 54.7777C99.7976 54.3258 99.1105 54.0077 98.3899 53.8403ZM95.876 62.9634V53.7399C94.9208 53.8906 94.0158 54.2756 93.2951 54.9117C92.2225 55.8658 91.8371 57.1882 91.9712 58.6111C92.189 61.0049 93.9152 62.4779 95.876 62.9634Z" fill="#713C2F"/>
<path fill-rule="evenodd" clip-rule="evenodd" d="M160.951 58.3092C160.683 58.3427 160.448 58.4431 160.214 58.577C159.041 59.2968 157.851 61.7576 157.18 62.9963C156.51 64.2015 155.421 65.1892 153.979 65.1892H151.801V64.8376H151.885C152.79 64.8376 153.594 64.1681 154.114 63.4817C154.281 63.2641 154.432 63.0298 154.566 62.7954L156.192 59.8827C156.611 59.1797 156.929 58.644 157.633 58.2757C157.197 58.2255 156.761 58.1251 156.359 57.9744C155.924 57.807 155.538 57.5727 155.186 57.2714C154.868 56.9868 154.616 56.652 154.449 56.267C154.281 55.8987 154.197 55.5137 154.197 55.0952C154.197 54.593 154.315 54.1076 154.549 53.6556C154.801 53.2036 155.136 52.8354 155.555 52.5173C156.996 51.4795 158.739 51.5297 160.432 51.5297H164.236V51.8812H164.052C163.968 51.8812 163.901 51.9147 163.834 51.9817C163.75 52.0486 163.7 52.1323 163.649 52.2328C163.599 52.3332 163.566 52.4504 163.532 52.5675C163.515 52.668 163.499 52.7684 163.499 52.8856V63.783C163.499 63.9002 163.515 64.0174 163.532 64.1178C163.549 64.235 163.599 64.3522 163.649 64.4526C163.7 64.5531 163.767 64.6368 163.834 64.7205C163.884 64.7707 163.968 64.8209 164.052 64.8209H164.236V65.1724H160.18V64.8209H160.365C160.448 64.8209 160.532 64.7707 160.583 64.7205C160.666 64.6368 160.733 64.5531 160.784 64.4526C160.834 64.3355 160.884 64.235 160.918 64.1178C160.951 64.0007 160.968 63.9002 160.968 63.783V58.3092H160.951ZM160.951 57.4388V52.3834C159.326 52.3834 156.661 52.6512 156.661 54.7772C156.661 55.1454 156.745 55.497 156.896 55.8318C157.7 57.489 159.359 57.4388 160.951 57.4388Z" fill="#713C2F"/>
<path fill-rule="evenodd" clip-rule="evenodd" d="M160.951 58.3092C160.683 58.3427 160.448 58.4431 160.214 58.577C159.041 59.2968 157.851 61.7576 157.18 62.9963C156.51 64.2015 155.421 65.1892 153.979 65.1892H151.801V64.8376H151.885C152.79 64.8376 153.594 64.1681 154.114 63.4817C154.281 63.2641 154.432 63.0298 154.566 62.7954L156.192 59.8827C156.611 59.1797 156.929 58.644 157.633 58.2757C157.197 58.2255 156.761 58.1251 156.359 57.9744C155.924 57.807 155.538 57.5727 155.186 57.2714C154.868 56.9868 154.616 56.652 154.449 56.267C154.281 55.8987 154.197 55.5137 154.197 55.0952C154.197 54.593 154.315 54.1076 154.549 53.6556C154.801 53.2036 155.136 52.8354 155.555 52.5173C156.996 51.4795 158.739 51.5297 160.432 51.5297H164.236V51.8812H164.052C163.968 51.8812 163.901 51.9147 163.834 51.9817C163.75 52.0486 163.7 52.1323 163.649 52.2328C163.599 52.3332 163.566 52.4504 163.532 52.5675C163.515 52.668 163.499 52.7684 163.499 52.8856V63.783C163.499 63.9002 163.515 64.0174 163.532 64.1178C163.549 64.235 163.599 64.3522 163.649 64.4526C163.7 64.5531 163.767 64.6368 163.834 64.7205C163.884 64.7707 163.968 64.8209 164.052 64.8209H164.236V65.1724H160.18V64.8209H160.365C160.448 64.8209 160.532 64.7707 160.583 64.7205C160.666 64.6368 160.733 64.5531 160.784 64.4526C160.834 64.3355 160.884 64.235 160.918 64.1178C160.951 64.0007 160.968 63.9002 160.968 63.783V58.3092H160.951ZM160.951 57.4388V52.3834C159.326 52.3834 156.661 52.6512 156.661 54.7772C156.661 55.1454 156.745 55.497 156.896 55.8318C157.7 57.489 159.359 57.4388 160.951 57.4388Z" fill="#713C2F"/>
<path fill-rule="evenodd" clip-rule="evenodd" d="M132.963 58.2765H126.561V63.767C126.561 63.8842 126.578 64.0014 126.594 64.1018C126.611 64.219 126.662 64.3362 126.712 64.4366C126.762 64.5371 126.812 64.6208 126.896 64.7044C126.963 64.7714 127.03 64.8049 127.114 64.8049H127.298V65.1564H123.293V64.8049H123.477C123.561 64.8049 123.628 64.7714 123.695 64.7212C123.779 64.6375 123.846 64.5538 123.896 64.4534C123.947 64.3362 123.997 64.219 124.03 64.1018C124.047 63.9846 124.064 63.8675 124.064 63.767V52.8696C124.064 52.7691 124.047 52.652 124.03 52.5515C123.997 52.4343 123.963 52.3339 123.913 52.2167C123.863 52.1163 123.796 52.0326 123.729 51.9656C123.662 51.8987 123.578 51.8652 123.494 51.8652H123.31V51.5137H127.315V51.8652H127.114C127.03 51.8652 126.946 51.8987 126.879 51.9656C126.796 52.0326 126.745 52.1163 126.695 52.2167C126.645 52.3172 126.611 52.4343 126.594 52.5515C126.578 52.652 126.561 52.7524 126.561 52.8696V57.4227H132.963V52.8696C132.963 52.7691 132.946 52.652 132.929 52.5515C132.896 52.4343 132.862 52.3339 132.812 52.2167C132.762 52.1163 132.695 52.0326 132.628 51.9656C132.561 51.8987 132.477 51.8652 132.393 51.8652H132.209V51.5137H136.214V51.8652H136.03C135.946 51.8652 135.862 51.8987 135.795 51.9656C135.711 52.0326 135.661 52.1163 135.611 52.2167C135.561 52.3172 135.527 52.4343 135.51 52.5515C135.494 52.652 135.477 52.7524 135.477 52.8696V63.767C135.477 63.8842 135.494 64.0014 135.527 64.1018C135.561 64.219 135.594 64.3362 135.661 64.4366C135.711 64.5371 135.762 64.6208 135.845 64.7044C135.896 64.7547 135.963 64.8049 136.047 64.8049H136.231V65.1564H132.226V64.8049H132.41C132.494 64.8049 132.561 64.7714 132.628 64.7212C132.712 64.6375 132.779 64.5538 132.829 64.4534C132.879 64.3362 132.929 64.219 132.963 64.1018C132.98 63.9846 132.996 63.8675 132.996 63.767V58.2765H132.963Z" fill="#713C2F"/>
<path fill-rule="evenodd" clip-rule="evenodd" d="M132.963 58.2765H126.561V63.767C126.561 63.8842 126.578 64.0014 126.594 64.1018C126.611 64.219 126.662 64.3362 126.712 64.4366C126.762 64.5371 126.812 64.6208 126.896 64.7044C126.963 64.7714 127.03 64.8049 127.114 64.8049H127.298V65.1564H123.293V64.8049H123.477C123.561 64.8049 123.628 64.7714 123.695 64.7212C123.779 64.6375 123.846 64.5538 123.896 64.4534C123.947 64.3362 123.997 64.219 124.03 64.1018C124.047 63.9846 124.064 63.8675 124.064 63.767V52.8696C124.064 52.7691 124.047 52.652 124.03 52.5515C123.997 52.4343 123.963 52.3339 123.913 52.2167C123.863 52.1163 123.796 52.0326 123.729 51.9656C123.662 51.8987 123.578 51.8652 123.494 51.8652H123.31V51.5137H127.315V51.8652H127.114C127.03 51.8652 126.946 51.8987 126.879 51.9656C126.796 52.0326 126.745 52.1163 126.695 52.2167C126.645 52.3172 126.611 52.4343 126.594 52.5515C126.578 52.652 126.561 52.7524 126.561 52.8696V57.4227H132.963V52.8696C132.963 52.7691 132.946 52.652 132.929 52.5515C132.896 52.4343 132.862 52.3339 132.812 52.2167C132.762 52.1163 132.695 52.0326 132.628 51.9656C132.561 51.8987 132.477 51.8652 132.393 51.8652H132.209V51.5137H136.214V51.8652H136.03C135.946 51.8652 135.862 51.8987 135.795 51.9656C135.711 52.0326 135.661 52.1163 135.611 52.2167C135.561 52.3172 135.527 52.4343 135.51 52.5515C135.494 52.652 135.477 52.7524 135.477 52.8696V63.767C135.477 63.8842 135.494 64.0014 135.527 64.1018C135.561 64.219 135.594 64.3362 135.661 64.4366C135.711 64.5371 135.762 64.6208 135.845 64.7044C135.896 64.7547 135.963 64.8049 136.047 64.8049H136.231V65.1564H132.226V64.8049H132.41C132.494 64.8049 132.561 64.7714 132.628 64.7212C132.712 64.6375 132.779 64.5538 132.829 64.4534C132.879 64.3362 132.929 64.219 132.963 64.1018C132.98 63.9846 132.996 63.8675 132.996 63.767V58.2765H132.963Z" fill="#713C2F"/>
<path fill-rule="evenodd" clip-rule="evenodd" d="M84.7497 53.355L78.9343 65.893L73.605 54.0079V63.767C73.605 63.8842 73.6217 64.0014 73.6385 64.1018C73.6552 64.219 73.7055 64.3362 73.7558 64.4366C73.8061 64.5371 73.8731 64.6208 73.9569 64.7044C74.0239 64.7714 74.091 64.8049 74.1915 64.8049H74.3759V65.1564H71.9961V64.8049H72.1804C72.2642 64.8049 72.3313 64.7714 72.3983 64.7044C72.4821 64.6208 72.5324 64.5371 72.5827 64.4366C72.6329 64.3362 72.6665 64.219 72.7 64.1018C72.7167 63.9846 72.7335 63.8675 72.7335 63.767V52.8696C72.7335 52.7691 72.7167 52.652 72.7 52.5515C72.6665 52.4343 72.6329 52.3339 72.5827 52.2167C72.5324 52.1163 72.4653 52.0326 72.3983 51.9656C72.3313 51.9154 72.2642 51.8652 72.1804 51.8652H71.9961V51.5137H75.1971L79.8393 61.9424L84.5989 51.5137H88.0345V51.8652H87.8501C87.7663 51.8652 87.6825 51.8987 87.6155 51.9656C87.5317 52.0326 87.4647 52.133 87.4144 52.2167C87.3641 52.3172 87.3138 52.4343 87.2971 52.5515C87.2803 52.652 87.2636 52.7524 87.2636 52.8696V63.767C87.2636 63.8842 87.2803 64.0014 87.2971 64.1018C87.3138 64.219 87.3641 64.3362 87.4144 64.4366C87.4647 64.5371 87.5317 64.6208 87.6155 64.7044C87.6825 64.7714 87.7496 64.8049 87.8501 64.8049H88.0345V65.1564H83.9788V64.8049H84.1631C84.2469 64.8049 84.314 64.7714 84.381 64.7044C84.4648 64.6208 84.5318 64.5371 84.5821 64.4366C84.6492 64.3362 84.6827 64.219 84.6994 64.1018C84.7162 63.9846 84.733 63.8675 84.733 63.767V53.355H84.7497Z" fill="#713C2F"/>
<path fill-rule="evenodd" clip-rule="evenodd" d="M84.7497 53.355L78.9343 65.893L73.605 54.0079V63.767C73.605 63.8842 73.6217 64.0014 73.6385 64.1018C73.6552 64.219 73.7055 64.3362 73.7558 64.4366C73.8061 64.5371 73.8731 64.6208 73.9569 64.7044C74.0239 64.7714 74.091 64.8049 74.1915 64.8049H74.3759V65.1564H71.9961V64.8049H72.1804C72.2642 64.8049 72.3313 64.7714 72.3983 64.7044C72.4821 64.6208 72.5324 64.5371 72.5827 64.4366C72.6329 64.3362 72.6665 64.219 72.7 64.1018C72.7167 63.9846 72.7335 63.8675 72.7335 63.767V52.8696C72.7335 52.7691 72.7167 52.652 72.7 52.5515C72.6665 52.4343 72.6329 52.3339 72.5827 52.2167C72.5324 52.1163 72.4653 52.0326 72.3983 51.9656C72.3313 51.9154 72.2642 51.8652 72.1804 51.8652H71.9961V51.5137H75.1971L79.8393 61.9424L84.5989 51.5137H88.0345V51.8652H87.8501C87.7663 51.8652 87.6825 51.8987 87.6155 51.9656C87.5317 52.0326 87.4647 52.133 87.4144 52.2167C87.3641 52.3172 87.3138 52.4343 87.2971 52.5515C87.2803 52.652 87.2636 52.7524 87.2636 52.8696V63.767C87.2636 63.8842 87.2803 64.0014 87.2971 64.1018C87.3138 64.219 87.3641 64.3362 87.4144 64.4366C87.4647 64.5371 87.5317 64.6208 87.6155 64.7044C87.6825 64.7714 87.7496 64.8049 87.8501 64.8049H88.0345V65.1564H83.9788V64.8049H84.1631C84.2469 64.8049 84.314 64.7714 84.381 64.7044C84.4648 64.6208 84.5318 64.5371 84.5821 64.4366C84.6492 64.3362 84.6827 64.219 84.6994 64.1018C84.7162 63.9846 84.733 63.8675 84.733 63.767V53.355H84.7497Z" fill="#713C2F"/>
<path fill-rule="evenodd" clip-rule="evenodd" d="M147.962 54.6274L141.309 63.5998V63.7504C141.309 63.8676 141.326 63.9848 141.359 64.0852C141.393 64.2024 141.426 64.3196 141.493 64.42C141.544 64.5205 141.611 64.6041 141.678 64.6878C141.745 64.7548 141.812 64.7883 141.912 64.7883H142.097V65.1398H138.041V64.7883H138.225C138.309 64.7883 138.393 64.7548 138.46 64.7046C138.544 64.6209 138.611 64.5372 138.661 64.4368C138.711 64.3196 138.762 64.2024 138.795 64.0852C138.812 63.968 138.829 63.8509 138.829 63.7504V52.853C138.829 52.7525 138.812 52.6354 138.795 52.5349C138.762 52.4177 138.728 52.3173 138.678 52.2001C138.628 52.0997 138.561 52.016 138.477 51.949C138.41 51.8821 138.326 51.8486 138.242 51.8486H138.058V51.4971H142.113V51.8486H141.862C141.778 51.8486 141.711 51.9156 141.661 51.9658C141.594 52.0495 141.527 52.1332 141.477 52.2336C141.426 52.3341 141.393 52.4345 141.359 52.5349C141.343 52.6354 141.326 52.7358 141.326 52.8362V62.0597L147.979 53.0873V52.853C147.979 52.7525 147.962 52.6354 147.946 52.5349C147.912 52.4177 147.879 52.3173 147.828 52.2001C147.778 52.0997 147.711 52.016 147.627 51.949C147.56 51.8821 147.476 51.8486 147.393 51.8486H147.208V51.4971H151.247V51.8486H151.063C150.979 51.8486 150.895 51.8821 150.828 51.949C150.744 52.016 150.694 52.0997 150.644 52.2001C150.594 52.3006 150.543 52.4177 150.51 52.5349C150.476 52.6354 150.459 52.7358 150.459 52.8362V63.7337C150.459 63.8509 150.476 63.9513 150.51 64.0685C150.543 64.1857 150.594 64.3028 150.644 64.42C150.694 64.5205 150.761 64.6209 150.828 64.6878C150.895 64.7548 150.962 64.7883 151.063 64.7883H151.247V65.1398H147.191V64.7883H147.376C147.46 64.7883 147.543 64.7548 147.61 64.7046C147.694 64.6209 147.761 64.5372 147.812 64.4368C147.862 64.3196 147.912 64.2024 147.946 64.0852C147.962 63.968 147.979 63.8509 147.979 63.7504V54.6274H147.962Z" fill="#713C2F"/>
<path fill-rule="evenodd" clip-rule="evenodd" d="M147.962 54.6274L141.309 63.5998V63.7504C141.309 63.8676 141.326 63.9848 141.359 64.0852C141.393 64.2024 141.426 64.3196 141.493 64.42C141.544 64.5205 141.611 64.6041 141.678 64.6878C141.745 64.7548 141.812 64.7883 141.912 64.7883H142.097V65.1398H138.041V64.7883H138.225C138.309 64.7883 138.393 64.7548 138.46 64.7046C138.544 64.6209 138.611 64.5372 138.661 64.4368C138.711 64.3196 138.762 64.2024 138.795 64.0852C138.812 63.968 138.829 63.8509 138.829 63.7504V52.853C138.829 52.7525 138.812 52.6354 138.795 52.5349C138.762 52.4177 138.728 52.3173 138.678 52.2001C138.628 52.0997 138.561 52.016 138.477 51.949C138.41 51.8821 138.326 51.8486 138.242 51.8486H138.058V51.4971H142.113V51.8486H141.862C141.778 51.8486 141.711 51.9156 141.661 51.9658C141.594 52.0495 141.527 52.1332 141.477 52.2336C141.426 52.3341 141.393 52.4345 141.359 52.5349C141.343 52.6354 141.326 52.7358 141.326 52.8362V62.0597L147.979 53.0873V52.853C147.979 52.7525 147.962 52.6354 147.946 52.5349C147.912 52.4177 147.879 52.3173 147.828 52.2001C147.778 52.0997 147.711 52.016 147.627 51.949C147.56 51.8821 147.476 51.8486 147.393 51.8486H147.208V51.4971H151.247V51.8486H151.063C150.979 51.8486 150.895 51.8821 150.828 51.949C150.744 52.016 150.694 52.0997 150.644 52.2001C150.594 52.3006 150.543 52.4177 150.51 52.5349C150.476 52.6354 150.459 52.7358 150.459 52.8362V63.7337C150.459 63.8509 150.476 63.9513 150.51 64.0685C150.543 64.1857 150.594 64.3028 150.644 64.42C150.694 64.5205 150.761 64.6209 150.828 64.6878C150.895 64.7548 150.962 64.7883 151.063 64.7883H151.247V65.1398H147.191V64.7883H147.376C147.46 64.7883 147.543 64.7548 147.61 64.7046C147.694 64.6209 147.761 64.5372 147.812 64.4368C147.862 64.3196 147.912 64.2024 147.946 64.0852C147.962 63.968 147.979 63.8509 147.979 63.7504V54.6274H147.962Z" fill="#713C2F"/>
<path fill-rule="evenodd" clip-rule="evenodd" d="M66.9838 54.6274L60.3305 63.5998V63.7504C60.3305 63.8676 60.3473 63.9848 60.3808 64.0852C60.4143 64.2024 60.4478 64.3196 60.5149 64.42C60.5651 64.5205 60.6322 64.6041 60.6992 64.6878C60.7662 64.7548 60.8333 64.7883 60.9338 64.7883H61.1182V65.1398H57.0625V64.7883H57.2468C57.3306 64.7883 57.4144 64.7548 57.4815 64.7046C57.5653 64.6209 57.6323 64.5372 57.6826 64.4368C57.7329 64.3196 57.7831 64.2024 57.8167 64.0852C57.8334 63.968 57.8502 63.8509 57.8502 63.7504V52.853C57.8502 52.7525 57.8334 52.6354 57.8167 52.5349C57.7999 52.4177 57.7496 52.3173 57.6993 52.2001C57.6491 52.0997 57.582 52.016 57.4982 51.949C57.4312 51.8821 57.3474 51.8486 57.2636 51.8486H57.0625V51.4971H61.1182V51.8486H60.8836C60.7998 51.8486 60.7327 51.9156 60.6824 51.9658C60.6154 52.0495 60.5484 52.1332 60.4981 52.2336C60.4478 52.3341 60.4143 52.4345 60.3808 52.5349C60.364 52.6354 60.3473 52.7358 60.3473 52.8362V62.0597L67.0006 53.0873V52.853C67.0006 52.7525 66.9838 52.6354 66.9671 52.5349C66.9336 52.4177 66.9 52.3173 66.8498 52.2001C66.7995 52.0997 66.7325 52.016 66.6487 51.949C66.5816 51.8821 66.4978 51.8486 66.414 51.8486H66.2297V51.4971H70.2854V51.8486H70.101C70.0172 51.8486 69.9334 51.8821 69.8664 51.949C69.7826 52.016 69.7323 52.0997 69.682 52.2001C69.6318 52.3006 69.5815 52.4177 69.548 52.5349C69.5145 52.6354 69.4977 52.7358 69.4977 52.8362V63.7337C69.4977 63.8509 69.5145 63.9513 69.548 64.0685C69.5815 64.1857 69.6318 64.3028 69.682 64.42C69.7323 64.5205 69.7994 64.6209 69.8664 64.6878C69.9334 64.7548 70.0005 64.7883 70.101 64.7883H70.2854V65.1398H66.2297V64.7883H66.414C66.4978 64.7883 66.5816 64.7548 66.6487 64.7046C66.7325 64.6209 66.7995 64.5372 66.8498 64.4368C66.9 64.3196 66.9503 64.2024 66.9838 64.0852C67.0006 63.968 67.0174 63.8509 67.0174 63.7504V54.6274H66.9838Z" fill="#713C2F"/>
<path fill-rule="evenodd" clip-rule="evenodd" d="M66.9838 54.6274L60.3305 63.5998V63.7504C60.3305 63.8676 60.3473 63.9848 60.3808 64.0852C60.4143 64.2024 60.4478 64.3196 60.5149 64.42C60.5651 64.5205 60.6322 64.6041 60.6992 64.6878C60.7662 64.7548 60.8333 64.7883 60.9338 64.7883H61.1182V65.1398H57.0625V64.7883H57.2468C57.3306 64.7883 57.4144 64.7548 57.4815 64.7046C57.5653 64.6209 57.6323 64.5372 57.6826 64.4368C57.7329 64.3196 57.7831 64.2024 57.8167 64.0852C57.8334 63.968 57.8502 63.8509 57.8502 63.7504V52.853C57.8502 52.7525 57.8334 52.6354 57.8167 52.5349C57.7999 52.4177 57.7496 52.3173 57.6993 52.2001C57.6491 52.0997 57.582 52.016 57.4982 51.949C57.4312 51.8821 57.3474 51.8486 57.2636 51.8486H57.0625V51.4971H61.1182V51.8486H60.8836C60.7998 51.8486 60.7327 51.9156 60.6824 51.9658C60.6154 52.0495 60.5484 52.1332 60.4981 52.2336C60.4478 52.3341 60.4143 52.4345 60.3808 52.5349C60.364 52.6354 60.3473 52.7358 60.3473 52.8362V62.0597L67.0006 53.0873V52.853C67.0006 52.7525 66.9838 52.6354 66.9671 52.5349C66.9336 52.4177 66.9 52.3173 66.8498 52.2001C66.7995 52.0997 66.7325 52.016 66.6487 51.949C66.5816 51.8821 66.4978 51.8486 66.414 51.8486H66.2297V51.4971H70.2854V51.8486H70.101C70.0172 51.8486 69.9334 51.8821 69.8664 51.949C69.7826 52.016 69.7323 52.0997 69.682 52.2001C69.6318 52.3006 69.5815 52.4177 69.548 52.5349C69.5145 52.6354 69.4977 52.7358 69.4977 52.8362V63.7337C69.4977 63.8509 69.5145 63.9513 69.548 64.0685C69.5815 64.1857 69.6318 64.3028 69.682 64.42C69.7323 64.5205 69.7994 64.6209 69.8664 64.6878C69.9334 64.7548 70.0005 64.7883 70.101 64.7883H70.2854V65.1398H66.2297V64.7883H66.414C66.4978 64.7883 66.5816 64.7548 66.6487 64.7046C66.7325 64.6209 66.7995 64.5372 66.8498 64.4368C66.9 64.3196 66.9503 64.2024 66.9838 64.0852C67.0006 63.968 67.0174 63.8509 67.0174 63.7504V54.6274H66.9838Z" fill="#713C2F"/>
<path fill-rule="evenodd" clip-rule="evenodd" d="M53.9282 51.8151C54.1461 51.8485 54.4142 51.8151 54.4142 51.5472V51.3129H54.7662V54.9621H54.4142V54.8784C54.4142 53.7066 53.2914 52.5181 52.1685 52.3173C47.409 51.4468 44.0572 56.2176 45.8169 60.5364C47.1743 63.8508 51.2635 65.1063 54.431 63.6834L54.498 63.6499L54.85 64.353L54.7829 64.3865C53.1908 65.2737 51.1797 65.5415 49.3865 65.3071C46.7218 64.9724 44.1577 63.5328 43.2025 60.9046C42.3142 58.4105 42.7667 55.5312 44.5767 53.556C46.6716 51.2961 50.2245 50.8776 53.0903 51.5807C53.3752 51.6477 53.6433 51.7481 53.9282 51.8151Z" fill="#713C2F"/>
<path fill-rule="evenodd" clip-rule="evenodd" d="M53.9282 51.8151C54.1461 51.8485 54.4142 51.8151 54.4142 51.5472V51.3129H54.7662V54.9621H54.4142V54.8784C54.4142 53.7066 53.2914 52.5181 52.1685 52.3173C47.409 51.4468 44.0572 56.2176 45.8169 60.5364C47.1743 63.8508 51.2635 65.1063 54.431 63.6834L54.498 63.6499L54.85 64.353L54.7829 64.3865C53.1908 65.2737 51.1797 65.5415 49.3865 65.3071C46.7218 64.9724 44.1577 63.5328 43.2025 60.9046C42.3142 58.4105 42.7667 55.5312 44.5767 53.556C46.6716 51.2961 50.2245 50.8776 53.0903 51.5807C53.3752 51.6477 53.6433 51.7481 53.9282 51.8151Z" fill="#713C2F"/>
<path fill-rule="evenodd" clip-rule="evenodd" d="M106.535 58.4943C106.535 49.0364 122.02 48.7016 122.02 58.3101C122.02 67.6675 106.535 67.9354 106.535 58.4943ZM109.217 58.2097C109.217 66.2447 119.373 66.9143 119.373 58.5612C119.373 50.2082 109.217 49.8232 109.217 58.2097Z" fill="#713C2F"/>
<path fill-rule="evenodd" clip-rule="evenodd" d="M106.535 58.4943C106.535 49.0364 122.02 48.7016 122.02 58.3101C122.02 67.6675 106.535 67.9354 106.535 58.4943ZM109.217 58.2097C109.217 66.2447 119.373 66.9143 119.373 58.5612C119.373 50.2082 109.217 49.8232 109.217 58.2097Z" fill="#713C2F"/>
<path fill-rule="evenodd" clip-rule="evenodd" d="M114.243 20.2609V22.571L109.97 21.6671V19.1729L105.126 17.9509V22.956L120.595 25.6343V21.8679L114.243 20.2609ZM132.963 27.7603V24.9982L121.785 22.1692V25.8352L132.963 27.7603ZM152.789 37.8375L81.1609 37.871H54.1789V37.1679L81.1441 36.8498V36.1803L86.6579 36.197V31.0914L92.9593 31.4764V36.2305L98.3221 36.2472V31.8949L103.618 32.1795V36.264L152.789 36.4314V37.8375ZM81.1441 11.8744L78.6135 13.6153V20.7966L81.1441 19.6248V18.8213L94.8865 21.1984V19.9429L99.7299 20.8803V22.0353L103.802 22.7384V17.6328L89.8588 14.1008V18.7042L84.8982 17.8504V12.8453L81.1441 11.8744ZM81.1441 3.22007L68.4743 15.306V19.742L75.0103 15.2056V13.4312L78.6303 10.2674V12.7114L81.1609 10.9537V10.1335L84.9317 11.1044V4.49227L81.1441 3.22007ZM54.1789 34.6904L60.0278 33.2843V31.8782L63.1952 30.7232V32.5143L68.8598 31.1584V28.4633L71.977 27.1911V24.7471L54.1789 32.9495V32.1628L71.977 23.8767V19.0557L73.0663 18.3694V23.3578L74.9936 22.4538V16.0928L68.4576 20.6125V23.2908L65.1225 25.2828V22.9058L54.1621 30.4721V29.6184L65.1225 22.0186V20.4116L67.5023 18.5702V16.1765L64.184 19.3403V18.3694L67.5023 15.2056V12.5273L68.4576 11.3555L70.8206 8.35911V12.0418L81.1274 2.21569V1.39545L84.8982 2.6844V0.80957L89.8588 2.65092V4.39184L91.6688 5.0112V3.3205L96.0429 4.89402V6.51776L97.4674 7.00321V5.47991L101.842 7.05343V8.50977L108.696 10.8533V7.60583L128.539 15.2893V17.6496L136.399 20.3446V21.8345L101.858 10.167V13.766L97.4842 12.477V8.6939L96.0597 8.20846V12.0586L91.6856 10.7696V6.73537L89.8756 6.13275V12.3431L103.819 15.9254V13.4814L105.143 13.8999V16.2602L109.986 17.4989V15.5571L114.26 16.8126V18.587L120.612 20.2275V18.4196L121.785 18.7711V20.5455L132.963 23.4247V22.0856L134.019 22.4036V23.7093L152.789 28.5303V29.9866L134.019 25.2326V27.9109L152.789 31.1584V32.598L134.019 29.4342V31.2923L132.963 31.1751V29.2501L121.785 27.3585V29.6184L120.612 29.4844V27.1409L105.143 24.5295V27.7603L103.819 27.6263V24.3119L99.7467 23.6256V26.8228L94.9033 26.2872V22.8054L81.1609 20.4786L78.6303 21.6503V24.3119L75.0103 25.6343V23.3075L73.083 24.1947V30.1038L81.1609 28.162V27.4422L106.785 29.7021V28.0281L111.478 28.5805V30.1205L124.047 31.2254V29.6853L127.801 30.1038V31.5601L152.789 33.753V35.1759L127.785 33.1337V34.6737L124.03 34.5398V32.8156L111.461 31.761V34.138L106.769 34.0041V31.3593L81.1441 29.1999L73.0663 31.058V33.4685L68.843 34.0543V32.0289L63.1785 33.3345V35.7283L60.011 36.0296V34.0543L54.1621 35.3935V34.6904H54.1789Z" fill="#713C2F"/>
</svg>
