<svg width="30" height="30" viewBox="0 0 30 30" fill="none" xmlns="http://www.w3.org/2000/svg">
<rect x="8" y="16.5" width="17" height="9" rx="2.66667" fill="#CE8369"/>
<rect x="8" y="4.5" width="17" height="9" rx="2.66667" fill="#CE8369"/>
<path d="M4.42077 22.344L4.11904 22.5934V7.40652L4.42077 7.65597C4.82303 7.98855 5.47459 7.98855 5.87691 7.65597C6.27917 7.3234 6.27917 6.78471 5.87691 6.45209L3.81738 4.74939C3.41518 4.41687 2.76349 4.41687 2.36123 4.74939L0.301757 6.45209C-0.100503 6.78466 -0.100503 7.32335 0.301757 7.65597C0.703956 7.98849 1.35564 7.98849 1.7579 7.65597L2.05957 7.40652V22.5934L1.75784 22.344C1.35564 22.0115 0.703956 22.0115 0.301696 22.344C-0.100565 22.6766 -0.100565 23.2153 0.301696 23.5479L2.36117 25.2506C2.76343 25.5831 3.41499 25.5831 3.81731 25.2506L5.87679 23.5479C6.27905 23.2154 6.27905 22.6766 5.87685 22.344C5.47465 22.0115 4.82297 22.0115 4.42077 22.344Z" fill="#CE8369"/>
</svg>
