<svg width="30" height="30" viewBox="0 0 30 30" fill="none" xmlns="http://www.w3.org/2000/svg">
<path d="M2.17781 26.6272H6.44599V27.9H2.17781V26.6272ZM23.5551 26.6272H27.8142V27.9H23.5551V26.6272ZM0.455078 23.7636H29.546V25.4136H0.455078V23.7636ZM29.546 18.4227C29.546 14.1454 0.455078 14.1454 0.455078 18.4227V22.55H29.546V18.4227Z" fill="#CE8369"/>
<path d="M27.9456 15.5591L25.982 12.1182C25.8268 11.8478 25.6031 11.623 25.3333 11.4666C25.0636 11.3102 24.7574 11.2276 24.4456 11.2273H5.55469C4.92287 11.2273 4.33196 11.5682 4.01832 12.1182L2.05469 15.5546C5.41832 14.2546 11.0865 14 15.0001 14C18.9092 14.0046 24.582 14.2591 27.9456 15.5591Z" fill="#CE8369"/>
<path d="M5.55522 10.0182H6.55522L5.70977 9.17277L9.22795 5.65459L12.7461 9.17277L11.9007 10.0182H17.6507L16.8052 9.17277L20.3234 5.65459L23.8325 9.17277L22.987 10.0182H24.4416C25.5143 10.0182 26.5052 10.5955 27.0325 11.5228L27.2416 11.8864V6.6364C27.2416 5.33641 26.3961 4.18186 25.1507 3.80913C18.1189 1.6955 11.2689 1.3955 4.67795 3.73186C3.51886 4.1455 2.75977 5.26368 2.75977 6.4955V11.8864L2.96886 11.5182C3.22968 11.0626 3.60622 10.6839 4.06038 10.4205C4.51454 10.1571 5.03021 10.0183 5.55522 10.0182Z" fill="#CE8369"/>
</svg>
