<svg width="30" height="30" viewBox="0 0 30 30" fill="none" xmlns="http://www.w3.org/2000/svg">
<g clip-path="url(#clip0_349_28533)">
<path d="M17.1387 28.2996H15.8787V21.3752H14.1209V28.2996H12.8609C12.3757 28.2996 11.982 28.6933 11.982 29.1785C11.982 29.664 12.3757 30.0574 12.8609 30.0574H17.1387C17.6242 30.0574 18.0176 29.664 18.0176 29.1785C18.0176 28.6933 17.6242 28.2996 17.1387 28.2996ZM14.1209 8.16464H15.8787V14.3442H14.1209V8.16464ZM0.878734 6.40683H29.1209C29.5531 6.40683 29.9211 6.09236 29.9889 5.66544C30.0567 5.23853 29.8037 4.82568 29.3924 4.69202L15.2708 0.101554C15.0943 0.0441108 14.904 0.0441108 14.7275 0.101554L0.607034 4.69202C0.408055 4.75675 0.238694 4.89034 0.129408 5.06877C0.0201215 5.24721 -0.0219201 5.45878 0.0108429 5.66544C0.0435809 5.8721 0.148969 6.06029 0.308059 6.19619C0.467148 6.3321 0.669501 6.40678 0.878734 6.40683ZM5.66901 16.9809V18.7385C5.66901 19.224 6.06246 19.6174 6.54791 19.6174H23.4517C23.9372 19.6174 24.3307 19.224 24.3307 18.7385V16.9809C24.3307 16.4954 23.9372 16.102 23.4517 16.102H6.54791C6.06246 16.102 5.66901 16.4954 5.66901 16.9809ZM7.31215 23.0282H1.75881V17.8599C1.75881 17.3743 1.36506 16.9809 0.879906 16.9809C0.394398 16.9809 0.000999184 17.3743 0.000999184 17.8599V29.1794C0.000999184 29.6649 0.394398 30.0583 0.879906 30.0583C1.36506 30.0583 1.75881 29.6649 1.75881 29.1794V24.786H5.37604V29.1794C5.37604 29.6649 5.7695 30.0583 6.25495 30.0583C6.74016 30.0583 7.13385 29.6649 7.13385 29.1794V24.786H7.31215C7.79737 24.786 8.19106 24.3926 8.19106 23.9071C8.19106 23.4219 7.7976 23.0282 7.31215 23.0282ZM29.1205 16.9809C28.635 16.9809 28.2415 17.3743 28.2415 17.8599V23.0282H22.6882C22.2028 23.0282 21.8093 23.4219 21.8093 23.9071C21.8093 24.3926 22.2028 24.786 22.6882 24.786H22.8665V29.1794C22.8665 29.6649 23.26 30.0583 23.7454 30.0583C24.2309 30.0583 24.6243 29.6649 24.6243 29.1794V24.786H28.2415V29.1794C28.2415 29.6649 28.635 30.0583 29.1205 30.0583C29.6059 30.0583 29.9994 29.6649 29.9994 29.1794V17.8599C29.9994 17.3744 29.6059 16.981 29.1205 16.981V16.9809Z" fill="#CE8369"/>
</g>
<defs>
<clipPath id="clip0_349_28533">
<rect width="30" height="30" fill="white"/>
</clipPath>
</defs>
</svg>
