<svg width="30" height="30" viewBox="0 0 30 30" fill="none" xmlns="http://www.w3.org/2000/svg">
<g clip-path="url(#clip0_349_28552)">
<path fill-rule="evenodd" clip-rule="evenodd" d="M26.5248 20.2942V3.01147H15.397V20.2942H26.5248V20.2942ZM24.273 18.8018H17.2694C17.0597 18.8018 16.8896 18.6318 16.8896 18.422V5.26333C16.8896 5.05363 17.0597 4.88355 17.2694 4.88355H24.273C24.4827 4.88355 24.6528 5.05354 24.6528 5.26333V18.422C24.6528 18.6318 24.4828 18.8018 24.273 18.8018ZM15.397 26.5911H26.5248V21.0537H15.397V26.5911ZM17.0798 23.1489V24.4957C17.0798 24.7054 16.9098 24.8755 16.7 24.8755C16.4902 24.8755 16.3202 24.7055 16.3202 24.4957V23.1489C16.3202 22.9392 16.4902 22.7691 16.7 22.7691C16.9098 22.7691 17.0798 22.9392 17.0798 23.1489ZM14.6376 20.2942V3.01147H3.50977V20.2942H14.6376V20.2942ZM13.1056 8.9062V14.7791C13.1056 14.9888 12.9356 15.1589 12.7258 15.1589C12.5161 15.1589 12.346 14.9889 12.346 14.7791V8.9062C12.346 8.6965 12.516 8.52642 12.7258 8.52642C12.9356 8.52651 13.1056 8.6965 13.1056 8.9062ZM3.50977 26.5911H14.6376V21.0537H3.50977V26.5911ZM13.7143 23.1489V24.4957C13.7143 24.7054 13.5443 24.8755 13.3345 24.8755C13.1248 24.8755 12.9547 24.7055 12.9547 24.4957V23.1489C12.9547 22.9392 13.1247 22.7691 13.3345 22.7691C13.5443 22.7692 13.7143 22.9392 13.7143 23.1489ZM7.23741 29.9999H4.99474V27.3505H8.04672L7.23741 29.9999ZM22.7972 29.9999H25.04V27.3505H21.9879L22.7972 29.9999Z" fill="#CE8369"/>
<path d="M17.6484 5.64319H23.8926V18.0424H17.6484V5.64319Z" fill="#CE8369"/>
<path fill-rule="evenodd" clip-rule="evenodd" d="M1.99023 0H28.0426V2.25203H1.99023V0Z" fill="#CE8369"/>
</g>
<defs>
<clipPath id="clip0_349_28552">
<rect width="30" height="30" fill="white"/>
</clipPath>
</defs>
</svg>
