<svg width="30" height="30" viewBox="0 0 30 30" fill="none" xmlns="http://www.w3.org/2000/svg">
<g clip-path="url(#clip0_349_28560)">
<path d="M29.3867 26.3728L27.4309 24.417C27.0488 24.0349 26.4297 24.0349 26.0475 24.417C25.6654 24.7988 25.6654 25.4184 26.0475 25.8003L26.3342 26.0869H7.5791L7.86574 25.8003C8.24783 25.4185 8.24783 24.7988 7.86574 24.417C7.48365 24.0349 6.86455 24.0349 6.4824 24.417L4.52654 26.3728C4.33465 26.5644 4.23926 26.8258 4.23926 27.0652C4.23926 27.3097 4.33969 27.571 4.52654 27.7575L6.4824 29.7134C6.86455 30.0955 7.48353 30.0955 7.86574 29.7134C8.24783 29.3316 8.24783 28.7119 7.86574 28.33L7.5791 28.0434H26.3342L26.0475 28.33C25.6654 28.7118 25.6654 29.3315 26.0475 29.7134C26.4297 30.0955 27.0487 30.0955 27.4309 29.7134L29.3867 27.7575C29.5783 27.5664 29.674 27.3051 29.674 27.0652C29.674 26.8142 29.5737 26.5593 29.3867 26.3728ZM4.5259 20.504L4.23926 20.7905V3.33984L4.5259 3.62648C4.90805 4.00863 5.52703 4.00863 5.90924 3.62648C6.29138 3.24433 6.29138 2.62535 5.90924 2.24314L3.95268 0.28664C3.57059 -0.095449 2.95149 -0.095449 2.56934 0.28664L0.612841 2.24314C0.230694 2.62529 0.230694 3.24427 0.612841 3.62648C0.99493 4.00857 1.61403 4.00857 1.99618 3.62648L2.28276 3.33984V20.7905L1.99612 20.5039C1.61403 20.1218 0.99493 20.1218 0.612783 20.5039C0.230635 20.8861 0.230635 21.505 0.612783 21.8872L2.56928 23.8437C2.95143 24.2259 3.57041 24.2259 3.95262 23.8437L5.90912 21.8872C6.29127 21.5052 6.29127 20.8861 5.90918 20.504C5.52709 20.1219 4.90799 20.1219 4.5259 20.504ZM24.7827 7.82606H29.674V0.978279C29.674 0.43787 29.2358 0 28.6957 0H15.3262V7.82606H20.2175C20.7575 7.82606 21.1957 8.26393 21.1957 8.80434C21.1957 9.34475 20.7575 9.78262 20.2175 9.78262H15.3262V12.7174C15.3262 13.2578 14.8879 13.6957 14.3479 13.6957C13.8078 13.6957 13.3696 13.2578 13.3696 12.7174V0H9.13048C8.59042 0 8.1522 0.43787 8.1522 0.978279V21.1956C8.1522 21.736 8.59042 22.1739 9.13048 22.1739H13.3696V17.2826C13.3696 16.7422 13.8078 16.3043 14.3479 16.3043C14.8879 16.3043 15.3262 16.7422 15.3262 17.2826V22.1739H28.6957C29.2358 22.1739 29.674 21.736 29.674 21.1956V9.78262H24.7827C24.2427 9.78262 23.8044 9.34475 23.8044 8.80434C23.8044 8.26393 24.2426 7.82606 24.7827 7.82606Z" fill="#CE8369"/>
</g>
<defs>
<clipPath id="clip0_349_28560">
<rect width="30" height="30" fill="white"/>
</clipPath>
</defs>
</svg>
