<svg width="85" height="85" viewBox="0 0 85 85" fill="none" xmlns="http://www.w3.org/2000/svg">
<path d="M81.0994 81.7632H3.90234C2.43526 81.7632 1.24609 80.574 1.24609 79.1069C1.24609 77.6399 2.43526 76.4507 3.90234 76.4507H81.0994C82.5664 76.4507 83.7556 77.6399 83.7556 79.1069C83.7556 80.574 82.5664 81.7632 81.0994 81.7632Z" stroke="#CE8369" stroke-width="2" stroke-miterlimit="10" stroke-linecap="round" stroke-linejoin="round"/>
<path d="M78.5252 31.8686V54.2046H19.4238V35.6109" stroke="#CE8369" stroke-width="2" stroke-miterlimit="10" stroke-linecap="round" stroke-linejoin="round"/>
<path d="M24.4043 54.2046V38.5992L73.5448 27.979V54.2046H24.4043Z" stroke="#CE8369" stroke-width="2" stroke-miterlimit="10" stroke-linecap="round" stroke-linejoin="round"/>
<path d="M62.2559 30.6857V54.2046" stroke="#CE8369" stroke-width="2" stroke-miterlimit="10" stroke-linecap="round" stroke-linejoin="round"/>
<path d="M6.47461 67.6197V54.2047H78.5252V76.4507H6.47461V73.1174" stroke="#CE8369" stroke-width="2" stroke-miterlimit="10" stroke-linecap="round" stroke-linejoin="round"/>
<path d="M44.4101 76.4507H12.8672V59.8492H44.4101V76.4507Z" stroke="#CE8369" stroke-width="2" stroke-miterlimit="10" stroke-linecap="round" stroke-linejoin="round"/>
<path d="M48.9746 33.5805V54.2046" stroke="#CE8369" stroke-width="2" stroke-miterlimit="10" stroke-linecap="round" stroke-linejoin="round"/>
<path d="M35.6934 36.1594V54.2046" stroke="#CE8369" stroke-width="2" stroke-miterlimit="10" stroke-linecap="round" stroke-linejoin="round"/>
<path d="M32.9941 23.2428H23.0332V14.9421H32.9941V23.2428ZM68.7324 69.8101H54.123V59.8492H68.7324V69.8101Z" stroke="#CE8369" stroke-width="2" stroke-miterlimit="10" stroke-linecap="round" stroke-linejoin="round"/>
<path d="M61.4258 60.2706V69.749" stroke="#CE8369" stroke-width="2" stroke-miterlimit="10" stroke-linecap="round" stroke-linejoin="round"/>
<path d="M83.2841 18.9877C82.9969 17.6425 81.6733 16.7854 80.3287 17.0726L16.5801 30.685C15.2352 30.9722 14.3776 32.2954 14.6648 33.6402C14.9146 34.81 15.9478 35.6108 17.0976 35.6108C17.2699 35.6108 17.4449 35.5927 17.6202 35.5556L81.3688 21.943C82.7137 21.6558 83.5713 20.3328 83.2841 18.9877Z" stroke="#CE8369" stroke-width="2" stroke-miterlimit="10" stroke-linecap="round" stroke-linejoin="round"/>
<path d="M78.5254 22.9038V26.5405" stroke="#CE8369" stroke-width="2" stroke-miterlimit="10" stroke-linecap="round" stroke-linejoin="round"/>
<path d="M26.8718 4.30611L21.0178 3.27615C19.6641 3.03859 18.3722 3.9427 18.1338 5.29755C17.8955 6.65207 18.8005 7.9435 20.155 8.1819L56.0134 14.4911C57.1234 14.7111 58.6486 13.9152 58.8973 12.4696C59.1357 11.1152 58.2307 9.82363 56.876 9.58539L32.1582 5.23629" stroke="#CE8369" stroke-width="2" stroke-miterlimit="10" stroke-linecap="round" stroke-linejoin="round"/>
<path d="M23.0312 29.104V8.68796" stroke="#CE8369" stroke-width="2" stroke-miterlimit="10" stroke-linecap="round" stroke-linejoin="round"/>
<path d="M53.459 14.0404V22.5503" stroke="#CE8369" stroke-width="2" stroke-miterlimit="10" stroke-linecap="round" stroke-linejoin="round"/>
</svg>
