<svg width="85" height="85" viewBox="0 0 85 85" fill="none" xmlns="http://www.w3.org/2000/svg">
<g clip-path="url(#clip0_349_28855)">
<path d="M76.1203 55.1494L68.9552 61.9227L64.6587 57.8588C64.5399 57.7123 64.3913 57.5927 64.2227 57.5081C64.054 57.4235 63.8693 57.3758 63.6808 57.3681C63.4923 57.3605 63.3043 57.3931 63.1294 57.4638C62.9545 57.5344 62.7966 57.6416 62.6664 57.778C62.5361 57.9145 62.4364 58.0771 62.3739 58.2551C62.3113 58.4331 62.2875 58.6224 62.3038 58.8104C62.3202 58.9983 62.3764 59.1806 62.4687 59.3452C62.561 59.5097 62.6874 59.6527 62.8393 59.7645L68.0454 64.6918C68.291 64.9251 68.6164 65.0557 68.9552 65.0569C69.2962 65.0574 69.6243 64.9267 69.8716 64.6918L77.9398 57.1084C78.1669 56.8609 78.2918 56.5366 78.2894 56.2008C78.287 55.8649 78.1574 55.5424 77.9267 55.2983C77.6961 55.0541 77.3814 54.9065 77.0463 54.885C76.7111 54.8636 76.3802 54.9699 76.1203 55.1827V55.1494Z" fill="#CE8369" stroke="white" stroke-width="0.666667"/>
<path d="M70.3891 45.1554C62.3692 45.1223 55.8348 51.5853 55.78 59.6052C55.78 74.3272 69.061 84.3211 69.5988 84.7394C69.8275 84.9087 70.1045 85.0001 70.3891 85.0001C70.6736 85.0001 70.9506 84.9087 71.1793 84.7394C71.7172 84.3343 84.9981 74.3271 84.9981 59.6052C84.9434 51.5853 78.4091 45.1223 70.3891 45.1554ZM70.3891 81.9637C67.6001 79.6196 58.4362 71.0534 58.4362 59.6052C58.4362 53.0038 63.7877 47.6523 70.3891 47.6523C76.9904 47.6523 82.3419 53.0038 82.3419 59.6052C82.3421 71.0003 73.1716 79.6129 70.3891 81.9637ZM14.609 45.1554C6.58917 45.1223 0.0548384 51.5853 0 59.6052C0 74.3272 13.281 84.3344 13.8188 84.7394C14.0475 84.9087 14.3245 85.0001 14.609 85.0001C14.8936 85.0001 15.1706 84.9087 15.3993 84.7394C15.9372 84.3343 29.2181 74.3271 29.2181 59.6052C29.1633 51.5853 22.6289 45.1223 14.609 45.1554ZM14.609 81.9637C11.8201 79.6196 2.65618 71.0534 2.65618 59.6052C2.65618 53.0038 8.00768 47.6523 14.609 47.6523C21.2104 47.6523 26.5619 53.0038 26.5619 59.6052C26.5619 71.0003 17.3914 79.6129 14.609 81.9637Z" fill="#CE8369" stroke="white" stroke-width="0.666667"/>
<path d="M63.75 84.9986C64.4836 84.9986 65.0782 84.404 65.0782 83.6705C65.0782 82.9369 64.4836 82.3423 63.75 82.3423C63.0165 82.3423 62.4219 82.9369 62.4219 83.6705C62.4219 84.404 63.0165 84.9986 63.75 84.9986Z" fill="#CE8369" stroke="white" stroke-width="0.666667"/>
<path d="M58.4375 84.9986C59.1711 84.9986 59.7657 84.404 59.7657 83.6705C59.7657 82.9369 59.1711 82.3423 58.4375 82.3423C57.704 82.3423 57.1094 82.9369 57.1094 83.6705C57.1094 84.404 57.704 84.9986 58.4375 84.9986Z" fill="#CE8369" stroke="white" stroke-width="0.666667"/>
<path d="M53.125 84.9986C53.8586 84.9986 54.4532 84.404 54.4532 83.6705C54.4532 82.9369 53.8586 82.3423 53.125 82.3423C52.3915 82.3423 51.7969 82.9369 51.7969 83.6705C51.7969 84.404 52.3915 84.9986 53.125 84.9986Z" fill="#CE8369" stroke="white" stroke-width="0.666667"/>
<path d="M47.8125 84.9986C48.5461 84.9986 49.1407 84.404 49.1407 83.6705C49.1407 82.9369 48.5461 82.3423 47.8125 82.3423C47.079 82.3423 46.4844 82.9369 46.4844 83.6705C46.4844 84.404 47.079 84.9986 47.8125 84.9986Z" fill="#CE8369" stroke="white" stroke-width="0.666667"/>
<path d="M42.5 84.9986C43.2336 84.9986 43.8282 84.404 43.8282 83.6705C43.8282 82.9369 43.2336 82.3423 42.5 82.3423C41.7665 82.3423 41.1719 82.9369 41.1719 83.6705C41.1719 84.404 41.7665 84.9986 42.5 84.9986Z" fill="#CE8369" stroke="white" stroke-width="0.666667"/>
<path d="M37.1875 84.9986C37.9211 84.9986 38.5157 84.404 38.5157 83.6705C38.5157 82.9369 37.9211 82.3423 37.1875 82.3423C36.454 82.3423 35.8594 82.9369 35.8594 83.6705C35.8594 84.404 36.454 84.9986 37.1875 84.9986Z" fill="#CE8369" stroke="white" stroke-width="0.666667"/>
<path d="M31.875 84.9986C32.6086 84.9986 33.2032 84.404 33.2032 83.6705C33.2032 82.9369 32.6086 82.3423 31.875 82.3423C31.1415 82.3423 30.5469 82.9369 30.5469 83.6705C30.5469 84.404 31.1415 84.9986 31.875 84.9986Z" fill="#CE8369" stroke="white" stroke-width="0.666667"/>
<path d="M26.5625 84.9986C27.2961 84.9986 27.8907 84.404 27.8907 83.6705C27.8907 82.9369 27.2961 82.3423 26.5625 82.3423C25.829 82.3423 25.2344 82.9369 25.2344 83.6705C25.2344 84.404 25.829 84.9986 26.5625 84.9986Z" fill="#CE8369" stroke="white" stroke-width="0.666667"/>
<path d="M21.25 84.9986C21.9836 84.9986 22.5782 84.404 22.5782 83.6705C22.5782 82.9369 21.9836 82.3423 21.25 82.3423C20.5165 82.3423 19.9219 82.9369 19.9219 83.6705C19.9219 84.404 20.5165 84.9986 21.25 84.9986Z" fill="#CE8369" stroke="white" stroke-width="0.666667"/>
<path d="M14.6093 53.1245C10.9418 53.1245 7.96875 56.0975 7.96875 59.765C7.96875 63.4325 10.9418 66.4055 14.6093 66.4055C18.2768 66.4055 21.2498 63.4325 21.2498 59.765C21.2496 56.0975 18.2766 53.1245 14.6093 53.1245ZM14.6093 63.7492C12.4088 63.7492 10.6249 61.9654 10.6249 59.7648C10.6249 57.5643 12.4088 55.7805 14.6093 55.7805C16.8098 55.7805 18.5936 57.5643 18.5936 59.7648C18.5935 61.9654 16.8096 63.7492 14.6093 63.7492ZM42.4992 50.4683C56.4354 50.4683 67.7331 39.1706 67.7331 25.2344C67.7331 11.2982 56.4356 0.000488281 42.4992 0.000488281C28.5628 0.000488281 17.2654 11.2982 17.2654 25.2344C17.2654 39.1706 28.5629 50.4683 42.4992 50.4683ZM41.1712 2.6966V4.14427C41.1712 4.49653 41.3111 4.83435 41.5602 5.08343C41.8093 5.33251 42.1471 5.47244 42.4994 5.47244C42.8516 5.47244 43.1894 5.33251 43.4385 5.08343C43.6876 4.83435 43.8275 4.49653 43.8275 4.14427V2.6966C55.2507 3.37004 64.3637 12.483 65.0373 23.9064H63.5896C63.2374 23.9064 62.8996 24.0463 62.6505 24.2954C62.4014 24.5445 62.2615 24.8823 62.2615 25.2346C62.2615 25.5868 62.4014 25.9246 62.6505 26.1737C62.8996 26.4228 63.2374 26.5627 63.5896 26.5627H65.0373C64.3639 37.9859 55.2509 47.0989 43.8275 47.7725V46.3248C43.8275 45.9726 43.6876 45.6348 43.4385 45.3857C43.1894 45.1366 42.8516 44.9967 42.4994 44.9967C42.1471 44.9967 41.8093 45.1366 41.5602 45.3857C41.3111 45.6348 41.1712 45.9726 41.1712 46.3248V47.7725C29.748 47.0991 20.635 37.9861 19.9614 26.5627H21.4091C21.7613 26.5627 22.0991 26.4228 22.3482 26.1737C22.5973 25.9246 22.7372 25.5868 22.7372 25.2346C22.7372 24.8823 22.5973 24.5445 22.3482 24.2954C22.0991 24.0463 21.7613 23.9064 21.4091 23.9064H19.9614C20.635 12.483 29.748 3.37004 41.1712 2.6966Z" fill="#CE8369" stroke="white" stroke-width="0.666667"/>
<path d="M30.9326 38.1302C31.1206 38.1293 31.3062 38.0886 31.4772 38.0107L47.4875 30.8986C47.5553 30.8676 47.6198 30.8298 47.6801 30.7858L47.7598 30.7327C47.8062 30.6996 47.8462 30.6463 47.8926 30.6065C47.927 30.5766 47.9581 30.5433 47.9856 30.507C47.9856 30.507 48.0321 30.4273 48.0587 30.3942C48.0853 30.361 48.1251 30.288 48.1517 30.2347L55.2769 14.2113C55.3859 13.966 55.4181 13.6934 55.369 13.4294C55.32 13.1655 55.1922 12.9226 55.0024 12.7328C54.8125 12.5429 54.5696 12.4151 54.3057 12.3661C54.0418 12.3171 53.7692 12.3492 53.5238 12.4582L37.5136 19.5702C37.4458 19.6013 37.3812 19.6391 37.321 19.6831L37.2413 19.7362C37.1948 19.7693 37.1549 19.8226 37.1085 19.8623C37.0741 19.8922 37.043 19.9256 37.0154 19.9619C37.0154 19.995 36.969 20.0416 36.9424 20.0747C36.9157 20.1078 36.8759 20.1809 36.8493 20.2342L29.7241 36.2576C29.6333 36.4596 29.5945 36.6812 29.6112 36.902C29.6279 37.1229 29.6995 37.3361 29.8196 37.5222C29.9397 37.7083 30.1045 37.8614 30.2989 37.9676C30.4933 38.0738 30.7111 38.1297 30.9326 38.1302ZM51.4519 16.2829L46.518 27.3792L40.3556 21.2499L51.4519 16.2829ZM38.5162 23.0896L44.6785 29.2519L33.549 34.1858L38.5162 23.0896Z" fill="#CE8369" stroke="white" stroke-width="0.666667"/>
</g>
<defs>
<clipPath id="clip0_349_28855">
<rect width="85" height="85" fill="white"/>
</clipPath>
</defs>
</svg>
