<svg width="85" height="85" viewBox="0 0 85 85" fill="none" xmlns="http://www.w3.org/2000/svg">
<g clip-path="url(#clip0_349_28878)">
<path d="M75.0928 47.7799C73.1935 47.2433 71.2799 47.9623 70.218 49.6121C70.0049 49.9436 69.849 50.2462 69.742 50.5367C68.9548 52.6718 67.6318 56.1976 66.7283 58.6004C65.7742 57.7123 64.4426 57.3322 63.093 57.6371C61.9292 57.9001 61.1542 58.4293 61.0105 58.533C61.0044 58.5373 60.9984 58.5419 60.9923 58.5465C60.9751 58.5594 60.9582 58.5726 60.9415 58.5861L56.9337 61.8667C56.4429 62.2684 55.9147 62.5627 55.3638 62.7414C52.3833 63.7073 49.7273 66.3486 49.1352 67.8171C48.6517 69.0164 48.2967 73.8415 48.1995 75.292C48.1938 75.3796 48.1978 75.4676 48.2115 75.5543C46.8526 76.0019 45.8196 77.2006 45.6411 78.6901L45.5347 79.5758C45.2869 81.6439 46.7677 83.528 48.8358 83.7757L58.7135 84.9594C58.8636 84.9772 59.0157 84.9864 59.1662 84.9864C61.0753 84.9864 62.686 83.5557 62.9133 81.6583L63.0194 80.7726C63.1443 79.7303 62.8297 78.7348 62.2223 77.9719C65.8616 74.3401 71.3037 68.8726 72.2735 67.6872C73.8511 65.7608 78.165 52.5873 78.1989 52.4676C78.2475 52.2976 78.2669 52.1092 78.2618 51.8556C78.2203 49.9117 76.9766 48.312 75.0928 47.7799ZM60.6562 80.4892L60.5501 81.3747C60.466 82.0768 59.871 82.6061 59.166 82.6061C59.1099 82.6061 59.0528 82.6027 58.9965 82.5959L49.1188 81.4121C48.3538 81.3203 47.8059 80.6233 47.8976 79.8587L48.0038 78.973C48.088 78.2709 48.6829 77.7418 49.3879 77.7418C49.444 77.7418 49.5012 77.7452 49.5574 77.752L59.4351 78.9356C60.2001 79.0272 60.7478 79.7242 60.6562 80.4892ZM70.4316 66.1793C69.7463 67.0169 65.9213 70.9216 60.1705 76.6559C60.0216 76.619 59.8705 76.5912 59.7182 76.5726L50.571 75.4766C50.5717 75.4681 50.5734 75.4596 50.5739 75.4511C50.7609 72.6643 51.1077 69.2934 51.3423 68.7067C51.5998 68.068 53.6345 65.8031 56.0975 65.0053C56.9315 64.7348 57.7201 64.2984 58.4409 63.7082L62.4183 60.4525C62.5092 60.392 62.9597 60.1074 63.6171 59.9588C64.5572 59.7472 65.1988 60.28 65.4863 60.8493C65.6013 61.0765 65.6684 61.325 65.6833 61.5793C65.6829 61.6085 65.6831 61.6377 65.6848 61.6668C65.6858 62.0945 65.5238 62.5483 65.0827 62.9296C62.5561 65.1141 59.592 67.6012 59.5623 67.626C59.4425 67.7264 59.3438 67.8495 59.2716 67.9881C59.1994 68.1267 59.1552 68.2782 59.1416 68.4338C59.128 68.5895 59.1451 68.7464 59.1921 68.8954C59.2391 69.0445 59.315 69.1828 59.4154 69.3025C59.5158 69.4223 59.6389 69.521 59.7775 69.5932C59.9161 69.6654 60.0676 69.7096 60.2232 69.7232C60.3789 69.7368 60.5358 69.7197 60.6848 69.6727C60.8339 69.6257 60.9722 69.5499 61.0919 69.4494C61.1217 69.4244 64.0989 66.9261 66.639 64.7297C67.5298 63.9596 68.0181 62.9087 68.0611 61.8147C68.5078 60.6293 70.8173 54.4988 71.9748 51.3601C72.0063 51.2747 72.0743 51.1255 72.2193 50.9C72.8046 49.9899 73.7528 49.8753 74.4454 50.0703C75.1251 50.2624 75.8591 50.8455 75.8818 51.9056C75.882 51.9069 75.8822 51.9083 75.8821 51.9097C75.3728 53.6035 71.4648 64.9179 70.4316 66.1793ZM13.1601 30.32H21.1147V46.8885C21.1147 51.3176 24.7181 54.9207 29.1471 54.9207H56.3183C60.7473 54.9207 64.3507 51.3176 64.3507 46.8885V30.32H71.8402C72.1808 30.3215 72.5139 30.2193 72.7951 30.027C73.0763 29.8347 73.2924 29.5614 73.4146 29.2434C73.5395 28.9265 73.565 28.579 73.4877 28.2472C73.4105 27.9154 73.2341 27.615 72.9821 27.3858L43.4777 0.327935C43.259 0.127537 42.9734 0.0159906 42.6768 0.0151416C42.3802 0.0142926 42.0939 0.124202 41.8741 0.323345L12.0257 27.3788C11.7715 27.6071 11.5931 27.9074 11.5142 28.2397C11.4352 28.572 11.4596 28.9205 11.584 29.2386C11.7055 29.5578 11.9214 29.8324 12.2031 30.0256C12.4847 30.2188 12.8186 30.3216 13.1601 30.32ZM42.6687 2.81537L70.0649 27.94H63.1605C62.8449 27.94 62.5422 28.0654 62.319 28.2886C62.0959 28.5117 61.9705 28.8144 61.9705 29.13V46.8884C61.9705 50.005 59.4349 52.5405 56.3182 52.5405H29.1469C26.0303 52.5405 23.4946 50.005 23.4946 46.8884V29.13C23.4946 28.8144 23.3692 28.5117 23.146 28.2886C22.9228 28.0654 22.6202 27.94 22.3046 27.94H14.9505L42.6687 2.81537Z" fill="#CE8369" stroke="white" stroke-width="0.266667"/>
<path d="M40.7333 44.0131C41.2617 44.3932 41.8793 44.5942 42.5192 44.5942C43.1394 44.5942 43.7412 44.4045 44.2595 44.0451C46.0887 42.7769 49.5256 40.1674 51.9931 36.9386C56.0782 31.5933 55.1281 27.6317 53.6117 25.2499C52.3928 23.3353 50.5956 22.3235 48.4143 22.3235C46.0178 22.3235 43.7056 23.5523 42.5612 24.2688C41.4031 23.4899 39.0165 22.1226 36.5335 22.1226C34.458 22.1226 32.7117 23.0756 31.4835 24.8783C29.889 27.219 28.8502 31.1628 32.9555 36.6596C35.4268 39.9683 38.8894 42.6871 40.7333 44.0131ZM33.4505 26.2184C34.237 25.0637 35.2456 24.5026 36.5335 24.5026C39.0835 24.5026 41.7656 26.6252 41.7909 26.6454C41.9972 26.8111 42.2528 26.9035 42.5173 26.908C42.7819 26.9125 43.0404 26.8288 43.2522 26.6702C43.2784 26.6505 45.909 24.7033 48.4143 24.7033C49.779 24.7033 50.8225 25.3004 51.6042 26.5281C55.5096 32.6622 45.9319 39.9897 42.9037 42.0894C42.6632 42.2558 42.3616 42.2526 42.1231 42.0812C39.0561 39.8755 29.3668 32.2132 33.4505 26.2184ZM39.3599 78.6901C39.1814 77.2004 38.1483 76.0019 36.7893 75.5541C36.803 75.4673 36.807 75.3794 36.8014 75.2918C36.7042 73.8415 36.3492 69.0162 35.8659 67.8169C35.274 66.3481 32.6179 63.7069 29.6373 62.7412C29.0863 62.5625 28.5579 62.2684 28.0672 61.8665L24.0594 58.5859L24.028 58.561C24.0154 58.5512 24.0026 58.5415 23.9897 58.5321C23.8461 58.429 23.0702 57.8996 21.9077 57.6369C20.5583 57.3321 19.2266 57.7121 18.2724 58.6003C17.3689 56.1975 16.0461 52.6719 15.2588 50.5372C15.1517 50.2465 14.996 49.9439 14.7825 49.6119C13.7209 47.9624 11.8073 47.2436 9.90793 47.7798C8.02416 48.3119 6.78044 49.9116 6.73913 51.8561C6.73386 52.108 6.75307 52.296 6.80118 52.465C6.83586 52.5872 11.1518 65.7628 12.7272 67.6868C13.6962 68.8709 19.1379 74.3386 22.7779 77.9706C22.7728 77.9769 22.7671 77.9825 22.7621 77.9888C22.4544 78.3781 22.227 78.8246 22.093 79.3024C21.959 79.7802 21.9211 80.2799 21.9815 80.7724L22.0876 81.6579C22.3149 83.5551 23.9258 84.9858 25.8347 84.986H25.8351C25.9852 84.986 26.1375 84.9768 26.2874 84.9588L36.1651 83.7753C38.2332 83.5276 39.7139 81.6435 39.466 79.5754L39.3599 78.6901ZM14.5688 66.1792C13.5376 64.9195 9.62964 53.6081 9.11862 51.9098V51.9061C9.14106 50.8453 9.87529 50.2622 10.5548 50.0704C11.2472 49.8747 12.1954 49.9898 12.7809 50.8998C12.9261 51.1256 12.9939 51.2745 13.0256 51.3603C14.1829 54.4986 16.4922 60.6282 16.9391 61.8145C16.982 62.9086 17.4704 63.9599 18.361 64.7298C20.9013 66.9262 23.8787 69.4244 23.9084 69.4495C24.1503 69.6522 24.4628 69.7506 24.7771 69.7231C25.0915 69.6955 25.382 69.5443 25.585 69.3027C25.6854 69.1829 25.7613 69.0446 25.8083 68.8955C25.8552 68.7465 25.8724 68.5896 25.8587 68.4339C25.845 68.2783 25.8009 68.1268 25.7287 67.9882C25.6565 67.8496 25.5577 67.7265 25.4379 67.6261C25.4084 67.6013 22.4442 65.1142 19.9175 62.9297C19.4769 62.5486 19.3147 62.0953 19.3156 61.6678C19.3172 61.6382 19.3178 61.6085 19.3173 61.5789C19.3323 61.3249 19.3993 61.0766 19.5143 60.8496C19.8018 60.2799 20.4437 59.7473 21.3833 59.9591C22.0396 60.1074 22.4895 60.3909 22.5818 60.4526L26.5594 63.7086C27.2806 64.2989 28.069 64.7351 28.9032 65.0056C31.3658 65.8036 33.4007 68.0685 33.6583 68.707C33.8927 69.2933 34.2395 72.6642 34.4265 75.4514C34.427 75.4599 34.4287 75.4682 34.4294 75.4769L25.2822 76.5729C25.1287 76.5912 24.9789 76.6217 24.831 76.6577C19.0789 70.9212 15.2536 67.0158 14.5688 66.1792ZM36.8142 80.8885C36.7011 81.0331 36.5605 81.1539 36.4005 81.2439C36.2405 81.3338 36.0642 81.3911 35.8819 81.4124L26.0042 82.5962C25.9478 82.603 25.8908 82.6064 25.8351 82.6064C25.1301 82.6064 24.5347 82.077 24.4506 81.375L24.3445 80.4893C24.3222 80.3072 24.3362 80.1224 24.3858 79.9457C24.4354 79.7689 24.5195 79.6038 24.6333 79.4598C24.7463 79.3152 24.8869 79.1944 25.047 79.1044C25.207 79.0145 25.3833 78.9572 25.5656 78.9359L35.4431 77.7523C35.4996 77.7455 35.5565 77.7421 35.6126 77.7421C36.3176 77.7421 36.9126 78.2714 36.9967 78.9733L37.1028 79.8588C37.1252 80.041 37.1112 80.2258 37.0617 80.4026C37.0121 80.5793 36.928 80.7445 36.8142 80.8885Z" fill="#CE8369" stroke="white" stroke-width="0.266667"/>
</g>
<defs>
<clipPath id="clip0_349_28878">
<rect width="85" height="85" fill="white"/>
</clipPath>
</defs>
</svg>
