<svg width="85" height="85" viewBox="0 0 85 85" fill="none" xmlns="http://www.w3.org/2000/svg">
<g clip-path="url(#clip0_349_28870)">
<path fill-rule="evenodd" clip-rule="evenodd" d="M42.5 75.3716H42.168C30.5469 70.2251 24.0723 64.0825 20.752 59.7661C17.0996 55.1177 16.2695 51.4653 16.2695 51.4653V20.4204C16.2695 19.9224 16.4355 19.5903 16.9336 19.4243L42.168 9.62939H42.832L68.0664 19.4243C68.5645 19.5903 68.7305 19.9224 68.7305 20.4204V51.4653C68.7305 51.4653 67.9004 55.1177 64.248 59.7661C60.9277 64.0825 54.4531 70.2251 42.832 75.3716H42.5ZM18.2617 50.9673C18.4277 51.6313 19.4238 54.6196 22.4121 58.77C25.5664 62.7544 31.543 68.5649 42.5 73.3794C53.457 68.5649 59.4336 62.7544 62.5879 58.77C65.5762 54.7856 66.5723 51.6313 66.7383 50.9673V21.0845L42.5 11.6216L18.2617 21.0845V50.9673Z" fill="#CE8369"/>
<path fill-rule="evenodd" clip-rule="evenodd" d="M42.5 85.0005C42.334 85.0005 42.168 85.0005 42.168 84.8345C27.0605 78.3599 18.7598 70.3911 14.4434 64.7466C9.79492 58.77 8.79883 54.1216 8.63281 53.9556V13.7798C8.63281 13.4478 8.96484 12.9497 9.29688 12.7837L42.168 0.000488281H42.832L75.7031 12.7837C76.0352 12.9497 76.3672 13.4478 76.3672 13.7798V53.9556C76.2012 54.1216 75.2051 58.77 70.5566 64.7466C66.2402 70.3911 57.9395 78.3599 42.832 84.8345C42.832 85.0005 42.666 85.0005 42.5 85.0005ZM10.625 53.6235C10.791 54.2876 12.1191 58.438 16.1035 63.7505C20.2539 69.063 28.2227 76.5337 42.5 82.8423C56.9434 76.5337 64.7461 68.897 68.8965 63.5845C73.0469 58.272 74.209 54.2876 74.375 53.6235V14.4438L42.5 1.99268L10.625 14.4438V53.6235Z" fill="#CE8369"/>
<path fill-rule="evenodd" clip-rule="evenodd" d="M53.623 41.3384C53.291 41.3384 52.959 41.1724 52.793 41.0063C50.4688 37.52 46.6504 35.5278 42.5 35.5278C38.3496 35.5278 34.5312 37.52 32.207 41.0063C31.875 41.3384 31.543 41.5044 31.0449 41.3384C30.7129 41.1724 30.3809 40.8403 30.3809 40.3423V34.5317C30.3809 27.7251 35.8594 22.4126 42.5 22.4126C49.1406 22.4126 54.6191 27.7251 54.6191 34.5317V40.3423C54.6191 40.8403 54.2871 41.1724 53.9551 41.3384H53.623ZM42.5 33.5356C46.3184 33.5356 49.9707 35.0298 52.627 37.686V34.5317C52.627 28.8872 48.1445 24.4048 42.5 24.4048C36.8555 24.4048 32.373 28.8872 32.373 34.5317V37.686C35.0293 35.0298 38.6816 33.5356 42.5 33.5356Z" fill="#CE8369"/>
<path fill-rule="evenodd" clip-rule="evenodd" d="M42.5 62.5884C34.5312 62.5884 27.8906 56.1138 27.8906 48.145C27.8906 40.0103 34.5312 33.5356 42.5 33.5356C50.4688 33.5356 57.1094 40.0103 57.1094 48.145C57.1094 56.1138 50.4688 62.5884 42.5 62.5884ZM42.5 35.5278C35.5273 35.5278 29.8828 41.1724 29.8828 48.145C29.8828 55.1177 35.5273 60.5962 42.5 60.5962C49.4727 60.5962 55.1172 55.1177 55.1172 48.145C55.1172 41.1724 49.4727 35.5278 42.5 35.5278Z" fill="#CE8369"/>
<path fill-rule="evenodd" clip-rule="evenodd" d="M42.5 57.1099C37.5195 57.1099 33.3691 53.1255 33.3691 48.145C33.3691 43.1646 37.5195 39.0142 42.5 39.0142C47.4805 39.0142 51.6309 43.1646 51.6309 48.145C51.6309 53.1255 47.4805 57.1099 42.5 57.1099ZM42.5 41.0063C38.5156 41.0063 35.3613 44.1606 35.3613 48.145C35.3613 51.9634 38.5156 55.1177 42.5 55.1177C46.4844 55.1177 49.6387 51.9634 49.6387 48.145C49.6387 44.1606 46.4844 41.0063 42.5 41.0063Z" fill="#CE8369"/>
<path fill-rule="evenodd" clip-rule="evenodd" d="M40.6729 51.7974C40.5068 51.7974 40.1748 51.6313 40.0088 51.4653L38.1826 49.6392C37.8506 49.3071 37.8506 48.6431 38.1826 48.311C38.5146 47.813 39.1787 47.813 39.6768 48.311L40.6729 49.3071L45.3213 44.6587C45.8193 44.3267 46.4834 44.3267 46.8154 44.6587C47.1475 45.1567 47.1475 45.8208 46.8154 46.1528L41.5029 51.4653C41.3369 51.6313 41.0049 51.7974 40.6729 51.7974Z" fill="#CE8369"/>
</g>
<defs>
<clipPath id="clip0_349_28870">
<rect width="85" height="85" fill="white"/>
</clipPath>
</defs>
</svg>
